<?xml version="1.0" encoding="UTF-8" standalone="no"?>
<!-- Created with Inkscape (http://www.inkscape.org/) -->

<svg
   xmlns:dc="http://purl.org/dc/elements/1.1/"
   xmlns:cc="http://creativecommons.org/ns#"
   xmlns:rdf="http://www.w3.org/1999/02/22-rdf-syntax-ns#"
   xmlns:svg="http://www.w3.org/2000/svg"
   xmlns="http://www.w3.org/2000/svg"
   xmlns:sodipodi="http://sodipodi.sourceforge.net/DTD/sodipodi-0.dtd"
   xmlns:inkscape="http://www.inkscape.org/namespaces/inkscape"
   width="143.18251mm"
   height="155.70726mm"
   viewBox="0 0 143.18251 155.70726"
   version="1.1"
   id="svg8"
   inkscape:version="0.92.4 5da689c313, 2019-01-14"
   sodipodi:docname="book-icon.svg">
  <defs
     id="defs2" />
  <sodipodi:namedview
     id="base"
     pagecolor="#ffffff"
     bordercolor="#666666"
     borderopacity="1.0"
     inkscape:pageopacity="0.0"
     inkscape:pageshadow="2"
     inkscape:zoom="0.49497475"
     inkscape:cx="-410.59969"
     inkscape:cy="82.340552"
     inkscape:document-units="mm"
     inkscape:current-layer="layer1"
     showgrid="false"
     inkscape:window-width="1920"
     inkscape:window-height="1036"
     inkscape:window-x="1920"
     inkscape:window-y="20"
     inkscape:window-maximized="0"
     showguides="true"
     inkscape:guide-bbox="true" />
  <metadata
     id="metadata5">
    <rdf:RDF>
      <cc:Work
         rdf:about="">
        <dc:format>image/svg+xml</dc:format>
        <dc:type
           rdf:resource="http://purl.org/dc/dcmitype/StillImage" />
        <dc:title />
      </cc:Work>
    </rdf:RDF>
  </metadata>
  <g
     inkscape:groupmode="layer"
     id="layer6"
     inkscape:label="Behind"
     style="display:inline"
     transform="translate(-37.970926,-58.82625)">
    <path
       style="display:inline;opacity:1;fill:#463114;fill-opacity:1;stroke:#000000;stroke-width:0.26458332px;stroke-linecap:butt;stroke-linejoin:miter;stroke-opacity:1"
       d="m 44.405131,176.40084 0.389753,-13.97804 7.176841,-13.21149 8.535977,15.01798 -8.772213,8.65278 z"
       id="path872"
       inkscape:connector-curvature="0"
       sodipodi:nodetypes="cccccc" />
  </g>
  <g
     inkscape:groupmode="layer"
     id="layer4"
     inkscape:label="Bottom"
     style="display:inline"
     transform="translate(-37.970926,-58.82625)">
    <path
       style="fill:#724602;fill-opacity:1;stroke:#000000;stroke-width:0.71351528;stroke-linecap:butt;stroke-linejoin:miter;stroke-miterlimit:4;stroke-dasharray:none;stroke-opacity:1"
       d="m 175.88518,111.38102 c -43.51958,21.43704 -88.173083,43.72453 -131.692661,65.16156 26.54255,12.50843 53.746558,25.01685 80.289101,37.52528 18.07847,-32.89987 37.40103,-68.38635 55.4795,-101.28621 -0.84767,-0.97586 -2.13671,-1.40875 -3.274,-2.15056 -3.58946,-1.95262 -0.66658,0.59393 -0.80194,0.74993 z"
       id="path843"
       inkscape:connector-curvature="0"
       sodipodi:nodetypes="cccccc" />
  </g>
  <g
     inkscape:groupmode="layer"
     id="layer3"
     inkscape:label="Edge"
     style="display:inline"
     transform="translate(-37.970926,-58.82625)">
    <path
       style="opacity:1;fill:#724602;fill-opacity:1;stroke:#000000;stroke-width:0.79600257;stroke-linecap:butt;stroke-linejoin:miter;stroke-miterlimit:4;stroke-dasharray:none;stroke-opacity:1"
       d="M 44.794885,162.4228 101.09722,62.221235 C 100.5215,60.63693 98.497146,57.956313 95.350208,59.881626 L 38.316864,160.13349 c 2.685215,-1.98775 6.101712,-0.0163 6.478021,2.28931 z"
       id="path830"
       inkscape:connector-curvature="0"
       sodipodi:nodetypes="ccccc" />
    <path
       style="fill:#724602;fill-opacity:1;stroke:#000000;stroke-width:0.65989852;stroke-linecap:butt;stroke-linejoin:miter;stroke-miterlimit:4;stroke-dasharray:none;stroke-opacity:1"
       d="m 38.316864,160.13349 0.670403,16.07112 c 0.863482,0.64074 2.59559,0.67152 3.459072,0.81504 1.335811,-0.28767 1.560861,-0.65146 2.278267,-1.19377 l 0.07028,-13.40308 c -0.425417,-1.6968 -3.009306,-4.20885 -6.478022,-2.28931 z"
       id="path834"
       inkscape:connector-curvature="0"
       sodipodi:nodetypes="cccccc" />
    <path
       style="display:inline;fill:#7f5126;fill-opacity:1;stroke:#000000;stroke-width:0.565;stroke-linecap:butt;stroke-linejoin:miter;stroke-miterlimit:4;stroke-dasharray:none;stroke-opacity:1"
       d="m 169.36388,123.10793 0.15641,5.53724 c 0,0 1.29834,0.87705 1.63243,1.14432 l 9.6217,-17.84024 -5.10449,-2.94144 -1.27657,2.3735 -7.08264,14.56619 z"
       id="path1026"
       inkscape:connector-curvature="0"
       sodipodi:nodetypes="cccccccc" />
    <path
       style="display:inline;fill:#7f5126;fill-opacity:1;stroke:#000000;stroke-width:0.565;stroke-linecap:butt;stroke-linejoin:miter;stroke-miterlimit:4;stroke-dasharray:none;stroke-opacity:1"
       d="m 125.35352,197.18359 c -4.90821,1.51563 -9.81641,3.03125 -14.72461,4.54688 -0.21843,0.10295 0.37531,0.2721 0.18015,0.41444 -0.16757,0.22482 -0.31553,0.46325 -0.47266,0.69531 -0.21612,0.14487 0.6582,0.76694 0.42172,0.87787 -0.2819,0.0768 -0.5638,0.15365 -0.8457,0.23047 -0.62891,0.1543 -1.26668,0.28793 -1.89558,0.44222 -0.0719,0.0866 -0.14042,0.20157 -0.20794,0.29997 -0.14395,0.25223 -0.29265,0.50162 -0.44613,0.74816 -0.12743,0.21996 -0.25465,0.44004 -0.38199,0.66004 -0.0166,0.0783 0.033,0.14629 0.0644,0.2129 0.22141,0.13671 0.45922,0.24305 0.69336,0.35546 6.25521,2.82552 10.52695,4.66361 16.78215,7.48913 0.0894,-0.0413 0.16042,-0.11093 0.23633,-0.17188 0.16011,-0.20958 0.28998,-0.43941 0.42383,-0.66601 l 8.53469,-15.60752 -1.1289,-0.67578 c -0.12222,-0.0335 -0.24948,-0.0309 -0.375,-0.0352 -0.28808,0.0409 -0.57068,0.11059 -0.85346,0.17772 -0.3659,0.0911 -0.73181,0.1823 -1.09772,0.27345 l -0.49218,0.11133 c -0.25194,-0.0715 -0.50864,-0.13154 -0.74805,-0.24023 -0.23373,-0.11394 -0.46745,-0.22787 -0.70117,-0.3418 -0.15533,-0.0519 -0.31846,-0.0811 -0.48242,-0.0801 -1.12696,0.34636 -1.35622,-0.0632 -2.48317,0.28311 z"
       id="path1074"
       inkscape:connector-curvature="0"
       sodipodi:nodetypes="cccccccccccccccccccccccccc" />
  </g>
  <g
     inkscape:groupmode="layer"
     id="layer2"
     inkscape:label="Pages"
     style="display:inline"
     transform="translate(-37.970926,-58.82625)">
    <path
       style="display:inline;opacity:1;fill:#dcdcc5;fill-opacity:1;stroke:#000000;stroke-width:0.74073607;stroke-linecap:butt;stroke-linejoin:miter;stroke-miterlimit:4;stroke-dasharray:none;stroke-opacity:1"
       d="M 101.59375,65.142578 C 95.501202,75.415175 89.562505,85.777799 83.589748,96.120201 71.452663,117.20485 59.419724,138.34996 47.555874,159.58956 c -0.755207,1.38586 -1.249139,2.909 -1.442048,4.4759 -0.279205,1.937 -0.357529,3.90486 -0.243405,5.85784 0.113095,1.19181 0.170046,2.39756 0.02071,3.5879 0.0238,0.64538 0.532631,1.20523 1.156172,1.33998 1.425556,0.5468 2.879312,1.02333 4.26433,1.67114 3.206437,1.42568 6.302279,3.08764 9.523989,4.48035 3.365074,1.51837 6.685836,3.13306 9.977346,4.80416 8.675696,4.18158 17.393424,8.27529 26.138489,12.30964 8.740043,4.04818 17.489563,8.07585 26.236043,12.11009 0.62723,0.12153 1.11329,-0.46032 1.28103,-1.00141 6.06705,-11.05948 11.84902,-22.27162 17.7656,-33.41157 10.85426,-20.59711 21.77046,-41.16181 32.82642,-61.65147 0.47053,-0.97469 1.14458,-1.87474 1.38378,-2.94476 0.0738,-1.07753 -0.63491,-1.98663 -0.8332,-3.01329 -0.47284,-1.69048 -0.92323,-3.40387 -1.73018,-4.97289 -0.68523,-1.55446 -1.34095,-3.21162 -2.65978,-4.350849 -2.50852,-2.431852 -5.51561,-4.258903 -8.51513,-6.013601 -5.11198,-2.829509 -10.69439,-4.627641 -16.13467,-6.698708 -5.52733,-2.055928 -11.00991,-4.26327 -16.26379,-6.952333 -9.5273,-4.691793 -19.05564,-9.38144 -28.58492,-14.069195 -0.0429,-0.0093 -0.0856,-0.0082 -0.12891,-0.0039 z"
       id="path819"
       inkscape:connector-curvature="0"
       sodipodi:nodetypes="ccscccccssscccccccccccccccccsccccccccccccccccccccccccccccccccccccccccc" />
    <path
       style="display:inline;opacity:1;fill:none;stroke:#000000;stroke-width:0.65053892;stroke-linecap:butt;stroke-linejoin:miter;stroke-miterlimit:4;stroke-dasharray:none;stroke-opacity:1"
       d="M 123.66217,207.66588 45.824511,171.4765"
       id="path883-9"
       inkscape:connector-curvature="0"
       sodipodi:nodetypes="cc" />
    <path
       style="display:inline;opacity:1;fill:none;stroke:#000000;stroke-width:0.55449688;stroke-linecap:butt;stroke-linejoin:miter;stroke-miterlimit:4;stroke-dasharray:none;stroke-opacity:1"
       d="M 123.12389,205.14752 46.012466,168.62928"
       id="path883-5-8"
       inkscape:connector-curvature="0" />
    <path
       style="display:inline;opacity:1;fill:none;stroke:#000000;stroke-width:0.56;stroke-linecap:butt;stroke-linejoin:miter;stroke-miterlimit:4;stroke-dasharray:none;stroke-opacity:1"
       d="M 122.24303,202.62288 46.280824,166.42553"
       id="path883-1-5"
       inkscape:connector-curvature="0" />
  </g>
  <g
     inkscape:label="Top"
     inkscape:groupmode="layer"
     id="layer1"
     style="display:inline;opacity:1"
     transform="translate(-37.970926,-58.82625)">
    <path
       style="opacity:1;fill:#724602;fill-opacity:1;stroke:#000000;stroke-width:0.74156094;stroke-miterlimit:4;stroke-dasharray:none;stroke-dashoffset:0;stroke-opacity:1"
       d="m 101.03516,62.480469 c -0.92604,1.259905 -1.693316,2.625008 -2.538943,3.938031 -2.25217,3.630659 -4.414408,7.316273 -6.528919,11.028558 -2.432989,4.268141 -4.811768,8.566828 -7.212076,12.85336 -2.691438,4.823177 -5.364571,9.656548 -8.048189,14.484082 -5.015465,9.04962 -10.023368,18.10342 -15.03045,27.15768 -2.22769,4.0204 -4.446048,8.04599 -6.679868,12.06298 -1.412036,2.52508 -2.816334,5.05476 -4.254221,7.56518 -1.190352,1.99755 -2.389216,3.99026 -3.633119,5.95505 -0.41964,0.676 -0.814583,1.36696 -1.220703,2.05078 -0.140907,0.27408 -0.263609,0.55689 -0.402344,0.83203 -0.02135,0.30132 0.291803,0.47867 0.556765,0.49309 0.31516,0.0506 0.599549,0.19927 0.866607,0.36739 1.23142,0.7025 2.360523,1.61844 3.726294,2.0583 0.249422,0.0847 0.506637,0.1423 0.76635,0.18474 4.822203,2.44728 9.83627,4.48327 14.750767,6.73234 1.551242,0.71676 3.085904,1.46905 4.642838,2.17367 2.574425,1.19065 5.163257,2.35066 7.723103,3.57248 2.594645,1.28409 5.182427,2.5826 7.801269,3.817 7.290308,3.48746 14.570909,6.99524 21.837189,10.5325 3.98526,1.93624 7.97052,3.87249 11.95577,5.80873 0.72285,0.26485 1.55742,-0.0399 2.04847,-0.60584 0.30268,-0.33977 0.44547,-0.78248 0.67517,-1.16915 4.52288,-8.63192 9.06145,-17.25567 13.55464,-25.9031 2.75727,-5.30665 5.50879,-10.61636 8.21659,-15.94847 1.70038,-3.33575 3.39678,-6.67388 5.14792,-9.98333 1.83096,-3.31924 4.08507,-6.37503 6.17166,-9.53269 0.88516,-1.34189 1.7003,-2.73345 2.36433,-4.199 1.42414,-3.08119 2.73634,-6.21298 4.18267,-9.2841 1.8981,-4.10813 3.97114,-8.13241 6.08564,-12.13254 0.95478,-1.82605 1.93332,-3.6411 2.81058,-5.50625 0.34804,-0.75442 0.69268,-1.51257 0.97606,-2.29385 0.20017,-0.57917 0.35631,-1.172234 0.51432,-1.763948 -0.0314,-0.603169 -0.47971,-1.084128 -0.96131,-1.397943 -2.41443,-1.486236 -5.02899,-2.599432 -7.56067,-3.863524 -3.02599,-1.474344 -6.07298,-2.905189 -9.11929,-4.336944 -6.50966,-3.044413 -13.04706,-6.028939 -19.58389,-9.014411 -4.21362,-1.930117 -8.43075,-3.852863 -12.62826,-5.817837 -2.84851,-1.334615 -5.67089,-2.724107 -8.47895,-4.141643 -4.48863,-2.251117 -8.96846,-4.519679 -13.44888,-6.787073 z"
       id="rect815"
       inkscape:connector-curvature="0"
       sodipodi:nodetypes="ccccccccccccccccccccccccccccc" />
    <path
       style="fill:#99612e;fill-opacity:1;stroke:#000000;stroke-width:0.79600257;stroke-linecap:butt;stroke-linejoin:miter;stroke-miterlimit:4;stroke-dasharray:none;stroke-opacity:1"
       d="m 67.241939,121.65653 73.151941,36.4006 11.06828,-20.14894 -73.931401,-35.27038 z"
       id="path848"
       inkscape:connector-curvature="0"
       sodipodi:nodetypes="ccccc" />
    <path
       style="fill:#ffffff;fill-opacity:1;stroke:#000000;stroke-width:0.35788804;stroke-linecap:butt;stroke-linejoin:miter;stroke-miterlimit:4;stroke-dasharray:none;stroke-opacity:1"
       d="m 152.62164,131.05067 c -0.1,0.16994 -0.18218,0.34927 -0.26743,0.52682 -0.1372,0.27793 -0.27617,0.55499 -0.41691,0.83115 -0.0908,0.18036 -0.18441,0.35964 -0.25994,0.54714 -0.18355,0.42938 -0.36743,0.85861 -0.5511,1.28792 -0.0513,0.15185 -0.088,0.33445 0.0117,0.4754 0.0212,0.007 0.027,0.0435 0.0547,0.0323 0.14351,-0.053 0.25898,-0.15738 0.36976,-0.25948 0.14671,-0.37049 0.29343,-0.74099 0.44013,-1.11147 0.2192,-0.46638 0.44063,-0.93174 0.66756,-1.39441 0.11437,-0.2357 0.23024,-0.4707 0.34367,-0.70683 0.0493,-0.10623 0.0986,-0.21244 0.14798,-0.31866 -0.0817,-0.12685 -0.24475,-0.19543 -0.39233,-0.16229 -0.0493,0.0841 -0.0986,0.16824 -0.14794,0.25235 z"
       id="path871"
       inkscape:connector-curvature="0"
       sodipodi:nodetypes="ccccccccccccccccc"
       inkscape:transform-center-x="0.40157563"
       inkscape:transform-center-y="-0.46642977" />
    <path
       style="display:inline;opacity:1;fill:#ffffff;fill-opacity:1;stroke:#000000;stroke-width:0.35788807;stroke-linecap:butt;stroke-linejoin:miter;stroke-miterlimit:4;stroke-dasharray:none;stroke-opacity:1"
       d="m 155.74392,125.44823 c -0.10468,0.16708 -0.19184,0.34406 -0.28201,0.51916 -0.14489,0.274 -0.29152,0.54708 -0.43991,0.81921 -0.0958,0.17776 -0.19436,0.35436 -0.27508,0.53969 -0.19544,0.42408 -0.39121,0.84803 -0.58679,1.27205 -0.0555,0.15037 -0.0973,0.33187 -0.002,0.47555 0.021,0.007 0.0257,0.0442 0.0538,0.0339 0.14493,-0.049 0.26328,-0.1501 0.37686,-0.24907 0.15698,-0.36626 0.31396,-0.73253 0.47093,-1.09879 0.2321,-0.46009 0.46643,-0.91909 0.70616,-1.37525 0.12089,-0.23242 0.24326,-0.4641 0.36323,-0.69699 0.0522,-0.10481 0.10453,-0.2096 0.1568,-0.31441 -0.078,-0.12907 -0.23921,-0.20217 -0.38766,-0.17316 -0.0516,0.0827 -0.10327,0.16543 -0.15491,0.24814 z"
       id="path871-3"
       inkscape:connector-curvature="0"
       sodipodi:nodetypes="ccccccccccccccccc" />
    <path
       style="display:inline;opacity:1;fill:#ffffff;fill-opacity:1;stroke:#000000;stroke-width:0.35788807;stroke-linecap:butt;stroke-linejoin:miter;stroke-miterlimit:4;stroke-dasharray:none;stroke-opacity:1"
       d="m 158.87028,119.94085 c -0.11248,0.16194 -0.20793,0.33459 -0.30629,0.50522 -0.15772,0.26682 -0.31712,0.53265 -0.47825,0.79744 -0.10412,0.17302 -0.21092,0.34476 -0.30034,0.52605 -0.21533,0.41435 -0.43096,0.82854 -0.64641,1.24282 -0.0626,0.14756 -0.11289,0.32688 -0.0241,0.47493 0.0206,0.008 0.0236,0.0454 0.0521,0.0364 0.14709,-0.0421 0.27009,-0.13746 0.38824,-0.23093 0.17415,-0.35841 0.34832,-0.71682 0.52247,-1.07523 0.25365,-0.44858 0.50946,-0.89595 0.77054,-1.34025 0.13177,-0.22643 0.26499,-0.45204 0.39586,-0.67898 0.0572,-0.10222 0.11434,-0.20442 0.17152,-0.30663 -0.0718,-0.13263 -0.22936,-0.21328 -0.37901,-0.19134 -0.0554,0.0802 -0.111,0.16035 -0.1665,0.24051 z"
       id="path871-6"
       inkscape:connector-curvature="0"
       sodipodi:nodetypes="ccccccccccccccccc" />
    <path
       style="display:inline;opacity:1;fill:#ffffff;fill-opacity:1;stroke:#000000;stroke-width:0.35788807;stroke-linecap:butt;stroke-linejoin:miter;stroke-miterlimit:4;stroke-dasharray:none;stroke-opacity:1"
       d="m 161.83221,114.79644 c -0.11248,0.16194 -0.20793,0.33459 -0.30629,0.50522 -0.15772,0.26682 -0.31712,0.53264 -0.47825,0.79744 -0.10412,0.17301 -0.21092,0.34475 -0.30034,0.52604 -0.21533,0.41435 -0.43096,0.82855 -0.64641,1.24282 -0.0626,0.14756 -0.1129,0.32689 -0.0241,0.47494 0.0206,0.008 0.0236,0.0454 0.0521,0.0364 0.14709,-0.0421 0.27009,-0.13746 0.38824,-0.23093 0.17415,-0.35841 0.34832,-0.71683 0.52247,-1.07523 0.25365,-0.44858 0.50946,-0.89596 0.77054,-1.34025 0.13177,-0.22644 0.26499,-0.45205 0.39586,-0.67899 0.0572,-0.10221 0.11434,-0.20442 0.17152,-0.30663 -0.0718,-0.13262 -0.22936,-0.21328 -0.37901,-0.19133 -0.0554,0.0802 -0.111,0.16034 -0.1665,0.24051 z"
       id="path871-4"
       inkscape:connector-curvature="0"
       sodipodi:nodetypes="ccccccccccccccccc" />
    <path
       style="display:inline;opacity:1;fill:#ffffff;fill-opacity:1;stroke:#000000;stroke-width:0.35788807;stroke-linecap:butt;stroke-linejoin:miter;stroke-miterlimit:4;stroke-dasharray:none;stroke-opacity:1"
       d="m 164.63826,109.34025 c -0.11248,0.16194 -0.20793,0.33459 -0.3063,0.50522 -0.15771,0.26682 -0.31712,0.53265 -0.47824,0.79744 -0.10413,0.17301 -0.21093,0.34475 -0.30035,0.52604 -0.21532,0.41435 -0.43096,0.82855 -0.64641,1.24282 -0.0626,0.14757 -0.11289,0.32689 -0.0241,0.47494 0.0206,0.008 0.0236,0.0454 0.0521,0.0364 0.14709,-0.0421 0.27009,-0.13746 0.38823,-0.23093 0.17416,-0.35841 0.34832,-0.71683 0.52248,-1.07523 0.25365,-0.44858 0.50946,-0.89596 0.77054,-1.34025 0.13177,-0.22644 0.26499,-0.45205 0.39585,-0.67899 0.0572,-0.10221 0.11435,-0.20442 0.17153,-0.30663 -0.0719,-0.13262 -0.22937,-0.21327 -0.37902,-0.19133 -0.0554,0.0802 -0.11099,0.16034 -0.1665,0.24051 z"
       id="path871-0"
       inkscape:connector-curvature="0"
       sodipodi:nodetypes="ccccccccccccccccc" />
    <path
       style="display:inline;opacity:1;fill:#ffffff;fill-opacity:1;stroke:#000000;stroke-width:0.35788807;stroke-linecap:butt;stroke-linejoin:miter;stroke-miterlimit:4;stroke-dasharray:none;stroke-opacity:1"
       d="m 167.75609,103.96201 c -0.11248,0.16194 -0.20793,0.33459 -0.3063,0.50522 -0.15771,0.26682 -0.31712,0.53264 -0.47824,0.79743 -0.10412,0.17302 -0.21093,0.34476 -0.30035,0.52605 -0.21532,0.41435 -0.43096,0.82854 -0.64641,1.24282 -0.0626,0.14756 -0.11289,0.32689 -0.0241,0.47493 0.0206,0.008 0.0236,0.0454 0.0521,0.0364 0.14709,-0.0421 0.27009,-0.13746 0.38823,-0.23093 0.17416,-0.35841 0.34832,-0.71682 0.52248,-1.07523 0.25365,-0.44857 0.50946,-0.89595 0.77054,-1.34024 0.13177,-0.22644 0.26499,-0.45205 0.39585,-0.67899 0.0572,-0.10221 0.11435,-0.20442 0.17153,-0.30663 -0.0718,-0.13262 -0.22937,-0.21328 -0.37901,-0.19133 -0.0554,0.0802 -0.111,0.16034 -0.16651,0.24051 z"
       id="path871-5"
       inkscape:connector-curvature="0"
       sodipodi:nodetypes="ccccccccccccccccc" />
    <path
       style="display:inline;opacity:1;fill:#ffffff;fill-opacity:1;stroke:#000000;stroke-width:0.35788807;stroke-linecap:butt;stroke-linejoin:miter;stroke-miterlimit:4;stroke-dasharray:none;stroke-opacity:1"
       d="m 170.79211,98.933125 c -0.11248,0.16194 -0.20792,0.334585 -0.30629,0.505219 -0.15771,0.266821 -0.31712,0.532645 -0.47824,0.797436 -0.10413,0.17302 -0.21093,0.34476 -0.30035,0.52605 -0.21532,0.41435 -0.43096,0.82854 -0.64641,1.24282 -0.0626,0.14756 -0.11289,0.32689 -0.0241,0.47494 0.0206,0.008 0.0236,0.0454 0.0521,0.0364 0.14709,-0.0421 0.27009,-0.13746 0.38823,-0.23094 0.17416,-0.3584 0.34832,-0.71682 0.52248,-1.07523 0.25364,-0.44857 0.50945,-0.89595 0.77054,-1.340243 0.13177,-0.226435 0.26499,-0.452047 0.39585,-0.678986 0.0572,-0.102218 0.11435,-0.20442 0.17153,-0.30663 -0.0719,-0.132623 -0.22937,-0.213279 -0.37902,-0.191337 -0.0554,0.08018 -0.11099,0.160347 -0.1665,0.240516 z"
       id="path871-53"
       inkscape:connector-curvature="0"
       sodipodi:nodetypes="ccccccccccccccccc" />
    <path
       style="fill:#724602;fill-opacity:1;stroke:#000000;stroke-width:0.54854065;stroke-linecap:butt;stroke-linejoin:miter;stroke-miterlimit:4;stroke-dasharray:none;stroke-opacity:1"
       d="m 45.594002,160.62172 0.289647,2.5778 75.186961,36.35887 c 0.85472,0.49365 0.75241,0.3328 0.46335,0.0442 l 0.28742,-0.31333 -0.36956,-2.5315 z"
       id="path922"
       inkscape:connector-curvature="0"
       sodipodi:nodetypes="ccccccc" />
    <path
       style="fill:#724602;fill-opacity:1;stroke:#000000;stroke-width:0.79600257;stroke-linecap:butt;stroke-linejoin:miter;stroke-miterlimit:4;stroke-dasharray:none;stroke-opacity:1"
       d="m 121.4516,196.75701 c 0.20784,0.82755 0.27401,2.79752 0.26748,3.11843 0.14607,-0.27561 -0.0196,0.0333 0.12651,-0.24236 17.33409,-32.7056 34.51695,-65.99513 51.8452,-98.69028 -0.11112,-1.103132 -0.90368,-3.667409 -0.57295,-3.25889 -17.14512,32.94713 -34.52112,66.12597 -51.66624,99.0731 z"
       id="path928"
       inkscape:connector-curvature="0"
       sodipodi:nodetypes="ccsccc" />
    <path
       style="display:inline;opacity:1;fill:#ffffff;fill-opacity:1;stroke:#000000;stroke-width:0.35788807;stroke-linecap:butt;stroke-linejoin:miter;stroke-miterlimit:4;stroke-dasharray:none;stroke-opacity:1"
       d="m 122.33798,189.93895 c -0.10437,0.16729 -0.1912,0.34443 -0.28104,0.51969 -0.14438,0.27427 -0.29049,0.54763 -0.43838,0.82003 -0.0955,0.17793 -0.19369,0.35473 -0.27407,0.5402 -0.19465,0.42446 -0.38963,0.84877 -0.5844,1.27315 -0.0552,0.15048 -0.0967,0.33206 -6.3e-4,0.47555 0.021,0.007 0.0258,0.0441 0.0539,0.0337 0.14484,-0.0493 0.26299,-0.1506 0.37639,-0.24977 0.15629,-0.36655 0.31259,-0.73312 0.46888,-1.09967 0.23124,-0.46052 0.4647,-0.91996 0.70358,-1.37657 0.12046,-0.23265 0.24241,-0.46455 0.36193,-0.69766 0.0521,-0.10491 0.10414,-0.20981 0.15621,-0.31471 -0.0783,-0.12892 -0.23959,-0.20172 -0.38797,-0.17244 -0.0514,0.0828 -0.10297,0.16562 -0.15445,0.24844 z"
       id="path871-05"
       inkscape:connector-curvature="0"
       sodipodi:nodetypes="ccccccccccccccccc"
       inkscape:transform-center-x="11.074934"
       inkscape:transform-center-y="19.924073" />
    <path
       style="display:inline;opacity:1;fill:#ffffff;fill-opacity:1;stroke:#000000;stroke-width:0.35788807;stroke-linecap:butt;stroke-linejoin:miter;stroke-miterlimit:4;stroke-dasharray:none;stroke-opacity:1"
       d="m 125.52181,184.0881 c -0.10437,0.16729 -0.19119,0.34442 -0.28103,0.51969 -0.14439,0.27427 -0.2905,0.54763 -0.43839,0.82003 -0.0955,0.17793 -0.19369,0.35473 -0.27406,0.5402 -0.19466,0.42445 -0.38963,0.84877 -0.58442,1.27315 -0.0552,0.15048 -0.0967,0.33206 -6.1e-4,0.47556 0.021,0.007 0.0258,0.0441 0.0539,0.0337 0.14484,-0.0493 0.26299,-0.1506 0.37638,-0.24978 0.1563,-0.36655 0.31259,-0.73311 0.46888,-1.09967 0.23125,-0.46052 0.46471,-0.91995 0.70359,-1.37656 0.12045,-0.23266 0.24239,-0.46455 0.36193,-0.69767 0.052,-0.10491 0.10414,-0.2098 0.1562,-0.31471 -0.0783,-0.12892 -0.23958,-0.20171 -0.38797,-0.17243 -0.0514,0.0828 -0.10296,0.16563 -0.15445,0.24843 z"
       id="path871-3-7"
       inkscape:connector-curvature="0"
       sodipodi:nodetypes="ccccccccccccccccc"
       inkscape:transform-center-x="8.0469997"
       inkscape:transform-center-y="14.151175" />
    <path
       style="display:inline;opacity:1;fill:#ffffff;fill-opacity:1;stroke:#000000;stroke-width:0.35788807;stroke-linecap:butt;stroke-linejoin:miter;stroke-miterlimit:4;stroke-dasharray:none;stroke-opacity:1"
       d="m 128.23329,178.48748 c -0.10437,0.16729 -0.19118,0.34442 -0.28103,0.51969 -0.14438,0.27427 -0.2905,0.54763 -0.43838,0.82003 -0.0955,0.17794 -0.19369,0.35473 -0.27408,0.54021 -0.19464,0.42445 -0.38962,0.84877 -0.5844,1.27315 -0.0553,0.15047 -0.0966,0.33205 -6.1e-4,0.47555 0.021,0.007 0.0258,0.0441 0.0539,0.0337 0.14484,-0.0493 0.26299,-0.1506 0.37639,-0.24978 0.15629,-0.36655 0.31258,-0.73311 0.46887,-1.09966 0.23125,-0.46052 0.46471,-0.91996 0.70359,-1.37657 0.12045,-0.23265 0.24239,-0.46455 0.36193,-0.69767 0.0521,-0.1049 0.10414,-0.2098 0.15621,-0.3147 -0.0783,-0.12892 -0.23959,-0.20172 -0.38798,-0.17243 -0.0514,0.0828 -0.10296,0.16562 -0.15445,0.24842 z"
       id="path871-6-8"
       inkscape:connector-curvature="0"
       sodipodi:nodetypes="ccccccccccccccccc"
       inkscape:transform-center-x="5.2575494"
       inkscape:transform-center-y="8.862344" />
    <path
       style="display:inline;opacity:1;fill:#ffffff;fill-opacity:1;stroke:#000000;stroke-width:0.35788807;stroke-linecap:butt;stroke-linejoin:miter;stroke-miterlimit:4;stroke-dasharray:none;stroke-opacity:1"
       d="m 131.47214,173.19602 c -0.10438,0.16728 -0.19119,0.34442 -0.28103,0.51969 -0.14439,0.27427 -0.29051,0.54763 -0.43839,0.82003 -0.0955,0.17794 -0.19369,0.35473 -0.27407,0.5402 -0.19465,0.42446 -0.38963,0.84877 -0.58441,1.27315 -0.0552,0.15047 -0.0966,0.33206 -6.1e-4,0.47555 0.021,0.007 0.0258,0.0442 0.0539,0.0337 0.14484,-0.0493 0.26299,-0.1506 0.37639,-0.24978 0.1563,-0.36654 0.31258,-0.73311 0.46887,-1.09966 0.23126,-0.46052 0.46471,-0.91996 0.70359,-1.37657 0.12045,-0.23265 0.2424,-0.46455 0.36193,-0.69766 0.0521,-0.10492 0.10414,-0.20981 0.15621,-0.31471 -0.0783,-0.12892 -0.23959,-0.20173 -0.38797,-0.17244 -0.0514,0.0828 -0.10296,0.16562 -0.15446,0.24842 z"
       id="path871-4-3"
       inkscape:connector-curvature="0"
       sodipodi:nodetypes="ccccccccccccccccc"
       inkscape:transform-center-x="2.4084212"
       inkscape:transform-center-y="3.3370407" />
    <path
       style="display:inline;opacity:1;fill:#ffffff;fill-opacity:1;stroke:#000000;stroke-width:0.35788807;stroke-linecap:butt;stroke-linejoin:miter;stroke-miterlimit:4;stroke-dasharray:none;stroke-opacity:1"
       d="m 134.33297,167.75607 c -0.10437,0.16727 -0.1912,0.34442 -0.28104,0.51969 -0.14438,0.27427 -0.2905,0.54762 -0.43838,0.82003 -0.0955,0.17794 -0.19369,0.35473 -0.27407,0.5402 -0.19465,0.42445 -0.38963,0.84877 -0.58441,1.27316 -0.0553,0.15046 -0.0967,0.33205 -7e-4,0.47554 0.021,0.007 0.0258,0.0442 0.0539,0.0337 0.14484,-0.0492 0.26299,-0.15059 0.37638,-0.24978 0.1563,-0.36655 0.31259,-0.7331 0.46889,-1.09965 0.23124,-0.46053 0.4647,-0.91997 0.70358,-1.37657 0.12046,-0.23266 0.24241,-0.46456 0.36193,-0.69767 0.052,-0.10491 0.10414,-0.2098 0.15621,-0.31471 -0.0783,-0.12892 -0.23959,-0.20171 -0.38798,-0.17243 -0.0514,0.0828 -0.10296,0.16562 -0.15444,0.24842 z"
       id="path871-0-4"
       inkscape:connector-curvature="0"
       sodipodi:nodetypes="ccccccccccccccccc"
       inkscape:transform-center-x="-0.296426"
       inkscape:transform-center-y="-1.9470103" />
    <path
       style="display:inline;opacity:1;fill:#ffffff;fill-opacity:1;stroke:#000000;stroke-width:0.35788807;stroke-linecap:butt;stroke-linejoin:miter;stroke-miterlimit:4;stroke-dasharray:none;stroke-opacity:1"
       d="m 136.94825,162.54256 c -0.10437,0.16728 -0.19119,0.34441 -0.28103,0.51969 -0.14439,0.27426 -0.2905,0.54762 -0.43839,0.82002 -0.0955,0.17794 -0.19369,0.35473 -0.27406,0.54021 -0.19466,0.42444 -0.38963,0.84876 -0.58442,1.27315 -0.0553,0.15046 -0.0967,0.33205 -6.1e-4,0.47554 0.021,0.007 0.0258,0.0442 0.0539,0.0337 0.14484,-0.0492 0.26299,-0.15059 0.37638,-0.24977 0.1563,-0.36656 0.31259,-0.73311 0.46888,-1.09966 0.23125,-0.46053 0.46471,-0.91996 0.70359,-1.37657 0.12045,-0.23265 0.24239,-0.46455 0.36193,-0.69766 0.052,-0.10491 0.10414,-0.20981 0.1562,-0.3147 -0.0783,-0.12893 -0.23958,-0.20173 -0.38797,-0.17244 -0.0514,0.0828 -0.10296,0.16562 -0.15445,0.24842 z"
       id="path871-5-7"
       inkscape:connector-curvature="0"
       sodipodi:nodetypes="ccccccccccccccccc"
       inkscape:transform-center-x="-3.1455892"
       inkscape:transform-center-y="-7.4723042" />
    <path
       style="display:inline;opacity:1;fill:#ffffff;fill-opacity:1;stroke:#000000;stroke-width:0.35788807;stroke-linecap:butt;stroke-linejoin:miter;stroke-miterlimit:4;stroke-dasharray:none;stroke-opacity:1"
       d="m 139.65493,157.29228 c -0.10437,0.16729 -0.19119,0.34442 -0.28104,0.5197 -0.14438,0.27426 -0.2905,0.54761 -0.43838,0.82002 -0.0955,0.17794 -0.19369,0.35473 -0.27407,0.54021 -0.19464,0.42445 -0.38963,0.84876 -0.58441,1.27315 -0.0553,0.15046 -0.0966,0.33205 -6.1e-4,0.47555 0.021,0.007 0.0258,0.0442 0.0539,0.0337 0.14483,-0.0492 0.26299,-0.15059 0.37638,-0.24977 0.15629,-0.36656 0.31259,-0.73311 0.46888,-1.09966 0.23124,-0.46053 0.4647,-0.91996 0.70358,-1.37657 0.12046,-0.23266 0.24241,-0.46456 0.36193,-0.69767 0.052,-0.10491 0.10414,-0.2098 0.15622,-0.3147 -0.0783,-0.12893 -0.2396,-0.20172 -0.38799,-0.17243 -0.0514,0.0828 -0.10296,0.16562 -0.15444,0.24842 z"
       id="path871-53-4"
       inkscape:connector-curvature="0"
       sodipodi:nodetypes="ccccccccccccccccc"
       inkscape:transform-center-x="-5.9302456"
       inkscape:transform-center-y="-12.644622" />
    <text
       xml:space="preserve"
       style="font-style:normal;font-weight:normal;font-size:12.69999981px;line-height:1.25;font-family:sans-serif;letter-spacing:0px;word-spacing:0px;fill:#31230d;fill-opacity:1;stroke:none;stroke-width:0.1;stroke-miterlimit:4;stroke-dasharray:none"
       x="116.19646"
       y="71.543137"
       id="text879"
       transform="rotate(26.904342)"><tspan
         sodipodi:role="line"
         id="tspan877"
         x="116.19646"
         y="71.543137"
         style="font-style:normal;font-variant:normal;font-weight:bold;font-stretch:normal;font-size:14.11111069px;font-family:sans-serif;-inkscape-font-specification:'sans-serif Bold';fill:#31230d;fill-opacity:1;stroke-width:0.1;stroke-miterlimit:4;stroke-dasharray:none">CODE</tspan></text>
    <path
       style="fill:none;stroke:#000000;stroke-width:0.465;stroke-linecap:butt;stroke-linejoin:miter;stroke-miterlimit:4;stroke-dasharray:none;stroke-opacity:1"
       d="m 154.48178,140.38006 19.64431,-36.48229"
       id="path883"
       inkscape:connector-curvature="0" />
    <path
       style="display:inline;opacity:1;fill:none;stroke:#000000;stroke-width:0.465;stroke-linecap:butt;stroke-linejoin:miter;stroke-miterlimit:4;stroke-dasharray:none;stroke-opacity:1"
       d="m 155.48404,142.31776 19.64431,-36.48229"
       id="path883-5"
       inkscape:connector-curvature="0" />
    <path
       style="display:inline;opacity:1;fill:none;stroke:#000000;stroke-width:0.45300001;stroke-linecap:butt;stroke-linejoin:miter;stroke-miterlimit:4;stroke-dasharray:none;stroke-opacity:1"
       d="m 156.81513,143.79057 18.75714,-34.83431"
       id="path883-1"
       inkscape:connector-curvature="0" />
    <path
       style="display:inline;opacity:1;fill:none;stroke:#000000;stroke-width:0.53987157;stroke-linecap:butt;stroke-linejoin:miter;stroke-miterlimit:4;stroke-dasharray:none;stroke-opacity:1"
       d="m 122.07767,202.45752 22.51188,-42.91233"
       id="path883-0"
       inkscape:connector-curvature="0" />
    <path
       style="display:inline;opacity:1;fill:none;stroke:#000000;stroke-width:0.54541159;stroke-linecap:butt;stroke-linejoin:miter;stroke-miterlimit:4;stroke-dasharray:none;stroke-opacity:1"
       d="m 122.913,204.82024 22.97819,-42.90875"
       id="path883-5-4"
       inkscape:connector-curvature="0" />
    <path
       style="display:inline;opacity:1;fill:none;stroke:#000000;stroke-width:0.56303573;stroke-linecap:butt;stroke-linejoin:miter;stroke-miterlimit:4;stroke-dasharray:none;stroke-opacity:1"
       d="m 123.52198,207.50375 23.21755,-43.40964"
       id="path883-1-0"
       inkscape:connector-curvature="0"
       sodipodi:nodetypes="cc" />
  </g>
  <g
     inkscape:groupmode="layer"
     id="layer5"
     inkscape:label="Arrow"
     style="display:inline"
     transform="translate(-37.970926,-58.82625)">
    <path
       style="display:inline;opacity:1;fill:#7f5126;fill-opacity:1;stroke:#000000;stroke-width:0.79600257;stroke-linecap:butt;stroke-linejoin:miter;stroke-miterlimit:4;stroke-dasharray:none;stroke-opacity:1"
       d="m 148.46541,170.04385 -8.07153,-11.98672 11.06828,-20.14894 7.72092,12.69873 z"
       id="path850"
       inkscape:connector-curvature="0"
       sodipodi:nodetypes="ccccc" />
    <path
       style="fill:#99612e;fill-opacity:1;stroke:#000000;stroke-width:0.71351528;stroke-linecap:butt;stroke-linejoin:miter;stroke-miterlimit:4;stroke-dasharray:none;stroke-opacity:1"
       d="m 72.542429,99.905302 c -0.271128,0.04072 -0.41128,0.309888 -0.528137,0.528218 -1.190966,2.03609 -2.308681,4.11431 -3.522709,6.137 -1.500454,2.54558 -2.979591,5.10372 -4.441899,7.67138 -0.791999,1.39495 -1.583238,2.79033 -2.373992,4.18599 1.111357,-0.22341 2.317623,-0.16376 3.336396,0.36821 0.943998,0.47445 1.722066,1.3008 2.075224,2.30296 -0.01092,0.14838 0.113479,0.51556 0.293711,0.31474 1.250329,-2.33355 2.518397,-4.65902 3.775451,-6.98953 2.12462,-3.92886 4.24924,-7.85772 6.37386,-11.78658 -0.479171,-0.99379 -1.254898,-1.87275 -2.264775,-2.34472 -0.834916,-0.383229 -1.773516,-0.393937 -2.674797,-0.392502 l -0.0397,0.004 z"
       id="path983"
       inkscape:connector-curvature="0"
       sodipodi:nodetypes="ccccc" />
    <path
       style="display:inline;opacity:1;fill:#ffffff;fill-opacity:1;stroke:#000000;stroke-width:0.35788807;stroke-linecap:butt;stroke-linejoin:miter;stroke-miterlimit:4;stroke-dasharray:none;stroke-opacity:1"
       d="m 52.094411,160.14027 c -0.170074,-0.0998 -0.349522,-0.18171 -0.527173,-0.26672 -0.278114,-0.13684 -0.55536,-0.27542 -0.831705,-0.41581 -0.180477,-0.0906 -0.35989,-0.18392 -0.54749,-0.2592 -0.429616,-0.18298 -0.859101,-0.36629 -1.288647,-0.54939 -0.151926,-0.0511 -0.33457,-0.0875 -0.475386,0.0124 -0.0068,0.0212 -0.04341,0.027 -0.03225,0.0548 0.05319,0.14344 0.157729,0.25877 0.259965,0.36942 0.370684,0.14622 0.741384,0.29244 1.112067,0.43864 0.466666,0.21858 0.932321,0.43939 1.395288,0.66571 0.235853,0.11406 0.471003,0.22961 0.707292,0.34272 0.10629,0.0492 0.212574,0.0984 0.318858,0.14755 0.126731,-0.0817 0.195099,-0.24501 0.161771,-0.39254 -0.08419,-0.0491 -0.16837,-0.0984 -0.252564,-0.1476 z"
       id="path871-05-6"
       inkscape:connector-curvature="0"
       sodipodi:nodetypes="ccccccccccccccccc"
       inkscape:transform-center-x="20.222287"
       inkscape:transform-center-y="-10.527148" />
    <path
       style="display:inline;opacity:1;fill:#ffffff;fill-opacity:1;stroke:#000000;stroke-width:0.35788807;stroke-linecap:butt;stroke-linejoin:miter;stroke-miterlimit:4;stroke-dasharray:none;stroke-opacity:1"
       d="m 58.030099,163.16302 c -0.170083,-0.0998 -0.349523,-0.18171 -0.527182,-0.26672 -0.278114,-0.13684 -0.55536,-0.27544 -0.831706,-0.41582 -0.180476,-0.0906 -0.35989,-0.18393 -0.54749,-0.25919 -0.429608,-0.18299 -0.859101,-0.3663 -1.288646,-0.54941 -0.151925,-0.0511 -0.334571,-0.0875 -0.475395,0.0124 -0.0068,0.0212 -0.0434,0.027 -0.03225,0.0548 0.05319,0.14345 0.157728,0.25877 0.259973,0.36942 0.370684,0.14622 0.741375,0.29245 1.112067,0.43865 0.466667,0.21858 0.932313,0.4394 1.395279,0.6657 0.235861,0.11406 0.471004,0.22961 0.707301,0.34273 0.106291,0.0492 0.212566,0.0984 0.318857,0.14755 0.126732,-0.0817 0.195092,-0.24501 0.161764,-0.39254 -0.08418,-0.0491 -0.168379,-0.0984 -0.252555,-0.1476 z"
       id="path871-3-7-3"
       inkscape:connector-curvature="0"
       sodipodi:nodetypes="ccccccccccccccccc"
       inkscape:transform-center-x="14.368789"
       inkscape:transform-center-y="-7.6581213" />
    <path
       style="display:inline;opacity:1;fill:#ffffff;fill-opacity:1;stroke:#000000;stroke-width:0.35788807;stroke-linecap:butt;stroke-linejoin:miter;stroke-miterlimit:4;stroke-dasharray:none;stroke-opacity:1"
       d="m 63.702727,165.72041 c -0.170082,-0.0998 -0.349521,-0.18169 -0.527181,-0.26671 -0.278113,-0.13683 -0.55536,-0.27543 -0.831705,-0.41581 -0.180477,-0.0906 -0.35989,-0.18393 -0.54749,-0.25921 -0.429616,-0.18297 -0.859101,-0.36628 -1.288647,-0.54939 -0.151927,-0.0511 -0.33457,-0.0875 -0.475395,0.0124 -0.0068,0.0212 -0.0434,0.027 -0.03225,0.0548 0.05319,0.14344 0.157728,0.25877 0.259972,0.36942 0.370684,0.14621 0.741376,0.29244 1.112059,0.43865 0.466674,0.21857 0.932322,0.43939 1.395288,0.66569 0.235861,0.11406 0.471003,0.22961 0.7073,0.34273 0.106285,0.0492 0.212566,0.0984 0.318858,0.14756 0.126732,-0.0817 0.195091,-0.24502 0.161763,-0.39255 -0.08419,-0.0491 -0.168378,-0.0984 -0.252555,-0.1476 z"
       id="path871-6-8-3"
       inkscape:connector-curvature="0"
       sodipodi:nodetypes="ccccccccccccccccc"
       inkscape:transform-center-x="9.0056993"
       inkscape:transform-center-y="-5.0142689" />
    <path
       style="display:inline;opacity:1;fill:#ffffff;fill-opacity:1;stroke:#000000;stroke-width:0.35788807;stroke-linecap:butt;stroke-linejoin:miter;stroke-miterlimit:4;stroke-dasharray:none;stroke-opacity:1"
       d="m 69.080722,168.81344 c -0.170065,-0.0998 -0.349513,-0.18171 -0.527172,-0.26672 -0.278114,-0.13684 -0.555361,-0.27544 -0.831706,-0.41581 -0.180477,-0.0906 -0.35989,-0.18393 -0.54749,-0.25921 -0.429616,-0.18298 -0.859101,-0.36629 -1.288647,-0.54939 -0.151917,-0.0511 -0.33457,-0.0875 -0.475387,0.0124 -0.0068,0.0212 -0.0435,0.0271 -0.03225,0.0548 0.05319,0.14344 0.157729,0.25879 0.259973,0.36942 0.370675,0.14623 0.741375,0.29244 1.112059,0.43866 0.466675,0.21857 0.932321,0.43938 1.395287,0.66569 0.235861,0.11406 0.471004,0.22962 0.707292,0.34274 0.106302,0.0492 0.212574,0.0983 0.318867,0.14755 0.126732,-0.0817 0.195099,-0.24502 0.161763,-0.39254 -0.08418,-0.0491 -0.16837,-0.0984 -0.252547,-0.14762 z"
       id="path871-4-3-9"
       inkscape:connector-curvature="0"
       sodipodi:nodetypes="ccccccccccccccccc"
       inkscape:transform-center-x="3.404597"
       inkscape:transform-center-y="-2.3172211" />
    <path
       style="display:inline;opacity:1;fill:#ffffff;fill-opacity:1;stroke:#000000;stroke-width:0.35788807;stroke-linecap:butt;stroke-linejoin:miter;stroke-miterlimit:4;stroke-dasharray:none;stroke-opacity:1"
       d="m 74.596833,171.52453 c -0.170066,-0.0998 -0.349523,-0.18171 -0.527181,-0.26673 -0.278115,-0.13683 -0.555352,-0.27543 -0.831706,-0.41581 -0.180476,-0.0906 -0.359881,-0.18392 -0.547481,-0.2592 -0.429617,-0.18298 -0.859102,-0.36628 -1.288656,-0.5494 -0.151919,-0.0512 -0.33457,-0.0875 -0.47538,0.0123 -0.0068,0.0212 -0.0435,0.027 -0.03225,0.0548 0.05319,0.14344 0.157728,0.25878 0.259973,0.36942 0.370683,0.14622 0.741375,0.29243 1.112059,0.43865 0.466674,0.21857 0.932321,0.43939 1.395287,0.6657 0.235861,0.11406 0.471004,0.22962 0.707293,0.34272 0.106299,0.0492 0.212574,0.0984 0.318865,0.14757 0.126732,-0.0817 0.195091,-0.24503 0.161764,-0.39255 -0.08419,-0.0491 -0.16837,-0.0984 -0.252548,-0.14761 z"
       id="path871-0-4-9"
       inkscape:connector-curvature="0"
       sodipodi:nodetypes="ccccccccccccccccc"
       inkscape:transform-center-x="-1.9514154"
       inkscape:transform-center-y="0.24221395" />
    <path
       style="display:inline;opacity:1;fill:#ffffff;fill-opacity:1;stroke:#000000;stroke-width:0.35788807;stroke-linecap:butt;stroke-linejoin:miter;stroke-miterlimit:4;stroke-dasharray:none;stroke-opacity:1"
       d="m 79.879873,173.99635 c -0.170075,-0.0998 -0.349514,-0.1817 -0.527181,-0.26672 -0.278106,-0.13684 -0.555353,-0.27544 -0.83169,-0.41582 -0.180484,-0.0906 -0.35989,-0.18392 -0.547498,-0.25919 -0.429608,-0.18299 -0.859093,-0.36629 -1.288647,-0.54941 -0.151919,-0.0511 -0.33457,-0.0875 -0.475386,0.0124 -0.0068,0.0212 -0.04349,0.027 -0.03225,0.0548 0.05319,0.14346 0.15772,0.25878 0.259966,0.36943 0.370691,0.14622 0.741382,0.29244 1.112066,0.43865 0.466675,0.21858 0.932313,0.43939 1.39528,0.6657 0.23586,0.11406 0.471003,0.22961 0.707291,0.34273 0.106299,0.0492 0.212574,0.0984 0.318858,0.14755 0.12674,-0.0817 0.195099,-0.24502 0.161764,-0.39254 -0.08417,-0.0491 -0.16837,-0.0984 -0.252547,-0.14761 z"
       id="path871-5-7-9"
       inkscape:connector-curvature="0"
       sodipodi:nodetypes="ccccccccccccccccc"
       inkscape:transform-center-x="-7.5525041"
       inkscape:transform-center-y="2.9393317" />
    <path
       style="display:inline;opacity:1;fill:#ffffff;fill-opacity:1;stroke:#000000;stroke-width:0.35788807;stroke-linecap:butt;stroke-linejoin:miter;stroke-miterlimit:4;stroke-dasharray:none;stroke-opacity:1"
       d="m 85.202161,176.55852 c -0.170074,-0.0998 -0.349514,-0.1817 -0.527181,-0.26672 -0.278105,-0.13683 -0.555352,-0.27543 -0.831698,-0.41581 -0.180484,-0.0906 -0.359888,-0.18392 -0.547498,-0.2592 -0.429616,-0.18298 -0.859093,-0.36629 -1.288646,-0.54939 -0.15192,-0.0511 -0.33457,-0.0875 -0.475387,0.0124 -0.0068,0.0212 -0.04349,0.027 -0.03225,0.0548 0.05319,0.14344 0.157719,0.25878 0.259964,0.36942 0.370692,0.14621 0.741384,0.29244 1.112068,0.43865 0.466673,0.21857 0.932313,0.43939 1.395287,0.66569 0.235861,0.11407 0.471003,0.22962 0.7073,0.34274 0.106291,0.0492 0.212566,0.0984 0.318849,0.14756 0.12674,-0.0817 0.195099,-0.24504 0.161764,-0.39257 -0.08418,-0.0491 -0.16837,-0.0984 -0.252548,-0.1476 z"
       id="path871-53-4-5"
       inkscape:connector-curvature="0"
       sodipodi:nodetypes="ccccccccccccccccc"
       inkscape:transform-center-x="-12.799005"
       inkscape:transform-center-y="5.5815774" />
    <path
       style="display:inline;opacity:1;fill:#ffffff;fill-opacity:1;stroke:#000000;stroke-width:0.35788807;stroke-linecap:butt;stroke-linejoin:miter;stroke-miterlimit:4;stroke-dasharray:none;stroke-opacity:1"
       d="m 118.5213,192.41963 c -0.17045,-0.0991 -0.35018,-0.18047 -0.52814,-0.26484 -0.2786,-0.13584 -0.55633,-0.27345 -0.83318,-0.41285 -0.1808,-0.0899 -0.36054,-0.18264 -0.54841,-0.25724 -0.43026,-0.18145 -0.8604,-0.36322 -1.29059,-0.5448 -0.15211,-0.0505 -0.33489,-0.0863 -0.47536,0.0141 -0.007,0.0213 -0.0433,0.0271 -0.032,0.0549 0.0537,0.14325 0.15865,0.25821 0.26129,0.36848 0.37121,0.1449 0.74242,0.2898 1.11363,0.43468 0.46744,0.21691 0.93387,0.43607 1.39764,0.66072 0.23626,0.11322 0.47183,0.22793 0.70852,0.3402 0.10646,0.0487 0.21291,0.0976 0.31938,0.14641 0.12644,-0.0822 0.19422,-0.2457 0.16037,-0.39312 -0.0844,-0.0488 -0.16874,-0.0978 -0.25308,-0.14669 z"
       id="path871-3-7-8"
       inkscape:connector-curvature="0"
       sodipodi:nodetypes="ccccccccccccccccc"
       inkscape:transform-center-x="14.396405"
       inkscape:transform-center-y="-7.6069282" />
    <path
       style="display:inline;opacity:1;fill:#ffffff;fill-opacity:1;stroke:#000000;stroke-width:0.35788807;stroke-linecap:butt;stroke-linejoin:miter;stroke-miterlimit:4;stroke-dasharray:none;stroke-opacity:1"
       d="m 113.29008,189.77587 c -0.17044,-0.0992 -0.35017,-0.18045 -0.52813,-0.26484 -0.2786,-0.13584 -0.55634,-0.27344 -0.83319,-0.41283 -0.18079,-0.0899 -0.36054,-0.18265 -0.54841,-0.25726 -0.43027,-0.18144 -0.8604,-0.36321 -1.2906,-0.54478 -0.15211,-0.0506 -0.33488,-0.0864 -0.47535,0.0141 -0.007,0.0213 -0.0433,0.0271 -0.032,0.0548 0.0537,0.14325 0.15866,0.25822 0.26129,0.3685 0.37121,0.14488 0.74242,0.28978 1.11362,0.43467 0.46745,0.2169 0.93389,0.43606 1.39766,0.66071 0.23626,0.11321 0.47182,0.22793 0.70852,0.3402 0.10646,0.0488 0.21291,0.0976 0.31938,0.14642 0.12644,-0.0822 0.19421,-0.24571 0.16036,-0.39312 -0.0844,-0.0488 -0.16873,-0.0978 -0.25308,-0.14671 z"
       id="path871-6-8-9"
       inkscape:connector-curvature="0"
       sodipodi:nodetypes="ccccccccccccccccc"
       inkscape:transform-center-x="9.0239088"
       inkscape:transform-center-y="-4.9823075" />
    <path
       style="display:inline;opacity:1;fill:#ffffff;fill-opacity:1;stroke:#000000;stroke-width:0.35788807;stroke-linecap:butt;stroke-linejoin:miter;stroke-miterlimit:4;stroke-dasharray:none;stroke-opacity:1"
       d="m 91.231378,179.29117 c -0.17042,-0.0992 -0.35016,-0.18045 -0.528121,-0.26483 -0.2786,-0.13584 -0.556339,-0.27346 -0.833185,-0.41285 -0.180798,-0.0899 -0.360544,-0.18264 -0.548411,-0.25724 -0.430267,-0.18145 -0.860404,-0.36322 -1.2906,-0.5448 -0.152098,-0.0505 -0.33488,-0.0863 -0.475339,0.0141 -0.0068,0.0213 -0.0434,0.0271 -0.03205,0.0548 0.0537,0.14325 0.158651,0.25822 0.26129,0.3685 0.371194,0.1449 0.742414,0.28979 1.113616,0.43467 0.467453,0.21691 0.933885,0.43607 1.397656,0.66071 0.236266,0.11321 0.47182,0.22794 0.708511,0.3402 0.106476,0.0488 0.212924,0.0976 0.31939,0.14642 0.126439,-0.0822 0.194223,-0.24571 0.160362,-0.39311 -0.08436,-0.0488 -0.16872,-0.0978 -0.253073,-0.14671 z"
       id="path871-4-3-7"
       inkscape:connector-curvature="0"
       sodipodi:nodetypes="ccccccccccccccccc"
       inkscape:transform-center-x="3.4132147"
       inkscape:transform-center-y="-2.3052504" />
    <path
       style="display:inline;opacity:1;fill:#ffffff;fill-opacity:1;stroke:#000000;stroke-width:0.35788807;stroke-linecap:butt;stroke-linejoin:miter;stroke-miterlimit:4;stroke-dasharray:none;stroke-opacity:1"
       d="m 96.757131,181.98256 c -0.170421,-0.0992 -0.350169,-0.18047 -0.52813,-0.26484 -0.278601,-0.13585 -0.556332,-0.27345 -0.833185,-0.41285 -0.180798,-0.0899 -0.360535,-0.18263 -0.548403,-0.25724 -0.430266,-0.18145 -0.860403,-0.36322 -1.290608,-0.5448 -0.1521,-0.0506 -0.334881,-0.0863 -0.475333,0.014 -0.0068,0.0213 -0.0434,0.0271 -0.03205,0.0548 0.0537,0.14325 0.158651,0.25821 0.26129,0.36849 0.371203,0.14489 0.742414,0.28978 1.113617,0.43467 0.467452,0.21691 0.933884,0.43607 1.397655,0.66072 0.236267,0.11322 0.47182,0.22794 0.708512,0.3402 0.106473,0.0488 0.212923,0.0976 0.31939,0.14642 0.126439,-0.0822 0.194215,-0.24571 0.160361,-0.39312 -0.08437,-0.0488 -0.168721,-0.0978 -0.253072,-0.14671 z"
       id="path871-0-4-0"
       inkscape:connector-curvature="0"
       sodipodi:nodetypes="ccccccccccccccccc"
       inkscape:transform-center-x="-1.9518992"
       inkscape:transform-center-y="0.23505674" />
    <path
       style="display:inline;opacity:1;fill:#ffffff;fill-opacity:1;stroke:#000000;stroke-width:0.35788807;stroke-linecap:butt;stroke-linejoin:miter;stroke-miterlimit:4;stroke-dasharray:none;stroke-opacity:1"
       d="m 102.04896,184.43551 c -0.17043,-0.0992 -0.35016,-0.18046 -0.52813,-0.26484 -0.27859,-0.13584 -0.55633,-0.27345 -0.83317,-0.41285 -0.1808,-0.0899 -0.36054,-0.18263 -0.54842,-0.25724 -0.430256,-0.18146 -0.860393,-0.36322 -1.290597,-0.5448 -0.152101,-0.0506 -0.33488,-0.0863 -0.47534,0.0141 -0.0068,0.0213 -0.0434,0.0271 -0.03205,0.0549 0.0537,0.14325 0.158643,0.2582 0.261282,0.36848 0.371211,0.1449 0.742423,0.2898 1.113625,0.43469 0.46745,0.2169 0.93388,0.43606 1.39765,0.66071 0.23626,0.11321 0.47182,0.22793 0.70851,0.3402 0.10647,0.0487 0.21292,0.0976 0.31938,0.14641 0.12645,-0.0822 0.19422,-0.24571 0.16036,-0.39311 -0.0844,-0.0488 -0.16872,-0.0978 -0.25307,-0.1467 z"
       id="path871-5-7-6"
       inkscape:connector-curvature="0"
       sodipodi:nodetypes="ccccccccccccccccc"
       inkscape:transform-center-x="-7.5625771"
       inkscape:transform-center-y="2.9121958" />
    <path
       style="display:inline;opacity:1;fill:#ffffff;fill-opacity:1;stroke:#000000;stroke-width:0.35788807;stroke-linecap:butt;stroke-linejoin:miter;stroke-miterlimit:4;stroke-dasharray:none;stroke-opacity:1"
       d="m 107.38036,186.97867 c -0.17043,-0.0992 -0.35016,-0.18046 -0.52813,-0.26485 -0.27859,-0.13583 -0.55633,-0.27344 -0.83318,-0.41284 -0.1808,-0.0899 -0.36054,-0.18262 -0.54842,-0.25724 -0.43026,-0.18144 -0.86039,-0.36322 -1.2906,-0.54479 -0.1521,-0.0506 -0.33488,-0.0864 -0.47534,0.0141 -0.007,0.0213 -0.0434,0.0271 -0.032,0.0548 0.0537,0.14325 0.15865,0.25821 0.26129,0.36849 0.37121,0.14489 0.74242,0.28978 1.11362,0.43468 0.46745,0.21689 0.93388,0.43605 1.39766,0.66071 0.23626,0.11321 0.47182,0.22793 0.70852,0.3402 0.10646,0.0488 0.21291,0.0976 0.31937,0.14642 0.12645,-0.0822 0.19422,-0.24573 0.16036,-0.39314 -0.0844,-0.0488 -0.16872,-0.0978 -0.25307,-0.1467 z"
       id="path871-53-4-4"
       inkscape:connector-curvature="0"
       sodipodi:nodetypes="ccccccccccccccccc"
       inkscape:transform-center-x="-12.818476"
       inkscape:transform-center-y="5.5356233" />
    <path
       style="display:inline;opacity:1;fill:#ffffff;fill-opacity:1;stroke:#000000;stroke-width:0.35788807;stroke-linecap:butt;stroke-linejoin:miter;stroke-miterlimit:4;stroke-dasharray:none;stroke-opacity:1"
       d="m 104.01947,66.472531 c -0.17008,-0.09975 -0.34952,-0.181712 -0.52717,-0.266723 -0.27812,-0.136838 -0.55536,-0.275417 -0.83171,-0.41581 -0.18048,-0.09057 -0.35989,-0.183922 -0.54749,-0.2592 -0.42962,-0.182982 -0.8591,-0.366285 -1.28865,-0.54939 -0.15192,-0.05106 -0.33457,-0.08755 -0.47538,0.01237 -0.007,0.0212 -0.0434,0.02697 -0.0322,0.05477 0.0532,0.143437 0.15773,0.258771 0.25996,0.36942 0.37069,0.146217 0.74139,0.292434 1.11207,0.438642 0.46667,0.218575 0.93232,0.439386 1.39529,0.665706 0.23585,0.114055 0.471,0.229612 0.70729,0.342718 0.10629,0.04916 0.21257,0.09837 0.31886,0.147554 0.12673,-0.08174 0.1951,-0.245012 0.16177,-0.392541 -0.0842,-0.04908 -0.16837,-0.09839 -0.25257,-0.147603 z"
       id="path871-05-6-9"
       inkscape:connector-curvature="0"
       sodipodi:nodetypes="ccccccccccccccccc"
       inkscape:transform-center-x="20.222287"
       inkscape:transform-center-y="-10.527185" />
    <path
       style="display:inline;opacity:1;fill:#ffffff;fill-opacity:1;stroke:#000000;stroke-width:0.35788807;stroke-linecap:butt;stroke-linejoin:miter;stroke-miterlimit:4;stroke-dasharray:none;stroke-opacity:1"
       d="m 109.64337,68.949659 c -0.17008,-0.09976 -0.34952,-0.181712 -0.52718,-0.266723 -0.27811,-0.136838 -0.55536,-0.275433 -0.8317,-0.415819 -0.18048,-0.09057 -0.35989,-0.18393 -0.54749,-0.259191 -0.42961,-0.18299 -0.8591,-0.366293 -1.28865,-0.549407 -0.15193,-0.05106 -0.33457,-0.08754 -0.4754,0.01237 -0.007,0.0212 -0.0434,0.02697 -0.0322,0.05477 0.0532,0.143445 0.15773,0.258771 0.25998,0.369419 0.37068,0.146217 0.74137,0.292442 1.11206,0.438643 0.46667,0.218583 0.93232,0.439402 1.39528,0.665706 0.23586,0.114055 0.47101,0.229611 0.7073,0.342726 0.10629,0.04916 0.21257,0.09837 0.31886,0.147553 0.12673,-0.08174 0.19509,-0.245012 0.16177,-0.39254 -0.0842,-0.04908 -0.16838,-0.0984 -0.25256,-0.147603 z"
       id="path871-3-7-3-5"
       inkscape:connector-curvature="0"
       sodipodi:nodetypes="ccccccccccccccccc"
       inkscape:transform-center-x="14.36879"
       inkscape:transform-center-y="-7.6581576" />
    <path
       style="display:inline;opacity:1;fill:#ffffff;fill-opacity:1;stroke:#000000;stroke-width:0.35788807;stroke-linecap:butt;stroke-linejoin:miter;stroke-miterlimit:4;stroke-dasharray:none;stroke-opacity:1"
       d="m 114.84833,71.507054 c -0.17008,-0.09975 -0.34952,-0.181695 -0.52718,-0.266714 -0.27812,-0.13683 -0.55536,-0.275434 -0.83171,-0.415811 -0.18047,-0.09058 -0.35989,-0.18393 -0.54749,-0.259208 -0.42961,-0.182973 -0.8591,-0.366285 -1.28864,-0.54939 -0.15193,-0.05114 -0.33457,-0.08754 -0.4754,0.01237 -0.007,0.0212 -0.0434,0.02697 -0.0322,0.05477 0.0532,0.143445 0.15773,0.258779 0.25997,0.369427 0.37069,0.146209 0.74138,0.292434 1.11206,0.438643 0.46668,0.218575 0.93232,0.439394 1.39529,0.665697 0.23586,0.114056 0.471,0.229612 0.7073,0.342727 0.10629,0.04924 0.21257,0.09837 0.31886,0.147562 0.12673,-0.08175 0.19509,-0.245021 0.16176,-0.392549 -0.0842,-0.04908 -0.16838,-0.0984 -0.25255,-0.147603 z"
       id="path871-6-8-3-5"
       inkscape:connector-curvature="0"
       sodipodi:nodetypes="ccccccccccccccccc"
       inkscape:transform-center-x="9.0056985"
       inkscape:transform-center-y="-5.0143124" />
    <path
       style="display:inline;opacity:1;fill:#ffffff;fill-opacity:1;stroke:#000000;stroke-width:0.35788807;stroke-linecap:butt;stroke-linejoin:miter;stroke-miterlimit:4;stroke-dasharray:none;stroke-opacity:1"
       d="m 120.694,73.976516 c -0.17007,-0.09977 -0.34952,-0.181711 -0.52717,-0.266722 -0.27812,-0.136838 -0.55536,-0.275434 -0.83171,-0.415811 -0.18048,-0.09058 -0.3599,-0.18393 -0.54749,-0.259208 -0.42962,-0.182981 -0.8591,-0.366285 -1.28865,-0.54939 -0.15191,-0.05106 -0.33456,-0.08755 -0.47538,0.01237 -0.007,0.0212 -0.0435,0.02706 -0.0323,0.05477 0.0532,0.143437 0.15773,0.258787 0.25997,0.369419 0.37067,0.146225 0.74137,0.292434 1.11205,0.438659 0.46668,0.218567 0.93233,0.439377 1.39529,0.66569 0.23586,0.114055 0.47101,0.22962 0.70729,0.342734 0.1063,0.04924 0.21258,0.09836 0.31887,0.147554 0.12673,-0.08175 0.1951,-0.245021 0.16176,-0.392541 -0.0842,-0.04908 -0.16836,-0.0984 -0.25254,-0.147619 z"
       id="path871-4-3-9-8"
       inkscape:connector-curvature="0"
       sodipodi:nodetypes="ccccccccccccccccc"
       inkscape:transform-center-x="3.4045987"
       inkscape:transform-center-y="-2.3172593" />
    <path
       style="display:inline;opacity:1;fill:#ffffff;fill-opacity:1;stroke:#000000;stroke-width:0.35788807;stroke-linecap:butt;stroke-linejoin:miter;stroke-miterlimit:4;stroke-dasharray:none;stroke-opacity:1"
       d="m 126.28805,76.609657 c -0.17007,-0.09976 -0.34953,-0.181712 -0.52718,-0.266723 -0.27811,-0.136838 -0.55535,-0.275433 -0.8317,-0.41581 -0.18049,-0.09058 -0.35989,-0.183922 -0.54749,-0.2592 -0.42962,-0.182982 -0.8591,-0.366285 -1.28866,-0.549407 -0.15191,-0.05114 -0.33456,-0.08754 -0.47538,0.01229 -0.007,0.0212 -0.0435,0.02697 -0.0322,0.05477 0.0532,0.143446 0.15773,0.258779 0.25997,0.36942 0.37069,0.146217 0.74138,0.292434 1.11207,0.438651 0.46667,0.218575 0.93232,0.439393 1.39528,0.665697 0.23586,0.114064 0.47101,0.22962 0.70729,0.342727 0.1063,0.04916 0.21258,0.09837 0.31887,0.147561 0.12673,-0.08174 0.19509,-0.24502 0.16176,-0.392549 -0.0842,-0.04908 -0.16836,-0.0984 -0.25254,-0.147602 z"
       id="path871-0-4-9-7"
       inkscape:connector-curvature="0"
       sodipodi:nodetypes="ccccccccccccccccc"
       inkscape:transform-center-x="-1.9514393"
       inkscape:transform-center-y="0.24219029" />
    <path
       style="display:inline;opacity:1;fill:#ffffff;fill-opacity:1;stroke:#000000;stroke-width:0.35788807;stroke-linecap:butt;stroke-linejoin:miter;stroke-miterlimit:4;stroke-dasharray:none;stroke-opacity:1"
       d="m 131.57109,79.08148 c -0.17008,-0.09976 -0.34951,-0.181703 -0.52718,-0.266723 -0.27811,-0.136838 -0.55535,-0.275433 -0.83169,-0.415818 -0.18049,-0.09057 -0.35989,-0.183914 -0.5475,-0.259192 -0.42961,-0.18299 -0.85909,-0.366285 -1.28865,-0.549407 -0.15191,-0.05114 -0.33457,-0.08754 -0.47538,0.01237 -0.007,0.0212 -0.0435,0.02697 -0.0323,0.05477 0.0532,0.143454 0.15771,0.258779 0.25996,0.369428 0.37069,0.146217 0.74138,0.292442 1.11207,0.438651 0.46668,0.218575 0.93231,0.439385 1.39528,0.665697 0.23586,0.114055 0.471,0.229612 0.70728,0.342727 0.10631,0.04916 0.21258,0.09837 0.31887,0.147553 0.12674,-0.08174 0.1951,-0.24502 0.16176,-0.392541 -0.0842,-0.04908 -0.16837,-0.0984 -0.25255,-0.147611 z"
       id="path871-5-7-9-1"
       inkscape:connector-curvature="0"
       sodipodi:nodetypes="ccccccccccccccccc"
       inkscape:transform-center-x="-7.5524467"
       inkscape:transform-center-y="2.9392823" />
    <path
       style="display:inline;opacity:1;fill:#ffffff;fill-opacity:1;stroke:#000000;stroke-width:0.35788807;stroke-linecap:butt;stroke-linejoin:miter;stroke-miterlimit:4;stroke-dasharray:none;stroke-opacity:1"
       d="m 136.89337,81.643651 c -0.17007,-0.09975 -0.3495,-0.181703 -0.52717,-0.266722 -0.27811,-0.13683 -0.55536,-0.275434 -0.8317,-0.415811 -0.18049,-0.09058 -0.35989,-0.183913 -0.5475,-0.2592 -0.42962,-0.182973 -0.85909,-0.366284 -1.28865,-0.54939 -0.15191,-0.05114 -0.33457,-0.08754 -0.47538,0.01237 -0.007,0.0212 -0.0435,0.02697 -0.0323,0.05477 0.0532,0.143437 0.15771,0.258779 0.25996,0.369419 0.37069,0.146209 0.74138,0.292434 1.11207,0.438651 0.46667,0.218567 0.93231,0.439386 1.39528,0.665689 0.23587,0.114064 0.47101,0.22962 0.70731,0.342735 0.10628,0.04916 0.21256,0.09837 0.31885,0.147562 0.12674,-0.08174 0.19509,-0.245037 0.16175,-0.392566 -0.0842,-0.04908 -0.16836,-0.0984 -0.25254,-0.147602 z"
       id="path871-53-4-5-3"
       inkscape:connector-curvature="0"
       sodipodi:nodetypes="ccccccccccccccccc"
       inkscape:transform-center-x="-12.798947"
       inkscape:transform-center-y="5.581526" />
    <path
       style="display:inline;opacity:1;fill:#ffffff;fill-opacity:1;stroke:#000000;stroke-width:0.35788807;stroke-linecap:butt;stroke-linejoin:miter;stroke-miterlimit:4;stroke-dasharray:none;stroke-opacity:1"
       d="m 170.21252,97.504758 c -0.17045,-0.09915 -0.35018,-0.180466 -0.52814,-0.264842 -0.2786,-0.13584 -0.55633,-0.273446 -0.83318,-0.412841 -0.1808,-0.08993 -0.36055,-0.182643 -0.54841,-0.257245 -0.43026,-0.181447 -0.8604,-0.363216 -1.29059,-0.544796 -0.15212,-0.05048 -0.33489,-0.08634 -0.47536,0.01411 -0.007,0.02128 -0.0433,0.02714 -0.0321,0.05485 0.0537,0.143247 0.15865,0.258202 0.26129,0.368479 0.3712,0.144897 0.74242,0.289794 1.11363,0.434675 0.46744,0.216917 0.93387,0.436069 1.39765,0.660723 0.23626,0.113214 0.47182,0.227929 0.70851,0.340203 0.10647,0.04875 0.21292,0.09761 0.31939,0.146407 0.12644,-0.08224 0.19421,-0.245705 0.16037,-0.393119 -0.0844,-0.04883 -0.16874,-0.09779 -0.25308,-0.146695 z"
       id="path871-3-7-8-4"
       inkscape:connector-curvature="0"
       sodipodi:nodetypes="ccccccccccccccccc"
       inkscape:transform-center-x="14.396424"
       inkscape:transform-center-y="-7.6069496" />
    <path
       style="display:inline;opacity:1;fill:#ffffff;fill-opacity:1;stroke:#000000;stroke-width:0.35788807;stroke-linecap:butt;stroke-linejoin:miter;stroke-miterlimit:4;stroke-dasharray:none;stroke-opacity:1"
       d="m 164.9813,94.860998 c -0.17044,-0.09915 -0.35017,-0.180449 -0.52814,-0.264842 -0.2786,-0.135832 -0.55633,-0.273437 -0.83318,-0.412824 -0.18079,-0.08994 -0.36055,-0.182652 -0.54841,-0.257262 -0.43027,-0.181439 -0.8604,-0.363208 -1.2906,-0.544779 -0.15211,-0.05057 -0.33488,-0.08636 -0.47535,0.01411 -0.007,0.02128 -0.0433,0.02714 -0.0321,0.05485 0.0537,0.143247 0.15865,0.258218 0.2613,0.368495 0.3712,0.144889 0.74241,0.289786 1.11361,0.434675 0.46745,0.216901 0.93389,0.436061 1.39766,0.660707 0.23626,0.113214 0.47181,0.227929 0.70851,0.340203 0.10647,0.04883 0.21292,0.09761 0.31938,0.146415 0.12644,-0.08224 0.19422,-0.245705 0.16037,-0.393118 -0.0844,-0.04883 -0.16873,-0.0978 -0.25308,-0.146704 z"
       id="path871-6-8-9-6"
       inkscape:connector-curvature="0"
       sodipodi:nodetypes="ccccccccccccccccc"
       inkscape:transform-center-x="9.0239295"
       inkscape:transform-center-y="-4.9822652" />
    <path
       style="display:inline;opacity:1;fill:#ffffff;fill-opacity:1;stroke:#000000;stroke-width:0.35788807;stroke-linecap:butt;stroke-linejoin:miter;stroke-miterlimit:4;stroke-dasharray:none;stroke-opacity:1"
       d="m 142.9226,84.376299 c -0.17042,-0.09915 -0.35016,-0.180449 -0.52813,-0.264833 -0.2786,-0.13584 -0.55634,-0.273454 -0.83318,-0.412841 -0.1808,-0.08994 -0.36054,-0.182644 -0.54842,-0.257245 -0.43026,-0.181447 -0.8604,-0.363216 -1.29059,-0.544796 -0.1521,-0.05048 -0.33488,-0.08635 -0.47534,0.01411 -0.007,0.02128 -0.0434,0.02714 -0.0321,0.05485 0.0537,0.143247 0.15865,0.258218 0.26129,0.368495 0.3712,0.144897 0.74241,0.289786 1.11362,0.434675 0.46745,0.216909 0.93388,0.436061 1.39765,0.660707 0.23627,0.113214 0.47182,0.227937 0.70851,0.340203 0.10648,0.04883 0.21292,0.09761 0.31939,0.146415 0.12645,-0.08224 0.19423,-0.245705 0.16036,-0.39311 -0.0844,-0.04883 -0.16871,-0.0978 -0.25307,-0.146712 z"
       id="path871-4-3-7-8"
       inkscape:connector-curvature="0"
       sodipodi:nodetypes="ccccccccccccccccc"
       inkscape:transform-center-x="3.4132351"
       inkscape:transform-center-y="-2.3052248" />
    <path
       style="display:inline;opacity:1;fill:#ffffff;fill-opacity:1;stroke:#000000;stroke-width:0.35788807;stroke-linecap:butt;stroke-linejoin:miter;stroke-miterlimit:4;stroke-dasharray:none;stroke-opacity:1"
       d="m 148.44835,87.067687 c -0.17042,-0.09915 -0.35017,-0.180465 -0.52813,-0.264842 -0.2786,-0.13584 -0.55633,-0.273445 -0.83319,-0.412841 -0.1808,-0.08993 -0.36053,-0.182635 -0.54841,-0.257244 -0.43026,-0.181448 -0.8604,-0.363217 -1.2906,-0.544796 -0.1521,-0.05057 -0.33488,-0.08635 -0.47533,0.01402 -0.007,0.02128 -0.0434,0.02714 -0.0321,0.05485 0.0537,0.143247 0.15866,0.25821 0.26129,0.368487 0.37121,0.144889 0.74242,0.289778 1.11362,0.434675 0.46745,0.216909 0.93388,0.436069 1.39765,0.660715 0.23627,0.113222 0.47182,0.227938 0.70851,0.340203 0.10648,0.04875 0.21293,0.09761 0.31939,0.146415 0.12645,-0.08224 0.19422,-0.245705 0.16037,-0.393118 -0.0844,-0.04883 -0.16872,-0.0978 -0.25308,-0.146704 z"
       id="path871-0-4-0-3"
       inkscape:connector-curvature="0"
       sodipodi:nodetypes="ccccccccccccccccc"
       inkscape:transform-center-x="-1.9518793"
       inkscape:transform-center-y="0.23508983" />
    <path
       style="display:inline;opacity:1;fill:#ffffff;fill-opacity:1;stroke:#000000;stroke-width:0.35788807;stroke-linecap:butt;stroke-linejoin:miter;stroke-miterlimit:4;stroke-dasharray:none;stroke-opacity:1"
       d="m 153.74018,89.520637 c -0.17044,-0.09915 -0.35017,-0.180457 -0.52813,-0.264842 -0.2786,-0.13584 -0.55633,-0.273445 -0.83317,-0.41284 -0.18081,-0.08993 -0.36055,-0.182636 -0.54842,-0.257245 -0.43026,-0.181456 -0.86039,-0.363217 -1.2906,-0.544796 -0.1521,-0.05057 -0.33488,-0.08635 -0.47534,0.01411 -0.007,0.02128 -0.0434,0.02714 -0.0321,0.05485 0.0537,0.143256 0.15864,0.258202 0.26128,0.368488 0.37122,0.144897 0.74243,0.289786 1.11363,0.434683 0.46745,0.216909 0.93387,0.436053 1.39765,0.660715 0.23627,0.113214 0.47182,0.227929 0.70851,0.340203 0.10647,0.04875 0.21292,0.0976 0.31938,0.146406 0.12644,-0.08224 0.19422,-0.245705 0.16036,-0.393109 -0.0844,-0.04883 -0.16872,-0.0978 -0.25307,-0.146704 z"
       id="path871-5-7-6-3"
       inkscape:connector-curvature="0"
       sodipodi:nodetypes="ccccccccccccccccc"
       inkscape:transform-center-x="-7.5625533"
       inkscape:transform-center-y="2.912174" />
    <path
       style="display:inline;opacity:1;fill:#ffffff;fill-opacity:1;stroke:#000000;stroke-width:0.35788807;stroke-linecap:butt;stroke-linejoin:miter;stroke-miterlimit:4;stroke-dasharray:none;stroke-opacity:1"
       d="m 159.07157,92.063795 c -0.17042,-0.09914 -0.35015,-0.180457 -0.52812,-0.264842 -0.27859,-0.135831 -0.55634,-0.273445 -0.83318,-0.41284 -0.1808,-0.08993 -0.36054,-0.182627 -0.54842,-0.257245 -0.43027,-0.181439 -0.86039,-0.363217 -1.2906,-0.544788 -0.1521,-0.05056 -0.33488,-0.08635 -0.47534,0.01411 -0.007,0.02128 -0.0434,0.02714 -0.0321,0.05485 0.0537,0.143247 0.15864,0.25821 0.26128,0.368487 0.37121,0.144889 0.74241,0.289786 1.11362,0.434683 0.46745,0.216893 0.93388,0.436053 1.39765,0.660707 0.23627,0.113214 0.47183,0.227938 0.70853,0.340203 0.10646,0.04875 0.21291,0.09761 0.31937,0.146423 0.12645,-0.08224 0.19422,-0.24573 0.16036,-0.393143 -0.0844,-0.04883 -0.16872,-0.09779 -0.25307,-0.146695 z"
       id="path871-53-4-4-4"
       inkscape:connector-curvature="0"
       sodipodi:nodetypes="ccccccccccccccccc"
       inkscape:transform-center-x="-12.818448"
       inkscape:transform-center-y="5.5356723" />
    <path
       style="fill:#7f5126;fill-opacity:1;stroke:#000000;stroke-width:0.565;stroke-linecap:butt;stroke-linejoin:miter;stroke-miterlimit:4;stroke-dasharray:none;stroke-opacity:1"
       d="m 151.46216,137.90819 -23.57369,-11.29251 -10.82442,19.37704 23.32983,12.06441 z"
       id="path986"
       inkscape:connector-curvature="0" />
    <path
       style="fill:#7f5126;fill-opacity:1;stroke:#000000;stroke-width:0.565;stroke-linecap:butt;stroke-linejoin:miter;stroke-miterlimit:4;stroke-dasharray:none;stroke-opacity:1"
       d="m 127.89453,120.18555 c -1.39251,0.38102 -2.61186,1.31751 -3.3776,2.53685 -0.84328,1.30012 -1.61598,2.65323 -2.20248,4.0901 -0.19771,0.48176 -0.34529,0.98181 -0.46048,1.48929 -0.24953,1.09164 -0.37829,2.20575 -0.55359,3.31062 -0.0446,0.25783 -0.0406,0.54269 -0.19686,0.76454 -0.25882,0.36455 -0.70638,0.51822 -1.13081,0.58389 -0.29298,0.056 -0.58597,0.11205 -0.87896,0.16807 -0.29955,0.15375 -0.37311,0.55101 -0.27734,0.84961 0.12174,0.42708 0.24349,0.85416 0.36523,1.28125 0.0136,0.52196 -0.30854,0.97523 -0.65222,1.33802 -1.41349,1.50873 -2.83263,3.0123 -4.22473,4.54088 -0.72719,0.95999 -1.25284,2.05598 -1.67117,3.18078 -0.37642,1.13723 -0.51753,2.33973 -0.52024,3.53407 -0.0162,0.2643 0.0134,0.62444 0.30122,0.73164 0.27598,0.088 0.54088,-0.0897 0.7674,-0.22562 0.84537,-0.51217 1.67992,-1.04288 2.52738,-1.55109 0.50539,-0.2519 1.09739,-0.23047 1.63873,-0.12808 0.62083,0.13153 1.23406,0.29539 1.84926,0.45049 0.52554,-0.0151 0.97977,-0.371 1.25195,-0.80078 0.61797,-0.97671 0.88491,-2.1146 1.25472,-3.19646 0.39562,-1.20392 0.93578,-2.35833 1.58883,-3.44381 1.32386,-2.27746 2.64687,-4.55557 3.98518,-6.8245 0.42291,-0.68696 0.94283,-1.30742 1.48961,-1.89827 0.54298,-0.61226 1.09693,-1.22101 1.54494,-1.90845 0.24115,-0.45523 0.14036,-1.06378 -0.24704,-1.40719 -0.4925,-0.5712 -1.11018,-1.06144 -1.42093,-1.76663 -0.25546,-0.60566 -0.26297,-1.28047 -0.1875,-1.92383 0.0933,-1.02774 0.19022,-2.06151 0.11328,-3.09375 -0.0445,-0.32248 -0.27842,-0.67237 -0.63086,-0.6875 z"
       id="path988"
       inkscape:connector-curvature="0"
       sodipodi:nodetypes="cccccccccccccccccccccccccccccccccc" />
    <rect
       style="opacity:1;fill:#7f5126;fill-opacity:1;stroke:none;stroke-width:0.77573162;stroke-miterlimit:4;stroke-dasharray:none;stroke-dashoffset:0;stroke-opacity:1"
       id="rect992"
       width="5.7781396"
       height="21.713102"
       x="172.52126"
       y="54.193901"
       rx="1.0321777"
       ry="0.80144554"
       transform="matrix(0.88893752,0.45802848,-0.46079806,0.88750501,0,0)" />
    <path
       style="opacity:1;fill:#7f5126;fill-opacity:1;stroke:none;stroke-width:0.56499994;stroke-miterlimit:4;stroke-dasharray:none;stroke-dashoffset:0;stroke-opacity:1"
       id="path994"
       sodipodi:type="arc"
       sodipodi:cx="125.51645"
       sodipodi:cy="137.27304"
       sodipodi:rx="2.505652"
       sodipodi:ry="1.837478"
       sodipodi:start="4.117319"
       sodipodi:end="3.8584866"
       sodipodi:open="true"
       d="m 124.11186,135.75141 a 2.505652,1.837478 0 0 1 3.38438,0.39536 2.505652,1.837478 0 0 1 -0.31917,2.50225 2.505652,1.837478 0 0 1 -3.42565,-0.0718 2.505652,1.837478 0 0 1 -0.12386,-2.51153" />
    <path
       style="opacity:1;fill:#120d05;fill-opacity:1;stroke:none;stroke-width:0.56499994;stroke-miterlimit:4;stroke-dasharray:none;stroke-dashoffset:0;stroke-opacity:1"
       id="path996"
       sodipodi:type="arc"
       sodipodi:cx="126.01759"
       sodipodi:cy="137.70735"
       sodipodi:rx="2.5390604"
       sodipodi:ry="2.6058779"
       sodipodi:start="4.117319"
       sodipodi:end="3.8584866"
       sodipodi:open="true"
       d="m 124.59428,135.5494 a 2.5390604,2.6058779 0 0 1 3.4295,0.5607 2.5390604,2.6058779 0 0 1 -0.32342,3.54864 2.5390604,2.6058779 0 0 1 -3.47132,-0.10177 2.5390604,2.6058779 0 0 1 -0.12552,-3.5618" />
    <path
       style="opacity:1;fill:#ffffff;fill-opacity:0.82828285;stroke:none;stroke-width:0.56499994;stroke-miterlimit:4;stroke-dasharray:none;stroke-dashoffset:0;stroke-opacity:1"
       d="m 126.48828,135.63867 c -0.15597,0.0542 -0.28057,0.21107 -0.26172,0.38086 0.24506,0.16567 0.54406,0.24719 0.75782,0.45899 0.20487,0.2007 0.32816,0.46785 0.52929,0.67187 0.11797,0.14027 0.35961,0.0622 0.39649,-0.11133 0.0821,-0.21072 -0.003,-0.44141 -0.11733,-0.62249 -0.16921,-0.2831 -0.40475,-0.53455 -0.70299,-0.68219 -0.18293,-0.0855 -0.40121,-0.1464 -0.60156,-0.0957 z"
       id="path1012"
       inkscape:connector-curvature="0" />
    <path
       style="opacity:1;fill:#ffffff;fill-opacity:0.82828285;stroke:none;stroke-width:0.56499994;stroke-miterlimit:4;stroke-dasharray:none;stroke-dashoffset:0;stroke-opacity:1"
       d="m 127.95117,137.47266 h -0.0352 c -0.0533,0.032 -0.10337,0.0686 -0.1504,0.10937 -0.0359,0.23796 -0.0416,0.47947 -0.0156,0.71875 0.0405,0.0595 0.1147,0.0765 0.17969,0.0937 0.0902,-0.0188 0.20411,-0.002 0.26562,-0.0859 0.0705,-0.0838 0.0536,-0.19946 0.0606,-0.30078 -10e-4,-0.14649 -0.0148,-0.29978 -0.0879,-0.42969 -0.0467,-0.0692 -0.13121,-0.12067 -0.2168,-0.10546 z"
       id="path1015"
       inkscape:connector-curvature="0" />
    <path
       style="display:inline;fill:#7f5126;fill-opacity:1;stroke:#000000;stroke-width:0.565;stroke-linecap:butt;stroke-linejoin:miter;stroke-miterlimit:4;stroke-dasharray:none;stroke-opacity:1"
       d="m 158.55859,89.298828 c -0.22326,0.405797 -0.45753,0.805902 -0.66015,1.222656 0.56834,3.006108 1.0326,6.031079 1.63167,9.031499 0.28973,1.573597 0.6431,3.134357 0.99482,4.694897 0.7176,3.34381 1.4352,6.68761 2.1528,10.03142 0.58008,0.3125 1.16016,0.625 1.74024,0.9375 2.63168,-4.7063 5.30873,-9.38698 7.97187,-14.07548 0.90977,-1.624578 1.81953,-3.24916 2.7293,-4.873742 -5.45573,-2.436849 -10.91146,-4.873698 -16.36719,-7.310547 -0.0644,0.113933 -0.1289,0.227865 -0.19336,0.341797 z"
       id="path1018"
       inkscape:connector-curvature="0"
       sodipodi:nodetypes="csscccccccc" />
    <path
       style="fill:#7f5126;fill-opacity:1;stroke:#000000;stroke-width:0.565;stroke-linecap:butt;stroke-linejoin:miter;stroke-miterlimit:4;stroke-dasharray:none;stroke-opacity:1"
       d="m 164.43071,115.21671 0.77172,2.05669 10.41515,-18.500071 -0.3487,-1.977156 -3.4e-4,-0.453518 -0.15034,-0.07517 z"
       id="path1022"
       inkscape:connector-curvature="0"
       sodipodi:nodetypes="ccccccc" />
    <path
       style="display:inline;fill:#7f5126;fill-opacity:1;stroke:#000000;stroke-width:0.56500006;stroke-linecap:butt;stroke-linejoin:miter;stroke-miterlimit:4;stroke-dasharray:none;stroke-opacity:1"
       d="m 127.88477,177.02734 c -3.71756,1.74996 -7.44881,3.47174 -11.14097,5.27494 -2.91087,1.46978 -5.78806,3.00521 -8.64217,4.5821 -0.58109,0.32143 -1.17842,0.61731 -1.75259,0.94868 -0.47568,0.40078 -0.68833,1.0074 -1.03068,1.51069 -0.15141,0.21856 -0.26374,0.55749 -0.0383,0.76865 0.28174,0.27393 0.68155,0.36265 1.01268,0.56084 2.51674,1.2341 5.02054,2.4981 7.59383,3.61203 2.09153,0.92668 4.19186,1.83924 6.21797,2.90421 0.30395,0.15461 0.60665,0.31169 0.9052,0.47654 0.30997,0.0718 0.29637,-0.35414 0.46679,-0.50782 1.71228,-2.90496 3.23406,-5.91586 4.8009,-8.90024 1.6414,-3.14176 3.27784,-6.28611 4.90418,-9.43569 -0.0416,-0.38634 -0.46599,-0.52215 -0.76429,-0.6694 -0.76412,-0.36736 -1.52823,-0.73473 -2.29235,-1.10209 -0.0791,-0.0164 -0.1589,-0.0358 -0.24023,-0.0234 z"
       id="path1018-9"
       inkscape:connector-curvature="0"
       sodipodi:nodetypes="csscccccccccccccccc" />
    <path
       style="display:inline;fill:#7f5126;fill-opacity:1;stroke:#000000;stroke-width:0.56500006;stroke-linecap:butt;stroke-linejoin:miter;stroke-miterlimit:4;stroke-dasharray:none;stroke-opacity:1"
       d="m 131.31445,178.5332 c -3.44271,6.61394 -6.88541,13.22787 -10.32812,19.8418 -0.0126,0.48807 -0.0585,0.96778 -0.0377,1.4642 0.004,0.0939 -0.005,0.18793 -0.007,0.28189 -0.0339,0.2142 0.0339,-0.21419 0,0 0.22408,-0.001 -1.65801,-0.81776 0.45665,0.33582 0.16057,-0.21354 0.31011,-0.43615 0.44889,-0.66468 0.22865,-0.3722 0.45273,-0.74762 0.64457,-1.14045 0.2861,-0.5578 0.59417,-1.10403 0.88979,-1.65681 0.86906,-1.59841 1.72627,-3.20323 2.58433,-4.80756 1.97727,-3.7159 3.95276,-7.43276 5.92694,-11.1503 -0.10486,-0.61274 -0.23492,-1.22072 -0.35742,-1.83008 -0.0331,-0.21214 -0.0445,-0.42663 -0.0586,-0.64062 -0.0567,0.002 -0.10478,-0.0596 -0.16211,-0.0332 z"
       id="path1022-7"
       inkscape:connector-curvature="0"
       sodipodi:nodetypes="ccsccccccccccc" />
    <path
       style="display:inline;fill:#7f5126;fill-opacity:1;stroke:#000000;stroke-width:0.56500006;stroke-linecap:butt;stroke-linejoin:miter;stroke-miterlimit:4;stroke-dasharray:none;stroke-opacity:1"
       d="m 105.16797,190.03906 c -0.0368,0.27018 -0.0139,0.58154 -0.0306,0.86745 -0.008,0.36892 -0.0278,0.7374 -0.0573,1.10521 -0.0103,0.22786 0.22217,0.34273 0.40327,0.41136 0.41307,0.18543 0.81285,0.39946 1.21528,0.60675 1.18212,0.6186 2.36082,1.24413 3.55885,1.83166 2.78618,1.38263 5.57479,2.76037 8.3687,4.12733 0.87728,0.43276 1.75922,0.85594 2.63944,1.28266 -0.19932,-0.20999 -0.18289,-0.51809 -0.19511,-0.78661 -0.026,-0.55645 -0.022,-1.11354 -0.0217,-1.67042 -0.18892,-0.25361 -0.51115,-0.33061 -0.77773,-0.47261 -1.5026,-0.74834 -3.01355,-1.47971 -4.52965,-2.20027 -2.48149,-1.18729 -4.96982,-2.36077 -7.43268,-3.5865 -1.00868,-0.51358 -2.02948,-1.00279 -3.0451,-1.50234 -0.0302,-0.01 -0.0633,-0.025 -0.0957,-0.0137 z"
       id="path1022-7-5"
       inkscape:connector-curvature="0"
       sodipodi:nodetypes="cccccsscccccc" />
  </g>
  <g
     inkscape:groupmode="layer"
     id="layer7"
     inkscape:label="Lether edges"
     transform="translate(-37.970926,-58.82625)" />
</svg>
