<?xml version="1.0" encoding="UTF-8" standalone="no"?>
<!-- Created with Inkscape (http://www.inkscape.org/) -->

<svg
   xmlns:dc="http://purl.org/dc/elements/1.1/"
   xmlns:cc="http://creativecommons.org/ns#"
   xmlns:rdf="http://www.w3.org/1999/02/22-rdf-syntax-ns#"
   xmlns:svg="http://www.w3.org/2000/svg"
   xmlns="http://www.w3.org/2000/svg"
   xmlns:xlink="http://www.w3.org/1999/xlink"
   xmlns:sodipodi="http://sodipodi.sourceforge.net/DTD/sodipodi-0.dtd"
   xmlns:inkscape="http://www.inkscape.org/namespaces/inkscape"
   width="200.56633mm"
   height="187.94432mm"
   viewBox="0 0 200.56633 187.94432"
   version="1.1"
   id="svg1015"
   inkscape:version="0.92.4 5da689c313, 2019-01-14"
   sodipodi:docname="HelpDuck-resized.svg">
  <defs
     id="defs1009">
    <linearGradient
       inkscape:collect="always"
       xlink:href="#linearGradient1233"
       id="linearGradient1235"
       x1="222.77916"
       y1="173.43958"
       x2="227.27708"
       y2="155.44791"
       gradientUnits="userSpaceOnUse"
       gradientTransform="matrix(-1.1233832,0,0,1.1233832,423.48919,-43.666947)" />
    <linearGradient
       inkscape:collect="always"
       id="linearGradient1233">
      <stop
         style="stop-color:#aa0000;stop-opacity:1;"
         offset="0"
         id="stop1229" />
      <stop
         style="stop-color:#aa0000;stop-opacity:0;"
         offset="1"
         id="stop1231" />
    </linearGradient>
  </defs>
  <sodipodi:namedview
     id="base"
     pagecolor="#ffffff"
     bordercolor="#666666"
     borderopacity="1.0"
     inkscape:pageopacity="0.0"
     inkscape:pageshadow="2"
     inkscape:zoom="0.7"
     inkscape:cx="498.31086"
     inkscape:cy="352.02653"
     inkscape:document-units="mm"
     inkscape:current-layer="layer1"
     showgrid="false"
     inkscape:window-width="1920"
     inkscape:window-height="1015"
     inkscape:window-x="0"
     inkscape:window-y="0"
     inkscape:window-maximized="1" />
  <metadata
     id="metadata1012">
    <rdf:RDF>
      <cc:Work
         rdf:about="">
        <dc:format>image/svg+xml</dc:format>
        <dc:type
           rdf:resource="http://purl.org/dc/dcmitype/StillImage" />
        <dc:title></dc:title>
      </cc:Work>
    </rdf:RDF>
  </metadata>
  <g
     inkscape:label="Layer 1"
     inkscape:groupmode="layer"
     id="layer1"
     transform="translate(-8.8379445,-46.027139)">
    <path
       style="display:inline;opacity:1;fill:#000000;fill-opacity:1;stroke:#000000;stroke-width:0;stroke-linecap:butt;stroke-miterlimit:4;stroke-dasharray:none;stroke-dashoffset:0;stroke-opacity:1"
       d="m 27.717639,126.21031 c -0.24236,0.0599 -0.475412,0.15429 -0.696008,0.27059 -0.24845,0.1268 -0.482045,0.28153 -0.700871,0.45428 -0.268502,0.21136 -0.499185,0.46676 -0.703469,0.73979 -0.146651,0.20333 -0.272061,0.42161 -0.375202,0.65003 -0.145052,0.31775 -0.247375,0.65318 -0.332359,0.99142 -0.0649,0.25737 -0.117511,0.51735 -0.164171,0.7786 -0.04815,0.27525 -0.08898,0.55158 -0.121499,0.82911 -0.03959,0.32029 -0.06966,0.64168 -0.08451,0.96411 -0.02075,0.28478 -0.01646,0.57065 -0.01494,0.85598 0.01037,0.61859 0.04416,1.2365 0.07223,1.85447 0.03093,0.59913 0.06195,1.19826 0.09298,1.79738 0.0029,0.221 0.01094,0.4746 -0.157995,0.64311 -0.239923,-0.11379 -0.457835,-0.26678 -0.670988,-0.42378 -1.052558,-0.84376 -2.103821,-1.68915 -3.157169,-2.53188 -0.254779,-0.19985 -0.528373,-0.37418 -0.800044,-0.54987 -0.235013,-0.14539 -0.46128,-0.30554 -0.707104,-0.4327 -0.351087,-0.19553 -0.703507,-0.38932 -1.068412,-0.55818 -0.34986,-0.16543 -0.720352,-0.28017 -1.090948,-0.38883 -0.275554,-0.0821 -0.555952,-0.14773 -0.837339,-0.20611 -0.262088,-0.0524 -0.525994,-0.0984 -0.793154,-0.1144 -0.313839,-0.0244 -0.631285,-0.025 -0.942469,0.0273 -0.257054,0.0375 -0.510396,0.0996 -0.754678,0.18809 -0.252172,0.0922 -0.493789,0.21122 -0.724034,0.34915 -0.232853,0.14016 -0.443694,0.31285 -0.646836,0.49256 -0.201077,0.19572 -0.385299,0.40933 -0.539573,0.64406 -0.157491,0.22705 -0.279171,0.47642 -0.384206,0.73139 -0.105349,0.2813 -0.179654,0.57378 -0.220376,0.87142 -0.04473,0.26365 -0.06205,0.53102 -0.07109,0.79803 -0.0038,0.26176 0.0067,0.5235 0.03264,0.78402 0.02408,0.27469 0.06338,0.54797 0.105406,0.82039 0.0808,0.45915 0.181101,0.91456 0.283424,1.36928 0.07375,0.30455 0.164999,0.60466 0.259766,0.90321 0.171499,0.51875 0.351354,1.03502 0.554277,1.54238 0.19273,0.47911 0.407311,0.94903 0.627402,1.41609 0.445112,0.93224 0.912568,1.85356 1.37637,2.77658 0.554725,1.10405 1.116072,2.20476 1.680351,3.30395 0.131596,0.24852 0.277419,0.48915 0.418103,0.73254 0.389925,0.64639 0.8271,1.26236 1.24722,1.8891 0.210689,0.30889 0.421368,0.61777 0.632047,0.92665 0.182405,0.24698 0.386347,0.47669 0.585501,0.71003 0.223536,0.23801 0.456665,0.46688 0.701061,0.68346 0.116741,0.1305 0.320254,0.22166 0.337964,0.41504 -0.207358,0.12393 -0.455666,0.0858 -0.684959,0.083 -0.268312,-0.0112 -0.537309,-0.0153 -0.805087,0.009 -0.572635,0.0545 -1.14467,0.11503 -1.716248,0.17968 -0.315476,0.0551 -0.631542,0.10718 -0.943896,0.17843 -0.531894,0.1138 -1.061056,0.24003 -1.59158,0.36001 -0.441419,0.10538 -0.88418,0.20556 -1.324771,0.31417 -0.27111,0.0734 -0.53197,0.17922 -0.79676,0.27201 -0.492752,0.18055 -0.98558,0.36373 -1.461069,0.58654 -0.284785,0.13554 -0.546987,0.31243 -0.8167825,0.47468 -0.2160178,0.14243 -0.4351666,0.28824 -0.6059425,0.48513 -0.1798356,0.20675 -0.2342231,0.48109 -0.2758488,0.74343 -0.043776,0.30612 -0.087648,0.61296 -0.099373,0.92233 -0.01418,0.26589 0.00476,0.53294 0.045109,0.79587 0.04016,0.264 0.1159315,0.52135 0.2151708,0.76897 0.094119,0.24329 0.2268383,0.47024 0.3662568,0.68995 0.1520662,0.21953 0.3038183,0.44006 0.4828736,0.63888 0.2523426,0.30476 0.5436556,0.57556 0.8575146,0.81596 0.250077,0.19522 0.523033,0.35838 0.79696,0.51744 0.235041,0.13817 0.478086,0.26223 0.727936,0.37136 0.498005,0.22207 1.01431,0.39985 1.53249,0.56821 0.547597,0.17602 1.102644,0.32756 1.65714,0.48 0.794819,0.21414 1.59216,0.41925 2.394782,0.60226 0.53196,0.12523 1.065196,0.24491 1.598127,0.36592 0.809779,0.14969 1.622575,0.28236 2.43519,0.41551 0.430751,0.0678 0.860217,0.1445 1.293262,0.19682 0.876966,0.11736 1.753799,0.23701 2.63402,0.32788 0.933182,0.10067 1.867667,0.18923 2.802989,0.2675 0.548709,0.0431 1.097666,0.0839 1.647042,0.11736 0.456341,0.0245 0.912635,0.0499 1.369528,0.0616 1.108392,0.0277 2.217269,0.0188 3.325803,0.005 0.543428,-0.002 1.086494,-0.0233 1.629532,-0.0421 0.349974,-0.0342 0.704982,-0.0468 1.046448,-0.13754 0.272071,-0.0752 0.537765,-0.18451 0.768991,-0.34826 0.342865,-0.22899 0.630771,-0.52695 0.935884,-0.80173 0.524071,-0.49304 1.036655,-0.99818 1.553141,-1.49915 1.451143,-1.41866 2.902285,-2.83732 4.353428,-4.25599 0.345919,-0.29855 0.68947,-0.59991 1.044392,-0.88781 0.432426,-0.35915 0.871323,-0.71039 1.30688,-1.06571 0.17483,-0.17434 0.312793,-0.38095 0.425374,-0.59986 0.06205,-0.24978 0.05377,-0.50921 0.06528,-0.76443 -0.0029,-0.43705 -0.0038,-0.87414 -0.0196,-1.31097 -0.02627,-0.87413 -0.06033,-1.74804 -0.09231,-2.622 -0.08108,-2.14496 -0.160784,-4.28996 -0.241228,-6.43495 -0.02617,-0.47471 -0.08299,-0.94695 -0.140141,-1.41872 -0.120462,-0.96633 -0.244521,-1.93219 -0.373309,-2.89744 -0.04701,-0.3707 -0.110022,-0.73913 -0.167274,-1.10831 -0.09903,-0.57268 -0.202685,-1.14542 -0.351601,-1.70758 -0.166179,-0.67307 -0.364677,-1.3376 -0.572225,-1.99893 -0.17385,-0.56304 -0.349108,-1.12582 -0.539612,-1.68346 -0.151942,-0.41641 -0.308215,-0.83119 -0.467333,-1.24491 -0.203475,-0.44918 -0.431626,-0.88641 -0.656133,-1.32527 -0.186002,-0.31827 -0.362574,-0.64271 -0.574071,-0.9452 -0.197641,-0.30111 -0.426326,-0.5822 -0.682209,-0.83567 -0.253056,-0.25041 -0.537604,-0.47028 -0.851043,-0.63996 -0.212973,-0.1157 -0.443884,-0.19786 -0.679135,-0.2551 -0.235565,-0.0585 -0.480171,-0.0763 -0.722321,-0.0732 -0.246795,0.004 -0.492381,0.042 -0.729088,0.11161 -0.243226,0.0766 -0.479276,0.17736 -0.696921,0.31087 -0.220091,0.1412 -0.422567,0.30981 -0.600699,0.50129 -0.277296,0.30036 -0.479295,0.66029 -0.658008,1.02551 -0.290704,0.57764 -0.545112,1.17249 -0.814538,1.76014 -0.205397,0.4557 -0.408291,0.91253 -0.612699,1.36868 -0.0197,0.0301 -0.05034,0.12047 -0.06509,0.0335 -0.233585,-0.3834 -0.423156,-0.79101 -0.631922,-1.18795 -0.441762,-0.85866 -0.883533,-1.71731 -1.325305,-2.57596 -0.174011,-0.29941 -0.366846,-0.58809 -0.5855,-0.85686 -0.435015,-0.56377 -0.889548,-1.11194 -1.341987,-1.6617 -0.305865,-0.32409 -0.606371,-0.65378 -0.931982,-0.95846 -0.197851,-0.18703 -0.407274,-0.36247 -0.625233,-0.52571 -0.286384,-0.21321 -0.595569,-0.39866 -0.928575,-0.5293 -0.24926,-0.11073 -0.507769,-0.19891 -0.771256,-0.26901 -0.323679,-0.0913 -0.651851,-0.16939 -0.985342,-0.21471 -0.27149,-0.0383 -0.543875,-0.0811 -0.818896,-0.0753 -0.06129,0.0118 -0.122678,0.0235 -0.184013,0.0353 z"
       id="path2419-4"
       inkscape:connector-curvature="0"
       sodipodi:nodetypes="ccccccscsscccccccccccccccccccccccssccccc"
       inkscape:transform-center-x="-18.359092"
       inkscape:transform-center-y="16.715588" />
    <path
       style="opacity:1;fill:#feea33;fill-opacity:1;stroke:#010101;stroke-width:1.99849105;stroke-linecap:butt;stroke-miterlimit:4;stroke-dasharray:none;stroke-opacity:0.98989898"
       d="m 83.44938,144.07815 c -1.301417,0.0496 -2.599313,0.17246 -3.894831,0.3031 -3.92398,0.42226 -7.816498,1.13781 -11.63216,2.14676 -3.015362,0.79749 -5.982255,1.7684 -8.923025,2.8051 -4.087171,1.45595 -8.112466,3.08266 -12.083363,4.83005 -1.730693,0.75152 -3.438585,1.57714 -5.004355,2.63707 -1.762364,1.18319 -3.35441,2.67571 -4.435051,4.51793 -0.82513,1.36705 -1.368538,2.9004 -1.594739,4.48089 -0.426459,2.63273 -0.186469,5.31101 0.09532,7.94529 0.257311,2.50957 0.43392,5.05848 1.222335,7.47201 0.897141,2.93754 1.981285,5.81375 3.096652,8.67419 1.444586,3.62793 3.191391,7.13863 5.270573,10.44561 1.821054,2.9582 3.771077,5.83938 5.903733,8.58258 3.246045,4.18062 6.910925,8.05087 11.025457,11.38712 3.124032,2.52787 6.522694,4.72874 10.16444,6.43562 5.005592,2.37078 10.369086,3.92647 15.814536,4.89121 5.334649,0.93853 10.756365,1.33789 16.170158,1.33954 5.32403,-0.004 10.65329,-0.40396 15.90312,-1.30088 3.30732,-0.5797 6.58874,-1.34282 9.77495,-2.40865 5.86777,-2.02372 11.28156,-5.40539 15.58034,-9.89266 3.03143,-3.17653 5.47887,-6.92092 7.08933,-11.00993 1.86181,-4.70404 2.67903,-9.79787 2.52996,-14.84818 -0.15714,-5.72462 -1.42646,-11.42336 -3.76256,-16.65436 -1.75754,-3.89612 -4.15837,-7.52671 -7.21856,-10.52314 -2.36189,-2.29778 -5.1128,-4.17641 -8.05725,-5.64687 -3.81388,-1.91982 -7.8947,-3.21333 -11.91668,-4.61313 -5.84449,-2.01735 -11.69945,-4.0131 -17.45545,-6.27422 -2.90085,-1.13754 -5.78337,-2.33007 -8.74298,-3.30944 -4.381083,-1.40884 -8.949358,-2.283 -13.555604,-2.40344 -0.454495,-0.0133 -0.909666,-0.0176 -1.364294,-0.01 z"
       id="path2309-5"
       inkscape:connector-curvature="0"
       sodipodi:nodetypes="cccccccccccccc" />
    <path
       style="opacity:1;fill:#feea33;fill-opacity:1;stroke:#000000;stroke-width:0;stroke-linecap:butt;stroke-miterlimit:4;stroke-dasharray:none;stroke-dashoffset:0;stroke-opacity:1"
       d="m 28.074512,127.93705 c -0.271376,0.0603 -0.517171,0.21326 -0.712357,0.40849 -0.196499,0.19793 -0.359814,0.42699 -0.504771,0.66463 -0.129084,0.21595 -0.235641,0.44595 -0.31382,0.6852 -0.0846,0.24114 -0.133138,0.49262 -0.177162,0.74373 -0.04968,0.24177 -0.061,0.48882 -0.07033,0.73478 -0.01266,0.28471 -0.01094,0.56995 -9.32e-4,0.85474 0.01075,0.32218 0.03007,0.64413 0.05729,0.96532 0.06348,0.65925 0.155454,1.31531 0.248793,1.97087 0.08632,0.57839 0.175106,1.1564 0.265085,1.73423 0.140399,0.72459 0.27445,1.45084 0.4485,2.16833 0.06719,0.28145 0.152485,0.55823 0.235451,0.83534 0.116026,0.38263 0.253827,0.75805 0.384814,1.13569 0.143748,0.39209 0.297528,0.78042 0.459748,1.16522 0.171956,0.40539 0.361004,0.80318 0.545816,1.20279 0.508093,1.06961 1.027234,2.13391 1.54079,3.2009 0.08489,0.17589 0.169824,0.35179 0.254731,0.52769 -2.713104,-2.83392 -5.426208,-5.66785 -8.139312,-8.50178 -0.620198,-0.57496 -1.240387,-1.14993 -1.860576,-1.72488 -0.571864,-0.50619 -1.143737,-1.01238 -1.7156,-1.51858 -0.20199,-0.16896 -0.423699,-0.3115 -0.641259,-0.4591 -0.29905,-0.14924 -0.595046,-0.30571 -0.905193,-0.43122 -0.354941,-0.15088 -0.71977,-0.27639 -1.081773,-0.40892 -0.252876,-0.065 -0.504505,-0.1383 -0.763928,-0.17286 -0.245358,0.0129 -0.489469,0.0478 -0.728622,0.10408 -0.232672,0.083 -0.453115,0.19483 -0.674709,0.30297 -0.208329,0.16162 -0.424175,0.31432 -0.618952,0.49257 -0.209594,0.15575 -0.291466,0.41822 -0.331911,0.66514 -0.04882,0.25804 -0.05919,0.52179 -0.06738,0.78378 -0.0086,0.28447 0.02512,0.5689 0.08403,0.84691 0.06262,0.29737 0.145823,0.58985 0.232558,0.88093 0.10237,0.34343 0.207671,0.68594 0.319016,1.02657 0.09686,0.30354 0.201486,0.60458 0.305817,0.90562 0.09641,0.26543 0.183728,0.53435 0.29748,0.7931 0.18566,0.44902 0.387698,0.89104 0.587423,1.33389 0.165808,0.36187 0.333158,0.72302 0.506598,1.08129 0.121318,0.2542 0.262088,0.49856 0.392514,0.74813 0.132795,0.24215 0.25435,0.49062 0.397404,0.72701 0.31088,0.52902 0.623948,1.05684 0.945924,1.57918 0.42782,0.68134 0.863767,1.35751 1.29704,2.03537 0.356759,0.50747 0.714546,1.0142 1.077215,1.51747 0.161269,0.23186 0.343579,0.44795 0.515478,0.67186 0.377391,0.48148 0.754792,0.96298 1.132183,1.44446 1.029109,1.23295 2.058217,2.4659 3.087326,3.69885 0.127656,0.16479 0.247004,0.35793 0.237916,0.57434 -0.158956,0.19366 -0.4107,0.28649 -0.655924,0.29685 -0.933267,0.0969 -1.867818,0.18079 -2.801685,0.27166 -1.978677,0.18954 -3.957555,0.37689 -5.936337,0.5653 -0.254455,0.0337 -0.502944,0.0991 -0.752784,0.15614 -0.275706,0.0799 -0.551422,0.15985 -0.827128,0.23978 -0.327943,0.12013 -0.654448,0.24408 -0.979546,0.37173 -0.225306,0.10401 -0.444264,0.22243 -0.650547,0.3606 -0.17994,0.17273 -0.350221,0.35603 -0.499994,0.55575 -0.11163,0.17475 -0.201904,0.37704 -0.189647,0.58875 0.01618,0.21131 0.107709,0.41117 0.216437,0.59063 0.126675,0.21786 0.284375,0.41629 0.452848,0.60306 0.163648,0.18327 0.359081,0.33372 0.555666,0.47962 0.317732,0.22625 0.661748,0.41203 1.009962,0.58645 0.236802,0.12381 0.479618,0.23558 0.721674,0.34859 0.24649,0.11126 0.498119,0.21174 0.754116,0.29895 0.301763,0.0989 0.606133,0.19007 0.911883,0.27587 0.545874,0.14495 1.093298,0.28506 1.646214,0.40083 0.637034,0.1356 1.278102,0.25113 1.917648,0.37413 0.914957,0.17451 1.830694,0.34486 2.746574,0.5144 1.145592,0.16729 2.291175,0.33458 3.436767,0.50186 0.624528,0.0743 1.249057,0.1487 1.873585,0.22304 0.637747,0.0403 1.275561,0.0826 1.914517,0.0981 0.615468,0.0204 1.231318,0.0226 1.847062,0.0244 1.038502,-0.009 2.076794,-0.0327 3.115172,-0.05 3.008196,-0.0541 6.016382,-0.10881 9.024567,-0.16357 0.246367,-0.0109 0.489831,-0.054 0.730468,-0.10595 0.236517,-0.0883 0.469579,-0.18895 0.685768,-0.32017 0.211003,-0.13668 0.405998,-0.29625 0.592153,-0.46486 0.235698,-0.21315 0.442114,-0.45565 0.655143,-0.69079 0.214372,-0.26456 0.428743,-0.52911 0.643124,-0.79367 0.163334,-0.22671 0.352639,-0.46222 0.37387,-0.75216 0.02246,-0.273 -0.137753,-0.51066 -0.279075,-0.72923 -0.215446,-0.31752 -0.437517,-0.63075 -0.639403,-0.95725 -0.136573,-0.22797 -0.244758,-0.47395 -0.304056,-0.73363 -0.06072,-0.24962 -0.07252,-0.5067 -0.08736,-0.76209 -0.0393,-0.60369 -0.05758,-1.20847 -0.08441,-1.81278 -0.06814,-1.87406 -0.127589,-3.74842 -0.191446,-5.62262 -0.09603,-1.51299 -0.192064,-3.02598 -0.288096,-4.53898 -0.05263,-0.61809 -0.103113,-1.23638 -0.157082,-1.85433 -0.04739,-0.46552 -0.09479,-0.93105 -0.142178,-1.39657 -0.09107,-0.62517 -0.182548,-1.25031 -0.281217,-1.87431 -0.257814,-1.45942 -0.513326,-2.91925 -0.772673,-4.37841 -0.08451,-0.43891 -0.192655,-0.87275 -0.299251,-1.30668 -0.06709,-0.26309 -0.156615,-0.51939 -0.247213,-0.77508 -0.09636,-0.27365 -0.208205,-0.54208 -0.339458,-0.80085 -0.118101,-0.23482 -0.270177,-0.44983 -0.415296,-0.66825 -0.157424,-0.23813 -0.340533,-0.45799 -0.537052,-0.66471 -0.177313,-0.1737 -0.368188,-0.33366 -0.574099,-0.47249 -0.175201,-0.11789 -0.365953,-0.2335 -0.581447,-0.25036 -0.267807,-0.03 -0.517295,0.1355 -0.677146,0.3381 -0.153627,0.2013 -0.288563,0.41616 -0.400983,0.64313 -0.141436,0.27487 -0.272984,0.55466 -0.400126,0.8364 -0.104864,0.25976 -0.211926,0.51904 -0.303409,0.78379 -0.08479,0.26851 -0.16205,0.53921 -0.235613,0.81099 -0.07033,0.28311 -0.137858,0.56687 -0.202599,0.8513 -0.06424,0.35107 -0.125706,0.70287 -0.168949,1.05723 -0.03445,0.27063 -0.06976,0.54148 -0.09203,0.8134 -0.04949,0.71474 -0.08812,1.43019 -0.132833,2.14525 -0.01741,0.28775 -0.03483,0.5755 -0.05225,0.86325 0.02255,0.20995 -0.0985,0.47141 -0.330846,0.49069 -0.226334,-0.0365 -0.353104,-0.25298 -0.44375,-0.44237 -0.178627,-0.34499 -0.358463,-0.68937 -0.52863,-1.03864 -1.14268,-2.32525 -2.284656,-4.65083 -3.427203,-6.97614 -0.253408,-0.45229 -0.506808,-0.90458 -0.760216,-1.35687 -0.339525,-0.5037 -0.679049,-1.00742 -1.018574,-1.51113 -0.187382,-0.21646 -0.375716,-0.43208 -0.56505,-0.64683 -0.230131,-0.22402 -0.478657,-0.42782 -0.725614,-0.63273 -0.19253,-0.15319 -0.388421,-0.30504 -0.603373,-0.42557 -0.204855,-0.10969 -0.422347,-0.19527 -0.64497,-0.26139 -0.239229,-0.0624 -0.482264,-0.1152 -0.729992,-0.12621 -0.137924,-0.007 -0.278266,-0.0225 -0.414982,0.004 z m 19.460755,32.47735 c -0.15613,-0.0563 -0.312259,-0.11276 -0.468399,-0.16914 0.15614,0.0563 0.312269,0.11276 0.468399,0.16914 z"
       id="path2419"
       inkscape:connector-curvature="0"
       sodipodi:nodetypes="ccccccccccsccscssccccccccccccccccccccc" />
    <path
       style="opacity:1;fill:#fee933;fill-opacity:1;stroke:#010101;stroke-width:1.99849105;stroke-linecap:butt;stroke-miterlimit:4;stroke-dasharray:none;stroke-opacity:0.98989898"
       d="m 105.61084,47.030878 c -1.74261,0.752183 -2.71993,2.626343 -2.93304,4.440471 -0.6785,4.099274 0.0921,8.271286 1.21134,12.220753 0.32382,1.195019 0.80362,2.449193 0.47264,3.697289 -0.82794,1.303956 -2.39084,1.752934 -3.62744,2.551492 -4.33311,2.43639 -8.512726,5.365445 -11.5745,9.337988 -5.671346,7.447282 -9.238415,16.463009 -10.286462,25.759339 -0.70935,6.88164 -0.156529,13.85439 1.229576,20.61825 2.283562,10.41227 8.192063,20.05588 16.654303,26.57956 5.633133,4.33252 12.200603,7.26067 18.889733,9.54974 8.37959,2.82782 17.2722,4.38261 26.12962,3.8375 5.48538,-0.37537 10.86665,-1.77886 15.94684,-3.85501 5.21292,-2.05854 10.32878,-4.47944 14.9069,-7.73992 5.65942,-4.1373 10.17373,-9.93527 12.42141,-16.60512 2.44447,-7.07751 2.44028,-15.00643 -0.19278,-22.03157 -1.98734,-5.46103 -5.15344,-10.37668 -8.26153,-15.25057 -3.07494,-4.745481 -6.27131,-9.411168 -9.48308,-14.064626 -2.93035,-4.178541 -5.98005,-8.322345 -9.68629,-11.853898 -4.89647,-4.335993 -11.12159,-6.926112 -17.48056,-8.220379 -5.62217,-1.123934 -11.37775,-1.202874 -17.05442,-1.898853 -0.78731,-0.188488 -0.91323,-1.258154 -0.51851,-1.855131 0.37359,-0.529772 0.76454,-1.047187 1.05415,-1.630945 0.52179,-0.954284 0.95591,-2.038414 0.84811,-3.142667 -0.46454,-1.282472 -2.29789,-1.642461 -3.30745,-0.791383 -1.24694,0.640852 -2.35953,1.527504 -3.66166,2.063175 -0.63852,-0.239985 -0.65781,-1.179346 -0.18401,-1.591061 0.85948,-1.82022 1.68062,-3.808441 1.40332,-5.864248 -0.40057,-1.674951 -2.8107,-2.378592 -4.03668,-1.156248 -1.70665,1.266346 -2.60505,3.255836 -3.90932,4.877396 -0.068,0.444451 -0.80886,0.424304 -0.84893,-0.02847 -0.37479,-0.792252 -0.0895,-1.695266 -0.28629,-2.525529 -0.11918,-1.548064 -0.25168,-3.230996 -1.26256,-4.488647 -0.67417,-0.659088 -1.63702,-0.985109 -2.57243,-0.938672 z"
       id="path2309"
       inkscape:connector-curvature="0"
       sodipodi:nodetypes="cssccsscccccccccccc" />
    <path
       inkscape:connector-curvature="0"
       style="opacity:1;fill:#ffffff;fill-opacity:1;stroke:#010101;stroke-width:0.92296922;stroke-linecap:butt;stroke-miterlimit:4;stroke-dasharray:none;stroke-opacity:0.98989898"
       d="m 166.67151,79.004507 c -5.02489,0.311708 -9.43654,4.393797 -10.42662,9.283087 -0.50261,2.57831 -0.92316,5.188673 -0.88873,7.824092 0.0221,3.766994 0.74762,7.593614 2.51038,10.946704 1.86379,3.16384 5.57202,5.03867 9.21384,4.88814 2.90384,0.12534 6.00724,-0.28787 8.40489,-2.05376 2.28068,-1.91322 3.32226,-4.86851 3.81286,-7.72012 1.25848,-6.828489 -0.42475,-14.264998 -4.93348,-19.611438 -1.85788,-2.239642 -4.74854,-3.721238 -7.69314,-3.556705 z"
       id="path2330-73" />
    <path
       style="fill:#feea33;fill-opacity:1;stroke:#000000;stroke-width:1.58201635;stroke-linecap:butt;stroke-linejoin:miter;stroke-miterlimit:4;stroke-dasharray:none;stroke-opacity:1"
       d="m 114.90813,168.82695 c -1.79159,2.56772 -2.43509,5.68324 -3.45538,8.59162 -0.74214,2.19393 -1.61566,4.47423 -3.35997,6.07768 -1.94605,1.76916 -4.70077,2.37552 -7.26883,2.14493 -1.571577,-0.14175 -3.130239,-0.40561 -4.70642,-0.50595 -3.301945,-0.27481 -6.630851,-0.24859 -9.921918,0.14816 -5.225151,0.49911 -10.488891,1.36846 -15.742381,0.72739 -3.626681,-0.42854 -7.044291,-1.77677 -10.547437,-2.72756 -0.761482,-0.18952 -1.563248,-0.49709 -2.342983,-0.20616 -1.083525,0.31437 -1.839926,1.33869 -1.969019,2.4392 -0.176324,1.42312 0.353143,2.83478 1.034705,4.06008 1.29783,2.23258 3.349176,3.89197 5.414112,5.38296 3.538148,2.48075 7.463365,4.34153 11.42546,6.03459 6.587807,2.664 13.681432,4.10017 20.79272,4.08592 5.70574,0.10722 11.520421,-0.49407 16.859751,-2.61182 5.13474,-2.12785 9.61953,-6.06415 11.93785,-11.16497 1.37692,-3.09521 1.59933,-6.71559 0.44897,-9.91728 -1.03464,-3.34435 -2.64595,-6.51248 -4.73293,-9.32221 -1.04334,-1.31785 -2.29748,-2.51836 -3.83284,-3.2403 z"
       id="path849"
       inkscape:connector-curvature="0" />
    <path
       style="fill:#feea33;fill-opacity:1;stroke:#000000;stroke-width:1.58201635;stroke-linecap:butt;stroke-linejoin:miter;stroke-miterlimit:4;stroke-dasharray:none;stroke-opacity:1"
       d="m 78.222669,160.0092 c -3.415592,0.0667 -6.938361,0.76607 -9.79943,2.7228 -0.623919,0.32182 -1.126245,1.02118 -0.91941,1.74595 0.224231,1.13021 1.357889,1.79287 2.414491,1.99279 1.446736,0.31032 2.932538,0.37903 4.382234,0.67706 3.457333,0.60668 6.881662,1.70363 9.823584,3.65884 4.092329,2.45402 7.717221,5.65495 12.016546,7.76742 2.683031,1.22333 5.637206,1.86898 8.586806,1.85728 0.49758,-0.014 1.02723,0.0156 1.44672,-0.30147 1.5782,-0.96249 2.08263,-3.22992 1.16342,-4.81266 -0.90829,-1.82965 -2.57208,-3.0929 -4.03848,-4.45101 -2.56848,-2.23063 -5.155426,-4.45787 -7.968673,-6.37792 -3.039791,-2.0235 -6.487731,-3.47604 -10.111604,-4.01068 -2.30859,-0.39542 -4.656665,-0.51926 -6.996204,-0.4684 z"
       id="path851"
       inkscape:connector-curvature="0" />
    <path
       style="display:inline;opacity:1;fill:#3387fe;fill-opacity:1;stroke:none;stroke-width:0;stroke-linecap:butt;stroke-miterlimit:4;stroke-dasharray:none;stroke-opacity:0.98989898"
       d="m 163.9931,84.824104 c -3.31689,0.888681 -6.07948,3.848266 -7.10769,7.37074 -1.46116,4.571653 -0.88732,9.840626 1.65526,13.702866 1.56143,2.39475 4.08063,4.09841 6.83462,4.29053 2.02296,0.15858 4.06554,-0.66743 5.67229,-2.03857 2.29647,-1.93348 3.78087,-4.88162 4.25504,-7.94318 0.43108,-2.676199 0.19882,-5.441891 -0.57409,-7.980575 -0.82246,-2.596753 -2.37811,-4.977109 -4.59785,-6.336359 -1.82372,-1.122733 -4.03967,-1.557034 -6.13757,-1.065452 z"
       id="path2330-2-36"
       inkscape:connector-curvature="0" />
    <path
       inkscape:connector-curvature="0"
       style="display:inline;opacity:1;fill:#000000;fill-opacity:1;stroke:none;stroke-width:0;stroke-linecap:butt;stroke-miterlimit:4;stroke-dasharray:none;stroke-opacity:0.98989898"
       d="m 164.48211,88.550414 c -2.36299,0.599367 -4.35215,2.674067 -5.11549,5.164805 -1.08062,3.231418 -0.72328,6.977141 1.045,9.742971 1.08566,1.71478 2.8578,2.94807 4.81096,3.11059 1.43453,0.13176 2.89234,-0.4352 4.04593,-1.39329 1.64855,-1.35074 2.73025,-3.42944 3.09592,-5.598249 0.3314,-1.895654 0.19263,-3.861151 -0.33176,-5.670614 -0.55919,-1.851173 -1.64093,-3.555677 -3.20376,-4.541628 -1.28394,-0.814309 -2.85285,-1.143632 -4.34675,-0.814585 z"
       id="path2330-2-9-9" />
    <path
       style="opacity:1;fill:#ffffff;fill-opacity:1;stroke:none;stroke-width:0;stroke-linecap:butt;stroke-miterlimit:4;stroke-dasharray:none;stroke-opacity:0.98989898"
       d="m 161.85557,102.46894 c -0.84032,0.17379 -1.25832,1.32583 -0.71993,1.99617 0.45178,0.66977 1.52992,0.84037 2.11672,0.25397 0.38881,-0.40044 0.31487,-1.06471 0.003,-1.48794 -0.28515,-0.47663 -0.83915,-0.79666 -1.39917,-0.7622 z"
       id="path2391-4-0"
       inkscape:connector-curvature="0" />
    <path
       style="opacity:1;fill:#ffffff;fill-opacity:1;stroke:none;stroke-width:0;stroke-linecap:butt;stroke-miterlimit:4;stroke-dasharray:none;stroke-opacity:0.98989898"
       d="m 166.46519,88.041579 c -1.24697,0.137525 -2.3941,1.107973 -2.62078,2.36057 -0.17717,1.149609 0.60673,2.312255 1.68433,2.69271 1.03253,0.393608 2.26115,0.417181 3.23618,-0.146699 0.99863,-0.655029 1.396,-2.042876 0.97566,-3.145882 -0.37378,-0.923245 -1.29622,-1.532167 -2.25851,-1.690523 -0.33491,-0.06443 -0.67662,-0.07832 -1.01688,-0.07014 z"
       id="path2391-3"
       inkscape:connector-curvature="0" />
    <path
       style="opacity:1;fill:#ffffff;fill-opacity:1;stroke:#010101;stroke-width:0.98070896;stroke-linecap:butt;stroke-miterlimit:4;stroke-dasharray:none;stroke-opacity:0.98989898"
       d="m 134.38562,77.335377 c -6.24225,0.385594 -12.02805,4.628953 -14.36618,10.414889 -3.05339,6.654461 -2.65059,14.847314 1.27805,21.060154 1.61407,2.56811 4.04052,4.77604 7.03028,5.5502 3.17184,0.84693 6.48855,0.65305 9.73345,0.53026 2.32408,-0.15527 4.73795,-0.50107 6.75179,-1.75105 2.07656,-1.45985 3.26065,-3.81717 4.11622,-6.13958 2.54865,-6.7418 2.08641,-14.502083 -1.05979,-20.96704 -1.36472,-2.853265 -3.36003,-5.549839 -6.19173,-7.078351 -2.21496,-1.213617 -4.77912,-1.721415 -7.29209,-1.619482 z"
       id="path2330"
       inkscape:connector-curvature="0" />
    <path
       style="display:inline;opacity:1;fill:#3387fe;fill-opacity:1;stroke:none;stroke-width:0;stroke-linecap:butt;stroke-miterlimit:4;stroke-dasharray:none;stroke-opacity:0.98989898"
       d="m 128.68019,83.737914 c -4.19978,1.106251 -7.61977,4.533025 -8.80766,8.541342 -1.70332,5.206136 -0.78634,11.136204 2.59253,15.417114 2.07577,2.65483 5.34905,4.49974 8.86873,4.63104 2.58601,0.11615 5.1625,-0.87975 7.16389,-2.47749 2.86144,-2.25399 4.65139,-5.62813 5.14878,-9.09892 0.45589,-3.034421 0.0624,-6.149278 -1.01254,-8.991066 -1.14027,-2.905806 -3.20821,-5.544547 -6.08738,-7.009974 -2.36572,-1.210743 -5.20758,-1.632149 -7.86636,-1.012046 z"
       id="path2330-2"
       inkscape:connector-curvature="0" />
    <path
       inkscape:connector-curvature="0"
       style="display:inline;opacity:1;fill:#000000;fill-opacity:1;stroke:none;stroke-width:0;stroke-linecap:butt;stroke-miterlimit:4;stroke-dasharray:none;stroke-opacity:0.98989898"
       d="m 129.47974,87.843662 c -2.98157,0.785369 -5.40953,3.218151 -6.25285,6.063784 -1.20926,3.696009 -0.55826,7.905964 1.84052,10.945134 1.47366,1.88475 3.79748,3.19452 6.29621,3.28773 1.8359,0.0824 3.66504,-0.62456 5.08589,-1.75886 2.03144,-1.60018 3.30217,-3.9956 3.65529,-6.459631 0.32365,-2.154231 0.0442,-4.36557 -0.71877,-6.383066 -0.8095,-2.062929 -2.27761,-3.936257 -4.32164,-4.976614 -1.67949,-0.859551 -3.69703,-1.158716 -5.58458,-0.718477 z"
       id="path2330-2-9" />
    <path
       style="opacity:1;fill:#ffffff;fill-opacity:1;stroke:none;stroke-width:0;stroke-linecap:butt;stroke-miterlimit:4;stroke-dasharray:none;stroke-opacity:0.98989898"
       d="m 133.8176,87.115174 c -0.87813,0.08146 -1.75324,0.380522 -2.41882,0.944477 -0.81048,0.70621 -1.26927,1.720083 -1.41338,2.745765 -0.11138,0.832753 0.0438,1.698518 0.46367,2.438493 0.39216,0.770913 1.01685,1.467082 1.85066,1.819483 0.69879,0.287792 1.47321,0.37741 2.22907,0.342332 1.10325,-0.05976 2.21105,-0.457987 2.99621,-1.214635 0.4305,-0.426412 0.73353,-0.965643 0.86947,-1.543016 0.19305,-0.751642 0.11172,-1.54077 -0.0754,-2.28557 -0.14809,-0.555009 -0.37023,-1.096915 -0.6954,-1.580035 -0.38165,-0.538898 -0.92131,-0.969925 -1.53657,-1.24823 -0.6751,-0.313258 -1.4346,-0.457083 -2.1839,-0.424898 l -0.0436,0.0029 z"
       id="path2391"
       inkscape:connector-curvature="0" />
    <path
       style="opacity:1;fill:#ffffff;fill-opacity:1;stroke:none;stroke-width:0;stroke-linecap:butt;stroke-miterlimit:4;stroke-dasharray:none;stroke-opacity:0.98989898"
       d="m 126.86522,102.23119 c -0.26707,0.0458 -0.51542,0.15744 -0.76487,0.25501 -0.18445,0.0733 -0.35372,0.18135 -0.47784,0.33235 -0.37036,0.38062 -0.59622,0.90362 -0.54731,1.42641 0.0368,0.42219 0.25168,0.81531 0.53676,1.13382 0.42588,0.45763 1.04988,0.76975 1.69958,0.76361 0.50699,-0.007 1.01524,-0.21053 1.34605,-0.58204 0.3853,-0.4095 0.5297,-0.98597 0.47975,-1.52542 -0.0681,-0.59511 -0.39948,-1.17609 -0.9367,-1.49939 -0.3959,-0.2365 -0.87411,-0.31676 -1.33542,-0.30435 z"
       id="path2391-4"
       inkscape:connector-curvature="0" />
    <path
       style="fill:#feea33;fill-opacity:1;stroke:#000000;stroke-width:1.58201635;stroke-linecap:butt;stroke-linejoin:miter;stroke-miterlimit:4;stroke-dasharray:none;stroke-opacity:1"
       d="m 55.78797,163.29355 c -2.381126,0.74227 -4.263524,2.88011 -4.691401,5.33824 0.13879,2.93651 1.319251,5.74599 3.00594,8.12445 2.280031,3.25947 5.40628,5.85223 8.82665,7.84513 3.576376,2.1216 7.359843,3.95658 11.388173,5.03916 1.474201,0.4146 2.957872,0.81049 4.466866,1.07595 2.309532,0.3337 4.61561,-0.18871 6.901208,-0.46783 1.145631,-0.13541 2.314653,-0.25363 3.461473,-0.0743 1.360049,0.29327 2.434086,1.27594 3.303981,2.31049 0.756049,0.85441 1.573422,1.77356 2.715902,2.08352 1.537896,0.40099 3.201345,-0.20783 4.320043,-1.28769 1.826165,-1.72338 2.430335,-4.56806 1.544165,-6.90555 -0.99284,-3.01048 -1.952818,-6.08581 -3.689164,-8.76804 -2.115156,-3.34281 -5.170896,-6.07682 -8.723157,-7.81625 -0.994126,-0.47938 -2.011519,-0.90914 -3.021443,-1.35406 -3.161346,-1.36149 -6.446961,-2.49238 -9.857586,-3.02315 -5.075606,-0.86882 -10.182398,-1.59643 -15.322898,-1.94117 -1.540779,-0.0953 -3.084718,-0.1859 -4.628752,-0.17886 z"
       id="path1491"
       inkscape:connector-curvature="0" />
    <path
       style="opacity:1;fill:#eed417;fill-opacity:1;stroke:none;stroke-width:1.33232737;stroke-miterlimit:4;stroke-dasharray:none;stroke-dashoffset:0.75590551;stroke-opacity:1"
       d="m 58.918044,183.84909 c -0.157766,0.0887 0.06566,0.22352 0.154303,0.26502 0.451478,0.31614 0.867164,0.67872 1.287152,1.03449 0.471834,0.39362 0.979451,0.74185 1.505121,1.05932 0.896076,0.55008 1.823918,1.04583 2.741092,1.55934 0.964167,0.51906 1.923177,1.05152 2.925658,1.49435 0.687243,0.29912 1.391016,0.5585 2.09479,0.81568 1.175103,0.41575 2.352043,0.82671 3.535473,1.21821 0.698854,0.22754 1.39922,0.46126 2.125624,0.58479 0.820904,0.15563 1.649374,0.26633 2.476778,0.38063 0.336593,0.0415 0.673168,0.0899 1.011579,0.1121 0.730972,0.0352 1.464123,0.0189 2.193743,-0.0351 0.857762,-0.0723 1.700355,-0.25685 2.546935,-0.40528 0.566639,-0.10592 1.132935,-0.21373 1.69886,-0.32341 -0.355284,-0.21388 -0.785188,-0.27796 -1.19329,-0.23048 -0.53531,0.0378 -1.07062,0.0756 -1.60593,0.11338 -1.088835,-0.0735 -2.180192,-0.1298 -3.262975,-0.27066 -1.055279,-0.14933 -2.104744,-0.34354 -3.1404,-0.59569 -1.021353,-0.24893 -2.021312,-0.57711 -3.007282,-0.94019 -1.507785,-0.54889 -2.994882,-1.15239 -4.484766,-1.74766 -1.32697,-0.53861 -2.658831,-1.06651 -3.968299,-1.64676 -0.950797,-0.44766 -1.873709,-0.95155 -2.798992,-1.44906 -0.260717,-0.13711 -0.516029,-0.28644 -0.784398,-0.40782 -0.611595,-0.25918 -1.235867,-0.52366 -1.903582,-0.58852 -0.04872,-0.01 -0.0987,-0.005 -0.147194,0.003 z"
       id="path921"
       inkscape:connector-curvature="0" />
    <path
       style="opacity:1;fill:#eed417;fill-opacity:1;stroke:none;stroke-width:1.33232737;stroke-miterlimit:4;stroke-dasharray:none;stroke-dashoffset:0.75590551;stroke-opacity:1"
       d="m 126.24816,187.2208 c -1.60337,2.47545 -2.70487,5.23697 -4.32355,7.70319 -0.92949,1.36024 -2.07845,2.54882 -3.20227,3.74679 -0.98267,1.03229 -2.10873,1.93982 -3.37948,2.59358 -1.79621,0.98108 -3.7202,1.70713 -5.68095,2.28338 -2.27338,0.66874 -4.58732,1.19927 -6.92225,1.60276 -1.81983,0.31351 -3.656322,0.54076 -5.502271,0.61676 -1.718112,0.0748 -3.439746,0.0292 -5.15407,-0.10195 -3.025592,-0.20189 -6.034406,-0.59854 -9.028745,-1.06986 -1.735994,-0.27167 -3.455382,-0.64801 -5.145106,-1.13024 -1.770673,-0.47634 -3.556563,-0.94691 -5.22141,-1.731 -1.6662,-0.74297 -3.277792,-1.60012 -4.893211,-2.44581 -1.812546,-0.97263 -3.531067,-2.10759 -5.222695,-3.27487 -1.665276,-1.13951 -3.291791,-2.36926 -4.635138,-3.88584 -0.70562,-0.77685 -1.360326,-1.59761 -2.030087,-2.40506 -0.02113,-0.26662 -0.444264,-0.39173 -0.579924,-0.14497 -0.153722,0.51263 0.06367,1.03104 0.171005,1.52972 0.538955,2.17862 1.638915,4.21346 3.162602,5.8609 1.398992,1.55426 2.758213,3.18091 4.472024,4.40394 1.51596,1.07864 3.110071,2.04124 4.707246,2.99338 1.020972,0.59558 2.077279,1.13906 3.194521,1.53119 1.406129,0.52347 2.818444,1.03055 4.218891,1.56901 1.429768,0.49737 2.907967,0.83295 4.365533,1.23549 1.754009,0.44643 3.556058,0.64901 5.33068,0.99207 1.656216,0.30603 3.318009,0.61846 5.003793,0.6993 2.393974,0.15745 4.791573,-0.039 7.178067,-0.22355 2.612389,-0.22594 5.217865,-0.54866 7.798355,-1.01654 2.25693,-0.42455 4.48515,-1.03311 6.60868,-1.91377 2.04944,-0.80366 4.00346,-1.84416 5.83703,-3.06055 0.96502,-0.64754 1.86546,-1.39635 2.64256,-2.26225 1.84033,-1.9241 3.25811,-4.20778 4.4631,-6.57056 0.50604,-0.95939 0.88921,-1.98856 1.07482,-3.05936 0.29414,-1.44181 0.49001,-2.90121 0.73394,-4.35173 -0.0231,-0.23204 0.17908,-0.47047 0.0699,-0.68009 -0.0259,-0.0333 -0.0725,-0.041 -0.11152,-0.0335 z"
       id="path924"
       inkscape:connector-curvature="0"
       sodipodi:nodetypes="cccccccccccccccsccccccccccccccccccc" />
    <path
       style="opacity:1;fill:#eed417;fill-opacity:1;stroke:none;stroke-width:1.33232737;stroke-miterlimit:4;stroke-dasharray:none;stroke-dashoffset:0.75590551;stroke-opacity:1"
       d="m 128.45817,129.04485 c -1.03374,0.18814 -1.98904,0.70439 -2.77135,1.39775 -1.17802,2.66557 -0.95721,5.83086 0.33231,8.41478 0.94314,1.95625 2.46965,3.70217 4.47867,4.59745 1.7623,0.79435 3.73353,0.91029 5.63971,0.85938 1.50752,-0.01 3.10004,0.0475 4.44383,0.81222 1.99435,1.08314 3.58659,2.73054 5.2844,4.20547 2.32817,2.10971 4.67227,4.28282 7.49847,5.71441 1.76805,0.886 3.774,1.44239 5.7614,1.19533 1.67667,-0.34352 2.93429,-1.90952 3.1204,-3.57922 0.22951,-1.60324 -0.31764,-3.20421 -1.0864,-4.59143 -1.76937,-3.43416 -4.15005,-6.61574 -7.25184,-8.95498 -2.22471,-1.67358 -4.80166,-2.8235 -7.45954,-3.61678 -2.74761,-0.91027 -5.56391,-1.63108 -8.23487,-2.75951 -2.8117,-1.20797 -5.48468,-2.79218 -8.47223,-3.54885 -0.41846,-0.0961 -0.85086,-0.24058 -1.28296,-0.14602 z"
       id="path927"
       inkscape:connector-curvature="0" />
    <path
       style="opacity:1;fill:#eed417;fill-opacity:1;stroke:none;stroke-width:1.33232737;stroke-miterlimit:4;stroke-dasharray:none;stroke-dashoffset:0.75590551;stroke-opacity:1"
       d="m 47.459067,194.8025 c -1.831626,1.11404 -2.146722,4.00132 -0.617096,5.49622 4.21794,5.88046 8.427086,11.86175 13.800381,16.76422 5.859405,5.15622 12.951013,8.73989 20.322238,11.19372 5.580339,1.8585 11.401886,3.31265 17.324044,3.17713 6.870606,-0.0202 13.787976,0.46453 20.614186,-0.55157 6.05525,-1.03072 12.01731,-2.88497 17.39588,-5.88544 3.26305,-1.85184 6.13642,-4.33251 8.6097,-7.14322 1.90123,-2.14184 3.64276,-4.43544 5.12388,-6.88767 0.18702,-0.25723 0.23309,-0.70181 -0.13754,-0.82155 -0.38094,-0.16538 -0.75967,0.10496 -0.98059,0.39606 -4.11364,3.32784 -8.32549,6.66962 -13.21083,8.79933 -5.26907,2.20607 -10.99759,3.1115 -16.68051,3.30227 -8.41211,0.23324 -16.75612,-1.18597 -24.974974,-2.82861 -2.924326,-0.57958 -5.770739,-1.56724 -8.388657,-2.99933 -2.433344,-1.32381 -4.701793,-3.00106 -6.542842,-5.07783 -0.597843,-1.05214 0.415972,-2.48247 1.589105,-2.39659 1.030327,-0.0526 2.055763,0.15409 3.085937,0.0854 0.24985,-0.36734 -0.225391,-0.73242 -0.567838,-0.76172 -1.749022,-0.58553 -3.442049,-1.32343 -5.171076,-1.96409 -5.858216,-2.26248 -11.701042,-4.62905 -17.190717,-7.70008 -4.123191,-2.08952 -8.526429,-3.90088 -13.189004,-4.19821 -0.07118,-5e-4 -0.142464,9.6e-4 -0.213677,0.002 z"
       id="path930"
       inkscape:connector-curvature="0" />
    <path
       style="opacity:1;fill:#eed417;fill-opacity:1;stroke:none;stroke-width:1.33232737;stroke-miterlimit:4;stroke-dasharray:none;stroke-dashoffset:0.75590551;stroke-opacity:1"
       d="m 37.650616,164.57235 c -0.501869,0.10695 -0.800957,0.65742 -0.749063,1.14497 -0.182291,2.74861 -0.388535,5.53304 0.0866,8.2647 0.425688,2.33461 1.007839,4.6368 1.577685,6.93934 0.763281,3.01445 1.720663,5.98547 2.977476,8.83228 0.877242,2.05319 1.738097,4.1184 2.785306,6.09241 0.990243,1.80711 2.260265,3.46493 3.78617,4.8528 1.73529,1.66748 3.549958,3.2492 5.346259,4.84989 0.914786,0.79751 1.836861,1.59984 2.868663,2.24335 1.501324,0.74441 3.35658,0.56741 4.778649,-0.27796 0.958553,-0.56231 1.779999,-1.489 1.949405,-2.61695 0.181777,-1.20298 -0.350526,-2.4521 -1.264103,-3.23619 -2.051594,-2.00494 -4.584929,-3.41917 -6.708402,-5.33938 -2.127936,-1.89937 -3.892623,-4.15366 -5.680378,-6.364 -1.798223,-2.30474 -3.365107,-4.78333 -4.779401,-7.33948 -1.379939,-2.5191 -2.614312,-5.12011 -3.658666,-7.79628 -0.736911,-1.90922 -1.293376,-3.88588 -1.678381,-5.8955 -0.207319,-1.04773 -0.356235,-2.10614 -0.520702,-3.16075 -0.08689,-0.30689 -0.03493,-0.70197 -0.325307,-0.91045 -0.216341,-0.18932 -0.499432,-0.31698 -0.791764,-0.2828 z"
       id="path933"
       inkscape:connector-curvature="0" />
    <path
       style="opacity:1;fill:#eed417;fill-opacity:1;stroke:none;stroke-width:1.33232737;stroke-miterlimit:4;stroke-dasharray:none;stroke-dashoffset:0.75590551;stroke-opacity:1"
       d="m 12.253124,158.45904 c -0.259727,0.11612 -0.465286,0.319 -0.67843,0.50185 -0.230674,0.44188 -0.06785,1.00724 0.288106,1.3327 0.534977,0.53652 1.25017,0.82552 1.925156,1.14087 1.318195,0.58063 2.67695,1.06988 4.063627,1.45964 1.285449,0.34091 2.599647,0.55273 3.907916,0.7837 1.353436,0.21107 2.70964,0.40454 4.069671,0.56825 1.244679,0.14369 2.489292,0.31071 3.74344,0.34167 1.106936,0.0317 2.214623,0.0135 3.321863,0.0105 1.137437,-0.008 2.274864,-0.0172 3.4123,-0.0259 0.379171,0.0416 0.655172,0.37884 0.756496,0.72676 0.136982,0.44046 0.275782,0.88036 0.416352,1.31969 0.118539,0.23534 0.531132,0.21867 0.61151,-0.039 0.146365,-0.43602 0.359995,-0.84912 0.470264,-1.29738 0.08508,-0.42788 -0.01,-0.87326 -0.17287,-1.27136 -0.168929,-0.40643 -0.43233,-0.77667 -0.788128,-1.03996 -0.381741,-0.29565 -0.845343,-0.46843 -1.318576,-0.54816 -0.964329,-0.2107 -1.9436,-0.34127 -2.915999,-0.50792 -3.940567,-0.64033 -7.886322,-1.24805 -11.829269,-1.87336 -1.653437,-0.26943 -3.311823,-0.51876 -4.946532,-0.88936 -1.114149,-0.23651 -2.224891,-0.49367 -3.3491,-0.67867 -0.29,-0.043 -0.583331,-0.0571 -0.876271,-0.0555 -0.03721,0.0136 -0.07432,0.0272 -0.111526,0.0409 z"
       id="path938"
       inkscape:connector-curvature="0"
       sodipodi:nodetypes="cccccccccccccccccccccccccccc" />
    <path
       style="opacity:1;fill:#eed417;fill-opacity:1;stroke:none;stroke-width:1.33232737;stroke-miterlimit:4;stroke-dasharray:none;stroke-dashoffset:0.75590551;stroke-opacity:1"
       d="m 14.273551,134.25855 c -0.489468,0.23284 -0.817916,0.72518 -0.941346,1.24229 -0.118254,0.54531 0.01151,1.10178 0.159774,1.62747 0.374603,1.4819 0.83969,2.94792 1.507995,4.32575 0.57785,1.20664 1.183335,2.40057 1.829371,3.57217 0.661939,1.1836 1.384764,2.33265 2.15819,3.44649 1.02259,1.48383 2.172664,2.87294 3.285301,4.2888 0.685149,0.86353 1.369309,1.72784 2.047073,2.59717 0.210022,0.24845 0.588603,0.33702 0.882895,0.19331 0.415449,-0.17296 0.771818,-0.45557 1.126379,-0.72675 0.22876,-0.20254 0.338763,-0.52116 0.289324,-0.822 -0.05225,-0.49569 -0.395815,-0.88306 -0.653897,-1.28677 -0.886816,-1.31076 -1.876012,-2.5481 -2.893282,-3.75912 -0.851119,-1.02107 -1.689058,-2.05843 -2.398123,-3.1851 -0.809998,-1.25757 -1.641817,-2.50192 -2.408933,-3.78643 -0.713271,-1.27003 -1.305224,-2.60855 -1.756113,-3.99384 -0.31441,-0.90903 -0.580618,-1.85388 -1.114006,-2.66534 -0.244368,-0.36583 -0.525089,-0.70855 -0.84737,-1.00862 -0.07994,-0.0531 -0.178218,-0.0789 -0.273232,-0.0595 z"
       id="path941"
       inkscape:connector-curvature="0" />
    <path
       style="opacity:1;fill:#eed417;fill-opacity:1;stroke:none;stroke-width:1.33232737;stroke-miterlimit:4;stroke-dasharray:none;stroke-dashoffset:0.75590551;stroke-opacity:1"
       d="m 27.870057,128.043 c -0.54004,0.25887 -0.89283,0.78713 -1.11,1.32782 -0.375573,1.00365 -0.440934,2.09736 -0.344625,3.15695 0.09183,1.03184 0.302295,2.04806 0.484843,3.06648 0.253466,1.34974 0.368769,2.72972 0.772293,4.04788 0.339268,1.07589 0.72648,2.13638 1.131698,3.18903 0.476193,1.2112 1.023589,2.39892 1.708881,3.50719 0.115342,0.25736 0.350812,0.49558 0.650091,0.4942 0.293844,0.006 0.573738,-0.10721 0.842459,-0.21354 0.273108,-0.135 0.319635,-0.48604 0.161763,-0.72713 -0.17718,-0.33013 -0.311726,-0.68003 -0.468446,-1.02006 -0.398499,-0.95785 -0.734445,-1.94002 -1.041347,-2.93063 -0.502535,-1.64385 -0.972704,-3.3014 -1.28346,-4.99364 -0.276753,-1.44284 -0.634311,-2.8694 -0.890194,-4.31629 -0.219006,-1.38966 -0.172289,-2.80086 -0.242217,-4.20165 -0.02436,-0.18445 -0.152105,-0.4222 -0.371739,-0.38661 z"
       id="path944"
       inkscape:connector-curvature="0" />
    <path
       style="opacity:1;fill:#eed417;fill-opacity:1;stroke:none;stroke-width:1.33232737;stroke-miterlimit:4;stroke-dasharray:none;stroke-dashoffset:0.75590551;stroke-opacity:1"
       d="m 86.131498,145.24728 c -3.02209,0.14123 -6.051612,0.2387 -9.055877,0.61782 -1.460688,0.18248 -2.909099,0.45007 -4.355245,0.72221 -2.401653,0.47634 -4.784407,1.04972 -7.138068,1.72428 -2.761153,0.81459 -5.469756,1.79353 -8.170184,2.78795 -1.265111,0.46842 -2.542785,0.90253 -3.813197,1.35558 -0.276848,0.12036 -0.46541,0.37924 -0.602754,0.6378 -0.0669,0.28099 0.248745,0.453 0.489211,0.45676 0.27426,0.009 0.542362,-0.0726 0.814471,-0.0991 1.588229,-0.23353 3.142951,-0.64038 4.699128,-1.02574 1.648603,-0.40211 3.33178,-0.63397 5.013139,-0.84873 1.981419,-0.26668 3.956879,-0.59479 5.953068,-0.73386 3.521798,-0.28344 7.061373,-0.52109 10.593972,-0.30092 1.762622,0.11434 3.53574,0.28061 5.242423,0.75844 1.115977,0.29944 2.196323,0.72127 3.233749,1.22846 1.490799,0.69046 2.932301,1.48047 4.391627,2.23379 0.196538,0.14314 0.538461,0.28507 0.715346,0.0412 0.164885,-0.26585 0.0097,-0.57663 -0.09825,-0.8312 -0.47113,-1.06306 -1.260067,-1.93339 -1.937984,-2.86443 -1.092014,-1.44194 -2.106981,-2.9435 -3.013639,-4.50908 -0.351782,-0.53916 -0.818354,-1.06787 -1.466521,-1.23234 -0.48689,-0.12598 -0.994792,-0.13176 -1.494415,-0.11896 z"
       id="path947"
       inkscape:connector-curvature="0" />
    <path
       style="opacity:1;fill:#eed417;fill-opacity:1;stroke:none;stroke-width:1.33232737;stroke-miterlimit:4;stroke-dasharray:none;stroke-dashoffset:0.75590551;stroke-opacity:1"
       d="m 40.600398,131.80318 c -0.594275,0.44181 -0.899701,1.1491 -1.138378,1.82723 -0.67805,1.92587 -0.92494,3.96353 -1.234516,5.97164 -0.07261,0.48324 -0.153751,0.96615 -0.226372,1.44855 -0.05881,0.17883 -0.08984,0.43217 0.114161,0.53129 0.27544,0.15532 0.601156,0.0377 0.886189,-0.0243 0.244843,-0.0484 0.539925,-0.15629 0.554486,-0.45065 0.09364,-0.43404 0.04539,-0.88325 0.110925,-1.32129 0.132377,-1.87857 0.331112,-3.7693 0.890756,-5.57543 0.175963,-0.64126 0.351916,-1.28252 0.527878,-1.92378 0.03026,-0.22274 -0.08708,-0.52275 -0.338287,-0.54832 -0.06138,-0.0199 -0.0983,0.0422 -0.146842,0.0651 z"
       id="path950"
       inkscape:connector-curvature="0" />
    <path
       style="opacity:1;fill:#eed417;fill-opacity:1;stroke:none;stroke-width:1.33232737;stroke-miterlimit:4;stroke-dasharray:none;stroke-dashoffset:0.75590551;stroke-opacity:1"
       d="m 56.458968,185.5145 c -0.15062,0.30479 0.04834,0.62788 0.0532,0.94144 0.204978,1.48071 0.7875,2.94358 1.832359,4.03345 1.490865,1.70978 3.352174,3.03459 5.1911,4.33983 2.311112,1.55518 4.742181,2.93062 7.252753,4.13627 3.319855,1.52217 6.876313,2.41951 10.415574,3.26625 2.541367,0.58471 5.091165,1.16379 7.682742,1.47771 3.616032,0.40433 7.264049,0.26772 10.888513,0.0657 3.643731,-0.25048 7.267451,-0.9437 10.708151,-2.17982 1.22684,-0.44347 2.40524,-1.02072 3.49494,-1.73906 1.45368,-0.94151 2.81397,-2.02352 4.09338,-3.18949 1.03928,-0.97677 1.99842,-2.03624 2.8903,-3.14866 0.18234,-0.14067 0.35945,-0.4748 0.11524,-0.64126 -0.29214,-0.14274 -0.56436,0.12168 -0.82896,0.21396 -3.39089,1.57285 -6.85769,2.99621 -10.43182,4.09902 -1.98976,0.61375 -3.98552,1.23776 -6.0447,1.57563 -1.19288,0.2071 -2.40321,0.28595 -3.61265,0.30239 -2.923897,0.076 -5.848089,-0.0517 -8.768503,-0.18293 -3.198281,-0.18602 -6.383295,-0.65819 -9.482451,-1.47582 -4.485556,-1.08653 -8.936557,-2.31793 -13.337606,-3.70793 -2.283057,-0.74186 -4.505741,-1.71635 -6.497513,-3.0674 -1.145897,-0.75253 -2.259285,-1.55999 -3.295112,-2.45876 -0.800881,-0.8164 -1.400324,-1.80343 -2.186959,-2.63265 -0.03788,-0.0264 -0.08651,-0.0384 -0.131976,-0.0279 z"
       id="path953"
       inkscape:connector-curvature="0" />
    <path
       style="opacity:1;fill:#feea33;fill-opacity:1;stroke:none;stroke-width:1.58201635;stroke-miterlimit:4;stroke-dasharray:18.9841959, 18.9841959;stroke-dashoffset:0;stroke-opacity:1"
       d="m 97.770787,157.86983 c -1.081669,0.23547 -2.01092,0.93868 -2.717444,1.76949 -1.10054,1.33192 -1.600744,3.18843 -1.141805,4.87428 0.746009,3.30153 2.04538,6.45432 2.705158,9.77732 0.176886,0.96664 0.304094,1.96856 0.08955,2.94033 -0.368674,2.01166 -1.486553,3.8256 -2.936421,5.24346 -2.920813,3.00634 -6.152697,5.6914 -9.069162,8.70188 -0.803574,0.85984 -1.572175,1.77669 -2.107542,2.83076 -0.276191,0.6772 -0.03673,1.53165 0.588955,1.92808 0.783704,0.64909 1.86307,0.78421 2.844862,0.67422 2.637314,-0.10518 5.325198,0.0289 7.854689,0.84079 2.067505,0.59323 4.174791,1.25159 6.352003,1.15256 2.18302,-0.0997 4.20894,-1.0014 6.20475,-1.80857 2.34118,-0.9659 4.74462,-1.77825 7.06382,-2.79693 2.18134,-1.1973 3.61662,-3.52346 3.95809,-5.96152 0.53453,-2.94883 0.24181,-5.97994 -0.37604,-8.89162 -0.43896,-2.24547 -0.93787,-4.47941 -1.33042,-6.73381 -0.0206,-0.92002 0.67247,-1.72911 1.48512,-2.08176 0.47952,-0.21336 1.01437,-0.23032 1.52645,-0.16222 1.60876,0.0587 3.21741,0.12111 4.82663,0.16594 0.77951,-0.25515 0.90512,-1.49672 0.19517,-1.90518 -3.73355,-2.73926 -7.97364,-4.70206 -12.31561,-6.26495 -4.2261,-1.50995 -8.4104,-3.18285 -12.782631,-4.23494 -0.30397,-0.0398 -0.611158,-0.0822 -0.918202,-0.0576 z"
       id="path1176"
       inkscape:connector-curvature="0" />
    <path
       style="opacity:1;fill:#eed417;fill-opacity:1;stroke:#050505;stroke-width:1.33232737;stroke-miterlimit:4;stroke-dasharray:none;stroke-dashoffset:0;stroke-opacity:0"
       d="m 108.65727,67.006496 c -1.97846,1.021762 -3.91205,2.128151 -5.82689,3.263929 -2.06025,1.233535 -4.095512,2.51139 -6.069212,3.879785 -1.754818,1.234697 -3.461758,2.55351 -4.970961,4.083774 -2.488797,2.513569 -4.48351,5.475552 -6.141278,8.589753 -2.143363,4.03542 -3.691946,8.380254 -4.648366,12.846291 -0.777157,3.631152 -1.140806,7.348302 -1.110943,11.060882 0.01827,2.7685 0.223127,5.53409 0.558265,8.28163 0.439097,3.54541 1.151121,7.06052 2.201832,10.47656 0.902966,2.95031 2.036177,5.83143 3.404868,8.59701 0.960827,1.94081 2.132856,3.77482 3.475661,5.47329 0.706124,0.89919 1.463686,1.75653 2.221571,2.61209 0.969877,1.07233 1.999328,2.09062 3.090552,3.03943 1.55889,1.39237 3.128448,2.78883 4.880363,3.93741 1.639648,1.05236 3.420758,1.85394 5.170528,2.70113 3.14792,1.49726 6.29908,3.00175 9.56838,4.21971 1.94968,0.73299 3.93727,1.36744 5.95887,1.8708 3.1388,0.80348 6.32258,1.41792 9.51522,1.96342 1.34302,0.22759 2.69833,0.37484 4.05733,0.46388 2.08382,0.14726 4.17398,0.21353 6.26282,0.18493 2.20033,-0.0789 4.37082,-0.49033 6.52331,-0.92764 2.94142,-0.60334 5.86285,-1.3186 8.72092,-2.24324 1.93615,-0.629 3.85931,-1.30354 5.74137,-2.08085 1.36055,-0.5651 2.68063,-1.22143 3.99448,-1.88624 0.50818,-0.26397 1.01682,-0.53227 1.47458,-0.87897 1.03563,-0.75817 2.00441,-1.6227 3.15225,-2.21392 2.44056,-1.37027 4.93061,-2.65332 7.33091,-4.09455 0.71467,-0.44117 1.43114,-0.8829 2.11083,-1.37659 1.24847,-0.97071 2.22293,-2.28526 2.79806,-3.75792 0.84024,-1.9613 1.06643,-4.14847 0.83975,-6.25933 -0.21456,-2.27167 -0.74418,-4.49985 -1.35675,-6.69338 -0.74134,-2.63321 -1.66392,-5.21663 -2.77958,-7.71469 -0.61254,-1.34984 -1.33679,-2.65423 -2.22569,-3.84276 -0.63035,-0.73129 -1.89923,-0.77695 -2.56062,-0.0644 -0.6048,0.65537 -0.89119,1.52032 -1.20994,2.33529 -1.66642,4.53821 -3.30072,9.08813 -4.955,13.63075 -1.6286,4.48622 -3.25721,8.97244 -4.88582,13.45865 -0.93544,1.71101 -2.36057,3.18335 -4.12981,4.03041 -1.53531,0.74493 -3.22747,1.05526 -4.87938,1.42864 -5.00192,0.99062 -10.10425,1.55205 -15.20755,1.42998 -3.08103,-0.0712 -6.15754,-0.3628 -9.19606,-0.87802 -2.78946,-0.481 -5.54517,-1.15914 -8.23643,-2.0369 -4.05123,-1.31075 -7.95743,-3.04761 -11.70382,-5.06612 -1.81918,-0.98861 -3.64056,-1.99136 -5.3055,-3.22904 -1.78749,-1.31118 -3.46355,-2.77695 -4.97625,-4.39847 -0.939929,-1.00411 -1.834425,-2.05146 -2.677683,-3.13803 -1.819398,-2.33248 -3.201897,-4.98846 -4.180444,-7.77566 -0.801053,-2.25538 -1.440208,-4.56517 -2.004163,-6.89012 -0.796637,-3.31286 -1.398069,-6.67562 -1.734205,-10.06723 -0.285508,-2.87002 -0.342789,-5.76564 -0.108452,-8.64152 0.341314,-4.29836 1.297154,-8.539458 2.736296,-12.60103 0.747217,-2.077888 1.607253,-4.118167 2.628378,-6.076983 1.060047,-2.001166 2.341308,-3.890748 3.869079,-5.565303 1.848994,-2.07313 3.898894,-3.952368 5.874274,-5.901906 1.39906,-1.377988 2.81458,-2.754815 3.99775,-4.32818 0.52636,-0.719418 1.00917,-1.490767 1.2743,-2.347454 0.063,-0.2789 0.0439,-0.603741 -0.15311,-0.827208 -0.0542,-0.0434 -0.12825,-0.08201 -0.19889,-0.05576 z"
       id="path1274"
       inkscape:connector-curvature="0" />
    <path
       style="opacity:1;fill:#eed417;fill-opacity:1;stroke:none;stroke-width:1.33232737;stroke-miterlimit:4;stroke-dasharray:none;stroke-dashoffset:0.75590551;stroke-opacity:1"
       d="m 105.85991,48.002986 c -0.52415,0.247964 -0.96675,0.644324 -1.3327,1.089207 -0.42305,0.546349 -0.7046,1.19707 -0.82585,1.876643 -0.14733,0.761504 -0.21753,1.535367 -0.27923,2.307719 -0.15729,2.22074 0.0376,4.467132 0.58904,6.624606 0.34348,1.426423 0.72972,2.842219 1.06399,4.270932 0.28828,1.165731 0.50289,2.357645 0.51045,3.561747 0.0347,0.36329 -0.18145,0.690791 -0.42424,0.940139 -0.43916,0.465588 -0.99074,0.818606 -1.38383,1.32961 -0.26541,0.322442 -0.44579,0.728088 -0.4395,1.151102 -0.0108,0.299945 0.0599,0.596197 0.152,0.879631 0.14488,0.225706 0.44208,0.335014 0.69888,0.258357 1.00796,-0.763604 2.05048,-1.479673 3.09662,-2.189566 0.48428,-0.345086 0.97162,-0.695472 1.37359,-1.13753 0.37711,-0.622918 0.45708,-1.379397 0.38276,-2.09182 -0.122,-1.121859 -0.45216,-2.205307 -0.71382,-3.299289 -0.44573,-1.809012 -0.79151,-3.640538 -1.1297,-5.472074 -0.22573,-1.336029 -0.34378,-2.691578 -0.31736,-4.046992 0.004,-1.039727 0.1352,-2.074464 0.32344,-3.095679 0.10222,-0.600079 0.20336,-1.200368 0.29298,-1.80248 0.009,-0.416992 -0.29921,-0.769432 -0.65054,-0.955381 -0.25029,-0.131787 -0.51509,-0.26796 -0.80483,-0.269514 -0.0607,0.02354 -0.12144,0.04709 -0.18215,0.07063 z"
       id="path871"
       inkscape:connector-curvature="0" />
    <path
       style="opacity:1;fill:#eed417;fill-opacity:1;stroke:none;stroke-width:1.33232737;stroke-miterlimit:4;stroke-dasharray:none;stroke-dashoffset:0.75590551;stroke-opacity:1"
       d="m 88.177953,145.44059 c -0.213172,0.17406 -0.196623,0.47697 -0.185879,0.7249 0.05053,1.50905 0.393151,3.02577 1.123086,4.35548 0.7056,1.30717 1.644739,2.47106 2.653168,3.55548 1.257118,1.35251 2.627169,2.593 3.985686,3.84152 1.479949,1.34435 2.999773,2.64617 4.581306,3.86995 1.49822,1.14928 3.05607,2.22377 4.68622,3.17784 1.59103,0.92779 3.25148,1.73466 4.95826,2.4262 1.72944,0.70732 3.50487,1.30063 5.30635,1.7956 1.6997,0.47209 3.42155,0.85938 5.14899,1.21498 1.77341,0.36547 3.55123,0.71024 5.33418,1.02597 1.5823,0.28141 3.17464,0.52251 4.78008,0.62013 0.87044,0.0548 1.74215,0.10818 2.61459,0.1061 0.71887,-0.01 1.43431,-0.0958 2.14044,-0.22733 1.06163,-0.17339 2.12322,-0.3503 3.19025,-0.4867 1.04738,-0.0963 2.10574,0.0416 3.11549,0.32442 1.06164,0.26841 2.07498,0.72102 2.98577,1.3287 1.62023,1.05309 3.22555,2.12884 4.83784,3.194 0.15835,0.15632 0.44316,0.25845 0.63196,0.0948 0.20205,-0.21441 0.031,-0.51879 -0.0837,-0.7327 -0.74037,-1.51321 -1.56,-2.99398 -2.55465,-4.35655 -0.69993,-0.96319 -1.50054,-1.84704 -2.29407,-2.7328 -0.46034,-0.49775 -0.90958,-1.00715 -1.38902,-1.48634 -0.33387,-0.27398 -0.78628,-0.30101 -1.19998,-0.3005 -1.93698,-0.0379 -3.878,0.0653 -5.81143,-0.0958 -1.85736,-0.12715 -3.71358,-0.27144 -5.56897,-0.42382 -1.58921,-0.15638 -3.15265,-0.49272 -4.71715,-0.80196 -1.98214,-0.39778 -3.95696,-0.83705 -5.90909,-1.3638 -2.01133,-0.5543 -3.99098,-1.21496 -5.97318,-1.86374 -1.82272,-0.6189 -3.63801,-1.26701 -5.39996,-2.0448 -1.66579,-0.72367 -3.294,-1.53258 -4.88192,-2.41388 -1.14052,-0.63756 -2.27044,-1.29587 -3.36883,-2.004 -1.163995,-0.74797 -2.273158,-1.57801 -3.341637,-2.45635 -1.645329,-1.34581 -3.251202,-2.73884 -4.874091,-4.11142 -1.349362,-1.1471 -2.698725,-2.29419 -4.048077,-3.44129 -0.175706,-0.077 -0.246443,-0.35506 -0.47212,-0.31226 z"
       id="path914"
       inkscape:connector-curvature="0"
       sodipodi:nodetypes="cccccccccccccccccccccccccccccccccccccccccscsccccccccccccccccccccccc" />
    <path
       style="opacity:1;fill:#eed417;fill-opacity:1;stroke:none;stroke-width:1.33232737;stroke-miterlimit:4;stroke-dasharray:none;stroke-dashoffset:0.75590551;stroke-opacity:1"
       d="m 117.88208,168.52213 c -0.32356,0.13718 -0.4429,0.60032 -0.22304,0.87545 0.98191,1.37458 2.05211,2.68249 3.09661,4.00925 0.34408,0.53952 0.58562,1.13527 0.90561,1.68848 0.46727,0.87685 0.95826,1.74186 1.3944,2.63471 0.59385,1.41573 1.06769,2.88376 1.38827,4.3856 0.27307,1.42279 0.32844,2.87451 0.38559,4.31851 0.008,1.04837 -0.17028,2.08927 -0.42194,3.10398 -0.32034,1.18464 -0.82682,2.30884 -1.37253,3.40459 -0.29827,0.58605 -0.58848,1.17719 -0.92811,1.74084 -0.1277,0.23937 0.14516,0.55881 0.38847,0.38104 0.23235,-0.13136 0.35829,-0.37983 0.53444,-0.57099 0.74497,-0.91632 1.5388,-1.80357 2.14252,-2.82357 0.45996,-0.79076 0.7453,-1.66702 0.99746,-2.54186 0.32537,-1.17898 0.53572,-2.38764 0.67594,-3.60183 0.13788,-1.25271 0.16679,-2.51351 0.21288,-3.77192 0.0505,-1.13862 0.13801,-2.29748 0.54263,-3.37359 0.53938,-1.52465 1.58346,-2.85269 2.89753,-3.7881 1.18196,-0.86846 2.53143,-1.46325 3.86368,-2.05861 1.15916,-0.52218 2.33269,-1.05991 3.59456,-1.2774 0.63829,-0.11505 1.28672,-0.16846 1.93363,-0.20185 0.21427,0.0297 0.48159,-0.041 0.53576,-0.27998 0.0492,-0.23783 -0.1541,-0.42372 -0.33642,-0.53716 -0.50254,-0.28692 -1.08918,-0.35498 -1.65055,-0.44795 -1.28663,-0.19445 -2.58388,-0.30806 -3.88048,-0.41155 -3.35007,-0.19837 -6.70233,-0.35621 -10.05383,-0.52784 -2.1922,-0.11069 -4.38441,-0.22132 -6.57661,-0.33198 l -0.0459,0.004 z"
       id="path918"
       inkscape:connector-curvature="0" />
    <path
       style="display:inline;fill:none;stroke:#000000;stroke-width:0.29722849px;stroke-linecap:butt;stroke-linejoin:miter;stroke-opacity:1"
       d="m 205.36571,147.73662 v 0"
       id="path1163-2"
       inkscape:connector-curvature="0"
       sodipodi:nodetypes="cc" />
    <path
       style="display:inline;fill:#f38428;fill-opacity:1;stroke:#000000;stroke-width:1.68507481;stroke-linecap:butt;stroke-linejoin:miter;stroke-miterlimit:4;stroke-dasharray:none;stroke-opacity:1"
       d="m 202.82779,113.63961 c 0.55306,0.11262 1.10769,0.24045 1.6273,0.46595 0.42589,0.17599 0.83869,0.38605 1.22007,0.64562 0.53482,0.36022 1.02408,0.79096 1.43656,1.28732 0.26056,0.31904 0.47991,0.67008 0.67465,1.03244 0.34984,0.66227 0.5839,1.38474 0.70004,2.12421 0.0741,0.47231 0.0872,0.9528 0.0663,1.42983 -0.04,0.65868 -0.17878,1.31414 -0.4328,1.92412 -0.22806,0.53629 -0.56369,1.02162 -0.94781,1.45766 -0.27618,0.30243 -0.57436,0.58563 -0.90584,0.82709 -0.41293,0.30754 -0.87562,0.54144 -1.35222,0.73292 -0.44676,0.17542 -0.90641,0.32128 -1.37725,0.41644 -1.01547,0.20119 -2.04416,0.32434 -3.06803,0.47394 -2.06339,0.29501 -4.12932,0.57454 -6.18638,0.91181 -0.86626,0.14058 -1.72872,0.30528 -2.58313,0.50602 -0.43877,0.12305 -0.87099,0.27154 -1.28802,0.45553 -0.48161,0.21687 -0.95364,0.45793 -1.39402,0.75063 -0.35145,0.22339 -0.69012,0.46683 -1.01732,0.72427 -0.25978,0.20761 -0.50613,0.43056 -0.74867,0.65784 -0.56664,0.53077 -1.10175,1.09556 -1.59216,1.69773 -0.4205,0.51108 -0.80048,1.05473 -1.14421,1.62016 -0.29983,0.48692 -0.56684,0.99449 -0.79558,1.5187 -0.22628,0.55937 -0.43514,1.1284 -0.56827,1.71798 -0.11432,0.61267 -0.20098,1.23434 -0.18557,1.85905 -9.5e-4,0.55451 0.0668,1.10737 0.17021,1.65152 0.16886,0.84156 0.44321,1.66417 0.84227,2.42518 0.22522,0.44296 0.49927,0.85844 0.75296,1.28518 0.41443,0.67208 0.83485,1.34058 1.24328,2.01632 0.24891,0.40744 0.45199,0.84033 0.67615,1.26143 0.1448,0.27129 0.2894,0.563 0.26997,0.8794 -0.0284,0.31021 -0.18445,0.59301 -0.34397,0.85478 -0.19091,0.30133 -0.41731,0.57858 -0.63958,0.85711 -0.31112,0.38587 -0.63667,0.76112 -0.98874,1.1103 -0.25392,0.23498 -0.52783,0.44718 -0.81744,0.63631 -0.56285,0.38369 -1.15567,0.72062 -1.74966,1.05316 -0.63806,0.34407 -1.28662,0.67028 -1.95694,0.94717 -0.38103,0.16009 -0.76585,0.31083 -1.1568,0.44502 -0.45341,0.15356 -0.91069,0.29701 -1.37337,0.42002 -0.47043,0.12132 -0.9442,0.22938 -1.421,0.32258 -0.47702,0.0921 -0.95653,0.171 -1.43815,0.23473 -0.79682,0.10458 -1.59863,0.16581 -2.40124,0.20322 -0.5714,0.0261 -1.14381,0.0255 -1.71567,0.0182 -0.9419,-0.0191 -1.88359,-0.0747 -2.81997,-0.17912 -0.53989,-0.0622 -1.07994,-0.12433 -1.61588,-0.21555 -0.71332,-0.1083 -1.42173,-0.2472 -2.12725,-0.39756 -0.59886,-0.12638 -1.19271,-0.27588 -1.78056,-0.44625 -0.82923,-0.23949 -1.65297,-0.49894 -2.46294,-0.79759 -0.84214,-0.30595 -1.67755,-0.63159 -2.49667,-0.99502 -0.51878,-0.23425 -1.02872,-0.48794 -1.53609,-0.74578 -0.55054,-0.28581 -1.09675,-0.58046 -1.62818,-0.90068 -0.93984,-0.56266 -1.8433,-1.18349 -2.73196,-1.8233 -0.83602,-0.66783 -1.65301,-1.35972 -2.4457,-2.07849 -1.36502,-1.25222 -2.72331,-2.51172 -4.08371,-3.76892 -1.34998,-1.2451 -2.70097,-2.48917 -4.05631,-3.72841 -0.34963,-0.31557 -0.8143,-0.46603 -1.27124,-0.54121 -0.56748,-0.068 -1.13159,0.0603 -1.69196,0.13291 -1.1709,0.17007 -2.33716,0.37156 -3.50992,0.52915 -0.46398,0.0716 -0.93298,0.10403 -1.40123,0.13285 -0.41829,0.0177 -0.83882,0.0453 -1.25609,-0.004 -0.65577,-0.063 -1.2955,-0.2538 -1.89181,-0.53094 -0.62787,-0.29741 -1.1839,-0.72875 -1.67858,-1.2129 -0.40488,-0.40614 -0.7743,-0.85043 -1.06941,-1.34324 -0.20579,-0.33998 -0.37455,-0.70169 -0.51928,-1.07146 -0.12276,-0.32677 -0.22228,-0.66207 -0.29481,-1.00356 -0.0615,-0.30562 -0.10054,-0.61582 -0.13161,-0.92589 -0.0341,-0.43044 -0.0432,-0.86335 -0.0174,-1.29438 0.0326,-0.39994 0.0974,-0.79703 0.18852,-1.18764 0.11155,-0.44073 0.24344,-0.878 0.43469,-1.29139 0.16175,-0.36872 0.36147,-0.71996 0.58847,-1.05233 0.21072,-0.3054 0.44512,-0.59473 0.70452,-0.86035 0.3892,-0.40317 0.81488,-0.76985 1.2599,-1.10997 0.36146,-0.27727 0.73894,-0.5337 1.13421,-0.76044 0.40482,-0.23258 0.82622,-0.43615 1.25939,-0.61039 0.33261,-0.13238 0.67326,-0.24502 1.01838,-0.33995 0.48471,-0.12508 0.97888,-0.21818 1.47887,-0.25177 0.56652,-0.0393 1.1394,-0.0253 1.6984,0.0808 0.42335,0.0717 0.83792,0.18771 1.24246,0.33085 1.02269,0.34226 2.03038,0.7291 3.06204,1.04433 0.46002,0.13401 0.93466,0.23769 1.41636,0.2282 0.52591,0.007 1.0474,-0.0812 1.5568,-0.20591 0.67112,-0.1552 1.32765,-0.36615 1.98057,-0.584 1.00756,-0.34301 2.00672,-0.71053 2.99998,-1.09286 0.82747,-0.32663 1.65683,-0.64876 2.47462,-0.99924 1.66873,-0.70396 3.32297,-1.44164 4.98269,-2.16648 1.25677,-0.54931 2.51223,-1.10186 3.77563,-1.63578 0.86101,-0.3617 1.72768,-0.71078 2.60925,-1.01954 0.59772,-0.21221 1.19685,-0.42484 1.81518,-0.56993 0.69309,-0.18158 1.398,-0.3155 2.10734,-0.4149 0.83874,-0.11008 1.68412,-0.17262 2.53032,-0.16846 0.67857,5.1e-4 1.35651,0.0423 2.03107,0.11494 0.60716,0.0628 1.20825,0.17295 1.80911,0.27856 1.39536,0.25638 2.78832,0.52633 4.1869,0.76486 0.42395,0.0721 0.84802,0.14349 1.27545,0.19214 0.32424,0.0369 0.64816,0.0804 0.97508,0.0816 0.46904,0.004 0.93936,-0.0223 1.40158,-0.10537 0.7268,-0.11211 1.43622,-0.3118 2.13962,-0.52268 0.72836,-0.22294 1.44984,-0.46789 2.17094,-0.71315 1.91129,-0.65284 3.81681,-1.32242 5.72642,-1.98018 0.70527,-0.24519 1.41024,-0.49129 2.12277,-0.71475 0.8653,-0.27739 1.73415,-0.54606 2.61616,-0.76563 1.00873,-0.23555 2.0366,-0.38125 3.06702,-0.48068 1.34937,-0.12991 2.70539,-0.16253 4.06003,-0.18592 0.17725,-0.007 0.35262,-0.0112 0.52785,0.0226 z"
       id="path1171-3"
       inkscape:connector-curvature="0"
       sodipodi:nodetypes="ccccccccccccccccccccccccccccc" />
    <path
       style="display:inline;opacity:1;fill:#000000;fill-opacity:1;stroke:#000000;stroke-width:0;stroke-miterlimit:4;stroke-dasharray:none;stroke-dashoffset:0.75590551;stroke-opacity:1"
       id="path1193-4"
       d="m 202.42628,122.14836 c 0.57092,0.0714 1.13731,0.20431 1.66532,0.43662 0.21507,0.25043 -0.0903,0.67673 -0.39714,0.58364 -2.2923,0.0828 -4.42235,1.11807 -6.29709,2.37182 -6.95499,4.15699 -13.39162,9.13123 -20.45547,13.11178 -4.44472,2.38034 -9.43831,3.68712 -14.46934,3.91252 -3.08797,0.14191 -6.22262,-0.0709 -9.20127,-0.9365 -4.16796,-1.52059 -7.8826,-4.06517 -12.09714,-5.47417 -2.17512,-0.77696 -4.39315,-1.51989 -6.70108,-1.76209 -1.26002,0.007 -2.5028,0.33145 -3.76561,0.25621 -0.28988,0.17737 -0.62142,-0.34816 -0.31595,-0.52221 1.13815,-0.36464 2.33816,-0.57335 3.392,-1.16467 1.08022,-0.5596 2.00548,-1.40529 2.65957,-2.431 0.34002,-0.46091 0.68002,-0.92183 1.02004,-1.38276 0.25205,-0.19876 0.58872,0.28601 0.31157,0.45199 -0.48903,0.94041 -1.04271,1.88994 -1.16727,2.96205 0.12245,0.63022 0.81462,0.91204 1.39106,0.94786 2.64444,0.3362 5.28112,0.93747 7.70003,2.08392 3.09818,1.3203 6.05371,3.05141 9.35616,3.83223 3.65341,0.74501 7.42425,0.50116 11.0883,-0.034 4.2398,-0.66056 8.35984,-2.21032 11.89468,-4.65798 5.40563,-3.49145 10.68264,-7.18392 16.18941,-10.51723 2.47008,-1.43639 5.34883,-2.12479 8.19922,-2.06809 z"
       inkscape:connector-curvature="0"
       sodipodi:nodetypes="ccccccccccccccccccccccccccccccc" />
    <path
       style="display:inline;opacity:1;fill:#000000;fill-opacity:1;stroke:#000000;stroke-width:0;stroke-miterlimit:4;stroke-dasharray:none;stroke-dashoffset:0.75590551;stroke-opacity:1"
       id="path1195-4"
       d="m 201.8185,112.81902 c 0.96984,0.0528 1.9192,0.28143 2.84551,0.56283 0.16464,0.0449 0.32928,0.0898 0.49393,0.13489 -0.46367,0.20927 -0.9771,0.0634 -1.46062,0.0334 -1.45992,-0.1255 -2.92312,0.0848 -4.3534,0.36521 -1.9046,0.38858 -3.78764,0.87471 -5.66336,1.38301 -1.36203,0.41284 -2.66436,1.00367 -3.90513,1.69758 -1.63093,0.85622 -3.20587,1.82275 -4.67949,2.92939 -1.45858,1.08568 -2.84449,2.26417 -4.25533,3.41014 -1.44067,1.18103 -2.87736,2.3689 -4.37476,3.47796 -1.16593,0.85715 -2.38392,1.64979 -3.68276,2.29167 -1.5397,0.77637 -3.1669,1.37889 -4.83981,1.79666 -2.06558,0.50183 -4.21444,0.60616 -6.32831,0.42644 -1.39597,-0.11032 -2.77895,-0.34019 -4.16061,-0.55961 -0.27575,0.0101 -0.68898,-0.0954 -0.6436,-0.44938 0.0946,-0.3669 0.5378,-0.34194 0.83596,-0.39493 1.7558,-0.27742 3.51217,-0.55531 5.26606,-0.84618 1.48572,-0.24929 2.96954,-0.51231 4.44614,-0.81095 1.25028,-0.2684 2.47079,-0.68545 3.60682,-1.2751 1.69586,-0.85524 3.21788,-2.00239 4.77259,-3.08282 2.98981,-2.09491 5.96858,-4.20605 8.98568,-6.26158 1.38263,-0.89845 2.84848,-1.66801 4.36992,-2.3031 1.32318,-0.54542 2.6587,-1.08748 4.0648,-1.38019 1.97241,-0.44316 3.97751,-0.71608 5.97897,-0.98918 0.88878,-0.10941 1.78495,-0.17476 2.6808,-0.15616 z"
       inkscape:connector-curvature="0"
       sodipodi:nodetypes="ccccccccccccccc" />
    <path
       style="display:inline;opacity:1;fill:url(#linearGradient1235);fill-opacity:1;stroke:#0a0000;stroke-width:1.68507481;stroke-miterlimit:4;stroke-dasharray:none;stroke-dashoffset:0;stroke-opacity:0"
       d="m 179.91911,140.02813 c 0.0329,0.43988 0.0453,0.88322 0.11558,1.31891 0.0981,0.41643 0.32829,0.78373 0.49682,1.17318 0.66766,1.4168 1.33532,2.83362 2.00298,4.25041 0.10818,0.3008 0.28348,0.5993 0.24793,0.93031 -0.0509,0.30908 -0.28064,0.56694 -0.56169,0.69334 -0.73863,0.38618 -1.48925,0.76582 -2.29723,0.98516 -0.89547,0.25514 -1.78869,0.51853 -2.68556,0.76852 -1.06354,0.28304 -2.15749,0.44252 -3.25569,0.50371 -0.81039,0.0598 -1.62273,0.0897 -2.43481,0.11267 -1.52087,0.0162 -3.03819,-0.14267 -4.54031,-0.36954 -1.00192,-0.15963 -1.9961,-0.36677 -2.9784,-0.62059 -1.05579,-0.27737 -2.09829,-0.60403 -3.13317,-0.95079 -0.75104,-0.2648 -1.49413,-0.55234 -2.21985,-0.88067 -0.9822,-0.43691 -1.93095,-0.95072 -2.8263,-1.54598 -1.03557,-0.72021 -1.97066,-1.57046 -2.90493,-2.41457 -1.67432,-1.55722 -3.33863,-3.12517 -5.00668,-4.68909 1.57244,0.67944 3.14488,1.35889 4.71733,2.03834 0.53495,0.20609 1.1013,0.30989 1.65485,0.45263 1.00713,0.23859 2.02111,0.46212 3.05257,0.56461 1.56351,0.17555 3.13909,0.17667 4.71033,0.18671 0.59695,-5e-4 1.19589,-0.005 1.78783,-0.0907 1.08809,-0.14423 2.17677,-0.28706 3.26071,-0.45958 0.97539,-0.19419 1.93795,-0.44611 2.90184,-0.68968 0.651,-0.16698 1.30317,-0.33347 1.93589,-0.56207 0.90055,-0.31339 1.77551,-0.69461 2.65152,-1.06987 1.02819,-0.45287 2.04191,-0.94193 3.01121,-1.51141 0.73559,-0.41824 1.45574,-0.877 2.24896,-1.18042 0.0444,9.5e-4 0.18288,-0.0729 0.1431,0.0324 -0.0316,1.00802 -0.0633,2.01601 -0.0948,3.02403 z"
       id="path1222"
       inkscape:connector-curvature="0"
       sodipodi:nodetypes="ccccccsssscscccccccccccccccccc" />
    <path
       style="fill:none;stroke:#000000;stroke-width:1.5727365;stroke-linecap:butt;stroke-linejoin:miter;stroke-miterlimit:4;stroke-dasharray:none;stroke-opacity:1"
       d="m 178.80669,135.41168 c 0.33217,0.085 0.53278,0.39298 0.78989,0.59679 0.26194,0.24082 0.33316,0.62399 0.27426,0.96321 -0.12367,1.19483 -0.23521,2.40219 -0.0983,3.60114 0.0353,0.45254 0.1056,0.90794 0.29401,1.32478 0.35467,0.91801 0.86164,1.76542 1.30994,2.63882 0.35313,0.67506 0.72562,1.34121 1.05441,2.02825 0.1221,0.32255 0.16141,0.67236 0.1409,1.01553 -0.10111,0.36477 -0.45252,0.56704 -0.74401,0.76787 -0.55787,0.35497 -1.19722,0.54415 -1.8111,0.77617 -1.10281,0.37174 -2.22226,0.69378 -3.35201,0.97251 -1.12648,0.23439 -2.27146,0.36888 -3.41661,0.47118 -1.06295,0.0829 -2.1317,0.066 -3.19437,-0.012 -0.96366,-0.0625 -1.92705,-0.1517 -2.88104,-0.30384 -1.42279,-0.24616 -2.82434,-0.60126 -4.21575,-0.98432 -1.18112,-0.33651 -2.35903,-0.69456 -3.49748,-1.15791 -1.17949,-0.49302 -2.33196,-1.06151 -3.407,-1.75554 -0.97556,-0.63592 -1.85581,-1.40496 -2.70869,-2.19447 -1.83609,-1.73077 -3.63262,-3.50292 -5.4586,-5.24421 -0.16156,-0.16739 -0.30234,-0.4364 -0.16674,-0.66043 0.13304,-0.19904 0.41045,-0.18864 0.61677,-0.13456 1.22552,0.3316 2.46586,0.60591 3.694,0.927 0.77552,0.22325 1.51241,0.56553 2.29393,0.76818 0.60651,0.15011 1.23449,0.1587 1.85382,0.21502 1.74359,0.12017 3.49077,0.17876 5.23708,0.24494 1.29673,0.0452 2.5941,0.0998 3.89173,0.0844 0.81161,-0.0427 1.57867,-0.33558 2.35701,-0.54265 2.06919,-0.59787 4.1255,-1.23932 6.18968,-1.85417 0.86432,-0.37579 1.61528,-0.95561 2.41123,-1.45116 0.51085,-0.33326 1.03319,-0.65849 1.60831,-0.86974 0.29737,-0.11852 0.6126,-0.22245 0.93475,-0.23084 z"
       id="path1263"
       inkscape:connector-curvature="0"
       sodipodi:nodetypes="ccccccccccccccccccccccccccccccc" />
  </g>
</svg>
