<?xml version="1.0" encoding="UTF-8" standalone="no"?>
<!-- Created with Inkscape (http://www.inkscape.org/) -->

<svg
   xmlns:dc="http://purl.org/dc/elements/1.1/"
   xmlns:cc="http://creativecommons.org/ns#"
   xmlns:rdf="http://www.w3.org/1999/02/22-rdf-syntax-ns#"
   xmlns:svg="http://www.w3.org/2000/svg"
   xmlns="http://www.w3.org/2000/svg"
   xmlns:xlink="http://www.w3.org/1999/xlink"
   xmlns:sodipodi="http://sodipodi.sourceforge.net/DTD/sodipodi-0.dtd"
   xmlns:inkscape="http://www.inkscape.org/namespaces/inkscape"
   width="174.46274mm"
   height="136.89719mm"
   viewBox="0 0 174.46274 136.89719"
   version="1.1"
   id="svg973"
   inkscape:version="0.92.4 (5da689c313, 2019-01-14)"
   sodipodi:docname="ThiccRock.svg">
  <defs
     id="defs967">
    <linearGradient
       inkscape:collect="always"
       xlink:href="#linearGradient1742"
       id="linearGradient1736"
       x1="110.55353"
       y1="195.90356"
       x2="113.67634"
       y2="212.09711"
       gradientUnits="userSpaceOnUse"
       gradientTransform="translate(-6.7331752,-12.818923)" />
    <linearGradient
       inkscape:collect="always"
       id="linearGradient1742">
      <stop
         style="stop-color:#161616;stop-opacity:1"
         offset="0"
         id="stop1738" />
      <stop
         style="stop-color:#7d7d7d;stop-opacity:0;"
         offset="1"
         id="stop1740" />
    </linearGradient>
    <linearGradient
       inkscape:collect="always"
       xlink:href="#linearGradient1654"
       id="linearGradient1648"
       x1="156.42142"
       y1="172.04512"
       x2="136.00189"
       y2="212.90025"
       gradientUnits="userSpaceOnUse"
       gradientTransform="matrix(1.2598533,0,0,1.2598533,-52.669099,-51.391318)" />
    <linearGradient
       inkscape:collect="always"
       id="linearGradient1654">
      <stop
         style="stop-color:#000000;stop-opacity:0.93434346"
         offset="0"
         id="stop1650" />
      <stop
         style="stop-color:#8e8f8e;stop-opacity:0;"
         offset="1"
         id="stop1652" />
    </linearGradient>
  </defs>
  <sodipodi:namedview
     id="base"
     pagecolor="#ffffff"
     bordercolor="#666666"
     borderopacity="1.0"
     inkscape:pageopacity="0.0"
     inkscape:pageshadow="2"
     inkscape:zoom="0.35"
     inkscape:cx="-711.7352"
     inkscape:cy="192.98906"
     inkscape:document-units="mm"
     inkscape:current-layer="layer1"
     showgrid="false"
     inkscape:window-width="1920"
     inkscape:window-height="1057"
     inkscape:window-x="-8"
     inkscape:window-y="-8"
     inkscape:window-maximized="1" />
  <metadata
     id="metadata970">
    <rdf:RDF>
      <cc:Work
         rdf:about="">
        <dc:format>image/svg+xml</dc:format>
        <dc:type
           rdf:resource="http://purl.org/dc/dcmitype/StillImage" />
        <dc:title />
      </cc:Work>
    </rdf:RDF>
  </metadata>
  <g
     inkscape:label="Layer 1"
     inkscape:groupmode="layer"
     id="layer1"
     transform="translate(-5.7507727,-62.997833)">
    <path
       style="display:inline;fill:#c3c3c3;fill-opacity:1;stroke:#000000;stroke-width:1.20000005;stroke-linecap:butt;stroke-linejoin:miter;stroke-miterlimit:4;stroke-dasharray:none;stroke-opacity:1"
       d="m 100.49789,64.545955 -10.205355,16.252976 15.874995,21.166669 35.15179,23.43452 38.1756,2.26786 -2.64584,-15.49703 L 162.86396,95.917978 132.24789,83.066788 119.3967,66.813812 102.76575,65.301907 Z"
       id="path854"
       inkscape:connector-curvature="0"
       sodipodi:nodetypes="ccccccccccc" />
    <path
       style="display:inline;fill:#7d7d7d;fill-opacity:1;stroke:#000000;stroke-width:1.20000005;stroke-linecap:butt;stroke-linejoin:miter;stroke-miterlimit:4;stroke-dasharray:none;stroke-opacity:1"
       d="M 51.360995,85.523631 32.840161,113.30488 24.305845,138.40097 22.634803,163.67022 6.3818269,145.81084 10.539564,114.06083 34.352065,77.397145 54.114588,66.016584 l 2.625299,-0.3627 -1.745105,4.607843 z"
       id="path860"
       inkscape:connector-curvature="0"
       sodipodi:nodetypes="ccccccccccc" />
    <path
       style="display:inline;fill:#5f5f5f;fill-opacity:1;stroke:#000000;stroke-width:1.20000005;stroke-linecap:butt;stroke-linejoin:miter;stroke-miterlimit:4;stroke-dasharray:none;stroke-opacity:1"
       d="m 6.4820529,146.22845 0.0264,0.70738 2.330222,20.70313 11.8587641,11.81568 1.937368,-15.78442 -15.3740351,-16.89357 z"
       id="path862"
       inkscape:connector-curvature="0"
       sodipodi:nodetypes="ccccccc" />
    <path
       style="display:inline;fill:#7d7d7d;fill-opacity:1;stroke:#000000;stroke-width:1.20000005;stroke-linecap:butt;stroke-linejoin:miter;stroke-miterlimit:4;stroke-dasharray:none;stroke-opacity:1"
       d="m 22.634803,163.67022 40.443452,8.59894 36.28571,-1.88987 27.403275,-0.37799 2.45684,14.26861 -37.419634,5.00818 -33.261906,-4.53571 -29.104166,-1.13393 -8.740938,-4.15381 c 0.869297,-6.60905 1.111014,-7.56477 1.937367,-15.78442 z"
       id="path864"
       inkscape:connector-curvature="0"
       sodipodi:nodetypes="cccccccccc" />
    <path
       style="display:inline;fill:none;stroke:#000000;stroke-width:1.20000005;stroke-linecap:butt;stroke-linejoin:miter;stroke-miterlimit:4;stroke-dasharray:none;stroke-opacity:1"
       d="m 155.68242,153.74834 -2.64584,-18.14286 -11.71726,-10.20536"
       id="path866"
       inkscape:connector-curvature="0"
       sodipodi:nodetypes="ccc" />
    <path
       style="display:inline;fill:#a9a9a9;fill-opacity:1;stroke:#000000;stroke-width:1.20000005;stroke-linecap:butt;stroke-linejoin:miter;stroke-miterlimit:4;stroke-dasharray:none;stroke-opacity:1"
       d="m 129.22408,184.26991 41.19941,-9.73289 7.55952,-23.43451 1.13393,-15.11905 0.44348,-7.78842 -0.0655,-0.52706 -38.1756,-2.26786 11.71726,10.20536 4.44123,21.73363 -30.71057,12.66219 z"
       id="path868"
       inkscape:connector-curvature="0"
       sodipodi:nodetypes="ccccccccccc" />
    <path
       style="display:inline;fill:none;stroke:#000000;stroke-width:1.20000005;stroke-linecap:butt;stroke-linejoin:miter;stroke-miterlimit:4;stroke-dasharray:none;stroke-opacity:1"
       d="m 56.085696,65.679882 15.686011,-2.078868 14.552083,1.133927 14.1741,-0.188986"
       id="path872"
       inkscape:connector-curvature="0" />
    <path
       style="display:inline;fill:#a9a9a9;fill-opacity:1;stroke:#000000;stroke-width:1.20000005;stroke-linecap:butt;stroke-linejoin:miter;stroke-miterlimit:4;stroke-dasharray:none;stroke-opacity:1"
       d="M 51.360992,85.523631 74.228554,90.815298 90.292535,80.798931 100.49789,64.545955 98.798117,64.014568 86.32379,64.734939 71.771704,63.601014 l -15.031817,2.05287 -1.221156,2.577338 z"
       id="path874"
       inkscape:connector-curvature="0"
       sodipodi:nodetypes="cccccccccc" />
    <path
       style="display:inline;fill:#8e8f8e;fill-opacity:1;stroke:#000000;stroke-width:1.20000005;stroke-linecap:butt;stroke-linejoin:miter;stroke-miterlimit:4;stroke-dasharray:none;stroke-opacity:1"
       d="m 22.634804,163.67022 1.671039,-25.26925 8.534318,-25.09609 18.520831,-27.781249 22.867562,5.291667 16.063981,-10.016367 15.874995,21.166669 35.15179,23.43452 11.71726,10.20536 4.44123,21.73363 -30.71057,12.66219 -27.403275,0.37799 -36.28571,1.88987 z"
       id="path876"
       inkscape:connector-curvature="0"
       sodipodi:nodetypes="cccccccccccccc" />
    <path
       style="display:inline;fill:#d1d1d1;fill-opacity:1;stroke:#000000;stroke-width:1.20000005;stroke-linecap:square;stroke-linejoin:miter;stroke-miterlimit:4;stroke-dasharray:none;stroke-opacity:1"
       d="M 90.292535,80.798931 106.16753,101.9656 124.49938,97.051906 132.24789,83.066788 119.3967,66.813812 102.76575,65.301907 100.49789,64.545955 Z"
       id="path878"
       inkscape:connector-curvature="0" />
    <path
       style="display:inline;fill:#ffffff;fill-opacity:1;stroke:#000000;stroke-width:1.20000005;stroke-linecap:butt;stroke-linejoin:miter;stroke-miterlimit:4;stroke-dasharray:none;stroke-opacity:1"
       d="m 175.97102,127.61184 3.35263,0.29238 -1.5745,23.14818 -7.52611,23.30088 -4.37233,0.98996 c 0.0334,-0.16705 8.25943,-24.66596 8.25943,-24.66596 z"
       id="path1380"
       inkscape:connector-curvature="0"
       sodipodi:nodetypes="ccccccc" />
    <path
       style="display:inline;fill:#ffffff;fill-opacity:1;stroke:#000000;stroke-width:1.20000005;stroke-linecap:butt;stroke-linejoin:miter;stroke-miterlimit:4;stroke-dasharray:none;stroke-opacity:1"
       d="m 56.739887,65.653884 -1.074031,3.62404 16.247591,-1.708159 14.126864,1.086681 7.748505,-1.039435 4.721,9.79e-4 1.720814,-2.971809 -1.432513,-0.631613 -12.474327,0.720371 -14.54618,-0.882925 z"
       id="path1382"
       inkscape:connector-curvature="0"
       sodipodi:nodetypes="ccccccccccc" />
    <path
       style="display:inline;fill:#ffffff;fill-opacity:0.99494952;stroke:#000000;stroke-width:1.20000005;stroke-linecap:butt;stroke-linejoin:miter;stroke-miterlimit:4;stroke-dasharray:none;stroke-opacity:1"
       d="m 98.509816,67.617992 c 1.316411,0.514974 2.808964,1.452797 4.125364,1.96777 l 13.93674,1.526879 10.88691,12.406156 2.97096,3.935659 c 0.44336,-0.821615 1.16278,-3.566518 1.60614,-4.388132 -4.28385,-5.417319 -8.35537,-10.501108 -12.63923,-15.918425 l -0.70337,-0.115025 -15.95454,-1.669675 c -0.71745,-0.171875 -1.43491,-0.34375 -2.15234,-0.515625 -0.38152,0.654948 -1.695123,2.11547 -2.076634,2.770418 z"
       id="path1360"
       inkscape:connector-curvature="0"
       sodipodi:nodetypes="ccccccccccc" />
    <path
       style="display:inline;fill:#ffffff;fill-opacity:0.99494952;stroke:#000000;stroke-width:1.20000005;stroke-linecap:butt;stroke-linejoin:miter;stroke-miterlimit:4;stroke-dasharray:none;stroke-opacity:1"
       d="m 132.24789,83.367466 -1.8181,4.08699 30.10745,12.255271 12.98076,14.572903 2.45302,13.32921 3.2227,-0.20962 -2.34464,-15.23127 -14.15216,-16.042038 z"
       id="path1378"
       inkscape:connector-curvature="0"
       sodipodi:nodetypes="ccccccccc" />
    <path
       style="display:inline;fill:#aaaaaa;fill-opacity:1;stroke:#000000;stroke-width:1.20000005;stroke-linecap:butt;stroke-linejoin:miter;stroke-miterlimit:4;stroke-dasharray:none;stroke-opacity:1"
       d="m 144.3779,165.04461 c -9.42109,12.15626 -9.72501,11.85234 -9.72501,11.85234 l 16.71486,19.75394 8.74479,-1.24935 2.0415,-2.36382 1.0255,-4.66288 -0.31285,-6.47871 -3.29346,-5.91088 -6.07813,-7.59768 z"
       id="path1621"
       inkscape:connector-curvature="0"
       sodipodi:nodetypes="cccccccccc" />
    <path
       style="display:inline;fill:#a4a4a4;fill-opacity:1;stroke:#000000;stroke-width:1.20000005;stroke-linecap:butt;stroke-linejoin:miter;stroke-miterlimit:4;stroke-dasharray:none;stroke-opacity:1"
       d="m 140.33921,164.52999 c -5.79682,0.49983 -10.97839,1.44321 -16.45775,2.61681 -0.41016,3.22135 -0.51963,6.3759 -0.92979,9.59725 2.17838,0.45639 4.35677,0.91277 6.53516,1.36915 1.722,-0.4056 3.44401,-0.81121 5.16601,-1.21679 3.13932,-3.75912 6.58574,-8.09268 9.72506,-11.8518 -1.34084,-0.52091 -3.1432,-0.60006 -4.03869,-0.51462 z"
       id="path1623"
       inkscape:connector-curvature="0"
       sodipodi:nodetypes="ccccccc" />
    <path
       style="display:inline;fill:#8e8f8e;fill-opacity:1;stroke:#000000;stroke-width:1.20000005;stroke-linecap:butt;stroke-linejoin:miter;stroke-miterlimit:4;stroke-dasharray:none;stroke-opacity:1"
       d="m 122.9525,176.74501 -3.64689,10.18086 9.57307,9.1172 11.54844,1.51954 10.94063,-0.91172 -16.71486,-19.75394 -5.16642,1.21564 z"
       id="path1625"
       inkscape:connector-curvature="0" />
    <path
       style="display:inline;fill:#6f6f6f;fill-opacity:1;stroke:#000000;stroke-width:1.20000005;stroke-linecap:butt;stroke-linejoin:miter;stroke-miterlimit:4;stroke-dasharray:none;stroke-opacity:1"
       d="m 124.14518,167.37018 -0.59483,-0.0751 -8.65138,7.93043 -1.36758,9.42111 5.77422,2.2793 v 0 l 3.64689,-10.18086 0.97645,-9.06701 z"
       id="path1627"
       inkscape:connector-curvature="0"
       sodipodi:nodetypes="ccccccccc" />
    <path
       style="display:inline;fill:#434343;fill-opacity:1;stroke:#000000;stroke-width:1.20000005;stroke-linecap:butt;stroke-linejoin:miter;stroke-miterlimit:4;stroke-dasharray:none;stroke-opacity:1"
       d="m 113.53139,184.64658 -0.0383,0.70974 1.55777,7.64768 6.77495,2.58162 7.0528,0.45745 -9.57307,-9.1172 -4.92034,-1.94224 z"
       id="path1629"
       inkscape:connector-curvature="0"
       sodipodi:nodetypes="cccccccc" />
    <path
       style="display:inline;fill:#d3d3d3;fill-opacity:1;stroke:#000000;stroke-width:1.20000005;stroke-linecap:butt;stroke-linejoin:miter;stroke-miterlimit:4;stroke-dasharray:none;stroke-opacity:1"
       d="m 143.98739,187.88586 13.43204,-6.14926 2.1538,-5.75135 -5.89438,-7.31372 -9.30095,-3.62692 -9.72501,11.85234 z"
       id="path1631"
       inkscape:connector-curvature="0"
       sodipodi:nodetypes="ccccccc" />
    <path
       style="display:inline;opacity:0.8;fill:url(#linearGradient1648);fill-opacity:1;stroke:#000000;stroke-width:1.20000005;stroke-linecap:butt;stroke-linejoin:miter;stroke-miterlimit:4;stroke-dasharray:none;stroke-opacity:1"
       d="m 115.05086,193.004 -1.55777,-7.64768 1.40588,-10.13084 8.90779,-7.93991 c 7.02062,-1.48309 14.06936,-3.0927 20.57114,-2.24096 l 9.1172,3.34296 6.07813,7.59768 3.29346,5.91088 0.31285,6.47871 -1.0255,4.66288 -2.0415,2.36382 -8.74479,1.24935 -10.94063,0.91172 -11.54851,-1.51954 -7.0528,-0.45745 z"
       id="path1640"
       inkscape:connector-curvature="0"
       sodipodi:nodetypes="cccccccccccccccc" />
    <path
       style="display:inline;opacity:0.8;fill:#ffffff;fill-opacity:1;stroke:#000000;stroke-width:1.20000005;stroke-linecap:butt;stroke-linejoin:miter;stroke-miterlimit:4;stroke-dasharray:none;stroke-opacity:1"
       d="m 144.39894,165.36029 -2.73547,3.12243 9.62242,3.0854 6.99002,7.70123 0.45226,-1.67385 0.59634,-1.57304 -5.9136,-7.46655 z"
       id="path1676"
       inkscape:connector-curvature="0"
       sodipodi:nodetypes="cccccccc" />
    <path
       style="display:inline;opacity:0.8;fill:#fefefe;fill-opacity:1;stroke:#000000;stroke-width:1.20000005;stroke-linecap:butt;stroke-linejoin:miter;stroke-miterlimit:4;stroke-dasharray:none;stroke-opacity:1"
       d="m 158.27591,179.26935 2.07156,4.40404 -0.30311,5.42631 -1.50309,3.23946 -1.38389,3.08403 2.85099,-0.23005 1.95222,-2.24477 0.98085,-4.55873 -0.29797,-6.41917 -3.02559,-5.44958 z"
       id="path1683"
       inkscape:connector-curvature="0"
       sodipodi:nodetypes="ccccccccccc" />
    <path
       style="display:inline;opacity:0.8;fill:#ffffff;fill-opacity:1;stroke:#000000;stroke-width:1.39999998;stroke-linecap:butt;stroke-linejoin:miter;stroke-miterlimit:4;stroke-dasharray:none;stroke-opacity:1"
       d="m 123.80676,167.28557 10.85073,-2.1507 5.68172,-0.60488 2.89189,0.32463 1.16784,0.50567 -2.73547,3.12243 -5.02161,-0.65477 -12.85119,2.17335 -0.0235,-1.37908 z"
       id="path891"
       inkscape:connector-curvature="0"
       sodipodi:nodetypes="cccccccccc" />
    <path
       style="display:inline;fill:#b9b9b9;fill-opacity:1;stroke:#000000;stroke-width:1.20000005;stroke-linecap:butt;stroke-linejoin:miter;stroke-miterlimit:4;stroke-dasharray:none;stroke-opacity:1"
       d="m 100.95925,182.73392 -9.611223,6.85714 5.27857,4.10926 7.617193,3.20725 8.71966,0.63476 4.20949,-5.24515 -0.50408,-3.69037 -0.10563,-0.65278 -0.41075,-0.47068 -2.62109,-2.83677 -6.28083,-1.33635 z"
       id="path1687"
       inkscape:connector-curvature="0"
       sodipodi:nodetypes="cccccccccccc" />
    <path
       style="display:inline;fill:#4f4f4f;fill-opacity:1;stroke:#000000;stroke-width:1.20000005;stroke-linecap:butt;stroke-linejoin:miter;stroke-miterlimit:4;stroke-dasharray:none;stroke-opacity:1"
       d="m 90.922807,189.82138 -0.295301,0.60389 0.720521,4.51117 2.790679,1.11023 1.752899,-1.00999 0.734992,-1.33636 -5.27857,-4.10926 z"
       id="path1689"
       inkscape:connector-curvature="0"
       sodipodi:nodetypes="cccccccc" />
    <path
       style="display:inline;fill:#5f5f5f;fill-opacity:1;stroke:#000000;stroke-width:1.20000005;stroke-linecap:butt;stroke-linejoin:miter;stroke-miterlimit:4;stroke-dasharray:none;stroke-opacity:1"
       d="m 94.684076,195.7281 1.207529,-0.69142 0.734992,-1.33636 7.758973,2.7112 -1.69463,2.63042 -7.092713,-2.4652 -1.459521,-0.53007 z"
       id="path1691"
       inkscape:connector-curvature="0"
       sodipodi:nodetypes="cccccccc" />
    <path
       style="display:inline;fill:#686868;fill-opacity:1;stroke:#000000;stroke-width:1.20000005;stroke-linecap:butt;stroke-linejoin:miter;stroke-miterlimit:4;stroke-dasharray:none;stroke-opacity:1"
       d="m 102.69094,199.04194 0.75647,0.251 9.1903,-0.19711 0.0251,-0.35079 -0.50256,-2.31302 -7.77468,-0.0205 -1.37733,2.19438 z"
       id="path1693"
       inkscape:connector-curvature="0"
       sodipodi:nodetypes="cccccccc" />
    <path
       style="display:inline;fill:#747474;fill-opacity:1;stroke:#000000;stroke-width:1.20000005;stroke-linecap:butt;stroke-linejoin:miter;stroke-miterlimit:4;stroke-dasharray:none;stroke-opacity:1"
       d="m 112.63771,199.09583 c 0,0 0.44316,0.1001 1.13664,-0.66835 l 3.59904,-2.55556 -0.032,-2.5548 -0.16843,-1.01994 -1.39153,1.15693 -3.62116,2.97791 0.28341,2.62656 z"
       id="path1695"
       inkscape:connector-curvature="0"
       sodipodi:nodetypes="ccccccccc" />
    <path
       style="display:inline;fill:#e8e8e8;fill-opacity:1;stroke:#000000;stroke-width:1.20000005;stroke-linecap:butt;stroke-linejoin:miter;stroke-miterlimit:4;stroke-dasharray:none;stroke-opacity:1"
       d="m 101.50427,182.77569 0.33409,5.77971 7.14945,2.47224 4.77744,-1.00227 1.93771,-2.93996 -2.17157,-2.43883 -6.28083,-1.33635 z"
       id="path1697"
       inkscape:connector-curvature="0"
       sodipodi:nodetypes="cccccccc" />
    <path
       style="display:inline;opacity:0.76000001;fill:url(#linearGradient1736);fill-opacity:1;stroke:#000000;stroke-width:1.20000005;stroke-linecap:butt;stroke-linejoin:miter;stroke-miterlimit:4;stroke-dasharray:none;stroke-opacity:1"
       d="m 91.348157,189.59172 c -0.161452,0.27799 -0.322911,0.55599 -0.484371,0.83398 0.16146,1.50391 0.322919,3.00781 0.484371,4.51172 3.78125,1.36849 7.5625,2.73698 11.343743,4.10547 3.31511,0.0176 6.63021,0.0352 9.94532,0.0527 1.55664,-1.45312 3.11328,-2.90625 4.66992,-4.35937 -0.24805,-2.26042 -0.4961,-4.52083 -0.74414,-6.78125 -1.01042,-1.10287 -2.02084,-2.20573 -3.03125,-3.30859 -2.09375,-0.44532 -4.1875,-0.89063 -6.28125,-1.33594 -2.04361,-0.19988 -4.08724,-0.39974 -6.13086,-0.59961 -3.257153,2.29362 -6.514314,4.58724 -9.771483,6.88086 z"
       id="path1728"
       inkscape:connector-curvature="0"
       sodipodi:nodetypes="ccccccccccc" />
    <path
       style="display:inline;opacity:1;fill:#cdcdcd;fill-opacity:1;stroke:#000000;stroke-width:0.80000001;stroke-linecap:butt;stroke-linejoin:miter;stroke-miterlimit:4;stroke-dasharray:none;stroke-dashoffset:0;stroke-opacity:1"
       d="m 111.57534,184.15265 0.0334,2.07135 2.77293,2.83973 1.32129,-1.97832 -2.17157,-2.4388 z"
       id="path911"
       inkscape:connector-curvature="0"
       sodipodi:nodetypes="cccccc" />
    <path
       style="display:inline;opacity:1;fill:#d8d8d8;fill-opacity:1;stroke:#000000;stroke-width:0.80000001;stroke-linecap:butt;stroke-linejoin:miter;stroke-miterlimit:4;stroke-dasharray:none;stroke-opacity:1"
       d="m 114.38167,189.06373 1.03567,4.6104 1.75562,-1.37695 -0.60973,-4.34315 -0.86027,-0.86862 z"
       id="path913"
       inkscape:connector-curvature="0" />
    <path
       style="display:inline;opacity:1;fill:#bcbcbc;fill-opacity:1;stroke:#000000;stroke-width:0.80000001;stroke-linecap:butt;stroke-linejoin:miter;stroke-miterlimit:4;stroke-dasharray:none;stroke-opacity:1"
       d="m 115.41734,193.67413 0.20045,3.27404 1.7556,-1.07625 -0.032,-2.5548 -0.16845,-1.01994 z"
       id="path915"
       inkscape:connector-curvature="0" />
  </g>
</svg>
