<?xml version="1.0" encoding="UTF-8" standalone="no"?>
<!-- Created with Inkscape (http://www.inkscape.org/) -->

<svg
   xmlns:dc="http://purl.org/dc/elements/1.1/"
   xmlns:cc="http://creativecommons.org/ns#"
   xmlns:rdf="http://www.w3.org/1999/02/22-rdf-syntax-ns#"
   xmlns:svg="http://www.w3.org/2000/svg"
   xmlns="http://www.w3.org/2000/svg"
   xmlns:xlink="http://www.w3.org/1999/xlink"
   xmlns:sodipodi="http://sodipodi.sourceforge.net/DTD/sodipodi-0.dtd"
   xmlns:inkscape="http://www.inkscape.org/namespaces/inkscape"
   width="210mm"
   height="297mm"
   viewBox="0 0 210 297"
   version="1.1"
   id="svg8"
   inkscape:version="0.92.4 (5da689c313, 2019-01-14)"
   sodipodi:docname="StoneTower.svg">
  <defs
     id="defs2">
    <linearGradient
       inkscape:collect="always"
       id="linearGradient4898">
      <stop
         style="stop-color:#ffffff;stop-opacity:1;"
         offset="0"
         id="stop4894" />
      <stop
         style="stop-color:#ffffff;stop-opacity:0;"
         offset="1"
         id="stop4896" />
    </linearGradient>
    <linearGradient
       inkscape:collect="always"
       id="linearGradient4879">
      <stop
         style="stop-color:#000000;stop-opacity:1;"
         offset="0"
         id="stop4875" />
      <stop
         style="stop-color:#000000;stop-opacity:0;"
         offset="1"
         id="stop4877" />
    </linearGradient>
    <linearGradient
       inkscape:collect="always"
       id="linearGradient4874">
      <stop
         style="stop-color:#ffffff;stop-opacity:1;"
         offset="0"
         id="stop4870" />
      <stop
         style="stop-color:#ffffff;stop-opacity:0;"
         offset="1"
         id="stop4872" />
    </linearGradient>
    <linearGradient
       inkscape:collect="always"
       id="linearGradient5088">
      <stop
         style="stop-color:#000000;stop-opacity:1;"
         offset="0"
         id="stop5084" />
      <stop
         style="stop-color:#000000;stop-opacity:0;"
         offset="1"
         id="stop5086" />
    </linearGradient>
    <linearGradient
       inkscape:collect="always"
       id="linearGradient5077">
      <stop
         style="stop-color:#000000;stop-opacity:1;"
         offset="0"
         id="stop5073" />
      <stop
         style="stop-color:#000000;stop-opacity:0;"
         offset="1"
         id="stop5075" />
    </linearGradient>
    <linearGradient
       inkscape:collect="always"
       id="linearGradient5064">
      <stop
         style="stop-color:#000000;stop-opacity:1;"
         offset="0"
         id="stop5060" />
      <stop
         style="stop-color:#000000;stop-opacity:0;"
         offset="1"
         id="stop5062" />
    </linearGradient>
    <linearGradient
       inkscape:collect="always"
       id="linearGradient8811">
      <stop
         style="stop-color:#000000;stop-opacity:0.53535354"
         offset="0"
         id="stop8807" />
      <stop
         style="stop-color:#000000;stop-opacity:0;"
         offset="1"
         id="stop8809" />
    </linearGradient>
    <linearGradient
       inkscape:collect="always"
       id="linearGradient8740">
      <stop
         style="stop-color:#000000;stop-opacity:1;"
         offset="0"
         id="stop8736" />
      <stop
         style="stop-color:#000000;stop-opacity:0.06565657"
         offset="1"
         id="stop8738" />
    </linearGradient>
    <linearGradient
       inkscape:collect="always"
       xlink:href="#linearGradient8740"
       id="linearGradient8742"
       x1="8.5526285"
       y1="180.20322"
       x2="160.36171"
       y2="177.53052"
       gradientUnits="userSpaceOnUse"
       gradientTransform="matrix(0.99995897,0,0,1.0000365,-0.00524449,-0.0089511)" />
    <linearGradient
       gradientTransform="matrix(-0.93239263,0.00499902,0.0046611,0.9999875,205.47912,-1.0232277)"
       inkscape:collect="always"
       xlink:href="#linearGradient8740"
       id="linearGradient8742-9"
       x1="8.5526285"
       y1="180.20322"
       x2="160.36171"
       y2="177.53052"
       gradientUnits="userSpaceOnUse" />
    <linearGradient
       inkscape:collect="always"
       xlink:href="#linearGradient8811"
       id="linearGradient8813"
       x1="94.777527"
       y1="121.90253"
       x2="149.96207"
       y2="108.38988"
       gradientUnits="userSpaceOnUse" />
    <linearGradient
       gradientTransform="matrix(-1,0,0,1,212.27404,0.1271784)"
       inkscape:collect="always"
       xlink:href="#linearGradient8811"
       id="linearGradient8813-7"
       x1="94.777527"
       y1="121.90253"
       x2="149.96207"
       y2="108.38988"
       gradientUnits="userSpaceOnUse" />
    <linearGradient
       inkscape:collect="always"
       xlink:href="#linearGradient5064"
       id="linearGradient5066"
       x1="70.838631"
       y1="171.88419"
       x2="109.95936"
       y2="168.88297"
       gradientUnits="userSpaceOnUse"
       gradientTransform="translate(-0.18708867,1.0289877)" />
    <linearGradient
       inkscape:collect="always"
       xlink:href="#linearGradient5077"
       id="linearGradient5079"
       x1="91.486359"
       y1="225.90631"
       x2="110.75649"
       y2="225.34505"
       gradientUnits="userSpaceOnUse" />
    <linearGradient
       inkscape:collect="always"
       xlink:href="#linearGradient5088"
       id="linearGradient5090"
       x1="67.336464"
       y1="108.48438"
       x2="120.91459"
       y2="112.85"
       gradientUnits="userSpaceOnUse"
       gradientTransform="translate(1.7742922e-8,-0.04677214)" />
    <linearGradient
       inkscape:collect="always"
       xlink:href="#linearGradient4874"
       id="linearGradient4876"
       x1="150.28334"
       y1="92.477081"
       x2="114.56458"
       y2="102.79583"
       gradientUnits="userSpaceOnUse" />
    <linearGradient
       inkscape:collect="always"
       xlink:href="#linearGradient4879"
       id="linearGradient4881"
       x1="91.620277"
       y1="124.44946"
       x2="99.209518"
       y2="146.13454"
       gradientUnits="userSpaceOnUse"
       gradientTransform="translate(0.09354433,0.04677218)" />
    <linearGradient
       inkscape:collect="always"
       xlink:href="#linearGradient4898"
       id="linearGradient4900"
       x1="144.80663"
       y1="171.4635"
       x2="127.78156"
       y2="174.64401"
       gradientUnits="userSpaceOnUse" />
  </defs>
  <sodipodi:namedview
     id="base"
     pagecolor="#ffffff"
     bordercolor="#666666"
     borderopacity="1.0"
     inkscape:pageopacity="0.0"
     inkscape:pageshadow="2"
     inkscape:zoom="0.70710678"
     inkscape:cx="208.62594"
     inkscape:cy="457.91364"
     inkscape:document-units="mm"
     inkscape:current-layer="layer1"
     showgrid="false"
     inkscape:window-width="1920"
     inkscape:window-height="1057"
     inkscape:window-x="-8"
     inkscape:window-y="-8"
     inkscape:window-maximized="1"
     inkscape:snap-global="false"
     showguides="false"
     inkscape:guide-bbox="true" />
  <metadata
     id="metadata5">
    <rdf:RDF>
      <cc:Work
         rdf:about="">
        <dc:format>image/svg+xml</dc:format>
        <dc:type
           rdf:resource="http://purl.org/dc/dcmitype/StillImage" />
        <dc:title></dc:title>
      </cc:Work>
    </rdf:RDF>
  </metadata>
  <g
     inkscape:groupmode="layer"
     id="layer11"
     inkscape:label="Shadow">
    <path
       style="display:inline;opacity:0.15;fill:#000000;fill-opacity:1;stroke:none;stroke-width:0.60000002;stroke-miterlimit:4;stroke-dasharray:none;stroke-dashoffset:0;stroke-opacity:1"
       d="M 97.505859 208.08398 C 83.516591 208.68786 69.493752 212.32755 57.504538 219.68892 C 48.170891 225.64547 40.331407 234.31629 36.419216 244.76605 C 33.833204 252.18067 35.861495 260.96901 41.455634 266.48614 C 46.622583 272.16251 53.584853 275.84535 60.72686 278.42199 C 71.13999 281.99283 82.525496 282.33678 93.250613 280.02497 C 104.78742 277.78081 115.88323 272.9609 125.09239 265.61248 C 130.83823 261.01146 135.83438 255.5526 140.5197 249.89657 C 144.3563 245.30279 147.8124 240.08359 148.91211 234.09961 C 150.22465 227.31053 147.65397 219.79255 142.10593 215.56436 C 137.89499 212.24109 132.49698 210.82694 127.21319 210.57772 C 117.34457 209.41976 107.46452 208.02639 97.505859 208.08398 z "
       id="path5047" />
  </g>
  <g
     inkscape:label="Layer 1"
     inkscape:groupmode="layer"
     id="layer1"
     style="display:inline">
    <path
       style="fill:#cbcbcb;fill-opacity:1;stroke:#000000;stroke-width:0.81218088;stroke-linecap:butt;stroke-linejoin:miter;stroke-miterlimit:4;stroke-dasharray:none;stroke-opacity:1"
       d="m 74.801482,94.951022 c -0.996016,15.025968 -1.999823,30.051508 -3.115006,45.066948 -1.591153,21.87378 -3.200199,43.74597 -4.73989,65.62446 -0.356904,5.24142 -0.73567,10.4811 -1.175153,15.71462 -0.190865,2.53816 -0.387429,5.12629 0.0751,7.64281 0.226641,1.1379 0.760954,2.19231 1.525073,2.98014 1.485851,1.67435 3.415362,2.69751 5.287274,3.7045 2.324856,1.23468 4.652309,2.47208 7.048495,3.52273 4.185297,1.7961 8.539245,3.07016 12.948624,3.93558 6.992765,1.36117 14.143901,1.58219 21.205951,0.85814 6.49962,-0.62417 12.9546,-1.8997 19.2371,-3.8849 3.03646,-0.97291 6.04271,-2.1149 8.89192,-3.65787 2.41881,-1.3562 4.71222,-3.08458 6.5301,-5.35697 1.2771,-1.83009 1.76184,-4.23726 1.61808,-6.53202 -0.10433,-2.89753 -0.38884,-5.78141 -0.57101,-8.67309 -0.81697,-11.25635 -1.8739,-22.48811 -2.94757,-33.71633 -0.83117,-8.80733 -1.55525,-17.62987 -2.00626,-26.47327 -0.69438,-11.79832 -1.52713,-23.58594 -2.46728,-35.36251 -0.65241,-8.37184 -1.30483,-16.74367 -1.95724,-25.115498 -1.53416,0.98288 -2.58756,2.621706 -3.75738,4.062382 -1.6393,1.864896 -3.64888,3.230686 -5.62442,4.588146 -4.08714,2.57117 -8.61256,4.13061 -13.18739,5.14759 -7.38815,1.63798 -15.04761,1.91445 -22.477156,0.44856 -3.33401,-0.68781 -6.660803,-1.68597 -9.668241,-3.48835 -3.773195,-2.32719 -6.907488,-5.85099 -9.219616,-9.918961 -0.440126,-0.731487 -0.893568,-1.452714 -1.358781,-2.164185 -0.03177,0.349116 -0.06354,0.698233 -0.09532,1.047348 z"
       id="path837"
       inkscape:connector-curvature="0"
       sodipodi:nodetypes="ccccccccccc" />
    <path
       style="display:inline;fill:#d6d6d6;fill-opacity:1;stroke:#000000;stroke-width:0.60000002;stroke-linecap:butt;stroke-linejoin:miter;stroke-miterlimit:4;stroke-dasharray:none;stroke-opacity:1"
       d="m 102.236,157.64207 -0.28063,8.03105 c 3.96637,0.81239 8.11273,0.99484 12.57711,0.0642 l 0.1096,-7.85726 c -4.13536,0.73598 -8.27072,0.52012 -12.40608,-0.23799 z"
       id="path5030"
       inkscape:connector-curvature="0"
       sodipodi:nodetypes="ccccc" />
  </g>
  <g
     inkscape:groupmode="layer"
     id="layer8"
     inkscape:label="Over" />
  <g
     inkscape:groupmode="layer"
     id="layer5"
     inkscape:label="OverDoorBackground"
     style="display:inline" />
  <g
     inkscape:groupmode="layer"
     id="layer2"
     inkscape:label="Top"
     style="display:inline;opacity:1">
    <path
       style="display:inline;opacity:1;fill:#a1a1a1;fill-opacity:1;stroke:#000000;stroke-width:0.6273104;stroke-miterlimit:4;stroke-dasharray:none;stroke-dashoffset:0;stroke-opacity:1"
       d="m 106.0518,80.170759 c -0.93274,0.08063 -1.86952,0.09645 -2.80526,0.08647 -0.74199,-0.0097 -1.48664,0.04739 -2.21097,0.21391 -0.85447,0.183106 -1.665995,0.516357 -2.497564,0.778067 -0.908131,0.299942 -1.825717,0.576269 -2.764279,0.76457 -1.697896,0.366645 -3.398818,0.747566 -5.037306,1.33266 -0.992092,0.361142 -1.962348,0.784411 -2.898877,1.27219 -1.278792,0.664855 -2.477673,1.481664 -3.563998,2.42884 -0.852876,0.73756 -1.666925,1.518522 -2.492014,2.286709 -1.545459,1.450398 -3.080523,2.91224 -4.586243,4.40394 -0.692659,0.691604 -1.39125,1.380247 -2.023659,2.128334 -0.644007,0.772617 -1.208618,1.647194 -1.437996,2.638393 -0.265502,1.050324 -0.2023,2.154138 -0.01486,3.211818 0.357732,2.0264 1.185251,3.95528 2.318666,5.66718 0.781338,1.18075 1.686515,2.27881 2.691063,3.27631 1.459549,1.45336 3.128965,2.68667 4.906219,3.7234 1.714344,0.99819 3.526557,1.82546 5.39543,2.48927 1.467284,0.52206 2.970412,0.93682 4.486643,1.28992 2.103373,0.49091 4.232761,0.86354 6.369282,1.17675 1.979133,0.2786 3.964573,0.52499 5.960493,0.64412 3.70906,0.23077 7.44873,0.0682 11.11089,-0.57755 3.18878,-0.55854 6.32161,-1.46112 9.29676,-2.74122 2.48503,-1.07916 4.85923,-2.42262 7.03072,-4.04507 1.52062,-1.1347 2.93759,-2.4139 4.17917,-3.85038 1.0782,-1.2518 2.05017,-2.6101 2.7619,-4.10559 0.55397,-1.17778 0.8787,-2.48465 0.80056,-3.79126 -0.0689,-0.936534 -0.44672,-1.868272 -1.13373,-2.521515 -0.73268,-0.721674 -1.65163,-1.213148 -2.41949,-1.892822 -0.35519,-0.311124 -0.65793,-0.677861 -0.90406,-1.080442 -0.47406,-0.739597 -0.83507,-1.543132 -1.25699,-2.312211 -0.61098,-1.153783 -1.24924,-2.318779 -2.16677,-3.261969 -0.97752,-1.05897 -2.04762,-2.028443 -3.16341,-2.939265 -0.89477,-0.736783 -1.84543,-1.406694 -2.84377,-1.995711 -1.19772,-0.713904 -2.47905,-1.274627 -3.77698,-1.778422 -1.08314,-0.419191 -2.19709,-0.756676 -3.32986,-1.01287 -1.9432,-0.459196 -3.89244,-0.892927 -5.84466,-1.311902 -1.23921,-0.258962 -2.4915,-0.463319 -3.75502,-0.554647 -1.17864,-0.09784 -2.36197,-0.116092 -3.54409,-0.122036 -0.27865,0.02734 -0.55729,0.05469 -0.83594,0.08203 z"
       id="path839"
       inkscape:connector-curvature="0" />
    <path
       style="fill:#b1b1b1;fill-opacity:1;stroke:#000000;stroke-width:0.66500002;stroke-linecap:butt;stroke-linejoin:miter;stroke-miterlimit:4;stroke-dasharray:none;stroke-opacity:1"
       d="m 114.30664,74.169922 c -2.551,0.267647 -5.11296,0.499119 -7.68072,0.449219 -2.6149,7.09e-4 -5.22983,0.0025 -7.84467,-0.01758 -2.034147,0.108809 -4.056375,0.393387 -6.054469,0.784404 -2.129996,0.46133 -4.178802,1.221332 -6.215866,1.98289 -1.032188,0.39651 -2.036054,0.873328 -2.967002,1.472286 -1.557118,0.949211 -3.074587,1.964324 -4.669477,2.850721 -1.255651,0.729548 -2.520918,1.444932 -3.743979,2.228273 -1.252487,0.870826 -2.275363,2.020641 -3.249372,3.182973 -0.4711,0.60845 -0.869675,1.331834 -0.867413,2.1215 0.01044,0.548883 0.470722,1.000831 0.984375,1.126953 1.827705,0.600516 3.697371,1.058624 5.56862,1.499944 0.373028,0.112375 0.772371,0.145679 1.152344,0.0461 0.558377,-0.133243 1.031755,-0.47737 1.51103,-0.777021 0.621026,-0.416135 1.235518,-0.841776 1.862165,-1.24946 2.101946,-1.407466 4.204142,-2.827099 6.443902,-4.009346 2.914538,-1.448772 6.06358,-2.382421 9.261413,-2.954769 2.661259,-0.505341 5.344689,-1.003255 8.063049,-1.010067 2.74073,-0.02438 5.48474,0.117208 8.20409,0.46378 2.23761,0.30304 4.47274,0.735846 6.59426,1.525569 1.96353,0.743133 3.82727,1.722827 5.64804,2.76188 1.351,0.80024 2.51729,1.8678 3.6338,2.961983 0.61356,0.618105 1.23408,1.231166 1.80911,1.885668 0.77223,0.893157 1.44313,1.87403 1.98188,2.925106 0.73134,1.345368 1.46269,2.690736 2.19403,4.036104 0.14664,0.21136 0.38303,0.359181 0.63867,0.392578 0.72211,-0.311493 1.19174,-0.973189 1.69141,-1.548828 1.28646,-1.580078 2.57292,-3.160156 3.85937,-4.740234 0.26594,-0.428485 0.44694,-0.981366 0.24024,-1.470703 -1.05966,-1.529196 -2.43115,-2.799794 -3.6713,-4.176346 -1.26059,-1.363261 -2.53856,-2.711329 -3.76654,-4.104066 -0.55188,-0.703002 -1.07868,-1.425112 -1.61294,-2.141463 -1.29566,-1.059142 -2.83028,-1.756739 -4.31109,-2.511361 -1.84834,-0.884848 -3.6683,-1.849898 -5.61319,-2.511175 -2.23327,-0.734614 -4.57629,-1.029617 -6.89761,-1.337773 -0.72205,-0.08603 -1.4482,-0.153116 -2.17616,-0.137739 z"
       id="path8573"
       inkscape:connector-curvature="0" />
    <path
       style="fill:none;stroke:#000000;stroke-width:0.3819651px;stroke-linecap:butt;stroke-linejoin:miter;stroke-opacity:1"
       d="m 108.38225,82.886681 -1.5719,1.010235 -11.621863,7.4692"
       id="path8582"
       inkscape:connector-curvature="0"
       sodipodi:nodetypes="ccc" />
    <path
       style="fill:none;stroke:#000000;stroke-width:0.45108315px;stroke-linecap:butt;stroke-linejoin:miter;stroke-opacity:1"
       d="M 114.06719,83.901637 96.511951,96.06978"
       id="path8584"
       inkscape:connector-curvature="0" />
    <path
       style="fill:none;stroke:#000000;stroke-width:0.435;stroke-linecap:butt;stroke-linejoin:miter;stroke-miterlimit:4;stroke-dasharray:none;stroke-opacity:1"
       d="M 119.04785,85.018434 97.635599,100.09624"
       id="path8586"
       inkscape:connector-curvature="0" />
    <path
       style="fill:none;stroke:#000000;stroke-width:0.40290716px;stroke-linecap:butt;stroke-linejoin:miter;stroke-opacity:1"
       d="m 123.13954,87.389095 -2.93619,2.29547"
       id="path8588"
       inkscape:connector-curvature="0" />
    <path
       style="fill:none;stroke:#000000;stroke-width:0.396;stroke-linecap:butt;stroke-linejoin:miter;stroke-miterlimit:4;stroke-dasharray:none;stroke-opacity:1"
       d="m 110.77398,97.228656 -5.11568,3.717204"
       id="path8590"
       inkscape:connector-curvature="0" />
    <path
       style="fill:none;stroke:#000000;stroke-width:0.36500001;stroke-linecap:butt;stroke-linejoin:miter;stroke-miterlimit:4;stroke-dasharray:none;stroke-opacity:1"
       d="M 98.457785,84.180905 89.93857,88.958348"
       id="path8592"
       inkscape:connector-curvature="0" />
  </g>
  <g
     inkscape:groupmode="layer"
     id="layer4"
     inkscape:label="Overhang under"
     style="display:inline">
    <path
       style="display:inline;opacity:1;fill:#b1b1b1;fill-opacity:1;stroke:#000000;stroke-width:0.68184757;stroke-linecap:butt;stroke-linejoin:miter;stroke-miterlimit:4;stroke-dasharray:none;stroke-opacity:1"
       d="m 148.52287,90.083798 c -2.13351,0.274344 -4.28427,0.370715 -6.43206,0.456535 -1.46278,0.914163 -2.36343,2.514054 -3.91583,3.30926 -1.34445,0.878522 -2.91076,1.425898 -4.1279,2.488368 -0.71828,1.097163 -0.51716,2.469102 -0.76461,3.699669 -0.0908,0.84156 -0.12101,1.69551 0.001,2.53554 0.58326,0.50164 1.35438,0.073 1.95409,-0.16393 5.1511,-1.98402 9.706,-5.369046 13.33975,-9.499402 0.53139,-0.723479 0.96924,-1.741975 0.53269,-2.607837 -0.14204,-0.167071 -0.37412,-0.234539 -0.58759,-0.218203 z"
       id="path8519"
       inkscape:connector-curvature="0"
       sodipodi:nodetypes="ccccccccccccccccccc" />
    <path
       style="fill:#b1b1b1;fill-opacity:1;stroke:#000000;stroke-width:0.68184757;stroke-linecap:butt;stroke-linejoin:miter;stroke-miterlimit:4;stroke-dasharray:none;stroke-opacity:1"
       d="m 68.693359,83.085938 c -0.274611,0.103855 -0.512156,0.290772 -0.711518,0.503398 -0.311324,0.341853 -0.545943,0.74327 -0.797294,1.129092 -0.255306,0.398818 -0.499921,0.809026 -0.664663,1.254781 -0.21467,0.577006 -0.444228,1.14892 -0.631212,1.735775 -0.125402,0.437021 -0.202377,0.886221 -0.265625,1.335938 -0.05418,0.509433 -0.06299,1.022857 -0.05043,1.534641 0.01049,0.321939 0.03436,0.643631 0.0891,0.961346 0.08925,0.582714 0.247465,1.158836 0.506813,1.689644 0.28126,0.555943 0.637786,1.068823 0.975823,1.5909 0.67106,1.005252 1.352907,2.003251 2.035338,3.000813 0.137309,0.188411 0.310479,0.355829 0.527928,0.447558 0.310619,0.143761 0.678819,0.131931 0.991951,0.0018 0.478357,-0.185794 0.929167,-0.433384 1.383473,-0.670161 0.367581,-0.203627 0.768453,-0.373987 1.059538,-0.687445 0.273502,-0.306043 0.510552,-0.652535 0.642639,-1.043961 0.137169,-0.39621 0.220065,-0.811069 0.388611,-1.196273 0.151603,-0.29581 0.429457,-0.493352 0.679837,-0.699865 0.228375,-0.182899 0.459903,-0.361641 0.699061,-0.530246 0.185255,-0.129236 0.40463,-0.350636 0.303228,-0.596385 -0.07167,-0.229046 -0.326912,-0.311731 -0.544917,-0.275323 -0.288948,0.01677 -0.575333,0.06336 -0.863387,0.09111 -0.277232,0.03111 -0.574209,0.06712 -0.835817,-0.05531 -0.284847,-0.117972 -0.522784,-0.320286 -0.763083,-0.508652 -0.5601,-0.446373 -1.062086,-0.961802 -1.522578,-1.509312 -0.167517,-0.211927 -0.329149,-0.440229 -0.388889,-0.708519 -0.122416,-0.432259 -0.194887,-0.895288 -0.08572,-1.338356 0.0963,-0.374674 0.303571,-0.710745 0.556225,-1.000156 0.557822,-0.681584 1.144783,-1.338569 1.732185,-1.994605 0.198556,-0.216486 0.390974,-0.440207 0.618314,-0.627604 0.197161,-0.15804 0.475575,-0.434184 0.28437,-0.696613 -0.163718,-0.208328 -0.465132,-0.179982 -0.702259,-0.215263 -0.36982,-0.02432 -0.738216,-0.0676 -1.107187,-0.102237 -0.302195,-0.03548 -0.607033,-0.06471 -0.898435,-0.156851 -0.618516,-0.162238 -1.228414,-0.355033 -1.839694,-0.542132 -0.242206,-0.07299 -0.497887,-0.184804 -0.754405,-0.135371 l -0.04643,0.01354 z"
       id="path8529"
       inkscape:connector-curvature="0" />
    <path
       style="fill:#b1b1b1;fill-opacity:1;stroke:#000000;stroke-width:0.66500002;stroke-linecap:butt;stroke-linejoin:miter;stroke-miterlimit:4;stroke-dasharray:none;stroke-opacity:1"
       d="m 114.35084,70.718026 c -0.68776,0.289821 -0.93544,1.061585 -1.13497,1.717645 -0.10677,0.352563 -0.2039,0.710665 -0.2369,1.078742 0.38851,0.525124 1.10194,0.519209 1.68843,0.589827 3.08543,0.357244 6.23089,0.63133 9.15696,1.747538 2.77045,1.052992 5.46144,2.326961 7.99082,3.875142 0.1408,0.239454 0.53314,0.338144 0.72748,0.109332 0.18774,-1.107005 0.0732,-2.257901 0.41007,-3.340286 0.0894,-0.527552 -0.19671,-1.10796 -0.70432,-1.307048 -1.08471,-0.642256 -2.27211,-1.08053 -3.42065,-1.591163 -2.84458,-1.175387 -5.85084,-1.938781 -8.90037,-2.33955 -1.83504,-0.262969 -3.68422,-0.406015 -5.5317,-0.548356 z"
       id="path8567"
       inkscape:connector-curvature="0"
       sodipodi:nodetypes="ccccc" />
    <path
       style="fill:#b1b1b1;fill-opacity:1;stroke:#000000;stroke-width:0.66500002;stroke-linecap:butt;stroke-linejoin:miter;stroke-miterlimit:4;stroke-dasharray:none;stroke-opacity:1"
       d="m 97.354828,71.037668 c -0.538039,0.03149 -1.07531,0.07574 -1.611518,0.12982 -0.843057,0.09579 -1.680394,0.23432 -2.516907,0.374932 -0.729575,0.120081 -1.458559,0.245203 -2.181294,0.401966 -0.768941,0.163723 -1.539599,0.320616 -2.302087,0.512859 -0.687895,0.167003 -1.372319,0.349625 -2.046993,0.564293 -0.534204,0.169302 -1.066838,0.343807 -1.597282,0.524503 -0.351832,0.124299 -0.697464,0.266641 -1.029549,0.437181 -0.322474,0.157695 -0.6421,0.32095 -0.958464,0.490576 l -0.04279,0.02255 c -0.04454,0.02874 0.06643,0.02761 0.04551,0.06722 0.180012,0.223864 0.364289,0.444846 0.525096,0.683259 0.0998,0.237026 0.212667,0.478453 0.218909,0.740435 -0.02471,0.484592 -0.04942,0.969183 -0.07414,1.453775 5.1e-5,0.267465 0.166079,0.557727 0.442546,0.613627 0.271232,0.06051 0.529137,-0.07798 0.782009,-0.154302 0.968069,-0.328451 1.934697,-0.661294 2.905441,-0.981767 0.419767,-0.132538 0.84591,-0.243845 1.268536,-0.366832 0.558175,-0.15715 1.118222,-0.30772 1.678663,-0.456578 0.796162,-0.210836 1.59309,-0.41872 2.391652,-0.62029 0.391707,-0.09907 0.782232,-0.204379 1.179546,-0.279084 0.490264,-0.09407 0.983309,-0.173102 1.476265,-0.251734 0.738443,-0.107955 1.477369,-0.212452 2.217185,-0.310593 0.232692,0.0013 0.339974,-0.254747 0.38663,-0.446357 0.124354,-0.598069 0.247528,-1.196483 0.371661,-1.794636 0.03573,-0.25647 0.08701,-0.521645 0.01908,-0.777525 -0.05307,-0.222339 -0.25202,-0.374137 -0.461392,-0.439856 -0.236464,-0.07006 -0.481424,-0.111243 -0.726905,-0.134499 -0.119823,-0.0047 -0.239533,-0.0082 -0.35941,-0.0029 z"
       id="path8569"
       inkscape:connector-curvature="0"
       sodipodi:nodetypes="cccccc" />
  </g>
  <g
     inkscape:groupmode="layer"
     id="layer3"
     inkscape:label="Overhang">
    <path
       style="display:inline;fill:#b1b1b1;fill-opacity:1;stroke:#000000;stroke-width:0.72487307;stroke-linecap:butt;stroke-linejoin:miter;stroke-miterlimit:4;stroke-dasharray:none;stroke-opacity:1"
       d="M 149.4707 90.552734 C 147.70699 93.320142 145.69685 96.008599 143.04239 97.984742 C 139.839 100.28321 136.11858 101.71831 132.37597 102.87502 C 128.00393 104.16965 123.56344 105.21698 119.11702 106.22004 C 114.05254 107.2734 108.86182 107.68011 103.69371 107.51933 C 95.622571 107.32828 87.550177 105.77509 80.091256 102.65219 C 77.29723 101.41473 74.507282 100.14527 71.87279 98.590642 C 70.126869 97.431106 68.801796 95.780616 67.369967 94.27662 C 66.958884 93.829596 66.547801 93.382571 66.136719 92.935547 C 65.827445 92.948809 65.762678 93.344458 65.837891 93.583984 C 66.200508 97.773277 65.997166 101.98031 65.89676 106.17603 C 65.848858 107.80541 65.850545 109.43601 65.931265 111.06436 C 66.023698 113.40569 66.092165 115.7489 66.228516 118.08789 C 66.401233 119.14785 67.218451 119.95131 68.049308 120.55944 C 69.131379 121.34138 70.267377 122.04697 71.407363 122.74084 C 78.52851 127.0114 86.579052 129.67087 94.812111 130.67942 C 104.27872 131.93255 113.9463 131.81444 123.35013 130.11373 C 130.27669 128.80568 137.05977 126.50217 143.15008 122.92019 C 145.14745 121.71394 147.05682 120.2595 148.41704 118.34 C 148.98633 117.32189 148.83874 116.11776 148.88337 114.999 C 149.05235 108.0229 149.44753 101.05362 149.5562 94.075885 C 149.57542 92.935443 149.57773 91.79487 149.58008 90.654297 C 149.56855 90.606963 149.532 90.530851 149.4707 90.552734 z "
       id="path8480"
       inkscape:connector-curvature="0"
       sodipodi:nodetypes="ccccccccccccccccccccccccccccccccccccccccccccccccccccccccccccccccccccccccccccccccccccccc" />
    <path
       style="opacity:1;fill:#b1b1b1;fill-opacity:1;stroke:#000000;stroke-width:0.68184757;stroke-miterlimit:4;stroke-dasharray:none;stroke-dashoffset:0;stroke-opacity:1"
       d="m 72.601255,89.461907 c -0.488355,0.224896 -0.576904,0.831793 -0.582108,1.312399 -0.09483,2.329282 -0.215762,4.65749 -0.323201,6.986241 0.100208,0.867332 0.841584,1.480445 1.586081,1.829746 3.13183,1.807507 6.491265,3.175517 9.883761,4.407487 1.259757,0.44292 2.511114,0.96563 3.842032,1.14958 0.412635,0.0371 0.945876,0.0411 1.175278,-0.37591 0.325073,-0.56886 0.219568,-1.25271 0.216557,-1.8787 -0.07535,-1.52195 -0.328823,-3.03834 -0.240811,-4.565706 -0.002,-0.719969 0.02791,-1.551222 -0.501937,-2.112476 -0.67075,-0.703748 -1.653266,-0.931035 -2.514153,-1.312824 -3.201296,-1.284892 -6.373342,-2.642413 -9.529327,-4.034161 -0.971302,-0.453181 -1.879848,-1.04917 -2.895158,-1.402079 -0.03771,-0.0095 -0.07875,-0.0096 -0.117014,-0.0036 z"
       id="rect8493"
       inkscape:connector-curvature="0" />
    <path
       inkscape:connector-curvature="0"
       style="opacity:1;fill:#b1b1b1;fill-opacity:1;stroke:#000000;stroke-width:0.68184757;stroke-miterlimit:4;stroke-dasharray:none;stroke-dashoffset:0;stroke-opacity:1"
       d="m 95.79213,91.226803 c -2.587979,1.353638 -4.996442,3.013719 -7.437431,4.609365 -0.487154,0.497849 -0.393024,1.24432 -0.39295,1.880205 -0.04541,2.357557 -0.112471,4.715097 -0.100778,7.073317 0.215961,0.48459 0.927406,0.46207 1.264724,0.1245 2.480362,-1.49124 4.783224,-3.26489 6.951165,-5.17683 0.412126,-0.464158 0.463671,-1.124368 0.391023,-1.714085 -0.07193,-2.186657 -0.1552,-4.373885 -0.330033,-6.555131 -0.05311,-0.137904 -0.185509,-0.272261 -0.34572,-0.241341 z"
       id="rect8493-0" />
    <path
       style="fill:#b1b1b1;fill-opacity:1;stroke:#000000;stroke-width:0.68184757;stroke-linecap:butt;stroke-linejoin:miter;stroke-miterlimit:4;stroke-dasharray:none;stroke-opacity:1"
       d="m 95.55079,100.23296 c -0.418189,0.30223 -0.83253,0.60981 -1.238956,0.92771 -0.293888,0.22509 -0.585358,0.45326 -0.872829,0.6865 -0.530644,0.42354 -1.057483,0.85185 -1.589106,1.27415 -0.349727,0.27615 -0.701791,0.54942 -1.058522,0.81646 -0.331813,0.24931 -0.67669,0.48038 -1.017375,0.71723 -0.239189,0.17234 -0.500488,0.30923 -0.752376,0.46011 -0.124192,0.0855 -0.266475,0.25299 -0.187848,0.41083 0.120221,0.18361 0.342095,0.27233 0.545498,0.33042 0.267415,0.0634 0.536616,0.11953 0.801333,0.19405 0.373117,0.0949 0.743654,0.1997 1.117019,0.29347 0.466375,0.1155 0.937196,0.21184 1.407277,0.31077 0.308216,0.0602 0.615763,0.12409 0.92599,0.17337 0.628116,0.10976 1.259122,0.20196 1.890265,0.29237 0.874356,0.11524 1.749764,0.22259 2.626153,0.32125 0.422233,0.0454 0.84529,0.083 1.267838,0.12542 0.604649,0.0514 1.209719,0.0989 1.815849,0.12917 0.70846,0.0425 1.41786,0.068 2.12746,0.081 0.38808,0.0103 0.77623,0.016 1.16444,0.017 0.75821,0.008 1.51645,-0.001 2.27467,-0.002 0.63279,-0.007 1.26559,-0.0147 1.89834,-0.0237 0.51034,-0.0133 1.02077,-0.0255 1.53088,-0.0454 0.43765,-0.0271 0.8755,-0.0513 1.31246,-0.0883 0.29255,-0.0183 0.5838,-0.0502 0.87476,-0.0852 0.51768,-0.0543 1.03021,-0.14669 1.54252,-0.23708 0.28825,-0.0597 0.57811,-0.11211 0.86323,-0.18596 0.10606,-0.0253 0.21219,-0.0504 0.31828,-0.0756 0.15057,-0.16165 0.1613,-0.40999 0.0771,-0.60612 -0.1178,-0.24004 -0.36382,-0.37846 -0.51231,-0.59655 -0.25302,-0.32041 -0.51496,-0.63376 -0.76404,-0.95733 -0.29141,-0.36585 -0.56937,-0.74214 -0.84281,-1.12154 -0.64945,-0.89917 -1.29667,-1.79995 -1.94221,-2.70194 -0.10823,-0.20166 -0.32334,-0.31802 -0.53781,-0.37429 -0.26835,-0.0725 -0.54962,-0.0857 -0.82619,-0.0716 -0.32657,0.0195 -0.65225,0.0524 -0.97856,0.0762 -0.64697,0.0535 -1.29508,0.0936 -1.9438,0.11815 -0.60414,0.0233 -1.20877,0.0284 -1.81322,0.0393 -0.54652,0.004 -1.09269,-0.0185 -1.63893,-0.0321 -0.29445,-0.0117 -0.58882,-0.0279 -0.88281,-0.0485 -0.54043,-0.0368 -1.08036,-0.0819 -1.61917,-0.1376 -0.44223,-0.049 -0.88428,-0.10024 -1.325145,-0.16027 -0.561037,-0.0793 -1.118344,-0.18235 -1.677197,-0.27534 -0.613822,-0.10475 -1.227643,-0.2095 -1.841465,-0.31425 -0.172898,0.11534 -0.345796,0.23067 -0.518693,0.34601 z"
       id="path8511"
       inkscape:connector-curvature="0" />
    <path
       style="fill:none;stroke:#000000;stroke-width:0.68184757;stroke-linecap:butt;stroke-linejoin:miter;stroke-miterlimit:4;stroke-dasharray:none;stroke-opacity:1"
       d="m 110.83042,100.69291 c 1.45446,1.9225 2.90891,3.845 4.36337,5.76749 0.16894,-2.92854 0.33788,-5.85709 0.50682,-8.785648 -1.40013,-1.725668 -2.80026,-3.451336 -4.20038,-5.177004 -0.22327,2.73172 -0.44654,5.46344 -0.66981,8.195162 z"
       id="path8513"
       inkscape:connector-curvature="0" />
    <path
       style="fill:#b1b1b1;fill-opacity:1;stroke:#000000;stroke-width:0.73701084;stroke-linecap:butt;stroke-linejoin:miter;stroke-miterlimit:4;stroke-dasharray:none;stroke-opacity:1"
       d="m 128.62575,87.680812 c -3.51019,1.060752 -7.05307,2.056126 -10.68252,2.62125 -2.00319,0.3531 -4.01285,0.677679 -5.99655,1.131479 -0.52821,0.337204 -0.34315,1.123831 0.0756,1.472128 1.17833,1.601012 2.45756,3.137931 3.84911,4.554015 0.7523,0.428694 1.60143,-0.01967 2.37425,-0.146122 5.17626,-1.248121 10.37343,-2.440815 15.45096,-4.05655 0.50003,-0.265072 0.34881,-1.023445 -0.11687,-1.240011 -1.54484,-1.442444 -3.04316,-2.948612 -4.68151,-4.281402 -0.0852,-0.03752 -0.1786,-0.06352 -0.27245,-0.05479 z"
       id="path8515"
       inkscape:connector-curvature="0"
       sodipodi:nodetypes="cccccccccccccccc" />
    <path
       style="fill:#b1b1b1;fill-opacity:1;stroke:#000000;stroke-width:0.68184757;stroke-linecap:butt;stroke-linejoin:miter;stroke-miterlimit:4;stroke-dasharray:none;stroke-opacity:1"
       d="m 144.13706,77.945179 c -1.12523,0.791816 -1.38729,2.237654 -2.15984,3.30264 -0.9058,1.659242 -0.90224,3.604581 -0.86452,5.442444 -0.0312,1.11527 -0.0469,2.239248 0.13999,3.343186 0.54712,0.63617 1.45363,0.344462 2.17891,0.437015 1.99324,0.04731 3.98645,0.09891 5.97869,0.178413 0.42611,-0.361411 0.044,-0.936532 0.13692,-1.395181 -0.11231,-2.134093 -0.22463,-4.268187 -0.33695,-6.40228 -0.2987,-0.52155 -1.02714,-0.495694 -1.50012,-0.249548 -0.86256,0.07109 -1.43089,-0.789395 -1.57891,-1.542083 -0.45203,-1.131308 -0.8746,-2.38646 -1.91414,-3.121116 l -0.043,-0.0016 z"
       id="path8521"
       inkscape:connector-curvature="0"
       sodipodi:nodetypes="ccccccccccccccscccccccc" />
    <path
       style="fill:#b1b1b1;fill-opacity:1;stroke:#000000;stroke-width:0.68184757;stroke-linecap:butt;stroke-linejoin:miter;stroke-miterlimit:4;stroke-dasharray:none;stroke-opacity:1"
       d="m 132.54365,70.335931 c -1.03323,0.554798 -1.32313,1.801975 -2.12358,2.589591 -0.33583,0.460818 -0.36292,1.227515 0.18786,1.539593 0.8314,0.685957 1.79021,1.206601 2.57042,1.956915 2.53032,2.042618 4.77744,4.422303 7.41755,6.331354 1.58439,0.524783 3.25856,0.07077 4.8832,0.198334 1.17897,-0.01557 2.35832,-0.01043 3.53687,0.02628 0.33632,-0.381851 -0.16678,-0.771464 -0.34344,-1.096664 -2.00925,-3.155032 -4.3285,-6.248567 -7.51796,-8.296424 -2.51931,-1.719554 -5.43362,-2.858275 -8.45308,-3.293231 -0.0526,0.01475 -0.10522,0.0295 -0.15784,0.04425 z"
       id="path8523"
       inkscape:connector-curvature="0"
       sodipodi:nodetypes="ccccccccsccccccccccccc" />
    <path
       style="fill:#b1b1b1;fill-opacity:1;stroke:#000000;stroke-width:0.68184757;stroke-linecap:butt;stroke-linejoin:miter;stroke-miterlimit:4;stroke-dasharray:none;stroke-opacity:1"
       d="m 130.28304,74.330978 c -0.1682,0.263224 -0.12134,0.58904 -0.13074,0.88539 0.0106,0.654707 0.0968,1.313078 0.002,1.965362 -0.05,0.535737 -0.0161,1.110198 0.27649,1.577886 0.40024,0.522318 1.02897,0.777901 1.53446,1.176988 0.99965,0.736105 1.92105,1.570259 2.87201,2.366594 0.68351,0.574025 1.33078,1.191677 1.92296,1.859885 1.11062,1.199421 2.09938,2.508242 2.98053,3.884253 0.36106,0.559894 0.71318,1.126159 1.0474,1.702394 0.0989,0.158898 0.18473,0.39726 0.39195,0.428848 0.22685,0.01892 0.46813,-0.186683 0.43603,-0.423477 -0.12201,-1.429431 -0.1093,-2.866018 -0.2081,-4.296905 -0.053,-0.823317 -0.14002,-1.649145 -0.33418,-2.451987 -0.29555,-0.906894 -0.87524,-1.684477 -1.47798,-2.410145 -0.78388,-0.905931 -1.66119,-1.724448 -2.54168,-2.534566 -1.76184,-1.557006 -3.8198,-2.782975 -6.03806,-3.565622 -0.23177,-0.07033 -0.44762,-0.207396 -0.6959,-0.212073 l -0.0297,0.03817 z"
       id="path8525"
       inkscape:connector-curvature="0" />
    <path
       style="fill:#b1b1b1;fill-opacity:1;stroke:#000000;stroke-width:0.68184757;stroke-linecap:butt;stroke-linejoin:miter;stroke-miterlimit:4;stroke-dasharray:none;stroke-opacity:1"
       d="m 79.725522,85.493778 c -0.916076,0.328174 -1.794439,0.765096 -2.670652,1.19012 -1.549835,0.76264 -3.080513,1.567236 -4.585482,2.413834 -0.257098,0.203675 -0.171818,0.663592 0.156821,0.739607 0.714697,0.331243 1.465612,0.57712 2.191391,0.883146 4.183653,1.651618 8.368532,3.302528 12.593472,4.845992 0.428061,0.15516 0.895389,0.07336 1.286483,-0.142927 0.636149,-0.324688 1.211732,-0.754072 1.83166,-1.107952 1.515366,-0.924363 3.009735,-1.887003 4.562484,-2.747469 0.252106,-0.144219 0.572292,-0.229891 0.754149,-0.460907 0.08405,-0.276936 -0.234231,-0.494535 -0.482417,-0.478521 C 93.588353,90.132724 91.852503,89.508668 90.087914,88.977704 87.738882,88.244498 85.39712,87.485268 83.09181,86.623038 81.996895,86.233373 80.908265,85.823055 79.793864,85.49127 l -0.04833,0.0018 z"
       id="path8527"
       inkscape:connector-curvature="0" />
    <path
       style="fill:#b2b2b2;fill-opacity:1;stroke:#000000;stroke-width:0.68184757;stroke-linecap:butt;stroke-linejoin:miter;stroke-miterlimit:4;stroke-dasharray:none;stroke-opacity:1"
       d="m 133.89598,93.278832 c -1.33583,0.358164 -2.67162,0.716568 -4.00922,1.068063 -1.18403,0.307576 -2.36761,0.616869 -3.55334,0.917822 -0.94544,0.241994 -1.8918,0.48035 -2.83839,0.717802 -1.45259,0.359136 -2.90468,0.720345 -4.3588,1.073295 -0.92564,0.226014 -1.85128,0.45203 -2.77692,0.678046 -0.19051,0.0923 -0.36513,0.227723 -0.48254,0.405503 -0.1328,0.202024 -0.20225,0.438282 -0.24471,0.67426 -0.0641,0.332507 -0.0618,0.672613 -0.0728,1.009797 -0.0334,1.21859 -0.0694,2.43714 -0.10157,3.65576 -0.009,0.78256 -0.0178,1.56522 -0.0107,2.34783 0.0106,0.20232 -0.004,0.40771 0.018,0.60827 0.042,0.21288 0.21086,0.37291 0.38879,0.48267 0.20307,0.13185 0.4496,0.17693 0.68847,0.17326 0.25683,-0.004 0.50662,-0.0718 0.75796,-0.11759 0.8394,-0.13356 1.67834,-0.27081 2.51425,-0.42492 0.64065,-0.12426 1.27953,-0.25743 1.91855,-0.38978 0.48058,-0.10646 0.96144,-0.21169 1.4399,-0.32744 0.80903,-0.18916 1.61457,-0.3929 2.4173,-0.60717 0.56194,-0.14559 1.12026,-0.30465 1.67959,-0.45988 0.72156,-0.20263 1.44145,-0.41126 2.15811,-0.6306 0.5335,-0.16151 1.06717,-0.32246 1.59795,-0.49274 0.83458,-0.2642 1.6702,-0.52516 2.50413,-0.79141 0.20887,-0.0664 0.41773,-0.1496 0.58388,-0.29692 0.16041,-0.14497 0.28359,-0.33555 0.33106,-0.54778 0.0465,-0.24907 0.0301,-0.50579 0.0239,-0.75791 -0.0134,-0.40052 -0.0447,-0.80019 -0.0617,-1.20055 -0.0203,-0.28959 -5.3e-4,-0.579982 0.007,-0.869752 0.0212,-0.581861 0.0561,-1.163148 0.10334,-1.743468 0.0372,-0.46083 0.0692,-0.92207 0.0942,-1.383719 0.0146,-0.293574 0.0288,-0.587319 0.0264,-0.881344 6.4e-4,-0.276803 -0.006,-0.553894 -0.0266,-0.829971 -0.0237,-0.229915 -0.0175,-0.471294 -0.10232,-0.688992 -0.10444,-0.222678 -0.34909,-0.399049 -0.60231,-0.370724 z"
       id="path8517"
       inkscape:connector-curvature="0" />
    <path
       style="opacity:1;fill:#b1b1b1;fill-opacity:1;stroke:none;stroke-width:0.73245209;stroke-miterlimit:4;stroke-dasharray:none;stroke-dashoffset:0;stroke-opacity:1"
       d="m 72.290014,97.465565 c -0.295186,0.197489 -0.289687,0.564262 -0.307665,0.857111 -0.01991,0.365288 -0.01212,0.729143 -0.0083,1.09304 0.51203,0.880314 1.421798,1.457614 2.35343,1.902104 1.555679,0.69443 3.255576,1.0828 4.852042,1.69304 0.991959,0.38305 1.938609,0.85073 2.910982,1.27043 1.590035,0.71274 3.184676,1.41719 4.781154,2.11835 0.302855,0.0763 0.663428,-0.22211 0.610929,-0.51985 -0.01579,-0.437 -0.03158,-0.874 -0.04737,-1.31099 -0.347676,-0.37765 -0.910711,-0.45841 -1.369121,-0.67757 -2.383103,-0.85117 -4.674866,-1.88598 -7.047008,-2.7592 -1.644121,-0.59021 -3.358111,-1.10689 -4.770992,-2.095856 -0.674038,-0.459831 -1.253579,-1.024362 -1.868582,-1.548382 -0.03114,-0.0026 -0.05408,-0.03551 -0.08952,-0.02223 z"
       id="rect8539"
       inkscape:connector-curvature="0" />
    <path
       inkscape:connector-curvature="0"
       style="opacity:1;fill:#b1b1b1;fill-opacity:1;stroke:none;stroke-width:0.73245203;stroke-miterlimit:4;stroke-dasharray:none;stroke-dashoffset:0;stroke-opacity:1"
       d="m 133.04211,100.93641 c -0.43356,0.11032 -0.85336,0.26822 -1.28025,0.40149 -1.86342,0.60684 -3.71293,1.26756 -5.6205,1.72645 -1.76653,0.44672 -3.54242,0.85586 -5.31699,1.26878 -1.23983,0.2404 -2.50273,0.31771 -3.75535,0.46355 -0.33952,0.0469 -0.66625,0.20558 -0.8871,0.47183 -0.28437,0.30672 -0.42089,0.73663 -0.38296,1.15183 0.034,1.13307 0.26573,2.24597 0.45698,3.35968 0.0477,0.26667 0.25586,0.54061 0.54739,0.54244 0.34048,-0.002 0.6506,-0.16204 0.97555,-0.2425 4.55429,-1.39373 9.10856,-2.78745 13.66285,-4.18117 0.57828,-0.0709 1.18041,0.0627 1.66724,0.3849 0.2094,0.14109 0.53479,0.31142 0.74384,0.0789 0.21308,-0.23201 0.1665,-0.5711 0.1785,-0.86092 0.0176,-1.1854 0.0367,-2.37078 0.0561,-3.55615 -0.0283,-0.37343 -0.21677,-0.7371 -0.52147,-0.95869 -0.1682,-0.0576 -0.34787,-0.0684 -0.52387,-0.0504 z"
       id="rect8539-5" />
    <path
       style="fill:#b1b1b1;fill-opacity:1;stroke:#000000;stroke-width:0.66500002;stroke-linecap:butt;stroke-linejoin:miter;stroke-miterlimit:4;stroke-dasharray:none;stroke-opacity:1"
       d="m 68.332548,82.123277 c 0.0579,0.288318 0.103887,0.58979 0.266606,0.841613 1.585129,0.535325 3.170257,1.07065 4.755384,1.605975 0.310005,-0.02282 0.515332,-0.347119 0.506549,-0.6389 0.01996,-1.79923 0.01392,-3.606993 0.27826,-5.391204 0.03156,-0.248512 0.09492,-0.494528 0.08793,-0.746736 -0.169992,-0.255221 -0.512113,-0.186861 -0.76819,-0.268321 -1.455691,-0.327139 -2.87792,-0.788106 -4.338859,-1.093489 -0.262159,-0.05812 -0.524318,-0.116251 -0.786476,-0.174376 -4.02e-4,1.955146 -8.04e-4,3.910292 -0.0012,5.865438 z"
       id="path8557"
       inkscape:connector-curvature="0"
       sodipodi:nodetypes="ccccccccc" />
    <path
       style="fill:#b1b1b1;fill-opacity:1;stroke:#000000;stroke-width:0.66500002;stroke-linecap:butt;stroke-linejoin:miter;stroke-miterlimit:4;stroke-dasharray:none;stroke-opacity:1"
       d="m 80.008562,70.317152 c -0.791133,0.171591 -1.520228,0.535245 -2.255693,0.861 -1.159153,0.545758 -2.303764,1.121739 -3.463306,1.666707 -1.648077,0.801071 -3.305901,1.582837 -4.939821,2.412478 -0.232937,0.175987 -0.557161,0.201476 -0.763005,0.404678 -0.168378,0.213469 -3.86e-4,0.503944 0.26188,0.499843 0.277605,0.0439 0.562182,0.02219 0.83681,0.08985 0.913003,0.161482 1.794038,0.458229 2.686541,0.702856 0.277138,0.08763 0.560383,0.182735 0.855591,0.156146 0.685337,-0.0326 1.337101,-0.279337 1.965288,-0.537323 1.391782,-0.586085 2.710641,-1.325666 4.063514,-1.992825 1.002205,-0.450091 1.972165,-0.967081 2.964955,-1.436955 0.734393,-0.354372 1.469316,-0.710991 2.227914,-1.010888 0.251159,-0.07592 0.403968,-0.42656 0.157072,-0.600745 -0.219729,-0.17446 -0.51146,-0.214222 -0.770113,-0.307541 -0.919302,-0.27103 -1.862206,-0.450126 -2.792873,-0.676578 -0.333211,-0.0783 -0.66642,-0.156597 -0.999631,-0.234897 z"
       id="path8559"
       inkscape:connector-curvature="0"
       sodipodi:nodetypes="cccccccccccccccccc" />
    <path
       style="fill:#b1b1b1;fill-opacity:1;stroke:#000000;stroke-width:0.66500002;stroke-linecap:butt;stroke-linejoin:miter;stroke-miterlimit:4;stroke-dasharray:none;stroke-opacity:1"
       d="m 84.803117,71.936481 c -0.797966,0.42997 -1.640405,0.769334 -2.450228,1.175672 -1.053359,0.511241 -2.09887,1.039105 -3.167628,1.517913 -0.645376,0.293686 -1.281796,0.608284 -1.890621,0.972511 -0.919614,0.527685 -1.877506,0.984595 -2.844016,1.419047 -0.336192,0.145423 -0.603408,0.463872 -0.632995,0.836275 -0.03213,0.416899 -0.01575,0.835982 -0.01716,1.253849 0.02285,1.397186 0.138117,2.790523 0.215244,4.18528 0.04735,0.270673 -0.02195,0.569031 0.0793,0.818591 0.155261,0.212699 0.424562,0.119328 0.57083,-0.04796 2.138411,-1.561246 4.363027,-3.017001 6.729805,-4.210163 1.09237,-0.553124 2.204515,-1.065858 3.316391,-1.57827 0.335596,-0.193818 0.442366,-0.614785 0.433479,-0.97816 -0.01186,-0.957335 0.0055,-1.91454 0.03002,-2.871517 0.01297,-0.745895 0.01001,-1.494864 -0.08906,-2.235594 -0.03106,-0.126688 -0.125437,-0.299025 -0.28335,-0.257474 z"
       id="path8561"
       inkscape:connector-curvature="0"
       sodipodi:nodetypes="csccccccccccccccccscc" />
    <path
       style="fill:#b1b1b1;fill-opacity:1;stroke:#000000;stroke-width:0.66500002;stroke-linecap:butt;stroke-linejoin:miter;stroke-miterlimit:4;stroke-dasharray:none;stroke-opacity:1"
       d="m 103.24993,67.476016 c -1.7304,0.09609 -3.460791,0.192168 -5.191187,0.288251 -0.282258,0.02287 -0.550271,0.187004 -0.691817,0.433365 -0.136376,0.258475 -0.143946,0.557851 -0.157222,0.843102 0.02294,1.003676 0.0311,2.007628 0.02528,3.01155 -7.29e-4,0.444747 -0.0078,0.889455 -0.01148,1.334184 0.01615,0.26799 0.02864,0.53669 0.07097,0.802185 0.07235,0.199713 0.225478,0.388121 0.436855,0.445302 0.260198,0.0485 0.529741,-0.0018 0.791799,-0.01961 1.101421,-0.12335 2.205632,-0.222883 3.312322,-0.284292 0.65806,-0.04259 1.31675,-0.07396 1.97601,-0.0898 0.98991,-0.02994 1.97992,-0.05718 2.96934,-0.101042 0.96799,-0.04081 1.93694,-0.07446 2.90585,-0.05117 1.62664,0.03562 3.25329,0.07125 4.87993,0.106867 0.26696,4.74e-4 0.56705,-0.07886 0.71122,-0.323707 0.15408,-0.240523 0.13192,-0.538041 0.14375,-0.811172 0.0487,-1.600006 0.0765,-3.200533 0.11054,-4.800889 -0.0474,-0.244216 -0.20299,-0.473115 -0.43244,-0.578539 -0.29989,-0.114421 -0.6273,-0.09334 -0.94226,-0.108725 -1.62461,-0.02343 -3.24928,-0.04457 -4.87395,-0.06396 -1.43993,-0.01286 -2.87984,-0.032 -4.31981,-0.04082 -0.57127,-0.0038 -1.14245,0.0026 -1.71369,0.0089 z"
       id="path8563"
       inkscape:connector-curvature="0"
       sodipodi:nodetypes="cccccc" />
    <path
       style="fill:#b1b1b1;fill-opacity:1;stroke:#000000;stroke-width:0.66500002;stroke-linecap:butt;stroke-linejoin:miter;stroke-miterlimit:4;stroke-dasharray:none;stroke-opacity:1"
       d="m 115.41153,65.439709 c -5.57095,-0.285078 -11.83004,-0.270492 -17.172286,0.354061 l -0.933855,0.117178 c -0.06553,0.768079 -0.05636,1.539578 -0.08477,2.309358 0.141949,0.0976 0.325491,-10e-4 0.48571,0.03541 6.018331,-0.738949 11.999111,-0.758024 17.160111,-0.428681 l 0.66422,0.01609 c 0.002,-0.783333 -0.0906,-1.565778 -0.10928,-2.3488 -0.002,-0.03495 0.0253,-0.0682 -0.009,-0.05461 z"
       id="path8565"
       inkscape:connector-curvature="0"
       sodipodi:nodetypes="cccccccccc" />
    <path
       style="display:inline;opacity:1;fill:#b1b1b1;fill-opacity:1;stroke:none;stroke-width:0.26458332px;stroke-linecap:butt;stroke-linejoin:miter;stroke-opacity:1"
       d="m 74.307566,83.352149 c 0.04833,0.660437 0.09666,1.320874 0.144997,1.98131 3.543551,-2.027535 7.087101,-4.05507 10.630652,-6.082604 -0.09234,-0.86842 -0.18468,-1.73684 -0.27702,-2.605259 -3.499543,2.235518 -6.999086,4.471035 -10.498629,6.706553 z"
       id="path8575"
       inkscape:connector-curvature="0" />
    <path
       style="fill:#b1b1b1;fill-opacity:1;stroke:none;stroke-width:0.26458332px;stroke-linecap:butt;stroke-linejoin:miter;stroke-opacity:1"
       d="m 97.614474,73.908702 c 0.0026,0.563799 0.0052,1.127598 0.0079,1.691398 5.794296,-0.101084 11.588586,-0.202168 17.382886,-0.303252 0.0186,-0.677907 0.0372,-1.355815 0.0557,-2.033722 -5.81551,0.215192 -11.631,0.430383 -17.44651,0.645576 z"
       id="path8578"
       inkscape:connector-curvature="0" />
    <path
       style="fill:#b1b1b1;fill-opacity:1;stroke:none;stroke-width:0.26458332px;stroke-linecap:butt;stroke-linejoin:miter;stroke-opacity:1"
       d="M 130.51562 77.699219 C 130.49768 77.967093 130.51385 78.25503 130.50143 78.530585 C 130.49479 78.883704 130.48462 79.236753 130.47656 79.589844 C 131.35278 80.519167 132.33628 81.364508 133.04983 82.433427 C 133.70946 83.47867 134.28378 84.607408 135.20459 85.455544 C 136.53803 86.897607 137.83761 88.375969 139.27427 89.717494 C 139.79967 90.135565 140.34977 90.599815 141.03906 90.693359 C 141.34938 90.645578 141.33301 90.255091 141.28799 90.019108 C 141.2169 89.270512 140.86688 88.586783 140.46133 87.966566 C 139.83025 86.900821 139.30534 85.756301 138.46677 84.829303 C 137.81568 84.11484 137.16392 83.400817 136.51436 82.684857 C 135.81731 81.918555 135.05612 81.211988 134.23207 80.583875 C 133.0296 79.622887 131.81146 78.681659 130.60742 77.722656 C 130.58499 77.714114 130.54294 77.672686 130.51562 77.699219 z "
       id="path8580"
       inkscape:connector-curvature="0" />
  </g>
  <g
     inkscape:groupmode="layer"
     id="layer6"
     inkscape:label="Rounding"
     style="display:inline">
    <path
       style="display:inline;opacity:0.85;fill:url(#linearGradient8742);fill-opacity:1;stroke:none;stroke-width:0.26458272px;stroke-linecap:butt;stroke-linejoin:miter;stroke-opacity:1"
       d="m 125.88998,129.77509 c -5.43988,0.59377 -10.87976,1.18754 -16.31964,1.78131 -0.97978,0 -1.95956,0 -2.93934,0 0.0892,37.86466 0.17838,75.72933 0.26757,113.59399 7.92871,-1.24745 15.85743,-2.49488 23.78613,-3.74233 5.7016,-2.1381 11.40319,-4.27619 17.10477,-6.41429 0.85396,-1.2852 1.76148,-2.64042 1.9119,-4.2183 0.32249,-3.82389 0.39103,-7.66291 0.46651,-11.4978 0.0238,-3.16 -0.33834,-6.30428 -0.56608,-9.45186 -1.13663,-14.19922 -2.37756,-28.38982 -3.59663,-42.58213 -1.25649,-14.56696 -2.52085,-29.13324 -3.78773,-43.69929 -5.44249,2.07689 -10.88497,4.15379 -16.32746,6.2307 z"
       id="path8718"
       inkscape:connector-curvature="0" />
    <path
       style="display:inline;opacity:0.85;fill:url(#linearGradient8742-9);fill-opacity:1;stroke:none;stroke-width:0.25548458px;stroke-linecap:butt;stroke-linejoin:miter;stroke-opacity:1"
       d="m 72.330078,137.27344 c -1.638407,22.11924 -3.279148,44.23831 -4.916097,66.35766 -0.28838,4.27502 -0.591546,8.54918 -0.846081,12.82637 -0.04681,0.9951 -0.0752,1.99209 -0.157883,2.98477 -0.184989,1.19668 -0.49537,2.38018 -0.521738,3.59636 -0.02128,1.19636 0.05016,2.39253 0.182489,3.5813 0.09381,0.81651 0.172045,1.63634 0.334954,2.44284 0.219315,1.10952 0.560137,2.20588 1.124782,3.19112 0.300447,0.51943 0.657207,1.01848 1.116646,1.40849 0.44358,0.30471 0.947067,0.50536 1.420177,0.75815 1.049491,0.54827 2.006912,1.25336 3.048375,1.81609 0.655246,0.36707 1.342902,0.67126 2.042058,0.944 2.69322,1.09736 5.401923,2.15614 8.108974,3.21872 0.606532,0.23199 1.209845,0.48219 1.847062,0.61851 1.080335,0.25499 2.181653,0.40347 3.274383,0.59361 6.184409,1.01559 12.368821,2.03118 18.553231,3.04677 -0.10287,-37.85221 -0.20573,-75.70442 -0.3086,-113.55664 -1.95243,-0.003 -3.9044,-0.0749 -5.8524,-0.20535 -1.593437,-0.10712 -3.183004,-0.2638 -4.774546,-0.39509 -2.613934,-0.22498 -5.227868,-0.44997 -7.841802,-0.67495 -5.030598,-2.097 -10.061197,-4.19401 -15.091796,-6.29101 -0.247396,4.57942 -0.494792,9.15885 -0.742188,13.73828 z"
       id="path8718-5"
       inkscape:connector-curvature="0" />
    <path
       style="display:inline;opacity:0.85;fill:url(#linearGradient8813);fill-opacity:1;stroke:none;stroke-width:0.26458332px;stroke-linecap:butt;stroke-linejoin:miter;stroke-opacity:1"
       d="m 148.08398,92.789062 c -1.42513,1.486329 -2.85026,2.972657 -4.27539,4.458985 -3.0638,1.701172 -6.1276,3.402343 -9.1914,5.103513 -0.1211,-2.949867 -0.24219,-5.899737 -0.36328,-8.849607 -6.12956,1.509766 -12.25912,3.019531 -18.38868,4.529297 -0.10546,3.08333 -0.21093,6.16667 -0.3164,9.25 -2.93815,0.31771 -5.8763,0.63542 -8.81445,0.95313 -0.27995,7.62695 -0.5599,15.2539 -0.83985,22.88085 2.18527,0.0282 4.37106,-0.01 6.55614,0.0182 1.50665,0.047 3.05101,0.16465 4.51803,-0.26493 1.7532,-0.45823 3.55563,-0.67787 5.33754,-0.99156 2.06505,-0.34451 4.12839,-0.72232 6.14602,-1.28821 2.21122,-0.59068 4.4338,-1.1374 6.65321,-1.69618 2.97028,-1.43821 5.93838,-2.88092 8.9043,-4.32813 1.63737,-1.44922 3.27474,-2.89843 4.91211,-4.34765 0.38476,-9.19466 0.76953,-18.389326 1.15429,-27.583988 -0.66406,0.718751 -1.32812,1.4375 -1.99219,2.15625 z"
       id="path8775"
       inkscape:connector-curvature="0" />
    <path
       style="display:inline;opacity:0.85;fill:url(#linearGradient8813-7);fill-opacity:1;stroke:none;stroke-width:0.26458332px;stroke-linecap:butt;stroke-linejoin:miter;stroke-opacity:1"
       d="M 72.457031,90.150391 C 72.31901,93.10026 72.18099,96.05013 72.042969,99 71.285189,98.436299 70.528065,97.871723 69.774185,97.302812 69.569609,97.160254 69.376048,97.00059 69.231138,96.795284 69.040026,96.557866 68.857115,96.313868 68.682695,96.063921 68.272134,95.47501 67.86591,94.883059 67.457031,94.292969 c -0.25153,-0.175541 -0.500234,-0.355253 -0.753407,-0.52837 -1.185713,-0.773096 -2.371426,-1.546191 -3.55714,-2.319287 -0.267063,-0.09137 -0.540399,0.250037 -0.39339,0.492635 0.169542,0.461951 0.343189,0.92246 0.510216,1.385293 0.185355,0.560164 0.374072,1.119259 0.557352,1.680082 0.137905,0.455273 0.275809,0.910546 0.413713,1.365819 0.132324,0.50277 0.265322,1.005367 0.38914,1.510319 0.134413,0.524912 0.247112,1.055151 0.347926,1.58747 0.06584,0.334777 0.12296,0.67123 0.18084,1.00745 0.06746,0.40722 0.131259,0.81509 0.182431,1.22471 0.04558,0.3388 0.08492,0.67846 0.12221,1.01826 0.05668,0.56492 0.113354,1.12984 0.170031,1.69476 0.06057,0.9624 0.127822,1.92439 0.179063,2.88735 0.122207,2.15578 0.236721,4.31199 0.356123,6.46792 0.03826,0.70083 0.0753,1.40174 0.12196,2.10207 0.02329,0.29119 0.02602,0.58434 0.0645,0.87408 0.03335,0.24565 0.08105,0.49034 0.152637,0.72779 0.07801,0.25115 0.151065,0.50599 0.267621,0.74263 0.113567,0.23536 0.225909,0.47304 0.374973,0.68858 0.145034,0.21895 0.292791,0.43743 0.468901,0.63298 0.171325,0.19596 0.359246,0.37676 0.548227,0.55546 0.211678,0.19692 0.424416,0.39428 0.661129,0.56124 0.219916,0.16501 0.446977,0.3203 0.677333,0.47028 0.329304,0.21458 0.665921,0.4177 1.00739,0.61228 0.422469,0.24059 0.8488,0.47441 1.274016,0.71011 0.359939,0.1949 0.71921,0.39105 1.084156,0.57649 0.589276,0.30538 1.178552,0.61075 1.767827,0.91613 0.594802,0.28873 1.192355,0.5717 1.789961,0.85456 0.729572,0.34966 1.465847,0.68511 2.204432,1.01523 0.6452,0.28675 1.288745,0.57751 1.941797,0.84612 0.745127,0.30782 1.486948,0.62375 2.235686,0.92276 0.429036,0.15365 0.858072,0.30729 1.287109,0.46094 0.361436,0.11105 0.721535,0.22669 1.08378,0.33496 0.653743,0.1785 1.307208,0.35933 1.969119,0.50558 0.449548,0.10212 0.897653,0.21082 1.34974,0.30137 0.542626,0.11342 1.088018,0.21312 1.632026,0.31964 0.355264,0.0721 0.714609,0.12113 1.071973,0.18136 0.784767,0.12685 1.569533,0.25369 2.354299,0.38053 0.727636,0.0986 1.454983,0.19949 2.182797,0.29671 0.687904,0.0828 1.376182,0.16241 2.06495,0.23772 1.591176,0.17275 3.182502,0.34413 4.773742,0.51635 0.79036,0.10937 1.58073,0.21875 2.37109,0.32812 0.26759,-0.0213 0.52961,-0.0884 0.78007,-0.18362 0.082,-0.0184 0.18773,-0.0701 0.16555,-0.17329 0.0219,-0.45577 0.0435,-0.91156 0.0565,-1.3677 0.0556,-1.62677 0.13075,-3.2528 0.19175,-4.87936 0.0973,-2.67267 0.1925,-5.34541 0.29126,-8.01803 0.10025,-2.64798 0.20196,-5.29591 0.30129,-7.94393 0.0186,-0.23277 -0.0131,-0.48347 -0.17707,-0.66258 -0.18339,-0.20604 -0.45706,-0.30117 -0.72261,-0.34363 -0.28087,-0.0501 -0.56687,-0.0525 -0.85114,-0.0637 -1.46486,-0.0356 -2.92973,-0.0715 -4.3945,-0.11018 -0.617154,-0.0255 -1.23446,-0.048 -1.851511,-0.0754 -0.461458,-0.0311 -0.923588,-0.0531 -1.384154,-0.0961 -0.545312,-0.0464 -1.090623,-0.0927 -1.635934,-0.1391 -0.739587,-0.0927 -1.480478,-0.1763 -2.217649,-0.28714 -0.396425,-0.0638 -0.792217,-0.13202 -1.184871,-0.21623 -0.351295,-0.0697 -0.699999,-0.15172 -1.048989,-0.232 -0.388479,-0.0915 -0.775937,-0.18772 -1.159535,-0.2981 -0.254286,-0.0758 -0.517641,-0.13678 -0.753329,-0.26181 -0.21069,-0.11558 -0.390968,-0.27966 -0.549881,-0.45827 -0.177722,-0.19996 -0.333748,-0.41908 -0.460746,-0.65465 -0.119394,-0.25497 -0.201878,-0.52592 -0.251509,-0.80286 -0.05281,-0.29383 -0.09798,-0.58895 -0.139116,-0.88464 -0.05705,-0.56641 -0.112809,-1.13306 -0.150036,-1.70117 -0.03661,-0.51402 -0.07173,-1.0282 -0.09606,-1.54297 -0.01028,-0.286361 -7.38e-4,-0.573267 0.01861,-0.859067 0.01988,-0.263663 0.07122,-0.524126 0.138901,-0.77944 0.09954,-0.375005 0.208329,-0.747603 0.304741,-1.12342 0.0947,-0.245626 0.0067,-0.533895 -0.195666,-0.697942 -0.23539,-0.179755 -0.484787,-0.341802 -0.725568,-0.514742 -0.397724,-0.306475 -0.796812,-0.611164 -1.197266,-0.914062 -0.219748,-0.157594 -0.447897,-0.304425 -0.691453,-0.422718 -0.356592,-0.16684 -0.721747,-0.314528 -1.083184,-0.470443 -0.286584,-0.121092 -0.582355,-0.218781 -0.873191,-0.329004 -0.610642,-0.227727 -1.228577,-0.435179 -1.843194,-0.65181 -2.932834,-1.023901 -5.866298,-2.046 -8.799994,-3.067431 -0.09892,-0.02228 -0.194324,-0.08114 -0.298828,-0.0625 z"
       id="path8775-1"
       inkscape:connector-curvature="0"
       sodipodi:nodetypes="cccccccccccccccccccccccccccccccccccccc" />
    <path
       style="fill:#a6a6a6;fill-opacity:1;stroke:#000000;stroke-width:0.60000002;stroke-linecap:butt;stroke-linejoin:miter;stroke-miterlimit:4;stroke-dasharray:none;stroke-opacity:1"
       d="m 79.769401,180.42474 c 3.4375,0.88163 6.875,0.95545 10.3125,1.16406 l 0.490885,-5.8483 c -3.247656,0.0527 -6.627604,-0.15746 -9.941406,-0.94141 z"
       id="path4981"
       inkscape:connector-curvature="0"
       sodipodi:nodetypes="ccccc" />
    <path
       style="fill:#a6a6a6;fill-opacity:1;stroke:#000000;stroke-width:0.60000002;stroke-linecap:butt;stroke-linejoin:miter;stroke-miterlimit:4;stroke-dasharray:none;stroke-opacity:1"
       d="m 125.11555,177.02938 0.55725,5.65681 c 2.99723,-0.0358 5.52531,-0.60041 8.87536,-1.28085 l -0.52252,-5.89868 c -2.94153,0.47715 -5.90758,1.71632 -8.91009,1.52272 z"
       id="path4987"
       inkscape:connector-curvature="0"
       sodipodi:nodetypes="ccccc" />
    <path
       style="fill:#adadad;fill-opacity:1;stroke:#000000;stroke-width:0.60000002;stroke-linecap:butt;stroke-linejoin:miter;stroke-miterlimit:4;stroke-dasharray:none;stroke-opacity:1"
       d="m 137.63148,193.62541 0.41819,5.92767 c 3.34859,0.002 6.70376,0.0836 9.93128,-1.36693 l -0.68415,-5.9772 c -3.16562,0.86525 -6.37523,1.42254 -9.66532,1.41646 z"
       id="path4989"
       inkscape:connector-curvature="0"
       sodipodi:nodetypes="ccccc" />
    <path
       style="fill:#a6a6a6;fill-opacity:1;stroke:#000000;stroke-width:0.60000002;stroke-linecap:butt;stroke-linejoin:miter;stroke-miterlimit:4;stroke-dasharray:none;stroke-opacity:1"
       d="m 68.130207,192.48958 c 6.224697,1.0614 7.661377,1.0968 9.061979,1.12448 l -0.902655,6.94233 c -0.05245,0.183 -0.02961,0.58279 -0.243446,0.65051 -1.259008,0.39871 -5.339977,-1.30163 -8.378899,-1.9043 z"
       id="path4991"
       inkscape:connector-curvature="0"
       sodipodi:nodetypes="cccscc" />
    <path
       style="fill:#a6a6a6;fill-opacity:1;stroke:#000000;stroke-width:0.60000002;stroke-linecap:butt;stroke-linejoin:miter;stroke-miterlimit:4;stroke-dasharray:none;stroke-opacity:1"
       d="m 70.807452,200.12742 c -0.254803,1.0355 -0.929303,5.5745 -0.90452,5.38713 3.647476,0.80634 8.229334,1.4488 10.752568,1.26528 l 0.91366,-5.37925 c -3.626161,-0.21272 -7.104744,-0.35196 -10.761708,-1.27316 z"
       id="path4993"
       inkscape:connector-curvature="0"
       sodipodi:nodetypes="ccccc" />
    <path
       style="fill:#a6a6a6;fill-opacity:1;stroke:#000000;stroke-width:0.60000002;stroke-linecap:butt;stroke-linejoin:miter;stroke-miterlimit:4;stroke-dasharray:none;stroke-opacity:1"
       d="m 130.04701,232.9721 c 3.04076,-0.48721 6.90835,-2.41642 9.94911,-3.22776 l 1.21869,6.70673 c -3.33903,1.98832 -10.06888,4.3684 -13.58213,5.31143 z"
       id="path4997"
       inkscape:connector-curvature="0"
       sodipodi:nodetypes="ccccc" />
    <path
       style="fill:#a6a6a6;fill-opacity:1;stroke:#000000;stroke-width:0.60000002;stroke-linecap:butt;stroke-linejoin:miter;stroke-miterlimit:4;stroke-dasharray:none;stroke-opacity:1"
       d="m 130.86187,226.77479 c 2.70712,-0.46119 5.9743,-1.61622 8.52389,-2.42275 l 0.58396,5.42225 -8.38591,3.03549 z"
       id="path5014"
       inkscape:connector-curvature="0"
       sodipodi:nodetypes="ccccc" />
    <path
       style="fill:#a6a6a6;fill-opacity:1;stroke:#000000;stroke-width:0.60000002;stroke-linecap:butt;stroke-linejoin:miter;stroke-miterlimit:4;stroke-dasharray:none;stroke-opacity:1"
       d="m 139.93968,229.71686 c 2.26427,-0.48305 4.28266,-1.61283 6.48459,-2.78157 l 0.74435,5.12156 c -2.35366,2.71201 -3.66459,3.40977 -6.13781,4.59197 l -0.88632,-5.77704 z"
       id="path5016"
       inkscape:connector-curvature="0"
       sodipodi:nodetypes="cccccc" />
    <path
       style="fill:#aaaaaa;fill-opacity:1;stroke:#000000;stroke-width:0.60000002;stroke-linecap:butt;stroke-linejoin:miter;stroke-miterlimit:4;stroke-dasharray:none;stroke-opacity:1"
       d="m 129.79023,128.6082 c -0.36718,0.20117 -0.78398,0.17083 -1.15117,0.37201 0.42969,1.98177 0.9586,4.39349 1.38828,6.37526 1.71233,-0.44212 3.38289,-1.02639 5.06336,-1.57347 2.43609,-0.81496 4.87201,-1.63059 7.29797,-2.47536 0.24829,-0.0297 0.51963,-0.20891 0.5293,-0.48047 -0.18196,-1.31455 -0.31408,-2.63699 -0.47039,-3.95537 l -0.34992,-3.05439 c -4.09578,1.60664 -8.01465,3.46095 -12.30743,4.79179 z"
       id="path5020"
       inkscape:connector-curvature="0"
       sodipodi:nodetypes="ccccccccc" />
    <path
       style="fill:#aaaaaa;fill-opacity:1;stroke:#000000;stroke-width:0.60000002;stroke-linecap:butt;stroke-linejoin:miter;stroke-miterlimit:4;stroke-dasharray:none;stroke-opacity:1"
       d="m 136.64703,133.33513 1.36961,5.37553 c 1.9087,-0.43869 3.85298,-1.52626 5.63771,-2.58478 l -0.73936,-4.9272 z"
       id="path5022"
       inkscape:connector-curvature="0"
       sodipodi:nodetypes="ccccc" />
    <path
       style="fill:#9d9d9d;fill-opacity:1;stroke:#000000;stroke-width:0.60000002;stroke-linecap:butt;stroke-linejoin:miter;stroke-miterlimit:4;stroke-dasharray:none;stroke-opacity:1"
       d="m 118.14869,130.92344 c 0.32032,2.01367 0.70678,4.17617 1.02709,6.18984 2.01047,-0.21738 4.02335,-0.42968 6.01643,-0.77748 1.18658,-0.21706 2.36878,-0.45811 3.55194,-0.69318 0.48958,-0.099 0.97916,-0.19794 1.46874,-0.29692 -0.47331,-2.09375 -1.01276,-4.33633 -1.48607,-6.43008 -3.52604,1.0587 -7.05208,1.50185 -10.57813,2.00782 z"
       id="path5024"
       inkscape:connector-curvature="0"
       sodipodi:nodetypes="ccccccc" />
    <path
       style="fill:#aaaaaa;fill-opacity:1;stroke:#000000;stroke-width:0.60000002;stroke-linecap:butt;stroke-linejoin:miter;stroke-miterlimit:4;stroke-dasharray:none;stroke-opacity:1"
       d="m 125.25019,136.52137 0.81255,5.04004 c 4.02784,-0.45348 8.17107,-1.52838 11.9539,-2.8394 l -1.43479,-5.32073 c -3.63693,1.03356 -7.60719,2.36607 -11.33166,3.12009 z"
       id="path5026"
       inkscape:connector-curvature="0"
       sodipodi:nodetypes="ccccc" />
    <path
       style="fill:none;stroke:#000000;stroke-width:0.60000002;stroke-linecap:butt;stroke-linejoin:miter;stroke-miterlimit:4;stroke-dasharray:none;stroke-opacity:1"
       d="m 80.885005,135.49457 -0.996889,6.73816 c 3.389003,0.98872 6.809739,1.40624 10.242633,1.60493 l 0.519764,-6.33395 c -3.362922,-0.15798 -6.549101,-0.62875 -9.765508,-2.00914 z"
       id="path5028"
       inkscape:connector-curvature="0"
       sodipodi:nodetypes="ccccc" />
    <path
       style="fill:#8a8a8a;fill-opacity:1;stroke:#000000;stroke-width:0.60000002;stroke-linecap:butt;stroke-linejoin:miter;stroke-miterlimit:4;stroke-dasharray:none;stroke-opacity:1"
       d="m 73.644439,123.91794 1.119323,-6.13586 0.07454,-0.75003 c 0.259464,0.12203 0.455981,0.21153 0.721116,0.33424 4.649003,2.15157 10.074757,4.17889 12.32465,4.25227 l -1.145087,7.39921 c -1.217606,0.18468 -8.836168,-3.59315 -13.094545,-5.09983 z"
       id="path5032"
       inkscape:connector-curvature="0"
       sodipodi:nodetypes="cccsccc" />
    <path
       style="fill:#8a8a8a;fill-opacity:1;stroke:#000000;stroke-width:0.60000002;stroke-linecap:butt;stroke-linejoin:miter;stroke-miterlimit:4;stroke-dasharray:none;stroke-opacity:1"
       d="m 82.225469,119.85042 0.935445,-5.96346 c 4.499361,0.97044 9.605022,2.54996 15.294493,2.80633 l -0.140311,6.54811 c -5.48047,-0.48029 -11.096564,-1.32662 -16.089627,-3.39098 z"
       id="path5034"
       inkscape:connector-curvature="0"
       sodipodi:nodetypes="ccccc" />
    <path
       style="fill:#8a8a8a;fill-opacity:1;stroke:#000000;stroke-width:0.60000002;stroke-linecap:butt;stroke-linejoin:miter;stroke-miterlimit:4;stroke-dasharray:none;stroke-opacity:1"
       d="m 87.851829,121.65564 -1.112845,7.31534 c 0.48253,0.11084 0.770417,0.26152 1.247959,0.36494 4.536763,0.98248 8.954821,2.10108 13.976377,1.52934 l -0.37417,-7.48355 c -4.625634,0.0718 -9.23554,-0.43549 -13.737321,-1.72607 z"
       id="path5036"
       inkscape:connector-curvature="0"
       sodipodi:nodetypes="ccsccc" />
  </g>
  <g
     inkscape:groupmode="layer"
     id="layer7"
     inkscape:label="Door">
    <path
       style="display:inline;fill:#6a3c1d;fill-opacity:1;stroke:#000000;stroke-width:0.26458332px;stroke-linecap:butt;stroke-linejoin:miter;stroke-opacity:1"
       d="m 101.5811,196.83631 -1.32292,46.30208 5.38616,0.0945 0.37798,-46.58556 z"
       id="path8618"
       inkscape:connector-curvature="0" />
    <path
       style="display:inline;opacity:1;fill:#989898;fill-opacity:1;stroke:#000000;stroke-width:0.19583024px;stroke-linecap:butt;stroke-linejoin:miter;stroke-opacity:1"
       d="m 86.946114,202.20545 c -1.912525,4.15417 -3.82505,8.30834 -5.737575,12.46249 l 1.752416,25.03602 c 0.534871,0.2766 1.135887,0.32169 1.67076,0.59826 0.07421,-0.39946 0.809871,-0.23668 0.884079,-0.63616 14.899306,0.51754 29.104056,0.60511 44.003336,1.12263 0.55945,-0.41777 1.1189,-0.83555 1.67834,-1.25333 0.50355,-7.82695 1.04018,-16.14998 1.54372,-23.97693 -1.87927,-4.35173 -3.75855,-8.70345 -5.63782,-13.05519 -3.46221,-3.09937 -6.92442,-6.19871 -10.38662,-9.29808 -6.09947,-0.066 -12.19892,-0.13204 -18.298381,-0.19805 -3.82408,3.06613 -7.648168,6.13223 -11.472255,9.19834 z"
       id="path8615"
       inkscape:connector-curvature="0"
       sodipodi:nodetypes="cccccccccccc" />
    <path
       style="display:inline;opacity:1;fill:#6a3c1d;fill-opacity:1;stroke:#000000;stroke-width:1.15832829;stroke-linecap:butt;stroke-linejoin:miter;stroke-miterlimit:4;stroke-dasharray:none;stroke-opacity:1"
       d="m 98.582031,196.41016 c -1.17587,1.01385 -2.352289,2.02718 -3.548357,3.01722 -2.057646,1.73343 -4.118573,3.46305 -6.158674,5.21715 -0.499896,0.50116 -0.764856,1.17089 -1.074768,1.794 -0.63655,1.38802 -1.199953,2.80793 -1.811242,4.20703 -0.741122,1.72557 -1.482243,3.45114 -2.223365,5.17671 -0.121409,0.45945 9.73e-4,0.93223 -0.0049,1.39789 0.435233,7.25734 0.870465,14.51468 1.305698,21.77203 0.753906,0.71614 1.507813,1.43229 2.261719,2.14843 2.145574,0.75965 4.322146,1.44001 6.541979,1.94798 1.797411,0.42329 3.618814,0.74147 5.450208,0.97585 1.740781,0.0722 3.483551,0.0435 5.225291,0.0411 0.46136,-0.003 0.92272,-0.005 1.38409,-0.008 0.20349,0.0468 0.47442,-0.0116 0.55859,-0.22461 0.0224,-0.25936 -0.005,-0.52499 0.004,-0.78698 -0.003,-1.64046 0.0321,-3.28071 0.038,-4.92115 0.10656,-13.99573 0.21311,-27.99146 0.31966,-41.98719 -2.75586,0.0775 -5.51172,0.15495 -8.267582,0.23243 z"
       id="path8598"
       inkscape:connector-curvature="0" />
    <path
       style="display:inline;opacity:1;fill:#6a3c1d;fill-opacity:1;stroke:#000000;stroke-width:1.23234272;stroke-linecap:butt;stroke-linejoin:miter;stroke-miterlimit:4;stroke-dasharray:none;stroke-opacity:1"
       d="m 107.21917,196.1961 c -0.33119,0.72849 -0.11636,1.54198 -0.19479,2.30938 0.0784,15.19972 0.15685,30.39945 0.23526,45.59916 2.42428,-0.0409 4.84854,-0.0819 7.2728,-0.12287 3.91818,-0.98984 7.89878,-1.70943 11.81632,-2.70183 0.80738,-0.34651 1.35869,-1.05733 1.9877,-1.63931 0.39397,-0.69284 0.18542,-1.51615 0.31695,-2.26729 0.46873,-7.12804 0.93747,-14.25608 1.40619,-21.38412 -1.52258,-3.56448 -3.03955,-7.13136 -4.57531,-10.69019 -3.02036,-3.00424 -6.57258,-5.38566 -9.86028,-8.07499 -0.34241,-0.27536 -0.6884,-0.54626 -1.03229,-0.81977 -2.44662,-0.0671 -4.89329,-0.13397 -7.3393,-0.22117 z"
       id="path8598-0"
       inkscape:connector-curvature="0" />
    <path
       style="display:inline;opacity:1;fill:#9a582a;fill-opacity:1;stroke:none;stroke-width:0.30558461px;stroke-linecap:butt;stroke-linejoin:miter;stroke-opacity:1"
       d="m 100.33777,198.83557 -1.201242,43.90621 6.406612,0.26772 v -44.26317 l -1.93153,0.0331 -0.87264,11.11516 -0.42627,-11.0929 z"
       id="path8620"
       inkscape:connector-curvature="0"
       sodipodi:nodetypes="cccccccc" />
    <path
       style="display:inline;opacity:1;fill:#9a582a;fill-opacity:1;stroke:none;stroke-width:0.30558464px;stroke-linecap:butt;stroke-linejoin:miter;stroke-opacity:1"
       d="m 108.28516,198.79199 0.31816,43.92149 6.41204,0.046 -1.53102,-44.23669 z"
       id="path8620-9"
       inkscape:connector-curvature="0" />
    <path
       style="display:inline;opacity:1;fill:#9a582a;fill-opacity:1;stroke:none;stroke-width:0.30558464px;stroke-linecap:butt;stroke-linejoin:miter;stroke-opacity:1"
       d="m 93.226399,203.33385 c 0.855026,12.67001 -0.06875,25.40684 -0.482359,38.07686 l 2.90114,0.73638 0.890539,-11.42918 0.01502,11.56033 1.715476,0.39095 1.300863,-43.62647 -4.896446,3.31373 -0.287611,2.05574 -0.594689,-1.45863 z"
       id="path8620-91"
       inkscape:connector-curvature="0"
       sodipodi:nodetypes="ccccccccccc" />
    <path
       style="display:inline;opacity:1;fill:#9a582a;fill-opacity:1;stroke:none;stroke-width:0.30558464px;stroke-linecap:butt;stroke-linejoin:miter;stroke-opacity:1"
       d="m 89.113719,207.70927 0.264569,32.54582 3.895663,1.03912 -0.822239,-36.94101 z"
       id="path8620-91-1"
       inkscape:connector-curvature="0"
       sodipodi:nodetypes="ccccc" />
    <path
       style="display:inline;opacity:1;fill:#9a582a;fill-opacity:1;stroke:none;stroke-width:0.30558464px;stroke-linecap:butt;stroke-linejoin:miter;stroke-opacity:1"
       d="m 85.326878,216.16496 1.020521,22.00973 1.627806,1.3226 0.878654,-30.56266 z"
       id="path8620-91-1-1"
       inkscape:connector-curvature="0"
       sodipodi:nodetypes="ccccc" />
    <path
       style="display:inline;opacity:1;fill:#9a582a;fill-opacity:1;stroke:none;stroke-width:0.29289985px;stroke-linecap:butt;stroke-linejoin:miter;stroke-opacity:1"
       d="m 120.99652,203.48056 c -1.40677,12.6442 -1.18995,25.4514 -1.43652,38.16413 l -2.68961,0.58088 -0.25086,-11.49565 -0.58379,11.57811 -1.5882,0.29893 0.96164,-43.76686 4.31474,3.58349 0.16167,2.07459 0.6158,-1.42887 z"
       id="path8620-91-3"
       inkscape:connector-curvature="0"
       sodipodi:nodetypes="ccccccccccc" />
    <path
       style="display:inline;opacity:1;fill:#9a582a;fill-opacity:1;stroke:none;stroke-width:0.30858549px;stroke-linecap:butt;stroke-linejoin:miter;stroke-opacity:1"
       d="m 124.6232,207.66359 -0.26882,32.66356 -3.95824,1.04287 0.83545,-37.07464 z"
       id="path8620-91-1-9"
       inkscape:connector-curvature="0"
       sodipodi:nodetypes="ccccc" />
    <path
       style="display:inline;opacity:1;fill:#9a582a;fill-opacity:1;stroke:none;stroke-width:0.31257811px;stroke-linecap:butt;stroke-linejoin:miter;stroke-opacity:1"
       d="m 128.58288,215.75143 -1.03419,22.72425 -2.54731,1.69627 0.007,-31.88558 z"
       id="path8620-91-1-1-4"
       inkscape:connector-curvature="0"
       sodipodi:nodetypes="ccccc" />
  </g>
  <g
     inkscape:groupmode="layer"
     id="layer9"
     inkscape:label="Windows">
    <path
       style="display:inline;fill:#000000;stroke:#000000;stroke-width:0.24907854px;stroke-linecap:butt;stroke-linejoin:miter;stroke-opacity:1"
       d="m 87.782602,150.08361 c -0.285947,0.0922 -0.543012,0.24077 -0.817055,0.35628 -0.963014,0.44985 -1.93293,0.88958 -2.87105,1.37944 -0.244677,0.13752 -0.448881,0.32405 -0.602268,0.54116 -0.378872,0.51418 -0.639597,1.08626 -0.941755,1.63657 -0.307947,0.58107 -0.615892,1.16214 -0.923839,1.7432 -0.306839,1.83131 -0.606838,3.66365 -0.858799,5.50159 -0.321696,2.29043 -0.642269,4.58239 -0.826855,6.88531 -0.01717,0.26907 -0.06892,0.53727 -0.05279,0.80735 0.05032,0.26909 0.29269,0.47768 0.565145,0.58607 0.630365,0.31307 1.245643,0.65826 1.918832,0.89648 0.742009,0.24305 1.51598,0.3979 2.283845,0.56198 0.442815,0.0888 0.882354,0.19396 1.334109,0.24157 0.822811,0.10711 1.643806,0.22834 2.469794,0.31426 0.465122,0.0422 0.935538,0.0388 1.397918,-0.0254 0.674718,-0.07 1.350549,-0.13294 2.026358,-0.19262 0.249646,-0.035 0.503295,-0.17709 0.565213,-0.40561 0.101994,-0.28991 0.08348,-0.59807 0.123637,-0.89687 0.189599,-2.16875 0.326007,-4.34075 0.486153,-6.51128 0.136686,-1.91164 0.273372,-3.82328 0.410059,-5.73491 -0.03989,-0.5304 -0.229268,-1.03894 -0.372965,-1.55188 -0.325347,-1.07276 -0.651573,-2.14533 -0.991986,-3.21444 -0.105131,-0.28725 -0.351629,-0.51366 -0.633045,-0.67524 -1.084588,-0.72062 -2.190158,-1.41598 -3.28972,-2.11851 -0.120204,-0.0643 -0.249927,-0.14751 -0.398926,-0.12448 z"
       id="path4810"
       inkscape:connector-curvature="0"
       sodipodi:nodetypes="ccscsccccccccccccccccccc" />
    <path
       style="display:inline;fill:#6a3c1d;fill-opacity:1;stroke:none;stroke-width:0.25325853px;stroke-linecap:butt;stroke-linejoin:miter;stroke-opacity:1"
       d="m 88.263247,151.29096 -1.372128,17.22786 c -0.04479,0.73011 -0.159749,1.36669 -0.204545,2.0968 0.844308,0.038 1.641844,0.16954 2.486153,0.20751 0.700355,-0.0854 1.397934,-0.19663 2.094668,-0.31234 0.191269,-0.0376 0.383691,-0.0734 0.56754,-0.14548 0.267637,-4.32683 0.689292,-8.23339 0.956931,-12.56021 -0.552288,-1.47226 -0.964259,-2.87434 -1.516546,-4.34659 -0.942971,-0.69782 -2.032107,-1.48333 -2.975078,-2.18114 z"
       id="path4842-9"
       inkscape:connector-curvature="0"
       sodipodi:nodetypes="cccscccccc" />
    <path
       style="display:inline;fill:#6a3c1d;fill-opacity:1;stroke:none;stroke-width:0.25325853px;stroke-linecap:butt;stroke-linejoin:miter;stroke-opacity:1"
       d="m 87.679375,151.18767 -1.498866,16.96403 c -0.08961,0.72597 -0.08985,1.68163 -0.208094,2.39007 -0.836999,-0.11719 -2.523478,-0.62273 -3.360473,-0.73995 -0.672891,-0.21215 -0.776571,-0.4577 -1.440354,-0.69898 -0.181155,-0.072 -0.363773,-0.1424 -0.531322,-0.24691 l 1.492596,-12.71254 c 0.812443,-1.3463 1.59181,-2.29569 2.40425,-3.64198 l 2.916261,-1.22607 z"
       id="path4842-9-6"
       inkscape:connector-curvature="0"
       sodipodi:nodetypes="cccscccccc" />
    <path
       style="display:inline;fill:#aa612f;fill-opacity:1;stroke:none;stroke-width:0.26458332px;stroke-linecap:butt;stroke-linejoin:miter;stroke-opacity:1"
       d="m 84.60052,152.93437 -1.058077,1.63831 -0.581455,3.20049 0.365255,-2.86573 -0.776244,1.20193 -1.488281,12.56771 0.799248,0.28209 0.510365,-1.29308 0.01944,1.48006 0.919908,0.32468 2.14974,-16.80105 z"
       id="path4874"
       inkscape:connector-curvature="0"
       sodipodi:nodetypes="cccccccccccc" />
    <path
       style="display:inline;fill:#aa612f;fill-opacity:1;stroke:none;stroke-width:0.29340091px;stroke-linecap:butt;stroke-linejoin:miter;stroke-opacity:1"
       d="m 85.904103,152.58244 1.475775,-0.5408 -1.799854,17.95663 -0.257052,-0.061 -0.12972,-0.43074 -0.209778,0.35017 -1.898238,-0.4505 z"
       id="path4876"
       inkscape:connector-curvature="0"
       sodipodi:nodetypes="cccccccc" />
    <path
       style="display:inline;fill:#aa612f;fill-opacity:1;stroke:none;stroke-width:0.25187147px;stroke-linecap:butt;stroke-linejoin:miter;stroke-opacity:1"
       d="m 90.800816,153.57565 0.671598,1.82768 0.0065,3.30182 0.130676,-2.92838 0.492706,1.34085 -0.672858,12.82193 -0.746809,0.13726 -0.244697,-1.38384 -0.250344,1.47482 -0.859553,0.15798 0.758778,-17.16987 z"
       id="path4874-5"
       inkscape:connector-curvature="0"
       sodipodi:nodetypes="cccccccccccc" />
    <path
       style="display:inline;fill:#aa612f;fill-opacity:1;stroke:none;stroke-width:0.27930453px;stroke-linecap:butt;stroke-linejoin:miter;stroke-opacity:1"
       d="m 89.71074,152.98846 -1.211627,-0.80697 -1.248367,18.26082 0.235493,-0.0147 0.181881,-0.40676 0.129156,0.38766 1.739104,-0.10679 z"
       id="path4876-2"
       inkscape:connector-curvature="0"
       sodipodi:nodetypes="cccccccc" />
    <path
       style="display:inline;fill:#000000;stroke:#000000;stroke-width:0.24907854px;stroke-linecap:butt;stroke-linejoin:miter;stroke-opacity:1"
       d="m 127.42459,149.88609 c 0.28595,0.0922 0.54302,0.24077 0.81706,0.35628 0.96301,0.44985 1.93293,0.88958 2.87105,1.37944 0.24468,0.13752 0.44888,0.32405 0.60227,0.54116 0.37887,0.51418 0.63959,1.08626 0.94175,1.63657 0.30795,0.58107 0.61589,1.16214 0.92384,1.7432 0.30684,1.83131 0.60684,3.66365 0.8588,5.50159 0.3217,2.29043 0.64227,4.58239 0.82686,6.88531 0.0172,0.26907 0.0689,0.53727 0.0528,0.80735 -0.0503,0.26909 -0.29269,0.47768 -0.56515,0.58607 -0.63036,0.31307 -1.24564,0.65826 -1.91883,0.89648 -0.74201,0.24305 -1.51598,0.3979 -2.28385,0.56198 -0.44281,0.0888 -0.88235,0.19396 -1.33411,0.24157 -0.82281,0.10711 -1.6438,0.22834 -2.46979,0.31426 -0.46512,0.0422 -0.93554,0.0388 -1.39792,-0.0254 -0.67472,-0.07 -1.35055,-0.13294 -2.02636,-0.19262 -0.24964,-0.035 -0.50329,-0.17709 -0.56521,-0.40561 -0.10199,-0.28991 -0.0835,-0.59807 -0.12364,-0.89687 -0.18959,-2.16875 -0.326,-4.34075 -0.48615,-6.51128 -0.13668,-1.91164 -0.27337,-3.82328 -0.41006,-5.73491 0.0399,-0.5304 0.22927,-1.03894 0.37297,-1.55188 0.32534,-1.07276 0.65157,-2.14533 0.99198,-3.21444 0.10513,-0.28725 0.35163,-0.51366 0.63305,-0.67524 1.08459,-0.72062 2.19016,-1.41598 3.28972,-2.11851 0.1202,-0.0643 0.24993,-0.14751 0.39892,-0.12448 z"
       id="path4810-1"
       inkscape:connector-curvature="0"
       sodipodi:nodetypes="ccscsccccccccccccccccccc" />
    <path
       style="display:inline;fill:#6a3c1d;fill-opacity:1;stroke:none;stroke-width:0.25325853px;stroke-linecap:butt;stroke-linejoin:miter;stroke-opacity:1"
       d="m 126.94395,151.09344 1.37213,17.22786 c 0.0448,0.73011 0.15975,1.36669 0.20454,2.0968 -0.84431,0.038 -1.64184,0.16954 -2.48615,0.20751 -0.70036,-0.0854 -1.39793,-0.19663 -2.09467,-0.31234 -0.19127,-0.0376 -0.38369,-0.0734 -0.56754,-0.14548 -0.26764,-4.32683 -0.68929,-8.23339 -0.95693,-12.56021 0.55229,-1.47226 0.96426,-2.87434 1.51655,-4.34659 0.94297,-0.69782 2.0321,-1.48333 2.97507,-2.18114 z"
       id="path4842-9-1"
       inkscape:connector-curvature="0"
       sodipodi:nodetypes="cccscccccc" />
    <path
       style="display:inline;fill:#6a3c1d;fill-opacity:1;stroke:none;stroke-width:0.25325853px;stroke-linecap:butt;stroke-linejoin:miter;stroke-opacity:1"
       d="m 127.52782,150.99015 1.49887,16.96403 c 0.0896,0.72597 0.0898,1.68163 0.20809,2.39007 0.837,-0.11719 2.52348,-0.62273 3.36047,-0.73995 0.6729,-0.21215 0.77658,-0.4577 1.44036,-0.69898 0.18115,-0.072 0.36377,-0.1424 0.53132,-0.24691 l -1.4926,-12.71254 c -0.81244,-1.3463 -1.59181,-2.29569 -2.40425,-3.64198 l -2.91626,-1.22607 z"
       id="path4842-9-6-0"
       inkscape:connector-curvature="0"
       sodipodi:nodetypes="cccscccccc" />
    <path
       style="display:inline;fill:#aa612f;fill-opacity:1;stroke:none;stroke-width:0.26458332px;stroke-linecap:butt;stroke-linejoin:miter;stroke-opacity:1"
       d="m 130.60668,152.73685 1.05807,1.63831 0.58146,3.20049 -0.36526,-2.86573 0.77625,1.20193 1.48828,12.56771 -0.79925,0.28209 -0.51036,-1.29308 -0.0194,1.48006 -0.91991,0.32468 -2.14974,-16.80105 z"
       id="path4874-1"
       inkscape:connector-curvature="0"
       sodipodi:nodetypes="cccccccccccc" />
    <path
       style="display:inline;fill:#aa612f;fill-opacity:1;stroke:none;stroke-width:0.29340091px;stroke-linecap:butt;stroke-linejoin:miter;stroke-opacity:1"
       d="m 129.30309,152.38492 -1.47577,-0.5408 1.79985,17.95663 0.25705,-0.061 0.12972,-0.43074 0.20978,0.35017 1.89824,-0.4505 z"
       id="path4876-5"
       inkscape:connector-curvature="0"
       sodipodi:nodetypes="cccccccc" />
    <path
       style="display:inline;fill:#aa612f;fill-opacity:1;stroke:none;stroke-width:0.25187147px;stroke-linecap:butt;stroke-linejoin:miter;stroke-opacity:1"
       d="m 124.40638,153.37813 -0.6716,1.82768 -0.007,3.30182 -0.13067,-2.92838 -0.49271,1.34085 0.67286,12.82193 0.74681,0.13726 0.24469,-1.38384 0.25035,1.47482 0.85955,0.15798 -0.75878,-17.16987 z"
       id="path4874-5-5"
       inkscape:connector-curvature="0"
       sodipodi:nodetypes="cccccccccccc" />
    <path
       style="display:inline;fill:#aa612f;fill-opacity:1;stroke:none;stroke-width:0.27930453px;stroke-linecap:butt;stroke-linejoin:miter;stroke-opacity:1"
       d="m 125.49646,152.79094 1.21162,-0.80697 1.24837,18.26082 -0.23549,-0.0147 -0.18188,-0.40676 -0.12916,0.38766 -1.7391,-0.10679 z"
       id="path4876-2-0"
       inkscape:connector-curvature="0"
       sodipodi:nodetypes="cccccccc" />
  </g>
  <g
     inkscape:groupmode="layer"
     id="layer10"
     inkscape:label="Stone">
    <path
       style="display:inline;fill:#a6a6a6;fill-opacity:1;stroke:#000000;stroke-width:0.6;stroke-linecap:butt;stroke-linejoin:miter;stroke-opacity:1;stroke-miterlimit:4;stroke-dasharray:none"
       d="m 75.268341,173.52145 c 3.262485,0.96743 6.539012,1.46102 9.813946,2.00844 l 0.943371,-4.86481 c -1.088675,-0.17305 -2.172874,-0.37246 -3.258114,-0.56553 -1.024174,-0.22222 -2.051174,-0.43285 -3.0674,-0.68986 -0.687228,-0.16656 -1.371653,-0.3442 -2.053792,-0.53048 -0.50178,-0.13612 -1.003559,-0.27222 -1.505338,-0.40834 -0.290892,1.68353 -0.581782,3.36706 -0.872673,5.05058 z"
       id="path4977"
       inkscape:connector-curvature="0"
       sodipodi:nodetypes="cccccccc" />
    <path
       style="display:inline;fill:#a6a6a6;fill-opacity:1;stroke:#000000;stroke-width:0.6;stroke-linecap:butt;stroke-linejoin:miter;stroke-opacity:1;stroke-miterlimit:4;stroke-dasharray:none"
       d="m 85.317126,175.54376 c 3.019332,0.34517 6.144097,0.57963 9.586684,0.48043 0.123562,-1.77372 0.206623,-3.28912 0.330185,-5.06283 -3.091156,-0.15017 -6.190183,0.33762 -9.293004,-0.29204 z"
       id="path4979"
       inkscape:connector-curvature="0"
       sodipodi:nodetypes="ccccc" />
    <path
       style="display:inline;fill:#a6a6a6;fill-opacity:1;stroke:#000000;stroke-width:0.6;stroke-linecap:butt;stroke-linejoin:miter;stroke-opacity:1;stroke-miterlimit:4;stroke-dasharray:none"
       d="m 118.4555,170.52044 0.12564,6.48439 c 3.51464,0.37811 6.97868,-0.002 10.66406,-0.0468 l -0.42898,-6.33626 c -3.30273,0.50675 -6.96996,0.18415 -10.36072,-0.10139 z"
       id="path4983"
       inkscape:connector-curvature="0"
       sodipodi:nodetypes="cccccc" />
    <path
       style="display:inline;fill:#a6a6a6;fill-opacity:1;stroke:#000000;stroke-width:0.6;stroke-linecap:butt;stroke-linejoin:miter;stroke-opacity:1;stroke-miterlimit:4;stroke-dasharray:none"
       d="m 128.82224,170.56534 c 3.24287,-0.0598 5.9619,-1.24895 9.20477,-2.18978 l 0.93399,6.22824 c -3.11047,0.87138 -6.20709,2.26457 -9.62842,2.393 z"
       id="path4985"
       inkscape:connector-curvature="0"
       sodipodi:nodetypes="ccccc" />
  </g>
  <g
     inkscape:groupmode="layer"
     id="layer12"
     inkscape:label="Shadow Over"
     style="display:inline;opacity:0.46000001">
    <path
       style="fill:url(#linearGradient5066);fill-opacity:1;stroke:none;stroke-width:0.26458332px;stroke-linecap:butt;stroke-linejoin:miter;stroke-opacity:1"
       d="M 73.652344 125.00391 C 73.195366 125.64093 73.06573 126.43452 72.914906 127.18598 C 72.660914 128.642 72.572414 130.11964 72.431972 131.58929 C 71.989434 136.71874 71.654492 141.85663 71.297879 146.99255 C 69.597277 171.73731 67.90492 196.48264 66.205945 221.22751 C 66.057218 223.39581 65.908492 225.56412 65.759766 227.73242 C 66.116744 229.69332 66.868514 231.61838 68.152232 233.1618 C 69.030521 234.18786 70.241031 234.83364 71.390777 235.50383 C 74.035059 236.98393 76.677986 238.47957 79.449219 239.71289 C 80.971623 240.35638 82.535747 240.89608 84.115234 241.38086 C 84.774419 241.50234 85.499604 241.46836 86.080078 241.10156 C 86.363354 240.87067 86.3489 240.46495 86.320312 240.13477 C 86.119831 238.93895 85.649244 237.81307 85.359389 236.63948 C 84.927974 235.07637 84.769252 233.45703 84.58963 231.85051 C 84.416764 230.19523 84.335425 228.53045 84.357653 226.86616 C 84.36527 224.70151 84.337761 222.52605 83.996492 220.38358 C 83.784913 218.7658 83.83048 217.11972 84.086464 215.50978 C 84.307984 213.92835 84.692209 212.35492 85.390625 210.91211 C 86.179817 209.16005 87.051607 207.44705 87.925781 205.73633 C 88.606753 204.65119 89.654858 203.88329 90.607422 203.05469 C 92.056088 201.81798 93.421303 200.48824 94.831856 199.20928 C 95.67777 198.45925 96.62299 197.80879 97.671618 197.37652 C 99.06169 196.74886 100.51736 196.25381 102.01685 195.96728 C 103.60808 195.67723 105.23307 195.64831 106.84525 195.71204 C 110.19639 195.79928 113.54286 196.00337 116.89071 196.16808 C 118.24129 196.2353 119.5921 196.31335 120.94281 196.36823 C 123.04237 196.26318 124.99038 194.69914 125.51409 192.65772 C 125.94189 191.07525 125.80315 189.39193 125.37796 187.82476 C 124.86555 185.90546 124.05944 184.06577 122.99357 182.38934 C 122.1084 180.97003 121.07668 179.651 120.10753 178.2896 C 118.2029 175.65072 116.26802 173.03129 114.47773 170.31253 C 113.17762 168.25423 112.44305 165.88552 112.06965 163.49239 C 111.74296 161.28387 111.5785 159.05612 111.37733 156.83382 C 111.02986 152.79594 110.72312 148.75456 110.35156 144.71875 C 110.20293 143.40974 109.85374 142.12048 109.27681 140.93413 C 108.35879 138.97426 107.01691 137.25262 105.61034 135.62245 C 104.96048 134.87387 104.27517 134.15216 103.51367 133.51562 C 102.58235 132.88605 101.45492 132.68392 100.37891 132.43945 C 96.369675 131.63633 92.350432 130.88426 88.341797 130.07812 C 86.7125 129.62253 85.113811 129.06614 83.511028 128.52656 C 80.31018 127.43932 77.163505 126.2021 74.004849 124.99999 C 73.88259 124.98398 73.716746 124.81913 73.652344 125.00391 z "
       id="path5052"
       inkscape:connector-curvature="0"
       sodipodi:nodetypes="cccccccccccccccccccccccccsccccccccccc" />
    <path
       style="opacity:0.43600003;fill:url(#linearGradient5090);fill-opacity:1;stroke:none;stroke-width:0.60000002;stroke-miterlimit:4;stroke-dasharray:none;stroke-dashoffset:0;stroke-opacity:1"
       d="M 73.138672 90.3125 C 72.626005 91.331748 72.473974 92.476422 72.282964 93.587613 C 72.117028 94.585753 71.951092 95.583892 71.785156 96.582031 C 71.719405 96.832583 71.459707 97.016422 71.201172 96.984375 C 70.533613 96.688848 69.971946 96.214138 69.37474 95.803868 C 68.525217 95.195417 67.675695 94.586966 66.826172 93.978516 C 66.594133 93.849403 66.280825 93.865235 66.078125 94.042969 C 65.857878 94.956529 65.921978 95.902552 65.916875 96.833516 C 66.016155 102.47414 66.119357 108.11476 66.216186 113.7554 C 66.204671 114.66701 66.193156 115.57862 66.181641 116.49023 C 66.280396 117.44825 66.493355 118.40704 66.933594 119.26953 C 67.293825 119.88666 67.893611 120.30423 68.469508 120.7024 C 69.211817 121.20099 69.944639 121.7134 70.675969 122.22782 C 71.489694 122.78799 72.336736 123.31705 73.268645 123.65795 C 74.294049 124.03781 75.359356 124.32604 76.330078 124.83984 C 77.86154 125.65208 79.383753 126.48264 80.9375 127.25195 C 82.588977 127.94836 84.350677 128.31379 86.088217 128.72345 C 89.142821 129.41218 92.203558 130.07338 95.264792 130.73179 C 96.659774 131.0142 98.071666 131.25124 99.49756 131.27965 C 100.77325 131.25255 102.03311 130.89564 103.31316 131.02601 C 105.66139 131.22603 108.00028 131.52148 110.34766 131.73047 C 110.97835 131.75312 111.60217 131.61029 112.19531 131.40625 C 112.67815 131.1389 112.94475 130.6019 113.03729 130.07535 C 113.20024 129.19251 113.18368 128.29114 113.21482 127.39742 C 113.30924 123.07548 113.34823 118.75252 113.44347 114.43061 C 113.47787 112.7546 113.56836 111.08059 113.64648 109.40625 C 113.5846 108.7398 113.19088 108.10712 112.60547 107.77734 C 110.89002 107.63369 109.17403 107.44929 107.45061 107.45312 C 105.97439 107.46957 104.49852 107.54007 103.02196 107.51434 C 101.79559 107.48546 100.5702 107.41515 99.347715 107.31462 C 97.807737 107.17806 96.279562 106.94043 94.750088 106.7197 C 93.448803 106.521 92.147474 106.31887 90.854212 106.07311 C 90.209072 105.93928 89.568858 105.77054 88.957031 105.52344 C 88.495503 105.25758 88.059874 104.8654 87.917969 104.33398 C 87.658983 103.18118 87.596682 101.99816 87.490164 100.82484 C 87.401646 99.751718 87.313128 98.678593 87.224609 97.605469 C 87.068833 97.017702 86.8236 96.424948 86.365234 96.007812 C 84.606962 94.894206 82.694826 94.054742 80.77778 93.257279 C 78.526028 92.331266 76.246579 91.475063 73.976261 90.596127 C 73.697573 90.507562 73.426217 90.352239 73.138672 90.3125 z "
       id="path5081"
       inkscape:connector-curvature="0" />
    <path
       style="opacity:0.50899999;fill:url(#linearGradient4876);fill-opacity:1;stroke:none;stroke-width:0.60000002;stroke-miterlimit:4;stroke-dasharray:none;stroke-dashoffset:0;stroke-opacity:1"
       d="m 112.38086,64.927734 c -3.92778,0.437495 -7.86402,0.880079 -11.82031,0.931641 -1.410905,0.238493 -2.309219,1.82407 -1.997884,3.17885 0.266633,2.432818 1.505144,4.592358 2.332194,6.857148 0.73442,1.902058 1.13632,3.989303 0.76765,6.01893 -0.43496,2.995863 -1.805581,5.731056 -2.853439,8.540255 -0.741046,1.915192 -1.473317,3.860792 -1.768943,5.902395 -0.07244,2.298103 1.913222,4.398827 4.190582,4.549897 3.18856,0.43229 6.42613,-0.38969 9.59999,0.22795 1.62255,0.36536 2.9168,1.68978 3.43526,3.24556 0.63338,1.82082 1.0965,3.69514 1.61035,5.55196 1.16917,4.40668 1.87817,8.93887 2.0461,13.49648 0.15323,2.34051 0.66752,4.68209 1.74388,6.77883 1.49425,3.23021 3.4554,6.21314 5.41299,9.17549 3.07484,4.47623 6.77883,8.48442 10.72964,12.19692 1.77424,1.71345 3.53427,3.49181 5.64662,4.7902 1.21185,0.46633 2.65198,-0.64368 2.58001,-1.92398 0.0152,-1.04047 -0.10251,-2.07735 -0.12489,-3.11726 -0.19634,-3.96509 -0.43256,-7.94932 -0.032,-11.91006 0.34568,-4.82144 0.64375,-9.7061 2.07116,-14.35503 1.02618,-3.47379 2.21652,-6.9138 2.8317,-10.49325 0.75286,-3.9997 1.27208,-8.04254 2.16311,-12.01619 0.54696,-2.596086 0.91873,-5.261079 0.66641,-7.916739 -0.19732,-2.460344 -0.64459,-4.900706 -1.29594,-7.280522 -1.08286,-3.827748 -2.90355,-7.533877 -5.74434,-10.365588 -2.70441,-2.687423 -6.23283,-4.431757 -9.90704,-5.353738 -0.57903,-0.13054 -1.16869,-0.276356 -1.76164,-0.290059 -1.14266,0.134719 -1.86437,1.155121 -2.86691,1.599727 -0.81958,0.337682 -1.73172,0.198491 -2.55888,-0.03017 -3.5031,-0.707349 -7.02866,-1.346646 -10.46304,-2.347493 -1.08449,-0.390364 -1.76602,-1.442156 -2.05824,-2.513531 -0.30323,-0.94887 -0.46544,-2.018015 -1.19325,-2.755573 -0.37936,-0.323572 -0.89817,-0.399949 -1.38086,-0.373047 z"
       id="path5092"
       inkscape:connector-curvature="0" />
    <path
       style="opacity:0.75;fill:url(#linearGradient4881);fill-opacity:1;stroke:none;stroke-width:1.66499996;stroke-miterlimit:4;stroke-dasharray:none;stroke-dashoffset:0;stroke-opacity:1"
       d="M 142.07812 123.5332 C 141.79018 123.61823 141.51078 123.73941 141.22612 123.83833 C 136.97427 125.44612 132.72263 127.0545 128.4707 128.66211 C 126.71356 129.11518 124.92784 129.44602 123.13849 129.74262 C 122.06733 129.91946 120.99605 130.09574 119.92069 130.24551 C 118.29655 130.48209 116.6673 130.69231 115.02916 130.80328 C 111.75574 131.04519 108.47125 131.07005 105.19038 131.0638 C 103.24079 131.05536 101.2892 131.03478 99.344398 130.88637 C 97.090506 130.70541 94.858443 130.33216 92.631518 129.9507 C 90.711331 129.62998 88.793456 129.29571 86.875 128.96484 C 85.633322 128.93771 84.366395 128.95929 83.164912 128.59841 C 81.804922 128.17059 80.542739 127.49549 79.286142 126.8334 C 77.975531 126.10988 76.803643 125.15924 75.474309 124.46789 C 75.030573 124.23888 74.563132 124.05561 74.082031 123.92188 C 73.63312 123.86312 73.131369 123.99735 72.845703 124.36719 C 72.476631 124.829 72.389787 125.43921 72.361822 126.01211 C 72.301802 127.08613 72.437855 128.15717 72.505002 129.22759 C 72.562842 130.01121 72.601883 130.79826 72.549205 131.58337 C 72.455674 133.64917 72.315106 135.71248 72.18232 137.77604 C 72.023977 140.22788 71.851184 142.67896 71.726562 145.13281 C 71.703584 145.7907 71.726402 146.44905 71.784561 147.10463 C 71.812025 147.39867 71.81165 147.70709 71.957998 147.97283 C 72.319929 148.73187 73.062273 149.30996 73.900391 149.42773 C 75.35805 149.45321 76.78643 149.11463 78.207031 148.83203 C 81.57606 148.14408 84.942191 147.44145 88.318359 146.78906 C 89.827418 146.56618 91.372944 146.46489 92.885634 146.71327 C 94.952633 147.02635 96.985365 147.52291 99.02273 147.98417 C 100.83485 148.39973 102.64353 148.83297 104.46764 149.19347 C 106.60997 149.5673 108.79205 149.67617 110.96387 149.62179 C 112.25671 149.58066 113.54763 149.47959 114.83029 149.31192 C 116.32152 149.12106 117.80028 148.83751 119.26073 148.48149 C 121.25999 147.98505 123.23143 147.37667 125.16596 146.66917 C 126.76926 146.07818 128.34523 145.40337 129.84477 144.58153 C 130.92902 143.97943 131.97278 143.3044 132.95999 142.55341 C 134.65337 141.25348 136.17809 139.73036 137.46175 138.02374 C 138.87944 136.13269 139.97403 133.99735 140.65738 131.7338 C 141.07692 130.37676 141.3946 128.99097 141.70762 127.60629 C 141.96158 126.47057 142.1938 125.33016 142.43359 124.19141 C 142.46469 123.97967 142.4438 123.71896 142.26172 123.57812 C 142.20758 123.54458 142.14185 123.5259 142.07812 123.5332 z "
       id="path4894"
       inkscape:connector-curvature="0" />
    <path
       style="opacity:0.75;fill:url(#linearGradient4900);fill-opacity:1;stroke:none;stroke-width:1.66499996;stroke-miterlimit:4;stroke-dasharray:none;stroke-dashoffset:0;stroke-opacity:1"
       d="m 141.54297,124.46484 c -6.11779,1.91267 -12.23433,3.82934 -18.34961,5.75 -0.57005,0.21544 -1.10975,0.55029 -1.48828,1.03516 -0.20638,0.65775 -0.0192,1.34622 0.0732,2.00655 0.56673,3.15906 1.30436,6.28368 1.97803,9.42082 1.01371,4.68333 2.03418,9.36548 2.98422,14.06223 0.92324,4.85324 1.69792,9.7383 2.17792,14.65663 0.38824,3.91414 0.66905,7.83787 0.95892,11.76023 0.3518,4.98537 0.69714,9.9716 0.9465,14.96332 0.14208,2.85446 0.25844,5.7102 0.36732,8.5661 0.16345,4.42105 0.32042,8.84277 0.39267,13.26641 0.0515,2.80592 -0.0851,5.61063 -0.21152,8.41288 -0.0972,2.14078 -0.20821,4.28186 -0.22976,6.42504 -0.0136,0.53715 0.046,1.07551 0.19717,1.59188 0.3909,1.40346 1.31152,2.66923 2.57227,3.41177 1.20592,0.67383 2.72951,0.69674 3.97815,0.12241 0.95009,-0.44067 1.68284,-1.21774 2.38289,-1.97507 2.18296,-2.4376 4.20269,-5.03049 5.92428,-7.816 1.03579,-1.72269 1.85353,-3.61828 2.08791,-5.62941 0.2615,-2.01511 0.11545,-4.05072 0.0505,-6.0734 -0.25485,-5.76621 -0.54955,-11.53056 -0.81214,-17.2964 -0.0796,-1.96799 -0.14937,-3.93649 -0.23943,-5.904 -0.23299,-4.05158 -0.47948,-8.10258 -0.7743,-12.15018 -0.73684,-9.64708 -1.54669,-19.28844 -2.28156,-28.93567 -0.48893,-6.49597 -0.89747,-12.9976 -1.33558,-19.49711 -0.19861,-3.00858 -0.39721,-6.01716 -0.59581,-9.02575 -0.12472,-0.37121 -0.24266,-0.75028 -0.45313,-1.08398 -0.0901,-0.0544 -0.19673,-0.0731 -0.30078,-0.0645 z"
       id="path4883"
       inkscape:connector-curvature="0" />
  </g>
  <g
     inkscape:groupmode="layer"
     id="layer13"
     inkscape:label="ShadowDoor"
     style="display:inline">
    <path
       style="opacity:0.311;fill:url(#linearGradient5079);fill-opacity:1;stroke:none;stroke-width:0.60000002;stroke-miterlimit:4;stroke-dasharray:none;stroke-dashoffset:0;stroke-opacity:1"
       d="M 101.70117 195.73633 C 99.713707 196.09527 97.76865 196.87376 96.210115 198.17861 C 95.266018 198.98868 94.426143 199.91005 93.508399 200.74874 C 92.335624 201.87659 91.123938 202.96357 89.882812 204.01562 C 89.071793 204.73228 88.399668 205.60477 87.917969 206.57422 C 86.547077 208.99011 85.189474 211.41478 83.725792 213.77625 C 82.943432 215.09317 82.577601 216.68901 82.871439 218.20588 C 83.180961 220.13694 83.692222 222.04141 83.789062 224.00195 C 83.867419 225.31794 84.149553 226.60848 84.399979 227.89924 C 84.73083 229.66835 84.874615 231.46514 84.98856 233.25924 C 85.089078 234.74523 85.241702 236.25997 85.819915 237.64727 C 86.157986 238.46715 86.688305 239.22465 87.423929 239.73377 C 88.488734 240.51462 89.799842 240.84707 91.082919 241.05874 C 95.214162 241.78222 99.379751 242.2831 103.54074 242.79887 C 104.07368 242.84491 104.61523 242.9592 105.14844 242.85938 C 106.18738 242.63681 107.01329 241.72896 107.20228 240.6926 C 107.41685 239.75374 107.44882 238.78705 107.52274 237.83028 C 107.73407 234.23354 107.55966 230.6292 107.36833 227.0357 C 107.07508 221.90856 106.69922 216.78663 106.3399 211.66382 C 106.10208 208.28923 105.85994 204.91479 105.58473 201.54305 C 105.44843 200.06214 105.31875 198.57349 104.98503 197.12139 C 104.89788 196.71257 104.64765 196.34602 104.29104 196.12612 C 104.00072 195.93053 103.65075 195.87463 103.31083 195.83324 C 102.77992 195.74417 102.23904 195.70639 101.70117 195.73633 z "
       id="path5068"
       inkscape:connector-curvature="0" />
  </g>
</svg>
