<?xml version="1.0" encoding="UTF-8" standalone="no"?>
<!-- Created with Inkscape (http://www.inkscape.org/) -->

<svg
   xmlns:dc="http://purl.org/dc/elements/1.1/"
   xmlns:cc="http://creativecommons.org/ns#"
   xmlns:rdf="http://www.w3.org/1999/02/22-rdf-syntax-ns#"
   xmlns:svg="http://www.w3.org/2000/svg"
   xmlns="http://www.w3.org/2000/svg"
   xmlns:xlink="http://www.w3.org/1999/xlink"
   xmlns:sodipodi="http://sodipodi.sourceforge.net/DTD/sodipodi-0.dtd"
   xmlns:inkscape="http://www.inkscape.org/namespaces/inkscape"
   width="135.29535mm"
   height="276.20285mm"
   viewBox="0 0 135.29535 276.20285"
   version="1.1"
   id="svg8"
   inkscape:version="0.92.4 (5da689c313, 2019-01-14)"
   sodipodi:docname="WoodenTower.svg">
  <defs
     id="defs2">
    <linearGradient
       inkscape:collect="always"
       id="linearGradient4849">
      <stop
         style="stop-color:#ffffff;stop-opacity:0.358"
         offset="0"
         id="stop4845" />
      <stop
         style="stop-color:#ffffff;stop-opacity:0;"
         offset="1"
         id="stop4847" />
    </linearGradient>
    <linearGradient
       inkscape:collect="always"
       id="linearGradient4832">
      <stop
         style="stop-color:#000000;stop-opacity:1;"
         offset="0"
         id="stop4828" />
      <stop
         style="stop-color:#000000;stop-opacity:0;"
         offset="1"
         id="stop4830" />
    </linearGradient>
    <filter
       inkscape:collect="always"
       style="color-interpolation-filters:sRGB"
       id="filter1608"
       x="-0.00095450546"
       width="1.001909"
       y="-0.049800552"
       height="1.0996011">
      <feGaussianBlur
         inkscape:collect="always"
         stdDeviation="0.041438508"
         id="feGaussianBlur1610" />
    </filter>
    <filter
       inkscape:collect="always"
       style="color-interpolation-filters:sRGB"
       id="filter2036"
       x="-0.031520344"
       width="1.0630407"
       y="-0.005599929"
       height="1.0112">
      <feGaussianBlur
         inkscape:collect="always"
         stdDeviation="0.21925586"
         id="feGaussianBlur2038" />
    </filter>
    <filter
       inkscape:collect="always"
       style="color-interpolation-filters:sRGB"
       id="filter2040"
       x="-0.046834704"
       width="1.0936694"
       y="-0.0056258431"
       height="1.0112517">
      <feGaussianBlur
         inkscape:collect="always"
         stdDeviation="0.21925586"
         id="feGaussianBlur2042" />
    </filter>
    <filter
       inkscape:collect="always"
       style="color-interpolation-filters:sRGB"
       id="filter2044"
       x="-0.046834596"
       width="1.0936692"
       y="-0.0056258435"
       height="1.0112517">
      <feGaussianBlur
         inkscape:collect="always"
         stdDeviation="0.21925586"
         id="feGaussianBlur2046" />
    </filter>
    <filter
       inkscape:collect="always"
       style="color-interpolation-filters:sRGB"
       id="filter2048"
       x="-0.031520344"
       width="1.0630407"
       y="-0.005599929"
       height="1.0112">
      <feGaussianBlur
         inkscape:collect="always"
         stdDeviation="0.21925586"
         id="feGaussianBlur2050" />
    </filter>
    <filter
       inkscape:collect="always"
       style="color-interpolation-filters:sRGB"
       id="filter2052"
       x="-0.0074852384"
       width="1.0149705"
       y="-0.0099918051"
       height="1.0199836">
      <feGaussianBlur
         inkscape:collect="always"
         stdDeviation="0.21925586"
         id="feGaussianBlur2054" />
    </filter>
    <filter
       inkscape:collect="always"
       style="color-interpolation-filters:sRGB"
       id="filter2056"
       x="-0.0074650981"
       width="1.0149302"
       y="-0.010381914"
       height="1.0207638">
      <feGaussianBlur
         inkscape:collect="always"
         stdDeviation="0.21925586"
         id="feGaussianBlur2058" />
    </filter>
    <filter
       inkscape:collect="always"
       style="color-interpolation-filters:sRGB"
       id="filter2060"
       x="-0.0068935305"
       width="1.0137872"
       y="-0.45152783"
       height="1.9030555">
      <feGaussianBlur
         inkscape:collect="always"
         stdDeviation="0.21925586"
         id="feGaussianBlur2062" />
    </filter>
    <filter
       inkscape:collect="always"
       style="color-interpolation-filters:sRGB"
       id="filter2064"
       x="-0.0067884587"
       width="1.0135769"
       y="-0.06838578"
       height="1.1367716">
      <feGaussianBlur
         inkscape:collect="always"
         stdDeviation="0.21925586"
         id="feGaussianBlur2066" />
    </filter>
    <filter
       inkscape:collect="always"
       style="color-interpolation-filters:sRGB"
       id="filter2068"
       x="-0.0079036877"
       width="1.0158074"
       y="-0.45152783"
       height="1.9030555">
      <feGaussianBlur
         inkscape:collect="always"
         stdDeviation="0.21925586"
         id="feGaussianBlur2070" />
    </filter>
    <filter
       inkscape:collect="always"
       style="color-interpolation-filters:sRGB"
       id="filter2072"
       x="-0.0077832281"
       width="1.0155665"
       y="-0.06838578"
       height="1.1367716">
      <feGaussianBlur
         inkscape:collect="always"
         stdDeviation="0.21925586"
         id="feGaussianBlur2074" />
    </filter>
    <filter
       inkscape:collect="always"
       style="color-interpolation-filters:sRGB"
       id="filter2276"
       x="-0.0018199262"
       width="1.0036399"
       y="-0.16439971"
       height="1.3287994">
      <feGaussianBlur
         inkscape:collect="always"
         stdDeviation="0.034365705"
         id="feGaussianBlur2278" />
    </filter>
    <filter
       inkscape:collect="always"
       style="color-interpolation-filters:sRGB"
       id="filter2292"
       x="-0.0012117648"
       width="1.0024235"
       y="-0.1235998"
       height="1.2471997">
      <feGaussianBlur
         inkscape:collect="always"
         stdDeviation="0.017224662"
         id="feGaussianBlur2294" />
    </filter>
    <linearGradient
       inkscape:collect="always"
       xlink:href="#linearGradient4832"
       id="linearGradient4834"
       x1="92.143585"
       y1="132.61317"
       x2="136.79391"
       y2="92.645271"
       gradientUnits="userSpaceOnUse"
       gradientTransform="matrix(0.81919882,0,0,0.81919882,39.679301,-5.5919594)" />
    <linearGradient
       inkscape:collect="always"
       xlink:href="#linearGradient4849"
       id="linearGradient4851"
       x1="136.39308"
       y1="8.0393314"
       x2="107.30409"
       y2="48.749924"
       gradientUnits="userSpaceOnUse"
       gradientTransform="matrix(0.81919882,0,0,0.81919882,39.679301,-5.5919594)" />
  </defs>
  <sodipodi:namedview
     id="base"
     pagecolor="#ffffff"
     bordercolor="#666666"
     borderopacity="1.0"
     inkscape:pageopacity="0.0"
     inkscape:pageshadow="2"
     inkscape:zoom="0.39553872"
     inkscape:cx="-111.44866"
     inkscape:cy="407.05542"
     inkscape:document-units="mm"
     inkscape:current-layer="layer12"
     showgrid="false"
     showguides="true"
     inkscape:guide-bbox="true"
     inkscape:window-width="1920"
     inkscape:window-height="1057"
     inkscape:window-x="-8"
     inkscape:window-y="-8"
     inkscape:window-maximized="1"
     inkscape:snap-global="false" />
  <metadata
     id="metadata5">
    <rdf:RDF>
      <cc:Work
         rdf:about="">
        <dc:format>image/svg+xml</dc:format>
        <dc:type
           rdf:resource="http://purl.org/dc/dcmitype/StillImage" />
        <dc:title />
      </cc:Work>
    </rdf:RDF>
  </metadata>
  <g
     inkscape:groupmode="layer"
     id="layer12"
     inkscape:label="GroundShadow"
     style="opacity:0.206"
     transform="translate(-39.817175,-5.9185835)">
    <path
       style="opacity:0.35800003;fill:#000000;fill-opacity:0.7171717;stroke:none;stroke-width:1.36396599;stroke-miterlimit:4;stroke-dasharray:none;stroke-dashoffset:0;stroke-opacity:0.15686275"
       d="m 129.45117,169.42383 c -10.40249,0.17977 -20.90338,-0.57248 -31.203873,1.27406 -7.920353,1.3232 -15.097047,5.56015 -20.927293,10.96783 -4.056747,3.71762 -7.376549,8.13334 -10.617723,12.55469 -8.035898,10.65604 -16.09338,21.44607 -21.862743,33.54237 -5.040305,10.23451 -6.366384,22.26281 -3.617315,33.33881 0.544551,2.06446 1.127597,4.15693 2.166607,6.03409 2.55964,4.47293 6.815419,7.67295 11.295196,10.05685 6.089389,3.35757 13.087955,5.44024 20.088059,4.81983 7.054465,-0.60758 13.584233,-3.54627 20.135856,-6.0028 5.019917,-1.88759 10.004329,-3.91151 14.709919,-6.50071 9.73146,-5.2389 18.704,-11.75642 27.39563,-18.5511 10.79227,-8.51728 21.04228,-17.83104 29.74928,-28.50306 4.87005,-6.6081 6.27178,-15.3251 4.7958,-23.29923 -2.21079,-12.13306 -11.04656,-22.93012 -22.67908,-27.16033 -6.20634,-2.23673 -12.88733,-2.64008 -19.42832,-2.5713 z"
       id="path4853"
       inkscape:connector-curvature="0" />
  </g>
  <g
     inkscape:groupmode="layer"
     id="layer7"
     inkscape:label="Legs"
     style="display:inline"
     transform="translate(-39.817175,-5.9185835)">
    <rect
       style="opacity:1;fill:#7a5c36;fill-opacity:1;stroke:#000000;stroke-width:0.65342295;stroke-miterlimit:4;stroke-dasharray:none;stroke-dashoffset:0;stroke-opacity:1;filter:url(#filter2036)"
       id="rect1260-8"
       width="6.5531902"
       height="93.972656"
       x="95.815781"
       y="82.385559"
       rx="0.74335665"
       ry="0.78958172"
       transform="matrix(0.81422034,0.09017704,-0.09017704,0.81422034,28.05494,23.081461)" />
    <path
       style="opacity:1;fill:#7a5c36;fill-opacity:1;stroke:#000000;stroke-width:0.44734648;stroke-miterlimit:4;stroke-dasharray:none;stroke-dashoffset:0;stroke-opacity:1;filter:url(#filter2040)"
       d="m 78.856881,127.92776 c -0.158089,5.7e-4 -0.315074,-0.0139 -0.473744,-0.007 -0.136115,0.25971 -0.183148,0.60824 -0.217514,0.93151 -2.478984,22.31955 -4.957878,44.63909 -7.437562,66.95854 -0.95689,8.50726 -1.913682,17.01453 -2.870574,25.52179 0.05357,0.23952 0.236433,0.0788 0.316078,-0.0859 0.173592,-0.23499 0.359922,-0.43208 0.5313,-0.67343 0.13505,-0.25889 0.179339,-0.60328 0.220637,-0.92311 0.142874,-1.14468 0.284574,-2.28966 0.419631,-3.43552 0.591877,-5.21424 1.171437,-10.4299 1.750201,-15.64564 2.660783,-23.96097 5.321362,-47.92195 7.982054,-71.88293 0.04027,-0.30048 0.01057,-0.72754 -0.180385,-0.75889 l -0.03539,10e-4 z"
       id="rect1260-4-8"
       inkscape:connector-curvature="0"
       sodipodi:nodetypes="ccccccccccccccc"
       transform="matrix(0.81919878,0,0,0.81919878,39.6793,-5.5919601)" />
    <rect
       style="opacity:1;fill:#7a5c36;fill-opacity:1;stroke:#000000;stroke-width:0.65342295;stroke-miterlimit:4;stroke-dasharray:none;stroke-dashoffset:0;stroke-opacity:1;filter:url(#filter2048)"
       id="rect1260-8-4"
       width="6.5531902"
       height="93.972656"
       x="-136.00696"
       y="108.06052"
       rx="0.74335665"
       ry="0.78958172"
       transform="matrix(-0.81422034,0.09017704,0.09017704,0.81422034,28.05494,23.081461)" />
    <path
       style="opacity:1;fill:#7a5c36;fill-opacity:1;stroke:#000000;stroke-width:0.44734648;stroke-miterlimit:4;stroke-dasharray:none;stroke-dashoffset:0;stroke-opacity:1;filter:url(#filter2044)"
       d="m 126.00349,127.92774 c 0.15809,5.7e-4 0.31507,-0.0139 0.47374,-0.007 0.13612,0.25972 0.18315,0.60825 0.21752,0.93152 2.47898,22.31953 4.95788,44.63907 7.43756,66.95852 0.95689,8.50726 1.91368,17.01453 2.87058,25.52179 -0.0536,0.23952 -0.23644,0.0788 -0.31608,-0.0859 -0.1736,-0.23499 -0.35993,-0.43208 -0.5313,-0.67343 -0.13505,-0.25889 -0.17934,-0.60328 -0.22064,-0.92311 -0.14287,-1.14468 -0.28457,-2.28966 -0.41963,-3.43552 -0.59188,-5.21424 -1.17144,-10.4299 -1.7502,-15.64564 -2.66079,-23.96097 -5.32136,-47.92194 -7.98206,-71.88292 -0.0403,-0.30047 -0.0106,-0.72754 0.18039,-0.75889 l 0.0354,0.001 z"
       id="rect1260-4-8-9"
       inkscape:connector-curvature="0"
       sodipodi:nodetypes="ccccccccccccccc"
       transform="matrix(0.81919878,0,0,0.81919878,39.6793,-5.5919601)" />
    <path
       style="display:inline;opacity:1;fill:#7a5c36;fill-opacity:1;stroke:#000000;stroke-width:0.58765906;stroke-miterlimit:4;stroke-dasharray:none;stroke-dashoffset:0;stroke-opacity:1;filter:url(#filter2072)"
       d="m 136.10766,164.54389 c -0.0926,-0.9807 -0.26564,-1.95183 -0.34064,-2.93448 -0.0585,-0.56812 -0.0799,-1.13995 -0.15076,-1.70664 -0.0372,-0.24061 -0.11599,-0.51811 -0.34953,-0.63035 -0.27983,-0.1504 -0.60507,-0.078 -0.9067,-0.0977 -2.39777,-0.0224 -4.79561,-0.003 -7.19341,-0.003 -6.94162,0.013 -13.88317,0.0434 -20.82477,0.0608 -12.217633,0.0355 -24.435262,0.0711 -36.652894,0.10661 -0.342915,0.18691 -0.536949,0.58207 -0.556415,0.97042 -0.188897,1.93229 -0.398164,3.86237 -0.60364,5.79284 -0.0079,0.2599 0.104163,0.5371 0.330525,0.67089 0.627448,0.13026 1.270189,0.0701 1.90532,0.0798 21.637351,-0.15009 43.274704,-0.30018 64.912064,-0.45026 0.31964,-0.15944 0.47486,-0.54537 0.45761,-0.89591 0.005,-0.32154 0.007,-0.64259 -0.0267,-0.96281 z"
       id="rect1260-3-1"
       inkscape:connector-curvature="0"
       transform="matrix(0.81919878,0,0,0.81919878,39.6793,-5.5919601)" />
    <path
       style="display:inline;opacity:1;fill:#7a5c36;fill-opacity:1;stroke:#000000;stroke-width:0.59961402;stroke-miterlimit:4;stroke-dasharray:none;stroke-dashoffset:0;stroke-opacity:1;filter:url(#filter2068)"
       d="m 127.7958,158.89241 c -2.28279,7.1e-4 -4.56559,0.009 -6.84839,0.0124 -13.35374,0.0277 -26.707473,0.0562 -40.061215,0.0834 -3.913375,0.002 -7.826753,0.004 -11.74013,0.006 -0.05321,0.26009 -0.08427,0.52512 -0.08576,0.79101 -0.0051,0.20932 0.235379,0.28875 0.404047,0.26758 2.669515,-0.0106 5.33903,-0.0208 8.008561,-0.0262 14.791484,-0.0372 29.582967,-0.076 44.374467,-0.1102 4.42171,-0.0105 8.84342,-0.021 13.26512,-0.0316 0.20363,0.0223 0.46742,-0.0431 0.52603,-0.27343 -0.0229,-0.20556 -0.0622,-0.40867 -0.0915,-0.61329 -0.26867,-0.12016 -0.56779,-0.10612 -0.85439,-0.10738 -2.29895,6.4e-4 -4.59791,10e-4 -6.89684,0.002 z"
       id="rect1260-4-9-5"
       inkscape:connector-curvature="0"
       sodipodi:nodetypes="ccccccccccccccc"
       transform="matrix(0.81919878,0,0,0.81919878,39.6793,-5.5919601)" />
    <path
       style="display:inline;opacity:1;fill:#7a5c36;fill-opacity:1;stroke:#000000;stroke-width:0.62924451;stroke-miterlimit:4;stroke-dasharray:none;stroke-dashoffset:0;stroke-opacity:1;filter:url(#filter2064)"
       d="m 140.76409,211.04915 c -0.10616,-0.9807 -0.30457,-1.95183 -0.39055,-2.93448 -0.0671,-0.56812 -0.0916,-1.13995 -0.17286,-1.70664 -0.0426,-0.24061 -0.13299,-0.51811 -0.40074,-0.63035 -0.32084,-0.1504 -0.69374,-0.078 -1.03957,-0.0977 -2.74913,-0.0224 -5.49835,-0.003 -8.24751,-0.003 -7.95883,0.013 -15.91757,0.0434 -23.87637,0.0608 -14.007963,0.0355 -28.015921,0.0711 -42.023887,0.10661 -0.393165,0.18691 -0.615633,0.58207 -0.637951,0.97042 -0.216577,1.93229 -0.45651,3.86237 -0.692095,5.79284 -0.009,0.2599 0.119427,0.5371 0.378959,0.67089 0.719392,0.13026 1.456319,0.0701 2.18452,0.0798 24.808021,-0.15009 49.616034,-0.30018 74.424064,-0.45026 0.36649,-0.15944 0.54445,-0.54537 0.52467,-0.89591 0.006,-0.32154 0.008,-0.64259 -0.0306,-0.96281 z"
       id="rect1260-3-1-4"
       inkscape:connector-curvature="0"
       transform="matrix(0.81919878,0,0,0.81919878,39.6793,-5.5919601)" />
    <path
       style="display:inline;opacity:1;fill:#7a5c36;fill-opacity:1;stroke:#000000;stroke-width:0.64204544;stroke-miterlimit:4;stroke-dasharray:none;stroke-dashoffset:0;stroke-opacity:1;filter:url(#filter2060)"
       d="m 131.23424,205.39767 c -2.61731,7.1e-4 -5.23462,0.009 -7.85193,0.0124 -15.31056,0.0277 -30.621103,0.0562 -45.931659,0.0834 -4.486829,0.002 -8.973661,0.004 -13.460492,0.006 -0.06101,0.26009 -0.09662,0.52512 -0.09833,0.79101 -0.0059,0.20932 0.269871,0.28875 0.463255,0.26758 3.060698,-0.0106 6.121394,-0.0208 9.18211,-0.0262 16.958983,-0.0372 33.917966,-0.076 50.876956,-0.1102 5.06966,-0.0105 10.13931,-0.021 15.20895,-0.0316 0.23348,0.0223 0.53592,-0.0431 0.60312,-0.27343 -0.0262,-0.20556 -0.0713,-0.40867 -0.10492,-0.61329 -0.30803,-0.12016 -0.65099,-0.10612 -0.97958,-0.10738 -2.63583,6.4e-4 -5.27168,0.001 -7.90748,0.002 z"
       id="rect1260-4-9-5-3"
       inkscape:connector-curvature="0"
       sodipodi:nodetypes="ccccccccccccccc"
       transform="matrix(0.81919878,0,0,0.81919878,39.6793,-5.5919601)" />
    <path
       style="display:inline;opacity:1;fill:#7a5c36;fill-opacity:1;stroke:#000000;stroke-width:0.65622538;stroke-miterlimit:4;stroke-dasharray:none;stroke-dashoffset:0;stroke-opacity:1;filter:url(#filter2056)"
       d="m 135.07174,165.73787 c -0.67957,-0.76966 -1.43387,-1.47749 -2.09702,-2.26054 -0.39856,-0.4426 -0.76219,-0.91315 -1.17226,-1.34629 -0.18117,-0.17919 -0.42607,-0.36185 -0.72673,-0.30119 -0.36981,0.0592 -0.65162,0.33761 -0.96497,0.52216 -2.41061,1.58088 -4.79627,3.19725 -7.19347,4.79713 -6.9322,4.6427 -13.85388,9.30009 -20.78341,13.94653 -12.193463,8.18209 -24.386837,16.36427 -36.580285,24.54638 -0.230955,0.38726 -0.188418,0.85175 0.02457,1.19397 0.967741,1.76422 1.913795,3.54015 2.863873,5.3139 0.147718,0.22557 0.425624,0.38584 0.732014,0.34823 0.705266,-0.30824 1.311845,-0.78808 1.95263,-1.20364 21.542325,-14.5644 43.084648,-29.12877 64.627008,-43.69317 0.22412,-0.34846 0.1483,-0.7792 -0.0789,-1.06488 -0.18722,-0.2761 -0.37764,-0.54944 -0.60298,-0.79845 z"
       id="rect1260-3-1-4-2"
       inkscape:connector-curvature="0"
       transform="matrix(0.81919878,0,0,0.81919878,39.6793,-5.5919601)" />
    <path
       style="display:inline;opacity:1;fill:#7a5c36;fill-opacity:1;stroke:#000000;stroke-width:0.66208816;stroke-miterlimit:4;stroke-dasharray:none;stroke-dashoffset:0;stroke-opacity:1;filter:url(#filter2052)"
       d="m 70.331545,164.34138 c 0.710085,-0.75351 1.494117,-1.44281 2.187937,-2.21024 0.416209,-0.43309 0.797821,-0.89525 1.225419,-1.31851 0.188574,-0.17478 0.44179,-0.35123 0.744628,-0.28176 0.372921,0.07 0.650524,0.35756 0.962721,0.55179 2.397188,1.65607 4.768105,3.34706 7.151173,5.02181 6.890874,4.85931 13.770694,9.73306 20.658767,14.59604 12.12033,8.56315 24.24059,17.12638 36.36091,25.68955 0.22301,0.39545 0.16682,0.86066 -0.0586,1.19824 -1.03005,1.74399 -2.03845,3.50038 -3.05087,5.25446 -0.156,0.22229 -0.44202,0.37532 -0.75131,0.32883 -0.70569,-0.32959 -1.30658,-0.8287 -1.94393,-1.26422 -21.41006,-15.23807 -42.820113,-30.47611 -64.230204,-45.71419 -0.217198,-0.35629 -0.128244,-0.78666 0.110016,-1.06706 0.197436,-0.27191 0.398033,-0.54097 0.633299,-0.7846 z"
       id="rect1260-3-1-4-2-0"
       inkscape:connector-curvature="0"
       transform="matrix(0.81919878,0,0,0.81919878,39.6793,-5.5919601)" />
  </g>
  <g
     inkscape:groupmode="layer"
     id="layer8"
     inkscape:label="FrontLegs"
     style="display:inline"
     transform="translate(-39.817175,-5.9185835)">
    <rect
       style="opacity:1;fill:#b88d53;fill-opacity:1;stroke:#000000;stroke-width:0.60889965;stroke-miterlimit:4;stroke-dasharray:none;stroke-dashoffset:0;stroke-opacity:1"
       id="rect1260-6"
       width="5.3508573"
       height="99.938698"
       x="108.21927"
       y="105.44926"
       rx="0.60697085"
       ry="0.8397097"
       transform="matrix(0.99317376,0.11664425,-0.17144984,0.98519285,0,0)" />
    <path
       style="opacity:1;fill:#b88d53;fill-opacity:1;stroke:#000000;stroke-width:0.41654521;stroke-miterlimit:4;stroke-dasharray:none;stroke-dashoffset:0;stroke-opacity:1"
       d="m 95.041316,116.88809 c -0.130613,0.004 -0.259013,-0.007 -0.39068,0.002 -0.136336,0.27601 -0.207239,0.64359 -0.265355,0.98434 -4.100326,23.52819 -8.200568,47.05637 -12.301459,70.58449 -1.572789,8.9682 -3.145496,17.93642 -4.718284,26.90461 0.02222,0.25082 0.188076,0.078 0.26901,-0.0969 0.165014,-0.25076 0.337063,-0.46193 0.500841,-0.71934 0.135363,-0.27511 0.203625,-0.63827 0.267144,-0.97554 0.223292,-1.207 0.445639,-2.41429 0.662578,-3.62236 0.968436,-5.49686 1.926825,-10.99497 2.884566,-16.49316 4.401444,-25.25847 8.802726,-50.51698 13.204089,-75.7755 0.06094,-0.31689 0.07562,-0.76547 -0.07922,-0.79449 l -0.0294,0.002 z"
       id="rect1260-4-44"
       inkscape:connector-curvature="0"
       sodipodi:nodetypes="ccccccccccccccc" />
    <rect
       style="opacity:1;fill:#b88d53;fill-opacity:1;stroke:#000000;stroke-width:0.60889965;stroke-miterlimit:4;stroke-dasharray:none;stroke-dashoffset:0;stroke-opacity:1"
       id="rect1260-6-3"
       width="5.3508573"
       height="99.938698"
       x="-135.54904"
       y="135.16371"
       rx="0.60697085"
       ry="0.8397097"
       transform="matrix(-0.99317376,0.11664425,0.17144984,0.98519285,0,0)" />
    <path
       style="opacity:1;fill:#b88d53;fill-opacity:1;stroke:#000000;stroke-width:0.41654521;stroke-miterlimit:4;stroke-dasharray:none;stroke-dashoffset:0;stroke-opacity:1"
       d="m 152.15752,117.7284 c 0.13063,0.004 0.25902,-0.007 0.3907,0.002 0.13633,0.276 0.20723,0.64359 0.26534,0.98434 4.10032,23.52817 8.20057,47.05636 12.30147,70.58448 1.57279,8.96821 3.14548,17.93642 4.71827,26.90461 -0.0222,0.25081 -0.18806,0.078 -0.269,-0.0969 -0.16502,-0.25076 -0.33707,-0.46193 -0.50085,-0.71934 -0.13535,-0.27511 -0.20363,-0.63826 -0.26715,-0.97554 -0.22329,-1.207 -0.44562,-2.41428 -0.66257,-3.62235 -0.96843,-5.49688 -1.92682,-10.99497 -2.88457,-16.49316 -4.40143,-25.25849 -8.80271,-50.51699 -13.20408,-75.77551 -0.0609,-0.31688 -0.0757,-0.76546 0.0792,-0.79449 l 0.0293,0.002 z"
       id="rect1260-4-44-0"
       inkscape:connector-curvature="0"
       sodipodi:nodetypes="ccccccccccccccc" />
    <path
       style="display:inline;opacity:1;fill:#b88d53;fill-opacity:1;stroke:#000000;stroke-width:0.58748007;stroke-miterlimit:4;stroke-dasharray:none;stroke-dashoffset:0;stroke-opacity:1"
       d="m 159.6232,131.00373 c -0.0982,-0.92457 -0.28158,-1.84009 -0.36111,-2.76649 -0.062,-0.5356 -0.0847,-1.07468 -0.15981,-1.60893 -0.0395,-0.22683 -0.12296,-0.48845 -0.37054,-0.59427 -0.29663,-0.14179 -0.64142,-0.0736 -0.96116,-0.0921 -2.54183,-0.0211 -5.08374,-0.003 -7.62559,-0.003 -7.3587,0.0122 -14.7173,0.0409 -22.07595,0.0573 -12.95167,0.0335 -25.90335,0.067 -38.855037,0.10055 -0.363512,0.17621 -0.5692,0.54874 -0.589839,0.91486 -0.20025,1.82166 -0.422082,3.64124 -0.639908,5.46121 -0.0084,0.24501 0.110419,0.50634 0.350379,0.63247 0.665148,0.1228 1.346504,0.0661 2.019792,0.0751 22.937363,-0.14151 45.874673,-0.28301 68.812023,-0.4245 0.33886,-0.15031 0.5034,-0.51414 0.48513,-0.84461 0.006,-0.30314 0.007,-0.60582 -0.0283,-0.90768 z"
       id="rect1260-3-1-5"
       inkscape:connector-curvature="0" />
    <path
       style="display:inline;opacity:1;fill:#74582f;fill-opacity:1;stroke:#000000;stroke-width:0.59943134;stroke-miterlimit:4;stroke-dasharray:none;stroke-dashoffset:0;stroke-opacity:1"
       d="m 150.81194,125.67579 c -2.41992,6.7e-4 -4.83987,0.007 -7.25982,0.0118 -14.15604,0.0261 -28.31207,0.053 -42.46813,0.0787 -4.148496,0.002 -8.296994,0.005 -12.445494,0.006 -0.0564,0.2452 -0.08936,0.49507 -0.09095,0.74574 -0.0053,0.19732 0.249522,0.2722 0.428326,0.25226 2.829907,-0.0104 5.659803,-0.0196 8.489721,-0.0247 15.680187,-0.0351 31.360327,-0.0716 47.040517,-0.10388 4.68738,-0.009 9.37474,-0.0198 14.0621,-0.0299 0.21586,0.021 0.49551,-0.0406 0.55764,-0.25777 -0.0243,-0.19379 -0.0659,-0.38527 -0.097,-0.57817 -0.2848,-0.1133 -0.60191,-0.10003 -0.90572,-0.10128 -2.43707,6.2e-4 -4.87416,6.9e-4 -7.3112,0.002 z"
       id="rect1260-4-9-5-5"
       inkscape:connector-curvature="0"
       sodipodi:nodetypes="ccccccccccccccc" />
    <path
       style="display:inline;opacity:1;fill:#b88d53;fill-opacity:1;stroke:#000000;stroke-width:0.73469865;stroke-miterlimit:4;stroke-dasharray:none;stroke-dashoffset:0;stroke-opacity:1"
       d="m 170.34609,200.63379 c -0.12868,-1.10288 -0.36919,-2.19498 -0.47343,-3.30004 -0.0813,-0.63891 -0.11103,-1.28196 -0.20954,-1.91923 -0.0516,-0.2706 -0.16123,-0.58267 -0.48581,-0.70889 -0.38893,-0.16913 -0.84099,-0.0876 -1.26022,-0.10986 -3.33263,-0.0252 -6.66537,-0.004 -9.99802,-0.004 -9.64809,0.0147 -19.29607,0.0489 -28.94412,0.0683 -16.98113,0.0401 -33.962273,0.08 -50.94342,0.11989 -0.476614,0.2102 -0.7463,0.65459 -0.773355,1.09132 -0.262545,2.17299 -0.553403,4.34349 -0.838992,6.51447 -0.01091,0.29227 0.144776,0.60399 0.459393,0.75445 0.872081,0.14651 1.765421,0.0788 2.648182,0.0897 30.073492,-0.16878 60.146992,-0.33757 90.220512,-0.50635 0.44426,-0.17929 0.66,-0.61331 0.63602,-1.00752 0.006,-0.36158 0.009,-0.72263 -0.0372,-1.08275 z"
       id="rect1260-3-1-4-7"
       inkscape:connector-curvature="0" />
    <path
       style="display:inline;opacity:1;fill:#906c3c;fill-opacity:1;stroke:#000000;stroke-width:0.74964482;stroke-miterlimit:4;stroke-dasharray:none;stroke-dashoffset:0;stroke-opacity:1"
       d="m 158.79355,194.27828 c -3.17283,8.1e-4 -6.34566,0.0104 -9.51849,0.014 -18.56022,0.0311 -37.12042,0.0632 -55.680618,0.0938 -5.439155,0.003 -10.878309,0.005 -16.317468,0.006 -0.07396,0.2925 -0.117128,0.59055 -0.119202,0.88956 -0.0072,0.23539 0.327151,0.32473 0.561582,0.3009 3.710328,-0.012 7.420658,-0.0233 11.131,-0.0295 20.558516,-0.0418 41.117016,-0.0855 61.675546,-0.12394 6.14569,-0.0119 12.29137,-0.0236 18.43703,-0.0355 0.28306,0.0251 0.64968,-0.0484 0.73115,-0.30749 -0.0319,-0.23117 -0.0864,-0.45957 -0.12721,-0.68968 -0.37342,-0.13514 -0.78915,-0.11935 -1.18747,-0.12075 -3.19529,5.7e-4 -6.3906,8.1e-4 -9.58585,0.003 z"
       id="rect1260-4-9-5-3-7"
       inkscape:connector-curvature="0"
       sodipodi:nodetypes="ccccccccccccccc" />
    <path
       style="display:inline;opacity:1;fill:#b88d53;fill-opacity:1;stroke:#000000;stroke-width:0.83061737;stroke-miterlimit:4;stroke-dasharray:none;stroke-dashoffset:0;stroke-opacity:1"
       d="m 153.48675,126.8045 c -1.30387,1.06992 -2.36814,2.3896 -3.5695,3.56668 -5.83146,6.11063 -11.86992,12.01866 -17.88949,17.94257 -4.70128,4.54747 -9.54839,8.941 -14.25947,13.47828 -4.51024,4.30218 -9.02034,8.60505 -13.60913,12.82371 -5.275347,4.88909 -10.485629,9.8479 -15.763711,14.73401 -2.590404,2.39234 -5.211885,4.75145 -7.833387,7.10906 -0.524531,0.53767 -0.447287,1.40931 -0.04518,1.99308 0.42194,0.60842 0.960301,1.12617 1.388565,1.73136 0.613831,0.77986 1.236011,1.6074 2.106013,2.11329 0.769492,0.23375 1.499338,-0.28221 2.028144,-0.78846 4.708542,-3.78917 8.96953,-8.08624 13.38848,-12.19925 6.471936,-6.08716 13.004106,-12.11242 19.340476,-18.34172 3.40412,-3.36282 6.7576,-6.77787 10.24605,-10.05425 2.5969,-2.45267 5.22295,-4.87434 7.80292,-7.34498 3.92352,-3.7385 7.83663,-7.48889 11.68294,-11.30684 3.45356,-3.52765 6.9071,-7.05529 10.36067,-10.58293 -0.23594,-1.34661 -1.27442,-2.37167 -2.37435,-3.09266 -0.8879,-0.73496 -1.77276,-1.63162 -2.96964,-1.79374 z"
       id="rect1260-3-1-4-2-5"
       inkscape:connector-curvature="0" />
    <path
       style="display:inline;opacity:1;fill:#b88d53;fill-opacity:1;stroke:#000000;stroke-width:0.83061737;stroke-miterlimit:4;stroke-dasharray:none;stroke-dashoffset:0;stroke-opacity:1"
       d="m 94.46487,126.71438 c 1.30387,1.06992 2.36814,2.38961 3.569503,3.56668 5.831447,6.11063 11.869927,12.01867 17.889487,17.94257 4.7013,4.54748 9.54841,8.94102 14.25948,13.47829 4.51024,4.30219 9.02033,8.60505 13.60912,12.8237 5.27535,4.88909 10.48563,9.84792 15.76373,14.734 2.59038,2.39236 5.21187,4.75146 7.83336,7.10907 0.52454,0.53765 0.44731,1.40931 0.0453,1.99309 -0.42193,0.60842 -0.96029,1.12617 -1.38855,1.73135 -0.61383,0.77988 -1.23602,1.60739 -2.10602,2.1133 -0.76949,0.23375 -1.49934,-0.28222 -2.02813,-0.78846 -4.70854,-3.78918 -8.96954,-8.08624 -13.3885,-12.19926 -6.47193,-6.08715 -13.00411,-12.11242 -19.34047,-18.34172 -3.40412,-3.36282 -6.75759,-6.77787 -10.24605,-10.05423 -2.59691,-2.45269 -5.22294,-4.87436 -7.80293,-7.345 -3.92352,-3.73849 -7.83663,-7.48889 -11.682935,-11.30684 -3.453562,-3.52765 -6.907116,-7.05529 -10.360678,-10.58294 0.235946,-1.3466 1.274428,-2.37166 2.374351,-3.09266 0.887896,-0.73496 1.772762,-1.6316 2.969644,-1.79373 z"
       id="rect1260-3-1-4-2-5-1"
       inkscape:connector-curvature="0" />
  </g>
  <g
     inkscape:groupmode="layer"
     id="layer6"
     inkscape:label="Planka5"
     style="display:inline"
     transform="translate(-39.817175,-5.9185835)">
    <path
       style="fill:#d4a364;fill-opacity:1;stroke:#000000;stroke-width:0.4917191;stroke-linecap:butt;stroke-linejoin:miter;stroke-miterlimit:4;stroke-dasharray:none;stroke-opacity:1"
       d="m 91.492379,88.561802 1.720776,-4.086583 h 62.165975 l 1.35352,4.075435 z"
       id="path831"
       inkscape:connector-curvature="0"
       sodipodi:nodetypes="ccccc" />
    <path
       inkscape:connector-curvature="0"
       style="opacity:1;fill:#b5884b;fill-opacity:1;stroke:#000000;stroke-width:0.43721634;stroke-miterlimit:4;stroke-dasharray:none;stroke-dashoffset:0;stroke-opacity:1"
       d="m 154.52553,88.531782 c -17.84761,0.0052 -35.69523,0.0083 -53.54286,0.01426 -3.153491,0.0062 -6.30698,0.01082 -9.460472,0.01624 -0.182151,0.03133 -0.303348,0.213384 -0.323515,0.392148 -0.0094,0.220171 -0.01178,0.442455 -0.0212,0.663428 -0.02454,0.152783 0.0041,0.334129 0.150483,0.413508 0.171835,0.108815 0.376987,0.03799 0.565335,0.05267 1.025624,-0.01343 2.051402,-0.0042 3.077089,-0.0073 6.1297,-0.0052 12.25939,-0.0083 18.38908,-0.0073 14.32023,-0.0021 28.64048,-0.0031 42.96069,-0.0042 0.21999,-0.0062 0.43215,-0.131101 0.54991,-0.321024 0.0377,-0.24331 0.018,-0.490336 0.0315,-0.735312 -0.0359,-0.234057 -0.23325,-0.426561 -0.46236,-0.455664 -0.63732,-0.03091 -1.27565,-0.02113 -1.91355,-0.02124 z"
       id="rect1193-6-5" />
    <rect
       style="opacity:1;fill:#b5884b;fill-opacity:1;stroke:#000000;stroke-width:0.47467321;stroke-miterlimit:4;stroke-dasharray:none;stroke-dashoffset:0;stroke-opacity:1"
       id="rect1260-3"
       width="5.3666759"
       height="60.554939"
       x="94.516937"
       y="25.631641"
       rx="0.60876524"
       ry="0.50879765" />
    <path
       style="opacity:1;fill:#b5884b;fill-opacity:1;stroke:#000000;stroke-width:0.32497081;stroke-miterlimit:4;stroke-dasharray:none;stroke-dashoffset:0;stroke-opacity:1"
       d="m 100.16337,25.459677 c -0.12867,0.01126 -0.25771,0.01345 -0.386259,0.02894 -0.08738,0.175995 -0.09425,0.402556 -0.09308,0.612042 -0.0057,14.470893 -0.01138,28.941779 -0.0177,43.412678 -0.01196,5.516555 -0.02384,11.033102 -0.03579,16.549632 0.06519,0.149608 0.199552,0.03373 0.249531,-0.07744 0.120118,-0.162818 0.254018,-0.302267 0.371758,-0.469009 0.0866,-0.175391 0.0916,-0.399102 0.0964,-0.606865 0.0131,-0.743286 0.0252,-1.486655 0.0319,-2.230128 0.0117,-3.381571 0.0133,-6.763166 0.0142,-10.144764 0.006,-15.535087 0.0113,-31.070165 0.0169,-46.605246 0.006,-0.195307 -0.057,-0.466714 -0.21524,-0.47325 l -0.0288,0.0031 z"
       id="rect1260-4-9"
       inkscape:connector-curvature="0"
       sodipodi:nodetypes="ccccccccccccccc" />
    <rect
       style="opacity:1;fill:#b5884b;fill-opacity:1;stroke:#000000;stroke-width:0.47617063;stroke-miterlimit:4;stroke-dasharray:none;stroke-dashoffset:0;stroke-opacity:1"
       id="rect1260-46-1"
       width="5.3666759"
       height="60.937588"
       x="148.44069"
       y="25.292707"
       rx="0.60876524"
       ry="0.51201284" />
    <path
       style="opacity:1;fill:#b5884b;fill-opacity:1;stroke:#000000;stroke-width:0.32599598;stroke-miterlimit:4;stroke-dasharray:none;stroke-dashoffset:0;stroke-opacity:1"
       d="m 148.01901,25.170592 c 0.12867,0.01136 0.25772,0.01353 0.38626,0.02914 0.0874,0.177105 0.0942,0.4051 0.0931,0.615906 0.006,14.562339 0.0113,29.124671 0.0177,43.687016 0.012,5.551407 0.0238,11.102806 0.0358,16.654216 -0.0652,0.150546 -0.19955,0.03393 -0.24953,-0.07786 -0.12012,-0.163848 -0.25402,-0.304172 -0.37176,-0.471975 -0.0866,-0.176495 -0.0916,-0.401621 -0.0964,-0.610696 -0.0131,-0.74798 -0.0253,-1.496054 -0.0317,-2.244222 -0.0118,-3.402951 -0.0132,-6.805886 -0.0142,-10.208868 -0.006,-15.633249 -0.0112,-31.2665 -0.0169,-46.899752 -0.006,-0.196539 0.057,-0.469661 0.21523,-0.47624 l 0.0287,0.0031 z"
       id="rect1260-4-4-7"
       inkscape:connector-curvature="0"
       sodipodi:nodetypes="ccccccccccccccc" />
  </g>
  <g
     inkscape:groupmode="layer"
     id="layer5"
     inkscape:label="Planka4"
     transform="translate(-39.817175,-5.9185835)">
    <path
       style="fill:#d4a364;fill-opacity:1;stroke:#000000;stroke-width:0.52006662;stroke-linecap:butt;stroke-linejoin:miter;stroke-miterlimit:4;stroke-dasharray:none;stroke-opacity:1"
       d="m 158.87812,95.199883 -1.75823,-5.392228 H 91.100466 l -2.034018,5.392228 z"
       id="path829"
       inkscape:connector-curvature="0" />
    <path
       inkscape:connector-curvature="0"
       style="opacity:1;fill:#b5884b;fill-opacity:1;stroke:#000000;stroke-width:0.42252308;stroke-miterlimit:4;stroke-dasharray:none;stroke-dashoffset:0;stroke-opacity:1"
       d="m 156.86955,95.212218 c -19.07521,0.0052 -38.15044,0.0073 -57.225683,0.01259 -3.370395,0.0052 -6.740791,0.0094 -10.111187,0.01416 -0.194679,0.02727 -0.324212,0.186435 -0.345767,0.342643 -0.01,0.19241 -0.01264,0.386632 -0.02269,0.579719 -0.02625,0.133495 0.0043,0.291972 0.160835,0.361327 0.183654,0.09514 0.402916,0.033 0.604217,0.04611 1.096172,-0.01187 2.192503,-0.0042 3.288743,-0.0062 6.551312,-0.0052 13.102622,-0.0073 19.653942,-0.0073 15.30525,-0.0021 30.61047,-0.0021 45.91566,-0.0042 0.23513,-0.0062 0.46188,-0.114541 0.58772,-0.280512 0.0401,-0.212604 0.0194,-0.428476 0.0335,-0.642516 -0.038,-0.204527 -0.2493,-0.372726 -0.49416,-0.398176 -0.68112,-0.02706 -1.36342,-0.01842 -2.04515,-0.01853 z"
       id="rect1193-6-6" />
  </g>
  <g
     inkscape:groupmode="layer"
     id="layer4"
     inkscape:label="Planka3"
     style="display:inline"
     transform="translate(-39.817175,-5.9185835)">
    <path
       style="fill:#d4a364;fill-opacity:1;stroke:#000000;stroke-width:0.52788281;stroke-linecap:butt;stroke-linejoin:miter;stroke-miterlimit:4;stroke-dasharray:none;stroke-opacity:1"
       d="m 161.23512,101.93588 -1.70013,-5.535975 H 89.319941 l -1.967281,5.535975 z"
       id="path827"
       inkscape:connector-curvature="0" />
    <path
       inkscape:connector-curvature="0"
       style="opacity:1;fill:#b5884b;fill-opacity:1;stroke:#000000;stroke-width:0.4605287;stroke-miterlimit:4;stroke-dasharray:none;stroke-dashoffset:0;stroke-opacity:1"
       d="m 158.78816,101.90585 c -20.17052,0.005 -40.34106,0.007 -60.511601,0.014 -3.563923,0.005 -7.127847,0.0106 -10.691772,0.0159 -0.205856,0.0308 -0.342829,0.20947 -0.365623,0.38496 -0.01047,0.21617 -0.01337,0.43437 -0.024,0.65131 -0.02776,0.14998 0.0046,0.32801 0.170069,0.40594 0.194202,0.10681 0.426054,0.0372 0.638912,0.0517 1.159114,-0.0131 2.318397,-0.004 3.477583,-0.007 6.927492,-0.005 13.854982,-0.007 20.782482,-0.007 16.18409,-0.002 32.36811,-0.003 48.55215,-0.004 0.24861,-0.006 0.48838,-0.12871 0.62148,-0.31516 0.0425,-0.23886 0.0204,-0.48138 0.0354,-0.72187 -0.0404,-0.22977 -0.2636,-0.41874 -0.52255,-0.44732 -0.72024,-0.0304 -1.44171,-0.0207 -2.1626,-0.0209 z"
       id="rect1193-6-4" />
  </g>
  <g
     inkscape:groupmode="layer"
     id="layer3"
     inkscape:label="Planka2"
     transform="translate(-39.817175,-5.9185835)">
    <path
       style="fill:#d4a364;fill-opacity:1;stroke:#000000;stroke-width:0.50297254;stroke-linecap:butt;stroke-linejoin:miter;stroke-miterlimit:4;stroke-dasharray:none;stroke-opacity:1"
       d="m 84.422838,109.4618 2.635505,-6.3144 h 74.500477 l 2.2221,6.3144 z"
       id="path825"
       inkscape:connector-curvature="0" />
  </g>
  <g
     inkscape:groupmode="layer"
     id="layer2"
     inkscape:label="Planka1"
     style="display:inline"
     transform="translate(-39.817175,-5.9185835)">
    <path
       style="fill:#d4a364;fill-opacity:1;stroke:#000000;stroke-width:0.54650837;stroke-linecap:butt;stroke-linejoin:miter;stroke-miterlimit:4;stroke-dasharray:none;stroke-opacity:1"
       d="m 81.243393,118.7641 2.849698,-8.14652 h 80.135369 l 2.22911,8.14652 z"
       id="path823"
       inkscape:connector-curvature="0" />
    <path
       style="opacity:1;fill:#b88d53;fill-opacity:1;stroke:#000000;stroke-width:0.62220007;stroke-miterlimit:4;stroke-dasharray:none;stroke-dashoffset:0;stroke-opacity:1;filter:url(#filter1608)"
       d="m 151.00288,151.80442 c -28.29057,0.006 -56.581143,0.011 -84.871728,0.0183 -4.99865,0.007 -9.997301,0.0138 -14.995952,0.0208 -0.288729,0.04 -0.480842,0.27262 -0.512809,0.50101 -0.01476,0.28132 -0.01874,0.5653 -0.03364,0.84763 -0.03893,0.19519 0.0064,0.42689 0.238532,0.52832 0.272382,0.13901 0.59757,0.0484 0.89612,0.0673 1.625737,-0.0172 3.251713,-0.005 4.87755,-0.01 9.716287,-0.006 19.432575,-0.011 29.148867,-0.0105 22.69927,-0.002 45.39851,-0.003 68.09776,-0.004 0.34869,-0.008 0.68498,-0.1675 0.87165,-0.41016 0.0595,-0.31085 0.0286,-0.62648 0.0497,-0.93945 -0.0565,-0.29905 -0.36976,-0.54499 -0.73291,-0.58217 -1.01019,-0.0396 -2.02209,-0.027 -3.03318,-0.0272 z"
       id="rect1193"
       inkscape:connector-curvature="0"
       transform="matrix(0.81919878,0,0,0.81919878,39.6793,-5.5919601)" />
  </g>
  <g
     inkscape:groupmode="layer"
     id="layer10"
     inkscape:label="Shadow"
     transform="translate(-39.817175,-5.9185835)">
    <path
       style="display:inline;opacity:0.28600003;fill:url(#linearGradient4834);fill-opacity:1;stroke:none;stroke-width:1.36396599;stroke-miterlimit:4;stroke-dasharray:none;stroke-dashoffset:0;stroke-opacity:1"
       d="m 152.03432,84.107105 c -7.57154,0.501006 -15.16106,0.155364 -22.74062,0.137836 -10.17627,-0.07245 -20.35336,-0.0031 -30.527894,0.198093 -1.181334,0.03081 -2.36436,0.03102 -3.544582,0.08379 -0.678725,0.07775 -1.292758,0.427893 -1.854004,0.797943 -1.283151,0.905541 -2.171112,2.338662 -2.429015,3.885939 -2.52978,8.389853 -5.011947,16.806004 -8.144054,24.996234 -0.324044,0.94395 -0.693366,1.89338 -0.779387,2.89492 0.06152,1.00448 1.017919,1.86406 2.027231,1.79148 1.255596,0.0701 2.504452,-0.13554 3.758636,-0.15576 5.069803,-0.28925 10.139933,-0.7389 15.222589,-0.64097 7.17068,0.20364 14.31184,1.24517 21.4956,0.9818 4.51183,-0.1466 9.0068,-0.58939 13.51307,-0.83785 4.45791,-0.26247 8.94226,-0.33714 13.38912,0.13714 3.783,0.3279 7.57076,0.64071 11.36813,0.73104 0.79092,0.0166 1.64735,-0.0627 2.28215,-0.58602 0.91064,-0.66917 1.37531,-1.93388 0.99415,-3.01744 -0.39265,-1.69618 -1.47232,-3.10537 -2.1936,-4.6632 -2.27522,-4.48925 -3.77269,-9.32423 -4.98356,-14.195349 -0.86029,-3.246098 -1.69677,-6.501547 -2.33235,-9.800356 -0.49494,-1.501144 -1.98455,-2.511847 -3.51775,-2.694202 -0.3325,-0.04653 -0.66875,-0.04913 -1.00386,-0.04497 z"
       id="path4825"
       inkscape:connector-curvature="0" />
  </g>
  <g
     inkscape:label="Layer 1"
     inkscape:groupmode="layer"
     id="layer1"
     style="display:inline"
     transform="translate(-39.817175,-5.9185835)">
    <path
       inkscape:connector-curvature="0"
       style="opacity:1;fill:#b5884b;fill-opacity:1;stroke:#000000;stroke-width:0.48983657;stroke-miterlimit:4;stroke-dasharray:none;stroke-dashoffset:0;stroke-opacity:1"
       d="m 161.02048,109.35807 c -21.56187,0.005 -43.12377,0.008 -64.685651,0.0149 -3.809762,0.006 -7.619525,0.0111 -11.429288,0.0168 -0.220058,0.0326 -0.366478,0.22168 -0.390841,0.40742 -0.01125,0.22878 -0.01428,0.4597 -0.02564,0.68929 -0.02967,0.15873 0.005,0.34715 0.181801,0.42963 0.207597,0.11305 0.455442,0.0393 0.682984,0.0549 1.23907,-0.014 2.478321,-0.005 3.717465,-0.007 7.405347,-0.005 14.8107,-0.008 22.21606,-0.007 17.30043,-0.002 34.60083,-0.003 51.90126,-0.004 0.26574,-0.006 0.52204,-0.13622 0.66432,-0.33355 0.0453,-0.25278 0.0217,-0.50944 0.0379,-0.76396 -0.0431,-0.24318 -0.28182,-0.44317 -0.55858,-0.47342 -0.76994,-0.0322 -1.54116,-0.0219 -2.31178,-0.0221 z"
       id="rect1193-6" />
    <rect
       style="opacity:1;fill:#b5884b;fill-opacity:1;stroke:#000000;stroke-width:0.56374127;stroke-miterlimit:4;stroke-dasharray:none;stroke-dashoffset:0;stroke-opacity:1"
       id="rect1260"
       width="5.3666759"
       height="85.41217"
       x="84.045547"
       y="31.068216"
       rx="0.60876524"
       ry="0.71765435" />
    <path
       style="opacity:1;fill:#b5884b;fill-opacity:1;stroke:#000000;stroke-width:0.3859486;stroke-miterlimit:4;stroke-dasharray:none;stroke-dashoffset:0;stroke-opacity:1"
       d="m 89.691985,30.825663 c -0.128677,0.01589 -0.25771,0.01898 -0.386265,0.04081 -0.08738,0.248237 -0.09425,0.567802 -0.09308,0.863275 -0.0058,20.411062 -0.01138,40.822131 -0.01772,61.233185 -0.01194,7.781027 -0.02386,15.562087 -0.0358,23.343127 0.06516,0.21101 0.199553,0.0476 0.24953,-0.10923 0.120113,-0.22966 0.254011,-0.42635 0.371754,-0.66154 0.08658,-0.24738 0.09159,-0.56292 0.09638,-0.85599 0.01308,-1.04838 0.02521,-2.09691 0.03189,-3.14557 0.01169,-4.76967 0.01329,-9.53937 0.01417,-14.309103 0.0058,-21.912078 0.01127,-43.824173 0.01696,-65.736261 0.0054,-0.27548 -0.05703,-0.658294 -0.21524,-0.667516 l -0.02874,0.0042 z"
       id="rect1260-4"
       inkscape:connector-curvature="0"
       sodipodi:nodetypes="ccccccccccccccc" />
    <rect
       style="opacity:1;fill:#b5884b;fill-opacity:1;stroke:#000000;stroke-width:0.56374127;stroke-miterlimit:4;stroke-dasharray:none;stroke-dashoffset:0;stroke-opacity:1"
       id="rect1260-46"
       width="5.3666759"
       height="85.41217"
       x="158.95872"
       y="31.051058"
       rx="0.60876524"
       ry="0.71765441" />
    <path
       style="opacity:1;fill:#b5884b;fill-opacity:1;stroke:#000000;stroke-width:0.3859486;stroke-miterlimit:4;stroke-dasharray:none;stroke-dashoffset:0;stroke-opacity:1"
       d="m 158.53704,30.879885 c 0.12869,0.01589 0.25772,0.01897 0.38627,0.04081 0.0874,0.248239 0.0942,0.567804 0.0931,0.863276 0.006,20.411061 0.0113,40.822132 0.0177,61.233172 0.012,7.781067 0.0238,15.562087 0.0358,23.343137 -0.0652,0.211 -0.19955,0.0476 -0.24953,-0.10923 -0.12012,-0.22965 -0.25401,-0.42634 -0.37176,-0.66153 -0.0865,-0.24738 -0.0916,-0.56293 -0.0964,-0.85599 -0.0131,-1.04838 -0.0253,-2.09691 -0.0318,-3.14558 -0.0118,-4.76967 -0.0132,-9.53937 -0.0142,-14.309103 -0.006,-21.912082 -0.0112,-43.824169 -0.0169,-65.736258 -0.006,-0.275479 0.0569,-0.658293 0.21523,-0.667515 l 0.0287,0.0042 z"
       id="rect1260-4-4"
       inkscape:connector-curvature="0"
       sodipodi:nodetypes="ccccccccccccccc" />
  </g>
  <g
     inkscape:groupmode="layer"
     id="layer9"
     inkscape:label="Roof"
     transform="translate(-39.817175,-5.9185835)">
    <path
       style="display:inline;fill:#886838;fill-opacity:1;stroke:#000000;stroke-width:0.65535903;stroke-linecap:butt;stroke-linejoin:miter;stroke-miterlimit:4;stroke-dasharray:none;stroke-opacity:1"
       d="M 88.38765,6.2526863 C 84.538591,18.752933 80.689528,31.253181 76.840467,43.753431 c 31.212763,0.05119 62.425503,0.102404 93.638253,0.153598 -3.59199,-12.553581 -7.18397,-25.107163 -10.77597,-37.6607432 -23.7717,0.00219 -47.54339,0.00427 -71.3151,0.00645 z"
       id="path2076"
       inkscape:connector-curvature="0" />
    <path
       style="fill:none;stroke:#000000;stroke-width:0.565;stroke-linecap:butt;stroke-linejoin:miter;stroke-miterlimit:4;stroke-dasharray:none;stroke-opacity:1;filter:url(#filter2292)"
       d="m 56.381033,50.386921 c 34.114864,-0.33446 34.114864,-0.33446 34.114864,-0.33446"
       id="path2080"
       inkscape:connector-curvature="0"
       transform="matrix(0.81919878,0,0,0.81919878,39.6793,-5.5919601)" />
    <path
       style="fill:none;stroke:#000000;stroke-width:0.46284732;stroke-linecap:butt;stroke-linejoin:miter;stroke-miterlimit:4;stroke-dasharray:none;stroke-opacity:1"
       d="m 157.10366,26.917303 c -35.61856,0 -35.61856,0 -35.61856,0"
       id="path2082"
       inkscape:connector-curvature="0" />
    <path
       style="fill:none;stroke:#000000;stroke-width:0.565;stroke-linecap:butt;stroke-linejoin:miter;stroke-miterlimit:4;stroke-dasharray:none;stroke-opacity:1;filter:url(#filter2276)"
       d="m 104.87766,50.72138 c 45.31925,0.50169 45.31925,0.50169 45.31925,0.50169"
       id="path2084"
       inkscape:connector-curvature="0"
       transform="matrix(0.81919878,0,0,0.81919878,39.6793,-5.5919601)" />
    <path
       style="fill:none;stroke:#000000;stroke-width:0.46284732;stroke-linecap:butt;stroke-linejoin:miter;stroke-miterlimit:4;stroke-dasharray:none;stroke-opacity:1"
       d="M 93.401265,20.067583 C 134.0886,20.204579 134.0886,20.204579 134.0886,20.204579"
       id="path2086"
       inkscape:connector-curvature="0" />
    <path
       style="fill:none;stroke:#000000;stroke-width:0.46284732;stroke-linecap:butt;stroke-linejoin:miter;stroke-miterlimit:4;stroke-dasharray:none;stroke-opacity:1"
       d="m 155.32473,13.008526 c -36.45313,-0.0043 -36.71627,0.413762 -36.71627,0.413762"
       id="path2088"
       inkscape:connector-curvature="0" />
    <path
       style="fill:none;stroke:#000000;stroke-width:0.46284732;stroke-linecap:butt;stroke-linejoin:miter;stroke-miterlimit:4;stroke-dasharray:none;stroke-opacity:1"
       d="m 140.38051,18.217314 c 16.73298,-0.135303 16.73298,-0.135303 16.73298,-0.135303"
       id="path2090"
       inkscape:connector-curvature="0" />
    <path
       style="fill:none;stroke:#000000;stroke-width:0.46284732;stroke-linecap:butt;stroke-linejoin:miter;stroke-miterlimit:4;stroke-dasharray:none;stroke-opacity:1"
       d="M 116.14234,9.1080336 C 93.127275,9.65601 93.127275,9.3820223 93.127275,9.3820223"
       id="path2092"
       inkscape:connector-curvature="0" />
    <path
       style="fill:none;stroke:#000000;stroke-width:0.46284732;stroke-linecap:butt;stroke-linejoin:miter;stroke-miterlimit:4;stroke-dasharray:none;stroke-opacity:1"
       d="m 88.606461,28.013259 c 22.330089,0 22.330089,0 22.330089,0"
       id="path2094"
       inkscape:connector-curvature="0" />
  </g>
  <g
     inkscape:groupmode="layer"
     id="layer11"
     inkscape:label="Light"
     transform="translate(-39.817175,-5.9185835)">
    <path
       style="fill:url(#linearGradient4851);fill-opacity:1;stroke:none;stroke-width:0.21674633px;stroke-linecap:butt;stroke-linejoin:miter;stroke-opacity:1"
       d="M 87.901325,6.1895557 76.53079,43.45203 h 92.8822 L 159.82338,6.0525618 Z"
       id="path4843"
       inkscape:connector-curvature="0" />
  </g>
</svg>
