<?xml version="1.0" encoding="UTF-8" standalone="no"?>
<!-- Created with Inkscape (http://www.inkscape.org/) -->

<svg
   xmlns:dc="http://purl.org/dc/elements/1.1/"
   xmlns:cc="http://creativecommons.org/ns#"
   xmlns:rdf="http://www.w3.org/1999/02/22-rdf-syntax-ns#"
   xmlns:svg="http://www.w3.org/2000/svg"
   xmlns="http://www.w3.org/2000/svg"
   xmlns:sodipodi="http://sodipodi.sourceforge.net/DTD/sodipodi-0.dtd"
   xmlns:inkscape="http://www.inkscape.org/namespaces/inkscape"
   width="210mm"
   height="297mm"
   viewBox="0 0 210 297"
   version="1.1"
   id="svg8"
   inkscape:version="0.92.4 (5da689c313, 2019-01-14)"
   sodipodi:docname="Shield.svg">
  <defs
     id="defs2" />
  <sodipodi:namedview
     id="base"
     pagecolor="#ffffff"
     bordercolor="#666666"
     borderopacity="1.0"
     inkscape:pageopacity="0.0"
     inkscape:pageshadow="2"
     inkscape:zoom="0.35"
     inkscape:cx="-35.811948"
     inkscape:cy="299.06949"
     inkscape:document-units="mm"
     inkscape:current-layer="layer2"
     showgrid="false"
     inkscape:window-width="1920"
     inkscape:window-height="1057"
     inkscape:window-x="-8"
     inkscape:window-y="-8"
     inkscape:window-maximized="1"
     inkscape:snap-global="false" />
  <metadata
     id="metadata5">
    <rdf:RDF>
      <cc:Work
         rdf:about="">
        <dc:format>image/svg+xml</dc:format>
        <dc:type
           rdf:resource="http://purl.org/dc/dcmitype/StillImage" />
        <dc:title></dc:title>
      </cc:Work>
    </rdf:RDF>
  </metadata>
  <g
     inkscape:groupmode="layer"
     id="layer2"
     inkscape:label="Keyboard">
    <path
       style="fill:#6f6c7f;fill-opacity:1;stroke:#000000;stroke-width:1.05999994;stroke-linecap:butt;stroke-linejoin:miter;stroke-miterlimit:4;stroke-dasharray:none;stroke-opacity:1"
       d="M 19.212035,82.724476 C 64.378038,126.01524 103.30511,158.25594 146.60833,195.2544 c 9.2549,-11.07339 22.54149,-26.27293 31.7964,-37.34633 C 139.36116,123.56173 92.254212,82.463534 53.210635,48.1172 c -10.9313,10.325524 -24.81499,25.277384 -33.9986,34.607276 z"
       id="path4538"
       inkscape:connector-curvature="0"
       sodipodi:nodetypes="ccccc" />
    <path
       style="fill:#474551;fill-opacity:1;stroke:#000000;stroke-width:0.96499997;stroke-linecap:butt;stroke-linejoin:miter;stroke-miterlimit:4;stroke-dasharray:none;stroke-opacity:1"
       d="m 48.899773,161.95879 c -2.186095,0.25266 -4.209934,1.2515 -6.004455,2.48478 -3.05319,2.08877 -5.629653,4.87106 -7.476135,8.07651 -1.013042,1.82971 -1.692608,3.90196 -1.623419,6.01185 0.09194,2.28308 1.209026,4.45428 2.85772,6.00916 1.686188,1.60735 3.977267,2.62998 6.325081,2.6027 2.122675,-0.0239 4.174813,-0.80025 5.958317,-1.91572 1.931061,-1.18029 3.76705,-2.57404 5.186896,-4.35267 1.198401,-1.53406 2.247249,-3.1971 2.999838,-4.99657 0.668699,-1.5814 1.130457,-3.26381 1.250767,-4.98059 0.08849,-1.3047 -0.06867,-2.62842 -0.509951,-3.86187 -0.449037,-1.32692 -1.148617,-2.5638 -2.021299,-3.65766 -0.706067,-0.61013 -1.671569,-0.70151 -2.549552,-0.87969 -1.452727,-0.25533 -2.910815,-0.56964 -4.393808,-0.54023 z"
       id="path4551"
       inkscape:connector-curvature="0" />
    <path
       style="fill:#6f6c7f;fill-opacity:1;stroke:#000000;stroke-width:0.76499999;stroke-linecap:butt;stroke-linejoin:miter;stroke-miterlimit:4;stroke-dasharray:none;stroke-opacity:1"
       d="m 51.075555,161.38847 c -0.604554,0.0387 -1.218537,0.0242 -1.813001,0.15288 -1.098809,0.26046 -2.216649,0.51783 -3.222905,1.0473 -1.637186,0.93667 -3.179911,2.02499 -4.725813,3.10256 -0.295288,0.26319 -0.203576,0.761 0.07813,0.99804 0.80437,0.82385 1.657939,1.59751 2.487565,2.39554 3.021952,2.86552 6.063046,5.71367 8.960422,8.70655 0.518442,0.53854 1.043943,1.0702 1.557872,1.61276 0.155133,0.21169 0.437909,0.13515 0.623047,0.01 0.255223,-0.17703 0.376235,-0.47579 0.56858,-0.71029 0.821167,-1.14276 1.626199,-2.32495 2.089447,-3.66505 0.440256,-1.11121 0.802751,-2.26305 0.937222,-3.45486 0.135672,-1.06823 0.362188,-2.14531 0.220683,-3.22551 -0.0901,-0.86369 -0.284445,-1.71571 -0.549277,-2.54171 -0.335894,-0.85969 -0.88009,-1.62154 -1.482931,-2.31327 -0.43269,-0.46226 -0.910093,-0.89137 -1.450232,-1.22381 -0.749261,-0.37658 -1.571413,-0.57884 -2.388986,-0.74471 -0.623002,-0.11012 -1.257364,-0.15732 -1.889818,-0.14618 z"
       id="path4553"
       inkscape:connector-curvature="0" />
    <path
       style="fill:none;stroke:#000000;stroke-width:0.76499999;stroke-linecap:butt;stroke-linejoin:miter;stroke-miterlimit:4;stroke-dasharray:none;stroke-opacity:1"
       d="m 56.624949,163.2604 -1.392978,1.35815 -3.129479,3.05124"
       id="path4555"
       inkscape:connector-curvature="0"
       sodipodi:nodetypes="ccc" />
    <path
       style="fill:none;stroke:#000000;stroke-width:1.26624513;stroke-linecap:butt;stroke-linejoin:miter;stroke-miterlimit:4;stroke-dasharray:none;stroke-opacity:1"
       d="m 56.497913,163.10167 c 0.865112,-0.24922 -0.234069,-1.85772 1.367815,-4.28382 1.09915,-2.04245 4.528223,2.12585 4.951714,-2.5034"
       id="path4557"
       inkscape:connector-curvature="0"
       sodipodi:nodetypes="ccc" />
    <path
       style="fill:none;stroke:#000000;stroke-width:0.66500002;stroke-linecap:butt;stroke-linejoin:miter;stroke-miterlimit:4;stroke-dasharray:none;stroke-opacity:1"
       d="m 123.31521,80.648923 c 7.35523,0.440494 9.11196,-11.367273 10.27252,-15.087215 1.08983,-3.493232 7.96874,-3.585029 9.1247,-3.417526 4.42444,0.641121 7.0302,-1.138471 6.64939,-7.39866 -0.25157,-4.135488 4.08492,-3.351318 7.68559,-6.266956 2.02882,-1.642834 3.17909,-6.911059 4.72639,-8.880352"
       id="path4561"
       inkscape:connector-curvature="0"
       sodipodi:nodetypes="cssssc" />
    <path
       style="fill:none;stroke:#000000;stroke-width:0.66500002;stroke-linecap:butt;stroke-linejoin:miter;stroke-miterlimit:4;stroke-dasharray:none;stroke-opacity:1"
       d="m 127.76027,82.722247 c -0.42147,-4.537006 -0.79589,-8.039017 0.91809,-11.078172 2.18144,-3.868041 6.53769,-1.422204 9.50268,-1.716633 4.44676,-0.441573 6.65222,-2.839361 6.27141,-9.099553 -0.25156,-4.135488 4.08492,-3.351318 7.68559,-6.266956 2.02882,-1.642834 3.17909,-6.911059 4.72639,-8.880352"
       id="path4561-4"
       inkscape:connector-curvature="0"
       sodipodi:nodetypes="cssssc" />
    <rect
       style="fill:#6f6c7f;fill-opacity:1;stroke-width:0.66500002;stroke-miterlimit:4;stroke-dasharray:none"
       id="rect4578"
       width="1.7008928"
       height="2.8348215"
       x="162.09904"
       y="4.0192456"
       transform="rotate(14.036243)"
       inkscape:transform-center-x="0.56696429"
       inkscape:transform-center-y="-0.75595238" />
    <rect
       style="fill:#6f6c7f;fill-opacity:1;stroke-width:0.66500002;stroke-miterlimit:4;stroke-dasharray:none"
       id="rect4578-6"
       width="1.7008928"
       height="2.8348215"
       x="164.97044"
       y="-14.639159"
       transform="rotate(18.300137)"
       inkscape:transform-center-x="1.3217087"
       inkscape:transform-center-y="5.0182994" />
    <path
       style="fill:none;stroke:#000000;stroke-width:0.66500002;stroke-linecap:butt;stroke-linejoin:miter;stroke-miterlimit:4;stroke-dasharray:none;stroke-opacity:1"
       d="M 23.519725,77.838987 C 33.943235,86.391611 151.27455,190.09219 151.27455,190.09219"
       id="path4924"
       inkscape:connector-curvature="0" />
    <path
       style="fill:none;stroke:#000000;stroke-width:0.66500002;stroke-linecap:butt;stroke-linejoin:miter;stroke-miterlimit:4;stroke-dasharray:none;stroke-opacity:1"
       d="M 29.127735,71.695742 C 39.551245,80.248366 156.88257,183.94894 156.88257,183.94894"
       id="path4924-3"
       inkscape:connector-curvature="0" />
    <path
       style="fill:none;stroke:#000000;stroke-width:0.65838122;stroke-linecap:butt;stroke-linejoin:miter;stroke-miterlimit:4;stroke-dasharray:none;stroke-opacity:1"
       d="M 35.540115,65.011456 C 45.854945,73.483009 161.96287,176.2006 161.96287,176.2006"
       id="path4924-0"
       inkscape:connector-curvature="0" />
    <path
       style="fill:none;stroke:#000000;stroke-width:0.65838122;stroke-linecap:butt;stroke-linejoin:miter;stroke-miterlimit:4;stroke-dasharray:none;stroke-opacity:1"
       d="M 41.420045,59.933336 C 51.734875,68.404889 167.8428,171.12248 167.8428,171.12248"
       id="path4924-2"
       inkscape:connector-curvature="0" />
    <path
       style="fill:none;stroke:#000000;stroke-width:0.65235865;stroke-linecap:butt;stroke-linejoin:miter;stroke-miterlimit:4;stroke-dasharray:none;stroke-opacity:1"
       d="M 47.565275,54.318281 C 57.815005,62.688374 173.19023,164.17578 173.19023,164.17578"
       id="path4924-5"
       inkscape:connector-curvature="0" />
    <path
       style="fill:none;stroke:#000000;stroke-width:0.565;stroke-linecap:butt;stroke-linejoin:miter;stroke-miterlimit:4;stroke-dasharray:none;stroke-opacity:1"
       d="m 24.588795,88.529769 c 0.80181,-0.80181 34.47777,-35.546848 34.47777,-35.546848"
       id="path4959"
       inkscape:connector-curvature="0" />
    <path
       style="fill:none;stroke:#000000;stroke-width:0.56500006;stroke-linecap:butt;stroke-linejoin:miter;stroke-miterlimit:4;stroke-dasharray:none;stroke-opacity:1"
       d="M 31.398435,94.051532 C 32.200245,93.24972 65.876352,58.504683 65.876352,58.504683"
       id="path4959-1"
       inkscape:connector-curvature="0" />
    <path
       style="fill:none;stroke:#000000;stroke-width:0.56500006;stroke-linecap:butt;stroke-linejoin:miter;stroke-miterlimit:4;stroke-dasharray:none;stroke-opacity:1"
       d="M 37.325505,99.930128 C 38.127315,99.128316 71.803297,64.383279 71.803297,64.383279"
       id="path4959-5"
       inkscape:connector-curvature="0" />
    <path
       style="fill:none;stroke:#000000;stroke-width:0.56500006;stroke-linecap:butt;stroke-linejoin:miter;stroke-miterlimit:4;stroke-dasharray:none;stroke-opacity:1"
       d="M 43.707755,104.97602 C 44.509565,104.1742 78.185533,69.429167 78.185533,69.429167"
       id="path4959-7"
       inkscape:connector-curvature="0" />
    <path
       style="fill:none;stroke:#000000;stroke-width:0.56500006;stroke-linecap:butt;stroke-linejoin:miter;stroke-miterlimit:4;stroke-dasharray:none;stroke-opacity:1"
       d="m 50.351915,110.51347 c 0.80181,-0.80181 34.477752,-35.546851 34.477752,-35.546851"
       id="path4959-6"
       inkscape:connector-curvature="0" />
    <path
       style="fill:none;stroke:#000000;stroke-width:0.56500006;stroke-linecap:butt;stroke-linejoin:miter;stroke-miterlimit:4;stroke-dasharray:none;stroke-opacity:1"
       d="M 56.467975,117.2205 C 57.269785,116.41869 90.94574,81.673654 90.94574,81.673654"
       id="path4959-71"
       inkscape:connector-curvature="0" />
    <path
       style="fill:none;stroke:#000000;stroke-width:0.56500006;stroke-linecap:butt;stroke-linejoin:miter;stroke-miterlimit:4;stroke-dasharray:none;stroke-opacity:1"
       d="M 63.27761,122.74226 C 64.07942,121.94045 97.755528,87.195414 97.755528,87.195414"
       id="path4959-1-4"
       inkscape:connector-curvature="0" />
    <path
       style="fill:none;stroke:#000000;stroke-width:0.56500006;stroke-linecap:butt;stroke-linejoin:miter;stroke-miterlimit:4;stroke-dasharray:none;stroke-opacity:1"
       d="m 69.204681,128.62086 c 0.80181,-0.80181 34.477789,-35.546846 34.477789,-35.546846"
       id="path4959-5-2"
       inkscape:connector-curvature="0" />
    <path
       style="fill:none;stroke:#000000;stroke-width:0.56500006;stroke-linecap:butt;stroke-linejoin:miter;stroke-miterlimit:4;stroke-dasharray:none;stroke-opacity:1"
       d="m 75.586931,133.66675 c 0.80181,-0.80182 34.477779,-35.546846 34.477779,-35.546846"
       id="path4959-7-4"
       inkscape:connector-curvature="0" />
    <path
       style="fill:none;stroke:#000000;stroke-width:0.56500006;stroke-linecap:butt;stroke-linejoin:miter;stroke-miterlimit:4;stroke-dasharray:none;stroke-opacity:1"
       d="m 82.231091,139.20421 c 0.801811,-0.80181 34.477749,-35.54686 34.477749,-35.54686"
       id="path4959-6-3"
       inkscape:connector-curvature="0" />
    <path
       style="fill:none;stroke:#000000;stroke-width:0.56500006;stroke-linecap:butt;stroke-linejoin:miter;stroke-miterlimit:4;stroke-dasharray:none;stroke-opacity:1"
       d="m 88.545686,144.75464 c 0.80181,-0.80181 34.477774,-35.54686 34.477774,-35.54686"
       id="path4959-0"
       inkscape:connector-curvature="0" />
    <path
       style="fill:none;stroke:#000000;stroke-width:0.56500006;stroke-linecap:butt;stroke-linejoin:miter;stroke-miterlimit:4;stroke-dasharray:none;stroke-opacity:1"
       d="m 95.355326,150.2764 c 0.80181,-0.80181 34.477914,-35.54685 34.477914,-35.54685"
       id="path4959-1-9"
       inkscape:connector-curvature="0" />
    <path
       style="fill:none;stroke:#000000;stroke-width:0.56500006;stroke-linecap:butt;stroke-linejoin:miter;stroke-miterlimit:4;stroke-dasharray:none;stroke-opacity:1"
       d="m 101.2824,156.155 c 0.80181,-0.80182 34.47779,-35.54686 34.47779,-35.54686"
       id="path4959-5-3"
       inkscape:connector-curvature="0" />
    <path
       style="fill:none;stroke:#000000;stroke-width:0.56500006;stroke-linecap:butt;stroke-linejoin:miter;stroke-miterlimit:4;stroke-dasharray:none;stroke-opacity:1"
       d="m 107.66465,161.20088 c 0.80181,-0.80181 34.47777,-35.54685 34.47777,-35.54685"
       id="path4959-7-7"
       inkscape:connector-curvature="0" />
    <path
       style="fill:none;stroke:#000000;stroke-width:0.56500006;stroke-linecap:butt;stroke-linejoin:miter;stroke-miterlimit:4;stroke-dasharray:none;stroke-opacity:1"
       d="m 114.30881,166.73834 c 0.80181,-0.80181 34.47775,-35.54686 34.47775,-35.54686"
       id="path4959-6-1"
       inkscape:connector-curvature="0" />
    <path
       style="fill:none;stroke:#000000;stroke-width:0.56500006;stroke-linecap:butt;stroke-linejoin:miter;stroke-miterlimit:4;stroke-dasharray:none;stroke-opacity:1"
       d="m 120.15674,172.31894 c 0.77438,-0.82833 33.26208,-36.68691 33.26208,-36.68691"
       id="path4959-68"
       inkscape:connector-curvature="0" />
    <path
       style="fill:none;stroke:#000000;stroke-width:0.56500006;stroke-linecap:butt;stroke-linejoin:miter;stroke-miterlimit:4;stroke-dasharray:none;stroke-opacity:1"
       d="m 127.13127,177.98889 c 0.76693,-0.83524 32.93243,-36.98325 32.93243,-36.98325"
       id="path4959-1-8"
       inkscape:connector-curvature="0" />
    <path
       style="fill:none;stroke:#000000;stroke-width:0.56500006;stroke-linecap:butt;stroke-linejoin:miter;stroke-miterlimit:4;stroke-dasharray:none;stroke-opacity:1"
       d="m 133.36591,184.13689 c 0.75303,-0.84778 32.31711,-37.522 32.31711,-37.522"
       id="path4959-5-5"
       inkscape:connector-curvature="0" />
    <path
       style="fill:none;stroke:#000000;stroke-width:0.56500006;stroke-linecap:butt;stroke-linejoin:miter;stroke-miterlimit:4;stroke-dasharray:none;stroke-opacity:1"
       d="m 139.79067,189.21931 c 0.75111,-0.8495 32.23208,-37.59506 32.23208,-37.59506"
       id="path4959-7-73"
       inkscape:connector-curvature="0" />
  </g>
  <g
     inkscape:label="Layer 1"
     inkscape:groupmode="layer"
     id="layer1">
    <path
       style="fill:#808080;stroke:#000000;stroke-width:1.6263293;stroke-linecap:butt;stroke-linejoin:miter;stroke-miterlimit:4;stroke-dasharray:none;stroke-opacity:1"
       d="m 97.025862,67.02008 c -2.010211,0.684042 -3.486846,2.179487 -5.28067,3.197621 -6.422978,4.15551 -13.215573,7.920357 -20.576973,10.509151 -8.170012,2.980427 -16.798446,4.864217 -25.533581,5.74743 -0.556257,0.112615 -0.660377,0.723836 -0.61297,1.162687 -0.403742,6.03583 -0.41249,12.092339 -0.08932,18.131511 0.359117,6.22743 1.160672,12.43188 2.376368,18.56738 0.791962,4.27769 1.924496,8.50717 3.500312,12.60085 1.741439,4.76125 3.950522,9.38568 6.711326,13.72669 2.093921,3.35916 4.357147,6.632 6.811792,9.77972 2.554333,3.19047 5.49428,6.11894 8.745045,8.72322 5.348076,4.44129 11.163114,8.48249 17.631204,11.45815 2.147859,0.97526 4.366918,1.85372 6.685764,2.42016 1.442577,0.10128 2.720581,-0.63154 3.959211,-1.19929 6.89831,-3.25745 13.16281,-7.57025 18.77106,-12.46921 4.98349,-4.43918 9.2029,-9.54689 12.97612,-14.88118 2.25589,-3.20005 4.28521,-6.54123 5.91576,-10.04878 4.65731,-9.7713 7.4928,-20.21281 9.00864,-30.76692 1.21722,-8.30795 1.71936,-16.690432 1.87914,-25.067381 -0.33931,-0.604933 -1.16214,-0.630211 -1.80346,-0.734686 -8.028,-1.389726 -16.05327,-3.06575 -23.63103,-5.920109 -7.49085,-2.792971 -14.33883,-6.821341 -20.87785,-11.140019 -2.05616,-1.284613 -3.894452,-2.920171 -6.242193,-3.766432 -0.10711,-0.01626 -0.214339,-0.03942 -0.323684,-0.03056 z"
       id="path3715"
       inkscape:connector-curvature="0"
       sodipodi:nodetypes="cccscccccccccccccc" />
    <path
       style="fill:#784421;stroke:#000000;stroke-width:0.67111707;stroke-linecap:butt;stroke-linejoin:miter;stroke-miterlimit:4;stroke-dasharray:none;stroke-opacity:1"
       d="m 96.658257,75.296555 c -5.635324,3.058728 -11.02282,6.597283 -16.923003,9.150012 -7.443635,3.314008 -15.392116,5.394827 -23.43722,6.612685 -1.207516,0.211798 -2.445157,0.334292 -3.608696,0.732393 -0.533688,0.250909 -0.694832,0.870954 -0.703128,1.411521 -0.05173,1.004791 -0.01349,2.011856 -0.05468,3.017242 -0.112366,9.369782 0.266169,18.813302 2.269957,27.996582 1.608051,7.59632 4.381045,14.9522 8.264744,21.68271 2.456007,4.51939 5.203657,8.97697 8.969605,12.53793 5.115136,5.07228 10.840724,9.49358 16.792611,13.53975 2.778832,1.80099 5.657257,3.56225 8.865832,4.48029 1.474845,0.1757 2.801113,-0.64827 4.019451,-1.3599 4.51445,-2.38937 8.68113,-5.37675 12.64089,-8.58745 3.80352,-2.96396 7.39432,-6.23793 10.40499,-10.01476 3.43437,-4.20164 6.42674,-8.78345 8.72395,-13.70268 3.48372,-7.58518 5.43869,-15.75956 6.89241,-23.94499 1.43849,-8.24186 2.19058,-16.60142 2.31952,-24.964255 -0.10347,-0.758627 -0.94359,-1.052979 -1.59961,-1.169556 -1.60243,-0.265717 -3.18594,-0.635646 -4.77828,-0.956631 -7.42817,-1.568851 -14.85291,-3.514242 -21.68802,-6.886091 -5.86997,-2.876587 -11.27265,-6.601492 -17.106791,-9.542905 -0.08581,-0.02686 -0.174508,-0.04221 -0.26453,-0.0319 z"
       id="path3715-4"
       inkscape:connector-curvature="0"
       sodipodi:nodetypes="cccsccccccccccccccccccccc" />
    <text
       xml:space="preserve"
       style="font-style:normal;font-variant:normal;font-weight:bold;font-stretch:normal;font-size:23.98491478px;line-height:1.25;font-family:sans-serif;-inkscape-font-specification:'sans-serif Bold';letter-spacing:0px;word-spacing:0px;fill:#000000;fill-opacity:1;stroke:none;stroke-width:0.59962285"
       x="53.615223"
       y="117.44254"
       id="text4601"
       transform="matrix(1.0226808,0.01152585,0.00315126,0.97785771,0,0)"><tspan
         sodipodi:role="line"
         id="tspan4599"
         x="53.615223"
         y="117.44254"
         style="font-style:normal;font-variant:normal;font-weight:bold;font-stretch:normal;font-family:sans-serif;-inkscape-font-specification:'sans-serif Bold';stroke-width:0.59962285">Code</tspan></text>
    <text
       xml:space="preserve"
       style="font-style:normal;font-variant:normal;font-weight:bold;font-stretch:normal;font-size:21.98726845px;line-height:1.25;font-family:sans-serif;-inkscape-font-specification:'sans-serif Bold';letter-spacing:0px;word-spacing:0px;fill:#000000;fill-opacity:1;stroke:none;stroke-width:0.54968166"
       x="76.486542"
       y="129.73486"
       id="text4605"
       transform="matrix(0.9677702,0.00595097,-0.02737805,1.0331348,0,0)"><tspan
         sodipodi:role="line"
         id="tspan4603"
         x="76.486542"
         y="129.73486"
         style="font-style:normal;font-variant:normal;font-weight:bold;font-stretch:normal;font-family:sans-serif;-inkscape-font-specification:'sans-serif Bold';stroke-width:0.54968166">Front</tspan></text>
    <ellipse
       style="fill:#c8beb7;fill-opacity:1;stroke-width:0.53689975;stroke-miterlimit:4;stroke-dasharray:none"
       id="path4883"
       cx="54.345867"
       cy="88.937355"
       rx="1.7612656"
       ry="1.6606158" />
    <ellipse
       style="fill:#c8beb7;fill-opacity:1;stroke-width:0.53689981;stroke-miterlimit:4;stroke-dasharray:none"
       id="path4883-4"
       cx="140.16525"
       cy="90.089096"
       rx="1.7612656"
       ry="1.6606158" />
    <ellipse
       style="fill:#c8beb7;fill-opacity:1;stroke-width:0.53689981;stroke-miterlimit:4;stroke-dasharray:none"
       id="path4883-2"
       cx="122.44517"
       cy="84.651337"
       rx="1.7612656"
       ry="1.6606158" />
    <ellipse
       style="fill:#c8beb7;fill-opacity:1;stroke-width:0.53689981;stroke-miterlimit:4;stroke-dasharray:none"
       id="path4883-1"
       cx="105.30112"
       cy="76.574997"
       rx="1.7612656"
       ry="1.6606158" />
    <ellipse
       style="fill:#c8beb7;fill-opacity:1;stroke-width:0.53689981;stroke-miterlimit:4;stroke-dasharray:none"
       id="path4883-29"
       cx="88.538719"
       cy="75.959953"
       rx="1.7612656"
       ry="1.6606158" />
    <ellipse
       style="fill:#c8beb7;fill-opacity:1;stroke-width:0.53689981;stroke-miterlimit:4;stroke-dasharray:none"
       id="path4883-5"
       cx="74.205658"
       cy="83.340454"
       rx="1.7612656"
       ry="1.6606158" />
  </g>
</svg>
